<svg version="1.1" width="442.144" height="207.407" xmlns="http://www.w3.org/2000/svg" xmlns:xlink="http://www.w3.org/1999/xlink" id="svg11145" overflow="hidden"><defs id="defs11149"><clipPath id="clipPath8312"><path d=" M 1336.27 7978.7 C 1334.68 7978.63 1333.36 7978.27 1332.32 7977.65 L 1332.32 7977.65 C 1331.27 7977.03 1331.02 7976.48 1331.56 7976.02 L 1331.56 7976.02 C 1332.03 7975.55 1331.91 7974.11 1331.21 7971.69 L 1331.21 7971.69 C 1330.51 7969.27 1329.43 7966.23 1327.95 7962.57 L 1327.95 7962.57 C 1326.48 7958.91 1324.76 7954.76 1322.78 7950.13 L 1322.78 7950.13 C 1320.8 7945.49 1318.74 7940.72 1316.61 7935.81 L 1316.61 7935.81 C 1314.48 7930.9 1312.4 7926.03 1310.39 7921.2 L 1310.39 7921.2 C 1309.88 7919.98 1309.39 7918.78 1308.91 7917.61 L 1308.91 7917.61 C 1308.4 7916.56 1307.83 7915.48 1307.19 7914.36 L 1307.19 7914.36 C 1305.83 7911.98 1304.28 7909.59 1302.53 7907.17 L 1302.53 7907.17 C 1300.79 7904.76 1298.93 7902.46 1296.95 7900.28 L 1296.95 7900.28 C 1294.97 7898.1 1292.96 7896.19 1290.9 7894.55 L 1290.9 7894.55 C 1288.84 7892.92 1286.83 7891.69 1284.85 7890.87 L 1284.85 7890.87 C 1282.87 7890.05 1281.03 7889.8 1279.32 7890.11 L 1279.32 7890.11 C 1277.85 7890.42 1276.84 7891.46 1276.3 7893.21 L 1276.3 7893.21 C 1275.76 7894.96 1275.54 7897.05 1275.66 7899.46 L 1275.66 7899.46 C 1275.78 7901.88 1276.16 7904.45 1276.82 7907.17 L 1276.82 7907.17 C 1277.48 7909.9 1278.32 7912.4 1279.32 7914.65 L 1279.32 7914.65 C 1280.95 7918.24 1282.58 7921.49 1284.21 7924.41 L 1284.21 7924.41 C 1285.84 7927.33 1287.41 7929.79 1288.92 7931.78 L 1288.92 7931.78 C 1290.43 7933.76 1291.85 7935.28 1293.17 7936.34 L 1293.17 7936.34 C 1294.49 7937.39 1295.69 7937.88 1296.78 7937.8 L 1296.78 7937.8 C 1297.63 7937.8 1298.25 7937.33 1298.64 7936.39 L 1298.64 7936.39 C 1298.09 7936 1297.65 7935.54 1297.3 7934.99 L 1297.3 7934.99 C 1296.95 7934.45 1296.78 7933.86 1296.78 7933.24 L 1296.78 7933.24 C 1296.78 7932.23 1297.14 7931.41 1297.88 7930.78 L 1297.88 7930.78 C 1298.62 7930.16 1299.45 7929.85 1300.38 7929.85 L 1300.38 7929.85 C 1301.47 7929.85 1302.32 7930.24 1302.94 7931.02 L 1302.94 7931.02 C 1303.64 7931.72 1303.99 7932.85 1303.99 7934.41 L 1303.99 7934.41 C 1303.99 7935.96 1303.68 7937.27 1303.06 7938.32 L 1303.06 7938.32 C 1302.44 7939.37 1301.68 7940.21 1300.79 7940.84 L 1300.79 7940.84 C 1299.9 7941.46 1298.93 7941.91 1297.88 7942.18 L 1297.88 7942.18 C 1296.83 7942.45 1295.84 7942.63 1294.91 7942.71 L 1294.91 7942.71 C 1292.12 7942.78 1289.37 7942.36 1286.65 7941.42 L 1286.65 7941.42 C 1283.94 7940.48 1281.3 7938.94 1278.74 7936.8 L 1278.74 7936.8 C 1276.18 7934.66 1273.76 7931.9 1271.47 7928.5 L 1271.47 7928.5 C 1270.14 7926.53 1268.89 7924.3 1267.7 7921.87 L 1267.7 7921.87 C 1267.41 7921.66 1267.15 7921.39 1266.99 7920.97 L 1266.99 7920.97 C 1266.53 7919.64 1265.75 7917.97 1264.67 7915.94 L 1264.67 7915.94 C 1263.58 7913.92 1262.34 7911.77 1260.94 7909.51 L 1260.94 7909.51 C 1259.55 7907.25 1258.07 7904.99 1256.52 7902.73 L 1256.52 7902.73 C 1254.97 7900.47 1253.46 7898.43 1251.99 7896.6 L 1251.99 7896.6 C 1250.51 7894.77 1249.18 7893.27 1247.97 7892.1 L 1247.97 7892.1 C 1246.77 7890.93 1245.78 7890.31 1245 7890.23 L 1245 7890.23 C 1243.22 7890.07 1242.43 7890.79 1242.62 7892.39 L 1242.62 7892.39 C 1242.81 7893.99 1243.55 7896.13 1244.83 7898.82 L 1244.83 7898.82 C 1246.11 7901.5 1247.7 7904.56 1249.6 7907.99 L 1249.6 7907.99 C 1251.5 7911.42 1253.28 7914.89 1254.95 7918.4 L 1254.95 7918.4 C 1256.62 7921.9 1257.92 7925.27 1258.85 7928.5 L 1258.85 7928.5 C 1259.78 7931.74 1259.9 7934.48 1259.2 7936.75 L 1259.2 7936.75 C 1258.5 7939.08 1257.31 7940.64 1255.65 7941.42 L 1255.65 7941.42 C 1253.98 7942.2 1252.37 7942.55 1250.82 7942.47 L 1250.82 7942.47 C 1249.27 7942.4 1247.97 7942.04 1246.92 7941.42 L 1246.92 7941.42 C 1245.88 7940.79 1245.62 7940.25 1246.17 7939.78 L 1246.17 7939.78 C 1246.71 7939.24 1246.81 7938.22 1246.46 7936.75 L 1246.46 7936.75 C 1246.11 7935.26 1245.49 7933.43 1244.6 7931.25 L 1244.6 7931.25 C 1243.71 7929.07 1242.66 7926.63 1241.45 7923.95 L 1241.45 7923.95 C 1240.49 7921.8 1239.55 7919.57 1238.61 7917.3 L 1238.61 7917.3 C 1238.39 7916.86 1238.16 7916.41 1237.91 7915.94 L 1237.91 7915.94 C 1236.82 7913.92 1235.58 7911.77 1234.19 7909.51 L 1234.19 7909.51 C 1232.79 7907.25 1231.31 7904.99 1229.76 7902.73 L 1229.76 7902.73 C 1228.21 7900.47 1226.7 7898.43 1225.22 7896.6 L 1225.22 7896.6 C 1223.75 7894.77 1222.42 7893.27 1221.21 7892.1 L 1221.21 7892.1 C 1220.01 7890.93 1219.02 7890.31 1218.25 7890.23 L 1218.25 7890.23 C 1216.93 7890.07 1216.36 7890.97 1216.56 7892.92 L 1216.56 7892.92 C 1216.75 7894.86 1217.49 7897.49 1218.77 7900.81 L 1218.77 7900.81 C 1220.05 7904.12 1221.72 7907.97 1223.77 7912.38 L 1223.77 7912.38 C 1225.82 7916.78 1228 7921.36 1230.29 7926.11 L 1230.29 7926.11 C 1232.57 7930.86 1234.84 7935.67 1237.09 7940.54 L 1237.09 7940.54 C 1239.34 7945.41 1241.3 7949.95 1242.97 7954.16 L 1242.97 7954.16 C 1244.64 7958.37 1245.9 7962.12 1246.75 7965.44 L 1246.75 7965.44 C 1247.6 7968.75 1247.76 7971.26 1247.22 7972.98 L 1247.22 7972.98 C 1246.52 7975.31 1245.33 7976.87 1243.67 7977.65 L 1243.67 7977.65 C 1242 7978.43 1240.39 7978.78 1238.84 7978.7 L 1238.84 7978.7 C 1237.29 7978.63 1235.99 7978.27 1234.94 7977.65 L 1234.94 7977.65 C 1233.9 7977.03 1233.64 7976.48 1234.19 7976.02 L 1234.19 7976.02 C 1234.72 7975.47 1234.46 7973.56 1233.37 7970.29 L 1233.37 7970.29 C 1232.29 7967.02 1230.75 7962.94 1228.78 7958.08 L 1228.78 7958.08 C 1226.8 7953.21 1224.56 7947.87 1222.09 7942.06 L 1222.09 7942.06 C 1219.6 7936.26 1217.24 7930.57 1214.99 7925 L 1214.99 7925 C 1214.01 7922.57 1213.1 7920.25 1212.24 7917.98 L 1212.24 7917.98 C 1209.71 7913.13 1207.09 7908.45 1204.34 7903.96 L 1204.34 7903.96 C 1201.36 7899.09 1198.29 7894.53 1195.15 7890.29 L 1195.15 7890.29 C 1192.01 7886.04 1188.83 7882.17 1185.61 7878.66 L 1185.61 7878.66 C 1182.39 7875.15 1179.23 7872.11 1176.13 7869.54 L 1176.13 7869.54 C 1172.02 7866.19 1168.16 7863.89 1164.56 7862.65 L 1164.56 7862.65 C 1160.95 7861.4 1157.67 7861.03 1154.72 7861.54 L 1154.72 7861.54 C 1151.78 7862.04 1149.21 7863.37 1147.05 7865.51 L 1147.05 7865.51 C 1144.87 7867.65 1143.23 7870.42 1142.1 7873.81 L 1142.1 7873.81 C 1140.98 7877.2 1140.41 7881.11 1140.41 7885.55 L 1140.41 7885.55 C 1140.41 7889.99 1141.11 7894.79 1142.51 7899.93 L 1142.51 7899.93 C 1143.21 7902.58 1144.16 7905.62 1145.36 7909.04 L 1145.36 7909.04 C 1146.56 7912.47 1147.95 7916.04 1149.55 7919.74 L 1149.55 7919.74 C 1151.14 7923.44 1152.94 7927.18 1154.95 7930.96 L 1154.95 7930.96 C 1156.97 7934.74 1159.15 7938.27 1161.47 7941.54 L 1161.47 7941.54 C 1164.57 7945.9 1167.68 7949.72 1170.78 7952.99 L 1170.78 7952.99 C 1173.88 7956.26 1176.77 7958.85 1179.45 7960.76 L 1179.45 7960.76 C 1182.12 7962.67 1184.43 7963.8 1186.37 7964.15 L 1186.37 7964.15 C 1188.31 7964.5 1189.7 7963.94 1190.56 7962.46 L 1190.56 7962.46 C 1191.49 7960.66 1191.91 7958.39 1191.84 7955.62 L 1191.84 7955.62 C 1191.76 7952.85 1191.26 7949.99 1190.33 7947.03 L 1190.33 7947.03 C 1189.39 7944.07 1188.09 7941.22 1186.43 7938.5 L 1186.43 7938.5 C 1184.76 7935.77 1182.84 7933.55 1180.67 7931.84 L 1180.67 7931.84 C 1179.51 7930.9 1179.27 7929.83 1179.97 7928.62 L 1179.97 7928.62 C 1180.67 7927.41 1181.77 7926.36 1183.29 7925.47 L 1183.29 7925.47 C 1184.8 7924.57 1186.45 7923.99 1188.23 7923.71 L 1188.23 7923.71 C 1190.01 7923.44 1191.45 7923.77 1192.53 7924.71 L 1192.53 7924.71 C 1195.95 7927.75 1198.41 7931.35 1199.92 7935.52 L 1199.92 7935.52 C 1201.43 7939.69 1202.19 7943.82 1202.19 7947.9 L 1202.19 7947.9 C 1202.19 7952 1201.53 7955.81 1200.21 7959.36 L 1200.21 7959.36 C 1198.89 7962.9 1197.15 7965.61 1194.98 7967.48 L 1194.98 7967.48 C 1192.19 7969.9 1189.16 7971.34 1185.9 7971.81 L 1185.9 7971.81 C 1182.65 7972.28 1179.45 7972.16 1176.31 7971.46 L 1176.31 7971.46 C 1173.16 7970.76 1170.26 7969.7 1167.58 7968.3 L 1167.58 7968.3 C 1164.91 7966.9 1162.75 7965.5 1161.12 7964.09 L 1161.12 7964.09 C 1156.16 7959.89 1151.74 7955.5 1147.86 7950.95 L 1147.86 7950.95 C 1143.98 7946.39 1140.51 7941.56 1137.45 7936.45 L 1137.45 7936.45 C 1134.38 7931.35 1131.69 7925.85 1129.36 7919.97 L 1129.36 7919.97 C 1127.04 7914.09 1124.9 7907.72 1122.96 7900.87 L 1122.96 7900.87 C 1121.88 7896.89 1121.2 7892.76 1120.93 7888.48 L 1120.93 7888.48 C 1120.66 7884.19 1120.95 7880.08 1121.8 7876.15 L 1121.8 7876.15 C 1122.65 7872.21 1124.13 7868.57 1126.22 7865.21 L 1126.22 7865.21 C 1128.31 7861.87 1131.14 7859.14 1134.71 7857.04 L 1134.71 7857.04 C 1136.73 7855.71 1138.94 7854.74 1141.34 7854.11 L 1141.34 7854.11 C 1143.75 7853.49 1146.19 7853.18 1148.68 7853.18 L 1148.68 7853.18 C 1150.77 7853.18 1152.92 7853.37 1155.13 7853.76 L 1155.13 7853.76 C 1157.34 7854.16 1159.45 7854.77 1161.47 7855.63 L 1161.47 7855.63 C 1167.21 7857.73 1173.03 7861.17 1178.92 7865.92 L 1178.92 7865.92 C 1185.21 7871.06 1191.33 7877.57 1197.31 7885.44 L 1197.31 7885.44 C 1198.93 7887.54 1200.6 7889.86 1202.31 7892.39 L 1202.31 7892.39 C 1203.62 7894.34 1204.93 7896.38 1206.25 7898.47 L 1206.25 7898.47 C 1206.05 7896.48 1206.04 7894.6 1206.26 7892.85 L 1206.26 7892.85 C 1206.5 7891.03 1206.96 7889.47 1207.66 7888.18 L 1207.66 7888.18 C 1208.36 7886.9 1209.27 7885.9 1210.4 7885.2 L 1210.4 7885.2 C 1211.52 7884.5 1212.86 7884.19 1214.41 7884.27 L 1214.41 7884.27 C 1216.27 7884.27 1218.21 7884.97 1220.22 7886.37 L 1220.22 7886.37 C 1222.24 7887.77 1224.24 7889.56 1226.21 7891.75 L 1226.21 7891.75 C 1228.19 7893.93 1230.11 7896.35 1231.98 7898.99 L 1231.98 7898.99 C 1232.46 7899.68 1232.91 7900.37 1233.37 7901.05 L 1233.37 7901.05 C 1233.23 7900.28 1233.11 7899.51 1233.02 7898.76 L 1233.02 7898.76 C 1232.79 7896.66 1232.79 7894.69 1233.02 7892.85 L 1233.02 7892.85 C 1233.26 7891.03 1233.72 7889.47 1234.42 7888.18 L 1234.42 7888.18 C 1235.11 7886.9 1236.03 7885.9 1237.15 7885.2 L 1237.15 7885.2 C 1238.28 7884.5 1239.61 7884.19 1241.17 7884.27 L 1241.17 7884.27 C 1243.02 7884.27 1244.96 7884.97 1246.98 7886.37 L 1246.98 7886.37 C 1249 7887.77 1251 7889.56 1252.97 7891.75 L 1252.97 7891.75 C 1254.95 7893.93 1256.87 7896.35 1258.73 7898.99 L 1258.73 7898.99 C 1259.91 7900.66 1261.01 7902.32 1262.07 7903.97 L 1262.07 7903.97 C 1261.89 7902.26 1261.85 7900.58 1261.99 7898.93 L 1261.99 7898.93 C 1262.22 7896.09 1263.02 7893.46 1264.38 7891.05 L 1264.38 7891.05 C 1265.73 7888.63 1267.96 7886.8 1271.06 7885.55 L 1271.06 7885.55 C 1273.86 7884.38 1276.7 7884.04 1279.62 7884.5 L 1279.62 7884.5 C 1282.52 7884.97 1285.35 7886 1288.11 7887.6 L 1288.11 7887.6 C 1290.86 7889.19 1293.54 7891.26 1296.14 7893.79 L 1296.14 7893.79 C 1298.58 7896.17 1300.85 7898.72 1302.99 7901.42 L 1302.99 7901.42 C 1302.49 7899.76 1302.06 7898.21 1301.72 7896.77 L 1301.72 7896.77 C 1300.98 7893.65 1300.84 7891.4 1301.31 7889.99 L 1301.31 7889.99 C 1302.01 7887.65 1303.04 7886.06 1304.39 7885.2 L 1304.39 7885.2 C 1305.75 7884.34 1307.07 7883.94 1308.35 7883.98 L 1308.35 7883.98 C 1309.63 7884.02 1310.68 7884.36 1311.49 7885.03 L 1311.49 7885.03 C 1312.31 7885.69 1312.56 7886.33 1312.25 7886.96 L 1312.25 7886.96 C 1311.86 7887.65 1311.88 7888.9 1312.31 7890.69 L 1312.31 7890.69 C 1312.73 7892.48 1313.43 7894.67 1314.4 7897.24 L 1314.4 7897.24 C 1315.37 7899.81 1316.57 7902.71 1318.01 7905.95 L 1318.01 7905.95 C 1319.44 7909.18 1321.01 7912.59 1322.72 7916.18 L 1322.72 7916.18 C 1323.26 7916.56 1323.94 7916.97 1324.76 7917.4 L 1324.76 7917.4 C 1325.57 7917.83 1326.52 7918.32 1327.6 7918.86 L 1327.6 7918.86 C 1328.92 7918.4 1330.22 7916.62 1331.5 7913.54 L 1331.5 7913.54 C 1332.78 7910.46 1334.18 7906.71 1335.69 7902.27 L 1335.69 7902.27 C 1337.2 7897.83 1338.87 7893.09 1340.69 7888.07 L 1340.69 7888.07 C 1342.51 7883.04 1344.57 7878.36 1346.86 7874.04 L 1346.86 7874.04 C 1349.15 7869.71 1351.72 7866.11 1354.59 7863.23 L 1354.59 7863.23 C 1357.46 7860.35 1360.72 7858.87 1364.37 7858.79 L 1364.37 7858.79 C 1366.77 7858.71 1368.83 7859.2 1370.53 7860.25 L 1370.53 7860.25 C 1372.24 7861.3 1373.56 7862.45 1374.49 7863.7 L 1374.49 7863.7 C 1375.42 7864.94 1375.94 7866.09 1376.06 7867.15 L 1376.06 7867.15 C 1376.17 7868.19 1375.89 7868.72 1375.19 7868.72 L 1375.19 7868.72 C 1372.63 7868.8 1370.01 7869.91 1367.34 7872.06 L 1367.34 7872.06 C 1364.66 7874.2 1361.98 7876.94 1359.31 7880.29 L 1359.31 7880.29 C 1356.63 7883.65 1354.05 7887.35 1351.57 7891.4 L 1351.57 7891.4 C 1349.09 7895.45 1346.76 7899.44 1344.59 7903.38 L 1344.59 7903.38 C 1342.42 7907.31 1340.46 7910.92 1338.71 7914.19 L 1338.71 7914.19 C 1336.97 7917.46 1335.51 7919.99 1334.35 7921.79 L 1334.35 7921.79 C 1336.83 7922.79 1339.43 7923.93 1342.15 7925.17 L 1342.15 7925.17 C 1344.86 7926.42 1347.46 7927.75 1349.94 7929.15 L 1349.94 7929.15 C 1352.42 7930.55 1354.65 7932.03 1356.63 7933.59 L 1356.63 7933.59 C 1358.61 7935.15 1360.06 7936.75 1360.99 7938.38 L 1360.99 7938.38 C 1362.23 7940.48 1362.58 7942.41 1362.04 7944.17 L 1362.04 7944.17 C 1361.5 7945.92 1360.65 7947.36 1359.48 7948.49 L 1359.48 7948.49 C 1358.32 7949.62 1357.16 7950.34 1355.99 7950.65 L 1355.99 7950.65 C 1354.83 7950.96 1354.25 7950.77 1354.25 7950.07 L 1354.25 7950.07 C 1354.25 7949.37 1353.78 7948.41 1352.85 7947.21 L 1352.85 7947.21 C 1351.92 7946 1350.7 7944.65 1349.19 7943.17 L 1349.19 7943.17 C 1347.68 7941.69 1345.94 7940.08 1344.01 7938.32 L 1344.01 7938.32 C 1342.07 7936.57 1340.07 7934.83 1338.02 7933.12 L 1338.02 7933.12 C 1335.96 7931.41 1333.92 7929.75 1331.91 7928.16 L 1331.91 7928.16 C 1329.89 7926.56 1328.07 7925.1 1326.44 7923.77 L 1326.44 7923.77 C 1328.85 7928.83 1331.23 7933.94 1333.59 7939.08 L 1333.59 7939.08 C 1335.96 7944.22 1338.04 7949.04 1339.82 7953.52 L 1339.82 7953.52 C 1341.6 7958 1342.96 7961.95 1343.89 7965.38 L 1343.89 7965.38 C 1344.82 7968.81 1345.06 7971.34 1344.59 7972.98 L 1344.59 7972.98 C 1343.89 7975.31 1342.73 7976.87 1341.1 7977.65 L 1341.1 7977.65 C 1339.62 7978.36 1338.15 7978.71 1336.7 7978.71 L 1336.7 7978.71 C 1336.56 7978.71 1336.42 7978.71 1336.27 7978.7 M 1255.13 7965.85 C 1255.13 7965.38 1254.9 7964.72 1254.43 7963.86 L 1254.43 7963.86 C 1253.96 7963 1253.44 7962.07 1252.86 7961.06 L 1252.86 7961.06 C 1252.28 7960.04 1251.75 7959.09 1251.29 7958.19 L 1251.29 7958.19 C 1250.82 7957.3 1250.59 7956.57 1250.59 7956.03 L 1250.59 7956.03 C 1250.59 7954.08 1251.21 7952.47 1252.45 7951.18 L 1252.45 7951.18 C 1253.69 7949.89 1255.03 7948.96 1256.46 7948.37 L 1256.46 7948.37 C 1257.9 7947.79 1259.24 7947.5 1260.48 7947.5 L 1260.48 7947.5 C 1261.72 7947.5 1262.34 7947.81 1262.34 7948.43 L 1262.34 7948.43 C 1262.34 7948.98 1262.55 7949.72 1262.98 7950.65 L 1262.98 7950.65 C 1263.4 7951.59 1263.87 7952.52 1264.38 7953.46 L 1264.38 7953.46 C 1264.88 7954.39 1265.35 7955.29 1265.77 7956.15 L 1265.77 7956.15 C 1266.2 7957 1266.41 7957.66 1266.41 7958.14 L 1266.41 7958.14 C 1266.41 7960.08 1265.83 7961.68 1264.67 7962.92 L 1264.67 7962.92 C 1263.5 7964.17 1262.2 7965.11 1260.77 7965.73 L 1260.77 7965.73 C 1259.33 7966.35 1258.04 7966.67 1256.87 7966.67 L 1256.87 7966.67 C 1255.71 7966.67 1255.13 7966.39 1255.13 7965.85 M 1424.75 7941.19 C 1422.03 7940.17 1419.4 7938.61 1416.84 7936.51 L 1416.84 7936.51 C 1414.28 7934.41 1411.85 7931.7 1409.57 7928.39 L 1409.57 7928.39 C 1407.38 7925.21 1405.38 7921.36 1403.58 7916.87 L 1403.58 7916.87 C 1403.17 7916.05 1402.72 7915.22 1402.24 7914.36 L 1402.24 7914.36 C 1400.88 7911.98 1399.33 7909.59 1397.58 7907.17 L 1397.58 7907.17 C 1395.84 7904.76 1393.97 7902.46 1392 7900.28 L 1392 7900.28 C 1390.02 7898.1 1388 7896.19 1385.95 7894.55 L 1385.95 7894.55 C 1383.89 7892.92 1381.88 7891.69 1379.9 7890.87 L 1379.9 7890.87 C 1377.92 7890.05 1376.08 7889.8 1374.37 7890.11 L 1374.37 7890.11 C 1373.21 7890.34 1372.34 7891.01 1371.76 7892.1 L 1371.76 7892.1 C 1371.18 7893.19 1370.8 7894.55 1370.65 7896.19 L 1370.65 7896.19 C 1370.49 7897.83 1370.53 7899.64 1370.77 7901.62 L 1370.77 7901.62 C 1371 7903.61 1371.38 7905.62 1371.93 7907.64 L 1371.93 7907.64 C 1375.96 7908.74 1379.6 7910.35 1382.86 7912.49 L 1382.86 7912.49 C 1386.13 7914.63 1388.89 7917.01 1391.18 7919.62 L 1391.18 7919.62 C 1393.47 7922.23 1395.24 7924.9 1396.48 7927.63 L 1396.48 7927.63 C 1397.72 7930.36 1398.34 7932.85 1398.34 7935.11 L 1398.34 7935.11 C 1398.34 7937.37 1397.66 7939.2 1396.3 7940.6 L 1396.3 7940.6 C 1394.94 7942 1392.83 7942.71 1389.96 7942.71 L 1389.96 7942.71 C 1387.17 7942.71 1384.42 7942.2 1381.7 7941.19 L 1381.7 7941.19 C 1378.98 7940.17 1376.35 7938.61 1373.79 7936.51 L 1373.79 7936.51 C 1371.23 7934.41 1368.81 7931.7 1366.52 7928.39 L 1366.52 7928.39 C 1364.23 7925.08 1362.16 7921.04 1360.3 7916.29 L 1360.3 7916.29 C 1359.29 7913.72 1358.43 7910.9 1357.73 7907.82 L 1357.73 7907.82 C 1357.04 7904.74 1356.8 7901.76 1357.04 7898.88 L 1357.04 7898.88 C 1357.27 7895.99 1358.07 7893.37 1359.42 7890.99 L 1359.42 7890.99 C 1360.78 7888.61 1363.01 7886.8 1366.11 7885.55 L 1366.11 7885.55 C 1368.91 7884.38 1371.73 7884.04 1374.6 7884.5 L 1374.6 7884.5 C 1377.47 7884.97 1380.29 7885.98 1383.04 7887.54 L 1383.04 7887.54 C 1385.79 7889.1 1388.45 7891.1 1391.01 7893.56 L 1391.01 7893.56 C 1393.57 7896.01 1395.99 7898.7 1398.28 7901.62 L 1398.28 7901.62 C 1398.95 7902.48 1399.56 7903.36 1400.2 7904.23 L 1400.2 7904.23 C 1399.99 7902.41 1399.94 7900.62 1400.08 7898.88 L 1400.08 7898.88 C 1400.31 7895.99 1401.11 7893.37 1402.47 7890.99 L 1402.47 7890.99 C 1403.82 7888.61 1406.06 7886.8 1409.16 7885.55 L 1409.16 7885.55 C 1411.95 7884.38 1414.78 7884.04 1417.65 7884.5 L 1417.65 7884.5 C 1420.52 7884.97 1423.33 7885.98 1426.08 7887.54 L 1426.08 7887.54 C 1428.84 7889.1 1431.49 7891.1 1434.06 7893.56 L 1434.06 7893.56 C 1436.61 7896.01 1439.04 7898.7 1441.32 7901.62 L 1441.32 7901.62 C 1443.61 7904.55 1445.67 7907.54 1447.49 7910.62 L 1447.49 7910.62 C 1449.31 7913.7 1450.88 7916.64 1452.2 7919.45 L 1452.2 7919.45 C 1452.67 7920.54 1452.44 7921.4 1451.5 7922.02 L 1451.5 7922.02 C 1450.88 7922.41 1450.29 7922.48 1449.7 7922.25 L 1449.7 7922.25 C 1449.12 7922.02 1448.71 7921.59 1448.48 7920.97 L 1448.48 7920.97 C 1447.7 7918.94 1446.64 7916.74 1445.28 7914.36 L 1445.28 7914.36 C 1443.93 7911.98 1442.37 7909.59 1440.63 7907.17 L 1440.63 7907.17 C 1438.89 7904.76 1437.02 7902.46 1435.05 7900.28 L 1435.05 7900.28 C 1433.06 7898.1 1431.05 7896.19 1428.99 7894.55 L 1428.99 7894.55 C 1426.94 7892.92 1424.92 7891.69 1422.94 7890.87 L 1422.94 7890.87 C 1420.96 7890.05 1419.12 7889.8 1417.42 7890.11 L 1417.42 7890.11 C 1416.26 7890.34 1415.38 7891.01 1414.8 7892.1 L 1414.8 7892.1 C 1414.22 7893.19 1413.85 7894.55 1413.69 7896.19 L 1413.69 7896.19 C 1413.54 7897.83 1413.58 7899.64 1413.81 7901.62 L 1413.81 7901.62 C 1414.04 7903.61 1414.43 7905.62 1414.97 7907.64 L 1414.97 7907.64 C 1419.01 7908.74 1422.66 7910.35 1425.91 7912.49 L 1425.91 7912.49 C 1429.17 7914.63 1431.94 7917.01 1434.23 7919.62 L 1434.23 7919.62 C 1436.52 7922.23 1438.28 7924.9 1439.52 7927.63 L 1439.52 7927.63 C 1440.76 7930.36 1441.38 7932.85 1441.38 7935.11 L 1441.38 7935.11 C 1441.38 7937.37 1440.7 7939.2 1439.35 7940.6 L 1439.35 7940.6 C 1437.99 7942 1435.88 7942.71 1433.01 7942.71 L 1433.01 7942.71 C 1430.21 7942.71 1427.46 7942.2 1424.75 7941.19 M 1417.42 7914.65 C 1420.6 7921.9 1423.78 7927.59 1426.96 7931.72 L 1426.96 7931.72 C 1430.14 7935.85 1432.78 7937.88 1434.87 7937.8 L 1434.87 7937.8 C 1436.27 7937.72 1436.94 7936.67 1436.91 7934.64 L 1436.91 7934.64 C 1436.86 7932.61 1436.11 7930.22 1434.64 7927.46 L 1434.64 7927.46 C 1433.16 7924.69 1430.93 7921.88 1427.94 7919.04 L 1427.94 7919.04 C 1424.96 7916.19 1421.14 7913.95 1416.49 7912.31 L 1416.49 7912.31 C 1416.72 7913.02 1417.03 7913.8 1417.42 7914.65 M 1374.37 7914.65 C 1377.55 7921.9 1380.73 7927.59 1383.91 7931.72 L 1383.91 7931.72 C 1387.09 7935.85 1389.73 7937.88 1391.82 7937.8 L 1391.82 7937.8 C 1393.22 7937.72 1393.9 7936.67 1393.86 7934.64 L 1393.86 7934.64 C 1393.82 7932.61 1393.06 7930.22 1391.59 7927.46 L 1391.59 7927.46 C 1390.12 7924.69 1387.89 7921.88 1384.9 7919.04 L 1384.9 7919.04 C 1381.91 7916.19 1378.09 7913.95 1373.44 7912.31 L 1373.44 7912.31 C 1373.68 7913.02 1373.98 7913.8 1374.37 7914.65" id="path8310"/></clipPath><linearGradient x1="0" y1="0" x2="1" y2="0" gradientUnits="userSpaceOnUse" spreadMethod="pad" id="linearGradient8326" gradientTransform="matrix(331.607,0,0,-333.136,1120.83,7915.94)"><stop offset="0" stop-color="#68BA9D" stop-opacity="1"/><stop offset="1" stop-color="#0F4651" stop-opacity="1"/></linearGradient><clipPath id="clipPath8336"><path d=" M 1134.81 7823.16 C 1220.85 7866.43 1303.21 7864.54 1350.44 7862.04 L 1350.44 7862.04 C 1345.76 7866.37 1341.42 7875.95 1339.4 7880.84 L 1339.4 7880.84 C 1174.86 7880.84 1134.81 7823.16 1134.81 7823.16 M 1356.16 7880.19 L 1357.06 7880.55 C 1356.48 7880.56 1355.9 7880.6 1355.33 7880.61 L 1355.33 7880.61 Z M 1375.67 7870.98 C 1380.52 7870.44 1379.71 7867.74 1379.71 7867.74 L 1379.71 7867.74 C 1379.71 7867.56 1379.68 7863.7 1376.58 7859.91 L 1376.58 7859.91 C 1405.02 7856.78 1423.58 7852.12 1423.58 7852.12 L 1423.58 7852.12 C 1423.58 7852.12 1433.28 7854.2 1431.66 7863.39 L 1431.66 7863.39 C 1430.05 7872.59 1418.2 7874.22 1418.2 7874.22 L 1418.2 7874.22 C 1398.5 7877.43 1380.33 7879.35 1363.55 7880.24 L 1363.55 7880.24 C 1366.48 7877.07 1372.18 7871.38 1375.67 7870.98" id="path8334"/></clipPath><linearGradient x1="0" y1="0" x2="1" y2="0" gradientUnits="userSpaceOnUse" spreadMethod="pad" id="linearGradient8350" gradientTransform="matrix(297.032,0,0,-298.402,1134.81,7852)"><stop offset="0" stop-color="#68BA9D" stop-opacity="1"/><stop offset="1" stop-color="#0F4651" stop-opacity="1"/></linearGradient></defs><g id="g8306" transform="matrix(1.33333,0,0,-1.33333,-1494.44,10638.3)"><g id="g8308" clip-path="url(#clipPath8312)"><g id="g8314"><g id="g8320"><path d=" M 1116 7812 L 1456 7812 L 1456 7990 L 1116 7990 Z" id="path8328" stroke="none" fill="url(#linearGradient8326)"/></g></g></g></g><g id="g8330" transform="matrix(1.33333,0,0,-1.33333,-1494.44,10638.3)"><g id="g8332" clip-path="url(#clipPath8336)"><g id="g8338"><g id="g8344"><path d=" M 1116 7812 L 1456 7812 L 1456 7990 L 1116 7990 Z" id="path8352" stroke="none" fill="url(#linearGradient8350)"/></g></g></g></g></svg>