<svg version="1.1" width="100.801" height="23.0542" xmlns="http://www.w3.org/2000/svg" xmlns:xlink="http://www.w3.org/1999/xlink" id="svg9693" overflow="hidden"><defs id="defs9697"><clipPath id="clipPath8296"><path d=" M 2036.24 7917.9 C 2046.13 7917.9 2054.18 7910.15 2054.18 7900.62 C 2054.18 7891.09 2046.13 7883.33 2036.24 7883.33 C 2026.35 7883.33 2018.31 7891.09 2018.31 7900.62 C 2018.31 7910.15 2026.35 7917.9 2036.24 7917.9 M 2069.12 7871.25 L 2054.81 7885.58 C 2058.49 7889.8 2060.51 7895.1 2060.51 7900.62 C 2060.51 7913.51 2049.62 7924 2036.24 7924 C 2022.86 7924 2011.98 7913.51 2011.98 7900.62 C 2011.98 7887.72 2022.86 7877.23 2036.24 7877.23 C 2041.27 7877.23 2046.05 7878.69 2050.14 7881.47 L 2064.56 7867.02 C 2065.16 7866.42 2065.97 7866.09 2066.84 7866.09 C 2067.66 7866.09 2068.44 7866.39 2069.03 7866.94 C 2070.29 7868.1 2070.33 7870.04 2069.12 7871.25" id="path8294" clip-rule="evenodd"/></clipPath><clipPath id="clipPath8302"><path d=" M 0 0 L 2560 0 L 2560 8102 L 0 8102 Z" id="path8300"/></clipPath><clipPath id="clipPath8198"><path d=" M 2358 7866.15 L 2410 7866.15 L 2410 7924 L 2358 7924 Z" id="path8196" clip-rule="evenodd"/></clipPath><clipPath id="clipPath8204"><path d=" M 0 0 L 2560 0 L 2560 8102 L 0 8102 Z" id="path8202"/></clipPath><clipPath id="clipPath8210"><path d=" M 2358 7866 L 2410 7866 L 2410 7924 L 2358 7924 Z" id="path8208"/></clipPath><clipPath id="clipPath8214"><path d=" M 2404.62 7871.69 L 2363.38 7871.69 L 2363.38 7897.48 L 2363.38 7905.9 L 2368.56 7905.9 L 2398.98 7905.9 L 2404.46 7905.9 L 2404.62 7905.9 L 2404.62 7904.68 L 2404.62 7900.2 Z M 2383.77 7918.47 C 2389.13 7918.47 2393.85 7915.67 2396.66 7911.43 L 2370.89 7911.43 C 2373.69 7915.67 2378.42 7918.47 2383.77 7918.47 Z M 2402.82 7911.43 C 2399.5 7918.84 2392.21 7924 2383.77 7924 C 2375.34 7924 2368.05 7918.84 2364.73 7911.43 L 2358 7911.43 L 2358 7866.15 L 2410 7866.15 L 2410 7911.43 Z" id="path8212" clip-rule="evenodd"/></clipPath><clipPath id="clipPath8218"><path d=" M 2358 7866 L 2410 7866 L 2410 7924 L 2358 7924 Z" id="path8216"/></clipPath><clipPath id="clipPath8156"><path d=" M 2126 7866.13 L 2183.87 7866.13 L 2183.87 7924 L 2126 7924 Z" id="path8154" clip-rule="evenodd"/></clipPath><clipPath id="clipPath8162"><path d=" M 0 0 L 2560 0 L 2560 8102 L 0 8102 Z" id="path8160"/></clipPath><clipPath id="clipPath8168"><path d=" M 2126 7866 L 2184 7866 L 2184 7924 L 2126 7924 Z" id="path8166"/></clipPath><clipPath id="clipPath8172"><path d=" M 2131.8 7871.73 C 2133.19 7881.51 2141.68 7888.53 2149.33 7888.53 L 2160.54 7888.53 C 2168.2 7888.53 2176.68 7881.51 2178.07 7871.73 Z M 2142.8 7906.27 C 2142.8 7912.96 2148.25 7918.4 2154.94 7918.4 C 2161.63 7918.4 2167.07 7912.96 2167.07 7906.27 C 2167.07 7899.58 2161.63 7894.13 2154.94 7894.13 C 2148.25 7894.13 2142.8 7899.57 2142.8 7906.27 Z M 2176.71 7886.7 C 2173.85 7889.71 2170.42 7891.9 2166.8 7893.1 C 2170.4 7896.34 2172.67 7901.04 2172.67 7906.27 C 2172.67 7916.04 2164.71 7924 2154.94 7924 C 2145.16 7924 2137.2 7916.04 2137.2 7906.27 C 2137.2 7901.04 2139.47 7896.34 2143.07 7893.1 C 2139.46 7891.9 2136.02 7889.71 2133.17 7886.7 C 2128.54 7881.83 2126 7875.52 2126 7868.93 L 2126 7866.13 L 2183.87 7866.13 L 2183.87 7868.93 C 2183.87 7875.52 2181.33 7881.83 2176.71 7886.7 Z" id="path8170" clip-rule="evenodd"/></clipPath><clipPath id="clipPath8176"><path d=" M 2126 7866 L 2184 7866 L 2184 7924 L 2126 7924 Z" id="path8174"/></clipPath><clipPath id="clipPath8114"><path d=" M 2299.85 7924 L 2240 7924 L 2240 7866.02 L 2299.85 7866.02 Z" id="path8112" clip-rule="evenodd"/></clipPath><clipPath id="clipPath8120"><path d=" M 0 0 L 2560 0 L 2560 8102 L 0 8102 Z" id="path8118"/></clipPath><clipPath id="clipPath8126"><path d=" M 2238 7866 L 2301 7866 L 2301 7924 L 2238 7924 Z" id="path8124"/></clipPath><clipPath id="clipPath8130"><path d=" M 2257.19 7918.81 C 2263.15 7918.81 2267.73 7912.11 2267.77 7912.05 L 2269.92 7908.81 L 2272.08 7912.04 C 2272.13 7912.11 2273.28 7913.8 2275.17 7915.48 C 2276.89 7917 2279.58 7918.81 2282.66 7918.81 C 2283.83 7918.81 2285.03 7918.54 2286.21 7918.01 C 2290.05 7916.27 2292.83 7913.13 2294.02 7909.16 C 2295.56 7904.02 2294.36 7897.95 2290.65 7892.07 C 2284.29 7882.01 2273.56 7874.47 2269.92 7872.1 C 2266.29 7874.47 2255.56 7882 2249.2 7892.07 C 2245.49 7897.95 2244.29 7904.02 2245.83 7909.16 C 2247.03 7913.13 2249.8 7916.27 2253.64 7918.01 C 2254.82 7918.54 2256.02 7918.81 2257.19 7918.81 M 2298.98 7910.65 C 2297.34 7916.09 2293.57 7920.38 2288.33 7922.74 C 2286.49 7923.58 2284.58 7924 2282.66 7924 C 2276.89 7924 2272.35 7920.19 2269.92 7917.59 C 2267.51 7920.19 2262.98 7924 2257.19 7924 C 2255.27 7924 2253.36 7923.58 2251.52 7922.74 C 2246.29 7920.39 2242.51 7916.09 2240.88 7910.65 C 2238.9 7904.05 2240.3 7896.47 2244.82 7889.3 C 2253.23 7875.99 2267.99 7867.17 2268.61 7866.8 L 2269.92 7866.02 L 2271.24 7866.8 C 2271.86 7867.16 2286.59 7875.94 2295.02 7889.3 C 2299.55 7896.46 2300.95 7904.05 2298.98 7910.65" id="path8128" clip-rule="evenodd"/></clipPath><clipPath id="clipPath8134"><path d=" M 2240 7866 L 2300 7866 L 2300 7924 L 2240 7924 Z" id="path8132"/></clipPath></defs><g id="g8108" opacity="1" transform="matrix(0.417718,0,0,-0.396702,-885.06,3143.47)"><g id="g8110" clip-path="url(#clipPath8114)"><g id="g8116" clip-path="url(#clipPath8120)"><g id="g8122"></g><g id="g8148"><g id="g8146" clip-path="url(#clipPath8126)"><g id="g8136"></g><g id="g8144"><g id="g8142" clip-path="url(#clipPath8130)"><g id="g8140" clip-path="url(#clipPath8134)"><path d=" M 2230 7856.02 L 2309.85 7856.02 L 2309.85 7934 L 2230 7934 Z" id="path8138" stroke="none" fill="#044651" fill-rule="nonzero" fill-opacity="1"/></g></g></g></g></g></g></g></g><g id="g8150" opacity="1" transform="matrix(0.431995,0,0,-0.397436,-893.114,3149.31)"><g id="g8152" clip-path="url(#clipPath8156)"><g id="g8158" clip-path="url(#clipPath8162)"><g id="g8164"></g><g id="g8190"><g id="g8188" clip-path="url(#clipPath8168)"><g id="g8178"></g><g id="g8186"><g id="g8184" clip-path="url(#clipPath8172)"><g id="g8182" clip-path="url(#clipPath8176)"><path d=" M 2116 7856.13 L 2193.87 7856.13 L 2193.87 7934 L 2116 7934 Z" id="path8180" stroke="none" fill="#044651" fill-rule="nonzero" fill-opacity="1"/></g></g></g></g></g></g></g></g><g id="g8192" opacity="1" transform="matrix(0.480806,0,0,-0.397601,-1057.94,3150.61)"><g id="g8194" clip-path="url(#clipPath8198)"><g id="g8200" clip-path="url(#clipPath8204)"><g id="g8206"></g><g id="g8232"><g id="g8230" clip-path="url(#clipPath8210)"><g id="g8220"></g><g id="g8228"><g id="g8226" clip-path="url(#clipPath8214)"><g id="g8224" clip-path="url(#clipPath8218)"><path d=" M 2348 7856.15 L 2420 7856.15 L 2420 7934 L 2348 7934 Z" id="path8222" stroke="none" fill="#044651" fill-rule="nonzero" fill-opacity="1"/></g></g></g></g></g></g></g></g><g id="g8290" opacity="1" transform="matrix(0.430865,0,0,-0.397147,-866.89,3147.05)"><g id="g8292" clip-path="url(#clipPath8296)"><g id="g8298" clip-path="url(#clipPath8302)"><path d=" M 2001.98 7856.09 L 2080 7856.09 L 2080 7934 L 2001.98 7934 Z" id="path8304" stroke="none" fill="#044651" fill-rule="nonzero" fill-opacity="1"/></g></g></g></svg>