<svg version="1.1" width="140.536" height="71.0003" xmlns="http://www.w3.org/2000/svg" xmlns:xlink="http://www.w3.org/1999/xlink" id="svg1978" overflow="hidden"><defs id="defs1982"><clipPath id="clipPath1054"><path d=" M 2299.85 3316 L 2240 3316 L 2240 3258.02 L 2299.85 3258.02 Z" id="path1052" clip-rule="evenodd"/></clipPath><clipPath id="clipPath1060"><path d=" M 0 0 L 2560 0 L 2560 3494 L 0 3494 Z" id="path1058"/></clipPath><clipPath id="clipPath1066"><path d=" M 2238 3258 L 2301 3258 L 2301 3316 L 2238 3316 Z" id="path1064"/></clipPath><clipPath id="clipPath1070"><path d=" M 2257.19 3310.81 C 2263.15 3310.81 2267.73 3304.11 2267.77 3304.05 L 2269.92 3300.81 L 2272.08 3304.04 C 2272.13 3304.11 2273.28 3305.8 2275.17 3307.48 C 2276.89 3309 2279.58 3310.81 2282.66 3310.81 C 2283.83 3310.81 2285.03 3310.54 2286.21 3310.01 C 2290.05 3308.27 2292.83 3305.13 2294.02 3301.16 C 2295.56 3296.02 2294.36 3289.95 2290.65 3284.07 C 2284.29 3274.01 2273.56 3266.47 2269.92 3264.1 C 2266.29 3266.47 2255.56 3274 2249.2 3284.07 C 2245.49 3289.95 2244.29 3296.02 2245.83 3301.16 C 2247.03 3305.13 2249.8 3308.27 2253.64 3310.01 C 2254.82 3310.54 2256.02 3310.81 2257.19 3310.81 M 2298.98 3302.65 C 2297.34 3308.09 2293.57 3312.38 2288.33 3314.74 C 2286.49 3315.58 2284.58 3316 2282.66 3316 C 2276.89 3316 2272.35 3312.19 2269.92 3309.59 C 2267.51 3312.19 2262.98 3316 2257.19 3316 C 2255.27 3316 2253.36 3315.58 2251.52 3314.74 C 2246.29 3312.39 2242.51 3308.09 2240.88 3302.65 C 2238.9 3296.05 2240.3 3288.47 2244.82 3281.3 C 2253.23 3267.99 2267.99 3259.17 2268.61 3258.8 L 2269.92 3258.02 L 2271.24 3258.8 C 2271.86 3259.16 2286.59 3267.94 2295.02 3281.3 C 2299.55 3288.47 2300.95 3296.05 2298.98 3302.65" id="path1068" clip-rule="evenodd"/></clipPath><clipPath id="clipPath1074"><path d=" M 2240 3258 L 2300 3258 L 2300 3316 L 2240 3316 Z" id="path1072"/></clipPath><clipPath id="clipPath1096"><path d=" M 2126 3258.13 L 2183.87 3258.13 L 2183.87 3316 L 2126 3316 Z" id="path1094" clip-rule="evenodd"/></clipPath><clipPath id="clipPath1102"><path d=" M 0 0 L 2560 0 L 2560 3494 L 0 3494 Z" id="path1100"/></clipPath><clipPath id="clipPath1108"><path d=" M 2126 3258 L 2184 3258 L 2184 3316 L 2126 3316 Z" id="path1106"/></clipPath><clipPath id="clipPath1112"><path d=" M 2131.8 3263.73 C 2133.19 3273.51 2141.68 3280.53 2149.33 3280.53 L 2160.54 3280.53 C 2168.2 3280.53 2176.68 3273.51 2178.07 3263.73 Z M 2142.8 3298.26 C 2142.8 3304.96 2148.25 3310.4 2154.94 3310.4 C 2161.63 3310.4 2167.07 3304.96 2167.07 3298.26 C 2167.07 3291.57 2161.63 3286.13 2154.94 3286.13 C 2148.25 3286.13 2142.8 3291.57 2142.8 3298.26 Z M 2176.71 3278.7 C 2173.85 3281.71 2170.42 3283.9 2166.8 3285.1 C 2170.4 3288.34 2172.67 3293.04 2172.67 3298.26 C 2172.67 3308.04 2164.71 3316 2154.94 3316 C 2145.16 3316 2137.2 3308.04 2137.2 3298.26 C 2137.2 3293.04 2139.47 3288.34 2143.07 3285.1 C 2139.46 3283.9 2136.02 3281.71 2133.17 3278.7 C 2128.54 3273.83 2126 3267.52 2126 3260.93 L 2126 3258.13 L 2183.87 3258.13 L 2183.87 3260.93 C 2183.87 3267.52 2181.33 3273.83 2176.71 3278.7 Z" id="path1110" clip-rule="evenodd"/></clipPath><clipPath id="clipPath1116"><path d=" M 2126 3258 L 2184 3258 L 2184 3316 L 2126 3316 Z" id="path1114"/></clipPath><clipPath id="clipPath1138"><path d=" M 2358 3258.15 L 2410 3258.15 L 2410 3316 L 2358 3316 Z" id="path1136" clip-rule="evenodd"/></clipPath><clipPath id="clipPath1144"><path d=" M 0 0 L 2560 0 L 2560 3494 L 0 3494 Z" id="path1142"/></clipPath><clipPath id="clipPath1150"><path d=" M 2358 3258 L 2410 3258 L 2410 3316 L 2358 3316 Z" id="path1148"/></clipPath><clipPath id="clipPath1154"><path d=" M 2404.62 3263.69 L 2363.38 3263.69 L 2363.38 3289.48 L 2363.38 3297.9 L 2368.56 3297.9 L 2398.98 3297.9 L 2404.46 3297.9 L 2404.62 3297.9 L 2404.62 3296.68 L 2404.62 3292.2 Z M 2383.77 3310.47 C 2389.13 3310.47 2393.85 3307.68 2396.66 3303.43 L 2370.89 3303.43 C 2373.69 3307.68 2378.42 3310.47 2383.77 3310.47 Z M 2402.82 3303.43 C 2399.5 3310.84 2392.21 3316 2383.77 3316 C 2375.34 3316 2368.05 3310.84 2364.73 3303.43 L 2358 3303.43 L 2358 3258.15 L 2410 3258.15 L 2410 3303.43 Z" id="path1152" clip-rule="evenodd"/></clipPath><clipPath id="clipPath1158"><path d=" M 2358 3258 L 2410 3258 L 2410 3316 L 2358 3316 Z" id="path1156"/></clipPath><clipPath id="clipPath1180"><path d=" M 2036.24 3309.9 C 2046.13 3309.9 2054.18 3302.15 2054.18 3292.62 C 2054.18 3283.09 2046.13 3275.33 2036.24 3275.33 C 2026.35 3275.33 2018.31 3283.09 2018.31 3292.62 C 2018.31 3302.15 2026.35 3309.9 2036.24 3309.9 M 2069.12 3263.25 L 2054.81 3277.58 C 2058.49 3281.8 2060.51 3287.1 2060.51 3292.62 C 2060.51 3305.51 2049.62 3316 2036.24 3316 C 2022.86 3316 2011.98 3305.51 2011.98 3292.62 C 2011.98 3279.72 2022.86 3269.23 2036.24 3269.23 C 2041.27 3269.23 2046.05 3270.7 2050.14 3273.47 L 2064.56 3259.02 C 2065.16 3258.42 2065.97 3258.09 2066.84 3258.09 C 2067.66 3258.09 2068.44 3258.39 2069.03 3258.94 C 2070.29 3260.1 2070.33 3262.04 2069.12 3263.25" id="path1178" clip-rule="evenodd"/></clipPath><clipPath id="clipPath1186"><path d=" M 0 0 L 2560 0 L 2560 3494 L 0 3494 Z" id="path1184"/></clipPath></defs><g id="g1976" transform="matrix(1.33333,0,0,-1.33333,-2692.3,4551.95)"><g id="g1048" stroke-width="2.24404" transform="matrix(0.438604,0,0,0.452758,1089.57,1912.62)"><g id="g1050" stroke-width="2.24404" clip-path="url(#clipPath1054)"><g id="g1056" stroke-width="2.24404" clip-path="url(#clipPath1060)"><g id="g1062" stroke-width="2.24404"></g><g id="g1088" stroke-width="2.24404"><g id="g1086" stroke-width="2.24404" clip-path="url(#clipPath1066)"><g id="g1076" stroke-width="2.24404"></g><g id="g1084" stroke-width="2.24404"><g id="g1082" stroke-width="2.24404" clip-path="url(#clipPath1070)"><g id="g1080" stroke-width="2.24404" clip-path="url(#clipPath1074)"><path d=" M 2230 3248.02 L 2309.85 3248.02 L 2309.85 3326 L 2230 3326 Z" id="path1078" stroke="none" stroke-width="2.24404" fill="#044651" fill-rule="nonzero" fill-opacity="1"/></g></g></g></g></g></g></g></g><g id="g1090" stroke-width="2.20461" transform="matrix(0.453595,0,0,0.453595,1081.24,1909.84)"><g id="g1092" stroke-width="2.20461" clip-path="url(#clipPath1096)"><g id="g1098" stroke-width="2.20461" clip-path="url(#clipPath1102)"><g id="g1104" stroke-width="2.20461"></g><g id="g1130" stroke-width="2.20461"><g id="g1128" stroke-width="2.20461" clip-path="url(#clipPath1108)"><g id="g1118" stroke-width="2.20461"></g><g id="g1126" stroke-width="2.20461"><g id="g1124" stroke-width="2.20461" clip-path="url(#clipPath1112)"><g id="g1122" stroke-width="2.20461" clip-path="url(#clipPath1116)"><path d=" M 2116 3248.13 L 2193.87 3248.13 L 2193.87 3326 L 2116 3326 Z" id="path1120" stroke="none" stroke-width="2.20461" fill="#044651" fill-rule="nonzero" fill-opacity="1"/></g></g></g></g></g></g></g></g><g id="g1132" stroke-width="2.08928" transform="matrix(0.504847,0,0,0.453783,907.951,1909.22)"><g id="g1134" stroke-width="2.08928" clip-path="url(#clipPath1138)"><g id="g1140" stroke-width="2.08928" clip-path="url(#clipPath1144)"><g id="g1146" stroke-width="2.08928"></g><g id="g1172" stroke-width="2.08928"><g id="g1170" stroke-width="2.08928" clip-path="url(#clipPath1150)"><g id="g1160" stroke-width="2.08928"></g><g id="g1168" stroke-width="2.08928"><g id="g1166" stroke-width="2.08928" clip-path="url(#clipPath1154)"><g id="g1164" stroke-width="2.08928" clip-path="url(#clipPath1158)"><path d=" M 2348 3248.15 L 2420 3248.15 L 2420 3326 L 2348 3326 Z" id="path1162" stroke="none" stroke-width="2.08928" fill="#044651" fill-rule="nonzero" fill-opacity="1"/></g></g></g></g></g></g></g></g><g id="g1174" stroke-width="2.2083" transform="matrix(0.452408,0,0,0.453266,1108.99,1910.93)"><g id="g1176" stroke-width="2.2083" clip-path="url(#clipPath1180)"><g id="g1182" stroke-width="2.2083" clip-path="url(#clipPath1186)"><path d=" M 2001.98 3248.09 L 2080 3248.09 L 2080 3326 L 2001.98 3326 Z" id="path1188" stroke="none" stroke-width="2.2083" fill="#044651" fill-rule="nonzero" fill-opacity="1"/></g></g></g><path d=" M 2098.38 3371.01 L 2098.38 3381.31 L 2100.09 3381.31 L 2101.8 3381.31 L 2102.13 3381.89 C 2102.61 3382.73 2103.2 3383.45 2104.04 3384.21 C 2105.53 3385.55 2107.25 3386.41 2109.31 3386.82 C 2109.92 3386.94 2110.19 3386.96 2111.4 3386.96 C 2112.61 3386.96 2112.89 3386.94 2113.5 3386.82 C 2116.65 3386.18 2119.35 3384.3 2120.74 3381.78 L 2121 3381.31 L 2122.81 3381.31 L 2124.63 3381.31 L 2124.63 3371.01 L 2124.63 3360.71 L 2111.5 3360.71 L 2098.38 3360.71 Z M 2121.98 3370.98 L 2121.98 3378.8 L 2111.5 3378.8 L 2101.02 3378.8 L 2101.02 3370.98 L 2101.02 3363.16 L 2111.5 3363.16 L 2121.98 3363.16 Z M 2117.91 3381.35 C 2117.91 3381.43 2117.34 3382.07 2116.94 3382.44 C 2114.71 3384.48 2111.36 3385.09 2108.42 3384 C 2107.29 3383.58 2106.11 3382.78 2105.34 3381.91 C 2105.09 3381.63 2104.89 3381.38 2104.89 3381.36 C 2104.89 3381.33 2107.82 3381.31 2111.4 3381.31 C 2114.98 3381.31 2117.91 3381.33 2117.91 3381.35 Z" id="path1927" stroke-width="0.75" fill="#65BB9F" fill-opacity="1"/><path d=" M 2084.81 3360.9 C 2080.26 3363.8 2076.13 3367.85 2074.02 3371.47 C 2072.59 3373.94 2071.96 3376.2 2072.05 3378.59 C 2072.1 3380.04 2072.4 3381.23 2073.01 3382.44 C 2074.07 3384.55 2075.99 3386.19 2078.1 3386.78 C 2078.68 3386.95 2079.83 3387 2080.46 3386.9 C 2081.43 3386.74 2082.51 3386.27 2083.44 3385.61 C 2083.96 3385.24 2084.94 3384.37 2085.02 3384.21 C 2085.06 3384.15 2085.11 3384.1 2085.15 3384.1 C 2085.18 3384.1 2085.45 3384.34 2085.75 3384.63 C 2088.31 3387.14 2091.24 3387.64 2093.96 3386.04 C 2095.82 3384.95 2097.11 3383.37 2097.81 3381.33 C 2098.12 3380.42 2098.25 3379.68 2098.28 3378.6 C 2098.33 3377.05 2098.14 3375.76 2097.65 3374.32 C 2096.3 3370.4 2092.66 3366.04 2087.62 3362.33 C 2086.7 3361.65 2085.26 3360.71 2085.17 3360.71 C 2085.13 3360.71 2084.97 3360.8 2084.81 3360.9 Z M 2085.73 3363.77 C 2087.62 3365.08 2090.07 3367.22 2091.59 3368.9 C 2095.07 3372.77 2096.5 3376.2 2095.99 3379.44 C 2095.84 3380.41 2095.38 3381.53 2094.82 3382.28 C 2094.47 3382.76 2093.77 3383.45 2093.33 3383.75 C 2092.87 3384.06 2092.09 3384.44 2091.66 3384.55 C 2091.2 3384.67 2090.35 3384.67 2089.86 3384.54 C 2089.04 3384.33 2088.12 3383.78 2087.3 3383 C 2086.73 3382.45 2086.29 3381.9 2085.66 3380.92 L 2085.16 3380.14 L 2084.72 3380.85 C 2083.7 3382.49 2082.58 3383.61 2081.32 3384.22 C 2080.71 3384.52 2080.22 3384.64 2079.55 3384.64 C 2078.91 3384.64 2078.48 3384.54 2077.83 3384.22 C 2076.63 3383.63 2075.66 3382.68 2075.02 3381.47 C 2074.74 3380.95 2074.42 3379.92 2074.33 3379.29 C 2074.24 3378.64 2074.29 3377.04 2074.42 3376.42 C 2074.83 3374.5 2075.81 3372.56 2077.44 3370.45 C 2078.21 3369.45 2080.49 3367.08 2081.56 3366.16 C 2083.09 3364.85 2085.1 3363.35 2085.22 3363.43 C 2085.25 3363.45 2085.48 3363.6 2085.73 3363.77 Z" id="path1929" stroke-width="0.75" fill="#65BB9F" fill-opacity="1"/><path d=" M 2045.62 3362.04 C 2045.66 3363.74 2045.85 3364.8 2046.37 3366.11 C 2047.62 3369.3 2050.16 3371.8 2053.23 3372.88 C 2053.32 3372.92 2053.27 3372.99 2052.89 3373.4 C 2051.44 3374.92 2050.69 3376.82 2050.69 3378.93 C 2050.69 3381.03 2051.44 3382.93 2052.86 3384.44 C 2053.92 3385.57 2055.22 3386.33 2056.73 3386.73 C 2057.66 3386.97 2059 3387.03 2059.97 3386.87 C 2062.49 3386.45 2064.69 3384.83 2065.84 3382.54 C 2066.44 3381.34 2066.67 3380.35 2066.67 3378.96 C 2066.67 3377.91 2066.6 3377.39 2066.33 3376.52 C 2065.96 3375.36 2065.36 3374.34 2064.53 3373.46 C 2064.1 3373.01 2064.04 3372.92 2064.13 3372.88 C 2068.05 3371.52 2071.05 3367.83 2071.66 3363.61 C 2071.71 3363.28 2071.77 3362.49 2071.79 3361.86 L 2071.84 3360.71 L 2058.71 3360.71 L 2045.59 3360.71 Z M 2069.2 3363.24 C 2069.2 3363.29 2069.16 3363.53 2069.11 3363.78 C 2068.75 3365.51 2067.87 3367.12 2066.59 3368.4 C 2065.55 3369.44 2064.46 3370.14 2063.25 3370.54 C 2062.25 3370.86 2062.07 3370.88 2058.65 3370.88 C 2055.87 3370.88 2055.43 3370.86 2054.99 3370.77 C 2054.26 3370.61 2053.79 3370.44 2053.09 3370.1 C 2051.15 3369.14 2049.54 3367.37 2048.7 3365.26 C 2048.51 3364.78 2048.26 3363.87 2048.19 3363.41 L 2048.15 3363.15 L 2058.68 3363.15 C 2067.78 3363.15 2069.2 3363.17 2069.2 3363.24 Z M 2060.17 3373.59 C 2062.03 3374.1 2063.52 3375.61 2064.04 3377.53 C 2064.15 3377.93 2064.18 3378.18 2064.18 3378.93 C 2064.18 3379.69 2064.15 3379.94 2064.04 3380.34 C 2063.52 3382.25 2062.06 3383.74 2060.17 3384.29 C 2059.74 3384.41 2059.55 3384.43 2058.65 3384.43 C 2057.68 3384.43 2057.58 3384.41 2057.1 3384.25 C 2054.92 3383.53 2053.47 3381.78 2053.2 3379.55 C 2052.83 3376.52 2055.17 3373.65 2058.19 3373.42 C 2058.88 3373.37 2059.58 3373.43 2060.17 3373.59 Z" id="path1931" stroke-width="0.75" fill="#65BB9F" fill-opacity="1"/><path d=" M 2043.62 3360.78 C 2043.49 3360.83 2043.37 3360.88 2043.35 3360.88 C 2043.34 3360.88 2041.79 3362.41 2039.91 3364.29 L 2036.5 3367.7 L 2036.17 3367.48 C 2035.62 3367.13 2034.42 3366.56 2033.72 3366.34 C 2030.98 3365.44 2027.92 3365.64 2025.33 3366.89 C 2022.18 3368.4 2019.95 3371.29 2019.36 3374.62 C 2019.21 3375.48 2019.18 3377.02 2019.3 3377.79 C 2019.55 3379.4 2020.09 3380.79 2021.02 3382.18 C 2021.64 3383.13 2022.91 3384.39 2023.9 3385.05 C 2025.85 3386.35 2027.87 3386.96 2030.2 3386.96 C 2033.18 3386.96 2035.88 3385.88 2037.98 3383.83 C 2039.53 3382.33 2040.52 3380.53 2040.99 3378.41 C 2041.11 3377.87 2041.12 3377.61 2041.12 3376.39 C 2041.12 3375.15 2041.11 3374.91 2040.98 3374.35 C 2040.64 3372.74 2040.04 3371.45 2039.04 3370.12 L 2038.59 3369.52 L 2041.93 3366.17 C 2044.05 3364.04 2045.3 3362.74 2045.37 3362.6 C 2045.58 3362.15 2045.47 3361.53 2045.13 3361.16 C 2044.76 3360.77 2044.1 3360.61 2043.62 3360.78 Z M 2031.94 3368.68 C 2033.64 3369.06 2034.85 3369.72 2036.05 3370.93 C 2037.02 3371.91 2037.58 3372.79 2037.98 3374.01 C 2038.52 3375.63 2038.47 3377.58 2037.85 3379.15 C 2036.83 3381.73 2034.47 3383.63 2031.66 3384.14 C 2030.89 3384.28 2029.51 3384.28 2028.74 3384.14 C 2025.34 3383.52 2022.7 3380.92 2022.13 3377.64 C 2021.98 3376.79 2022.04 3375.38 2022.24 3374.59 C 2022.63 3373.1 2023.27 3371.97 2024.32 3370.91 C 2025.56 3369.67 2027.3 3368.81 2029.07 3368.56 C 2029.74 3368.47 2031.29 3368.53 2031.94 3368.68 Z" id="path1933" stroke-width="0.75" fill="#65BB9F" fill-opacity="1"/></g></svg>