<svg version="1.1" width="146.536" height="71" xmlns="http://www.w3.org/2000/svg" xmlns:xlink="http://www.w3.org/1999/xlink" id="svg6932" overflow="hidden"><defs id="defs6936"><clipPath id="clipPath6876"><path d=" M 2019 3414 L 2046 3414 L 2046 3387 L 2019 3387 Z" id="path6874"/></clipPath><clipPath id="clipPath6882"><path d=" M 2030.21 3411.2 C 2034.68 3411.2 2038.32 3407.68 2038.32 3403.36 C 2038.32 3399.04 2034.68 3395.53 2030.21 3395.53 C 2025.73 3395.53 2022.09 3399.04 2022.09 3403.36 C 2022.09 3407.68 2025.73 3411.2 2030.21 3411.2 M 2045.08 3390.05 L 2038.6 3396.55 C 2040.27 3398.46 2041.18 3400.86 2041.18 3403.36 C 2041.18 3409.21 2036.26 3413.96 2030.21 3413.96 C 2024.15 3413.96 2019.23 3409.21 2019.23 3403.36 C 2019.23 3397.52 2024.15 3392.77 2030.21 3392.77 C 2032.48 3392.77 2034.65 3393.43 2036.49 3394.68 L 2043.02 3388.14 C 2043.29 3387.86 2043.65 3387.71 2044.05 3387.71 C 2044.42 3387.71 2044.77 3387.85 2045.04 3388.1 C 2045.61 3388.63 2045.63 3389.5 2045.08 3390.05" id="path6880"/></clipPath><clipPath id="clipPath6892"><path d=" M 1108 1910 L 2268 1910 L 2268 3494 L 1108 3494 Z" id="path6890"/></clipPath><clipPath id="clipPath6902"><path d=" M 1108.99 3494 L 2267.16 3494 L 2267.16 1910.93 L 1108.99 1910.93 Z" id="path6900"/></clipPath><clipPath id="clipPath6912"><path d=" M 2014 3383 L 2050 3383 L 2050 3419 L 2014 3419 Z" id="path6910"/></clipPath><clipPath id="clipPath6660"><path d=" M 2045.59 3413.96 L 2071.84 3413.96 L 2071.84 3387.71 L 2045.59 3387.71 Z" id="path6658"/></clipPath><clipPath id="clipPath6670"><path d=" M 1081 1909 L 2243 1909 L 2243 3494 L 1081 3494 Z" id="path6668"/></clipPath><clipPath id="clipPath6680"><path d=" M 1081.24 3494 L 2242.45 3494 L 2242.45 1909.84 L 1081.24 1909.84 Z" id="path6678"/></clipPath><clipPath id="clipPath6690"><path d=" M 2045 3387 L 2072 3387 L 2072 3414 L 2045 3414 Z" id="path6688"/></clipPath><clipPath id="clipPath6700"><path d=" M 2045.59 3413.96 L 2071.9 3413.96 L 2071.9 3387.65 L 2045.59 3387.65 Z" id="path6698"/></clipPath><clipPath id="clipPath6710"><path d=" M 2045 3387 L 2072 3387 L 2072 3414 L 2045 3414 Z" id="path6708"/></clipPath><clipPath id="clipPath6720"><path d=" M 2045 3414 L 2072 3414 L 2072 3387 L 2045 3387 Z" id="path6718"/></clipPath><clipPath id="clipPath6726"><path d=" M 2048.22 3390.25 C 2048.85 3394.69 2052.7 3397.88 2056.17 3397.88 L 2061.25 3397.88 C 2064.73 3397.88 2068.57 3394.69 2069.21 3390.25 Z M 2053.21 3405.92 C 2053.21 3408.95 2055.68 3411.42 2058.71 3411.42 C 2061.75 3411.42 2064.22 3408.95 2064.22 3405.92 C 2064.22 3402.88 2061.75 3400.41 2058.71 3400.41 C 2055.68 3400.41 2053.21 3402.88 2053.21 3405.92 Z M 2068.59 3397.04 C 2067.29 3398.41 2065.73 3399.4 2064.09 3399.95 C 2065.73 3401.42 2066.75 3403.55 2066.75 3405.92 C 2066.75 3410.35 2063.15 3413.96 2058.71 3413.96 C 2054.28 3413.96 2050.67 3410.35 2050.67 3405.92 C 2050.67 3403.55 2051.7 3401.42 2053.33 3399.95 C 2051.69 3399.4 2050.13 3398.41 2048.84 3397.04 C 2046.74 3394.83 2045.59 3391.97 2045.59 3388.98 L 2045.59 3387.71 L 2071.84 3387.71 L 2071.84 3388.98 C 2071.84 3391.97 2070.68 3394.83 2068.59 3397.04 Z" id="path6724"/></clipPath><clipPath id="clipPath6736"><path d=" M 2045 3387 L 2072 3387 L 2072 3414 L 2045 3414 Z" id="path6734"/></clipPath><clipPath id="clipPath6746"><path d=" M 2045.59 3413.96 L 2071.9 3413.96 L 2071.9 3387.65 L 2045.59 3387.65 Z" id="path6744"/></clipPath><clipPath id="clipPath6756"><path d=" M 2041 3383 L 2077 3383 L 2077 3419 L 2041 3419 Z" id="path6754"/></clipPath><clipPath id="clipPath6552"><path d=" M 2072.04 3413.96 L 2098.29 3413.96 L 2098.29 3387.71 L 2072.04 3387.71 Z" id="path6550"/></clipPath><clipPath id="clipPath6562"><path d=" M 1089 1912 L 2213 1912 L 2213 3494 L 1089 3494 Z" id="path6560"/></clipPath><clipPath id="clipPath6572"><path d=" M 1089.57 3494 L 2212.39 3494 L 2212.39 1912.62 L 1089.57 1912.62 Z" id="path6570"/></clipPath><clipPath id="clipPath6582"><path d=" M 2071 3387 L 2099 3387 L 2099 3414 L 2071 3414 Z" id="path6580"/></clipPath><clipPath id="clipPath6592"><path d=" M 2071.16 3413.96 L 2098.8 3413.96 L 2098.8 3387.7 L 2071.16 3387.7 Z" id="path6590"/></clipPath><clipPath id="clipPath6602"><path d=" M 2072 3387 L 2099 3387 L 2099 3414 L 2072 3414 Z" id="path6600"/></clipPath><clipPath id="clipPath6612"><path d=" M 2072 3414 L 2099 3414 L 2099 3387 L 2072 3387 Z" id="path6610"/></clipPath><clipPath id="clipPath6618"><path d=" M 2079.58 3411.61 C 2082.19 3411.61 2084.2 3408.58 2084.22 3408.55 L 2085.16 3407.08 L 2086.11 3408.55 C 2086.13 3408.58 2086.64 3409.34 2087.47 3410.1 C 2088.22 3410.79 2089.4 3411.61 2090.75 3411.61 C 2091.27 3411.61 2091.79 3411.49 2092.31 3411.25 C 2093.99 3410.47 2095.21 3409.04 2095.73 3407.24 C 2096.41 3404.92 2095.88 3402.17 2094.26 3399.51 C 2091.47 3394.95 2086.76 3391.53 2085.16 3390.46 C 2083.57 3391.53 2078.87 3394.95 2076.08 3399.51 C 2074.45 3402.17 2073.92 3404.91 2074.6 3407.24 C 2075.12 3409.04 2076.34 3410.47 2078.02 3411.25 C 2078.54 3411.49 2079.07 3411.61 2079.58 3411.61 M 2097.91 3407.92 C 2097.19 3410.38 2095.53 3412.32 2093.24 3413.39 C 2092.43 3413.77 2091.59 3413.96 2090.75 3413.96 C 2088.22 3413.96 2086.23 3412.23 2085.16 3411.06 C 2084.1 3412.23 2082.12 3413.96 2079.58 3413.96 C 2078.74 3413.96 2077.9 3413.77 2077.09 3413.39 C 2074.8 3412.32 2073.14 3410.38 2072.43 3407.92 C 2071.55 3404.93 2072.17 3401.5 2074.16 3398.25 C 2077.84 3392.23 2084.32 3388.23 2084.59 3388.06 L 2085.16 3387.71 L 2085.74 3388.06 C 2086.02 3388.23 2092.48 3392.2 2096.17 3398.25 C 2098.16 3401.5 2098.77 3404.93 2097.91 3407.92" id="path6616"/></clipPath><clipPath id="clipPath6628"><path d=" M 2072 3387 L 2099 3387 L 2099 3414 L 2072 3414 Z" id="path6626"/></clipPath><clipPath id="clipPath6638"><path d=" M 2072.04 3413.96 L 2098.35 3413.96 L 2098.35 3387.7 L 2072.04 3387.7 Z" id="path6636"/></clipPath><clipPath id="clipPath6648"><path d=" M 2067 3383 L 2103 3383 L 2103 3419 L 2067 3419 Z" id="path6646"/></clipPath><clipPath id="clipPath6768"><path d=" M 2098.38 3413.96 L 2124.63 3413.96 L 2124.63 3387.71 L 2098.38 3387.71 Z" id="path6766"/></clipPath><clipPath id="clipPath6778"><path d=" M 907 1909 L 2201 1909 L 2201 3494 L 907 3494 Z" id="path6776"/></clipPath><clipPath id="clipPath6788"><path d=" M 907.949 3494 L 2200.36 3494 L 2200.36 1909.21 L 907.949 1909.21 Z" id="path6786"/></clipPath><clipPath id="clipPath6798"><path d=" M 2098 3387 L 2125 3387 L 2125 3414 L 2098 3414 Z" id="path6796"/></clipPath><clipPath id="clipPath6808"><path d=" M 2098.38 3413.96 L 2124.63 3413.96 L 2124.63 3387.64 L 2098.38 3387.64 Z" id="path6806"/></clipPath><clipPath id="clipPath6818"><path d=" M 2098 3387 L 2125 3387 L 2125 3414 L 2098 3414 Z" id="path6816"/></clipPath><clipPath id="clipPath6828"><path d=" M 2098 3414 L 2125 3414 L 2125 3387 L 2098 3387 Z" id="path6826"/></clipPath><clipPath id="clipPath6834"><path d=" M 2121.91 3390.22 L 2101.09 3390.22 L 2101.09 3405.75 L 2121.91 3405.75 Z M 2111.39 3411.45 C 2114.09 3411.45 2116.48 3410.18 2117.9 3408.26 L 2104.89 3408.26 C 2106.3 3410.18 2108.69 3411.45 2111.39 3411.45 Z M 2121 3408.26 C 2119.33 3411.62 2115.65 3413.96 2111.39 3413.96 C 2107.13 3413.96 2103.45 3411.62 2101.78 3408.26 L 2098.38 3408.26 L 2098.38 3387.71 L 2124.63 3387.71 L 2124.63 3408.26 Z" id="path6832"/></clipPath><clipPath id="clipPath6844"><path d=" M 2098 3387 L 2125 3387 L 2125 3414 L 2098 3414 Z" id="path6842"/></clipPath><clipPath id="clipPath6854"><path d=" M 2098.38 3413.96 L 2124.63 3413.96 L 2124.63 3387.64 L 2098.38 3387.64 Z" id="path6852"/></clipPath><clipPath id="clipPath6864"><path d=" M 2093 3383 L 2130 3383 L 2130 3419 L 2093 3419 Z" id="path6862"/></clipPath></defs><g id="g6546" transform="matrix(1.33333,0,0,-1.33333,-2688.3,4551.95)"><g id="g6548" clip-path="url(#clipPath6552)"><g id="g6554"><g id="g6556"><g id="g6558" clip-path="url(#clipPath6562)"><g id="g6564"></g><g id="g6566"><g id="g6568" clip-path="url(#clipPath6572)"><g id="g6574"><g id="g6576"><g id="g6578" clip-path="url(#clipPath6582)"><g id="g6584"></g><g id="g6586"><g id="g6588" clip-path="url(#clipPath6592)"><g id="g6594"><g id="g6596"><g id="g6598" clip-path="url(#clipPath6602)"><g id="g6604"></g><g id="g6606"><g id="g6608" clip-path="url(#clipPath6612)"><g id="g6614" clip-path="url(#clipPath6618)"><g id="g6620"><g id="g6622"><g id="g6624" clip-path="url(#clipPath6628)"><g id="g6630"></g><g id="g6632"><g id="g6634" clip-path="url(#clipPath6638)"><g id="g6640"><g id="g6642"><g id="g6644" clip-path="url(#clipPath6648)"><g id="g6650"><path d=" M 2067.66 3418.49 L 2102.68 3418.49 L 2102.68 3383.18 L 2067.66 3383.18 Z" id="path6652" stroke="none" fill="#044651" fill-rule="nonzero" fill-opacity="1"/></g></g></g></g></g></g></g></g></g></g></g></g></g></g></g></g></g></g></g></g></g></g></g></g></g></g></g><g id="g6654" transform="matrix(1.33333,0,0,-1.33333,-2690.3,4551.95)"><g id="g6656" clip-path="url(#clipPath6660)"><g id="g6662"><g id="g6664"><g id="g6666" clip-path="url(#clipPath6670)"><g id="g6672"></g><g id="g6674"><g id="g6676" clip-path="url(#clipPath6680)"><g id="g6682"><g id="g6684"><g id="g6686" clip-path="url(#clipPath6690)"><g id="g6692"></g><g id="g6694"><g id="g6696" clip-path="url(#clipPath6700)"><g id="g6702"><g id="g6704"><g id="g6706" clip-path="url(#clipPath6710)"><g id="g6712"></g><g id="g6714"><g id="g6716" clip-path="url(#clipPath6720)"><g id="g6722" clip-path="url(#clipPath6726)"><g id="g6728"><g id="g6730"><g id="g6732" clip-path="url(#clipPath6736)"><g id="g6738"></g><g id="g6740"><g id="g6742" clip-path="url(#clipPath6746)"><g id="g6748"><g id="g6750"><g id="g6752" clip-path="url(#clipPath6756)"><g id="g6758"><path d=" M 2041.05 3418.5 L 2076.37 3418.5 L 2076.37 3383.18 L 2041.05 3383.18 Z" id="path6760" stroke="none" fill="#044651" fill-rule="nonzero" fill-opacity="1"/></g></g></g></g></g></g></g></g></g></g></g></g></g></g></g></g></g></g></g></g></g></g></g></g></g></g></g><g id="g6762" transform="matrix(1.33333,0,0,-1.33333,-2686.3,4551.95)"><g id="g6764" clip-path="url(#clipPath6768)"><g id="g6770"><g id="g6772"><g id="g6774" clip-path="url(#clipPath6778)"><g id="g6780"></g><g id="g6782"><g id="g6784" clip-path="url(#clipPath6788)"><g id="g6790"><g id="g6792"><g id="g6794" clip-path="url(#clipPath6798)"><g id="g6800"></g><g id="g6802"><g id="g6804" clip-path="url(#clipPath6808)"><g id="g6810"><g id="g6812"><g id="g6814" clip-path="url(#clipPath6818)"><g id="g6820"></g><g id="g6822"><g id="g6824" clip-path="url(#clipPath6828)"><g id="g6830" clip-path="url(#clipPath6834)"><g id="g6836"><g id="g6838"><g id="g6840" clip-path="url(#clipPath6844)"><g id="g6846"></g><g id="g6848"><g id="g6850" clip-path="url(#clipPath6854)"><g id="g6856"><g id="g6858"><g id="g6860" clip-path="url(#clipPath6864)"><g id="g6866"><path d=" M 2093.33 3418.5 L 2129.68 3418.5 L 2129.68 3383.18 L 2093.33 3383.18 Z" id="path6868" stroke="none" fill="#044651" fill-rule="nonzero" fill-opacity="1"/></g></g></g></g></g></g></g></g></g></g></g></g></g></g></g></g></g></g></g></g></g></g></g></g></g></g></g><g id="g6870" transform="matrix(1.33333,0,0,-1.33333,-2692.3,4551.95)"><g id="g6872" clip-path="url(#clipPath6876)"><g id="g6878" clip-path="url(#clipPath6882)"><g id="g6884"><g id="g6886"><g id="g6888" clip-path="url(#clipPath6892)"><g id="g6894"></g><g id="g6896"><g id="g6898" clip-path="url(#clipPath6902)"><g id="g6904"><g id="g6906"><g id="g6908" clip-path="url(#clipPath6912)"><g id="g6914"><path d=" M 2014.7 3418.5 L 2050 3418.5 L 2050 3383.18 L 2014.7 3383.18 Z" id="path6916" stroke="none" fill="#044651" fill-rule="nonzero" fill-opacity="1"/></g></g></g></g></g></g></g></g></g></g></g></g><path d=" M 111.536 57.2653 L 111.536 43.536 L 116.104 43.536 L 116.536 42.7653 C 117.176 41.636 117.963 40.6773 119.088 39.6667 C 121.072 37.8747 123.364 36.74 126.109 36.188 C 126.921 36.0267 127.291 36 128.9 36 C 130.509 36 130.88 36.0267 131.692 36.188 C 135.891 37.036 139.5 39.5467 141.348 42.9067 L 141.692 43.536 L 146.536 43.536 L 146.536 71 L 111.536 71 Z M 143.009 57.308 L 143.009 46.88 L 115.061 46.88 L 115.061 67.74 L 143.009 67.74 Z M 137.583 43.484 C 137.583 43.3747 136.823 42.5267 136.285 42.036 C 133.307 39.308 128.848 38.4947 124.921 39.9533 C 123.416 40.5107 121.848 41.5733 120.823 42.7293 C 120.489 43.104 120.219 43.4373 120.219 43.4747 C 120.219 43.5053 124.124 43.536 128.9 43.536 C 133.676 43.536 137.583 43.5107 137.583 43.484 Z" id="path6920" stroke="none" stroke-width="1.33333" fill="#65BB9F" fill-rule="nonzero" fill-opacity="1"/><path d=" M 91.448 70.7453 C 85.3747 66.88 79.8693 61.484 77.0573 56.6507 C 75.1453 53.364 74.312 50.3493 74.432 47.1667 C 74.504 45.224 74.8947 43.6413 75.708 42.0267 C 77.124 39.208 79.6813 37.0267 82.504 36.2347 C 83.276 36.016 84.812 35.9427 85.64 36.0787 C 86.932 36.292 88.38 36.9213 89.6147 37.8027 C 90.3067 38.2973 91.6187 39.4587 91.728 39.672 C 91.7707 39.7507 91.8427 39.8173 91.8907 39.8173 C 91.9373 39.8173 92.3013 39.5 92.7027 39.1093 C 96.1093 35.76 100.009 35.088 103.645 37.224 C 106.124 38.6827 107.843 40.792 108.776 43.5107 C 109.192 44.7293 109.359 45.708 109.405 47.1507 C 109.473 49.208 109.219 50.932 108.561 52.8493 C 106.765 58.084 101.905 63.896 95.1813 68.844 C 93.9627 69.7453 92.0467 71.0053 91.916 71 C 91.8747 71 91.6613 70.88 91.448 70.7453 Z M 92.6667 66.9173 C 95.192 65.1827 98.4627 62.3173 100.479 60.084 C 105.124 54.9267 107.036 50.3493 106.353 46.0307 C 106.145 44.74 105.531 43.2453 104.791 42.24 C 104.323 41.5987 103.395 40.688 102.801 40.2813 C 102.187 39.864 101.145 39.36 100.577 39.208 C 99.968 39.0467 98.8333 39.052 98.1813 39.224 C 97.088 39.5053 95.864 40.2453 94.7707 41.2867 C 94 42.0213 93.4213 42.7507 92.5773 44.0627 L 91.9107 45.0933 L 91.3227 44.1453 C 89.968 41.964 88.468 40.4747 86.796 39.6507 C 85.9733 39.2507 85.3227 39.0933 84.4373 39.0933 C 83.5827 39.0933 83.004 39.2347 82.14 39.656 C 80.5413 40.4427 79.244 41.7133 78.3907 43.3173 C 78.02 44.016 77.588 45.3853 77.468 46.224 C 77.348 47.0933 77.416 49.2347 77.5933 50.0573 C 78.1347 52.6093 79.448 55.208 81.6147 58.016 C 82.6453 59.3493 85.6813 62.5053 87.1147 63.7347 C 89.156 65.4787 91.828 67.4787 91.984 67.38 C 92.036 67.3493 92.3427 67.1453 92.6667 66.9213 L 92.6667 66.9213 Z" id="path6922" stroke="none" stroke-width="1.33333" fill="#65BB9F" fill-rule="nonzero" fill-opacity="1"/><path d=" M 37.1867 69.2293 C 37.2387 66.9587 37.5 65.5467 38.192 63.8027 C 39.864 59.552 43.244 56.2133 47.3333 54.7707 C 47.4627 54.724 47.3947 54.6253 46.8853 54.088 C 44.9573 52.052 43.948 49.5213 43.948 46.7027 C 43.948 43.9067 44.948 41.3747 46.848 39.36 C 48.2653 37.86 49.984 36.8387 52.0093 36.308 C 53.244 35.984 55.0307 35.9067 56.3173 36.12 C 59.6813 36.6773 62.6187 38.844 64.1507 41.9013 C 64.952 43.4947 65.26 44.812 65.2653 46.6613 C 65.2653 48.068 65.1667 48.76 64.8013 49.9173 C 64.3173 51.464 63.5147 52.828 62.4 54.0053 C 61.828 54.604 61.744 54.7293 61.8747 54.7707 C 67.0933 56.588 71.0933 61.5107 71.916 67.1307 C 71.9787 67.5787 72.0573 68.636 72.088 69.4747 L 72.1453 71 L 37.1453 71 Z M 68.6347 67.6253 C 68.6347 67.5627 68.5773 67.24 68.5093 66.912 C 68.0307 64.604 66.8587 62.4533 65.1507 60.74 C 63.7653 59.36 62.3013 58.4213 60.6973 57.9013 C 59.364 57.464 59.124 57.448 54.5613 57.448 C 50.8587 57.448 50.2653 57.464 49.692 57.588 C 48.708 57.8027 48.0827 58.0213 47.156 58.4787 C 44.5613 59.7547 42.4107 62.1253 41.3013 64.9373 C 41.0467 65.5787 40.7133 66.7813 40.6187 67.396 L 40.5667 67.7453 L 54.604 67.7453 C 66.7333 67.7453 68.6347 67.7293 68.6347 67.6253 Z M 56.588 53.828 C 59.0773 53.1453 61.0573 51.1307 61.7547 48.5733 C 61.9 48.036 61.932 47.708 61.932 46.7027 C 61.932 45.6973 61.9 45.364 61.7547 44.8333 C 61.0573 42.276 59.1147 40.2973 56.588 39.568 C 56.02 39.4013 55.7707 39.38 54.5613 39.38 C 53.2707 39.38 53.14 39.4013 52.4947 39.6147 C 49.5933 40.584 47.656 42.9173 47.2907 45.8853 C 46.796 49.9173 49.916 53.7507 53.948 54.0573 C 54.8747 54.1253 55.796 54.0413 56.588 53.828 Z" id="path6924" stroke="none" stroke-width="1.33333" fill="#65BB9F" fill-rule="nonzero" fill-opacity="1"/><path d=" M 32.5253 70.9013 C 32.348 70.8333 32.1867 70.7813 32.1667 70.7813 C 32.1453 70.7813 30.0827 68.7347 27.5773 66.2293 L 23.0307 61.6827 L 22.5827 61.9747 C 21.864 62.4427 20.2547 63.1933 19.328 63.5 C 15.6707 64.6973 11.5987 64.4267 8.14 62.7653 C 3.932 60.7453 0.957333 56.8907 0.181333 52.448 C -0.0213333 51.308 -0.0573333 49.26 0.0986667 48.2293 C 0.426667 46.088 1.15067 44.2347 2.38533 42.3693 C 3.224 41.104 4.90533 39.432 6.23333 38.552 C 8.83333 36.8173 11.5253 36 14.6293 36 C 18.6093 36 22.208 37.448 25.0093 40.1773 C 27.0667 42.1827 28.3947 44.5787 29.0147 47.4067 C 29.1707 48.1253 29.1973 48.4693 29.1973 50.0987 C 29.1973 51.7453 29.1707 52.068 29.0093 52.8173 C 28.5467 54.9587 27.7547 56.6827 26.4213 58.4533 L 25.8227 59.2547 L 30.2707 63.7187 C 33.104 66.5573 34.7707 68.292 34.8587 68.484 C 35.1347 69.088 34.9947 69.912 34.5307 70.4013 C 34.036 70.9213 33.1613 71.1413 32.5253 70.9013 Z M 16.9427 60.38 C 19.2187 59.864 20.8227 58.984 22.4267 57.3747 C 23.728 56.0733 24.468 54.896 25.0093 53.2653 C 25.724 51.1147 25.6507 48.5053 24.8227 46.412 C 23.4627 42.9787 20.3227 40.4427 16.5773 39.7653 C 15.5467 39.5787 13.7133 39.5787 12.6813 39.7653 C 8.156 40.588 4.63467 44.052 3.86933 48.432 C 3.676 49.5573 3.744 51.4427 4.02 52.4947 C 4.54133 54.484 5.39467 55.9947 6.79067 57.396 C 8.448 59.0627 10.7653 60.208 13.1293 60.5307 C 14.02 60.656 16.088 60.5733 16.9427 60.38 Z" id="path6926" stroke="none" stroke-width="1.33333" fill="#65BB9F" fill-rule="nonzero" fill-opacity="1"/></svg>