<svg version="1.1" width="26.6667" height="26.6667" xmlns="http://www.w3.org/2000/svg" xmlns:xlink="http://www.w3.org/1999/xlink" id="svg12689" overflow="hidden"><defs id="defs12693"><clipPath id="clipPath12595"><path d=" M 92 3413.01 L 102.91 3413.01 L 102.91 3421 L 92 3421 Z" id="path12593" clip-rule="evenodd"/></clipPath><clipPath id="clipPath12601"><path d=" M 0 0 L 1280 0 L 1280 3864 L 0 3864 Z" id="path12599"/></clipPath><clipPath id="clipPath12607"><path d=" M 91 3413 L 103 3413 L 103 3422 L 91 3422 Z" id="path12605"/></clipPath><clipPath id="clipPath12611"><path d=" M 95.9249 3413.01 C 95.7037 3413.01 95.482 3413.09 95.3132 3413.26 L 92.2535 3416.38 C 91.9154 3416.73 91.9154 3417.28 92.2535 3417.63 C 92.5915 3417.97 93.1394 3417.97 93.4774 3417.63 L 95.9249 3415.14 L 101.432 3420.74 C 101.77 3421.09 102.318 3421.09 102.656 3420.74 C 102.994 3420.4 102.994 3419.84 102.656 3419.5 L 96.5368 3413.26 C 96.3679 3413.09 96.1463 3413.01 95.9249 3413.01" id="path12609" clip-rule="evenodd"/></clipPath><clipPath id="clipPath12615"><path d=" M 92 3413 L 103 3413 L 103 3421 L 92 3421 Z" id="path12613"/></clipPath><clipPath id="clipPath12395"><path d=" M 87 3427 L 107 3427 L 107 3407 L 87 3407 Z" id="path12393" clip-rule="evenodd"/></clipPath><clipPath id="clipPath12401"><path d=" M 0 0 L 1280 0 L 1280 3864 L 0 3864 Z" id="path12399"/></clipPath></defs><g id="g12389" transform="matrix(1.33333,0,0,-1.33333,-116,4569.33)"><g id="g12391" clip-path="url(#clipPath12395)"><g id="g12397" clip-path="url(#clipPath12401)"><g id="g12403" transform="matrix(1,0,0,-1,87,3427)"><path d=" M 0 0 L 20 0 L 20 20 L 0 20 Z" id="path12405" stroke="#F8AC32" stroke-width="1" stroke-linecap="butt" stroke-linejoin="miter" stroke-miterlimit="10" stroke-dasharray="" stroke-opacity="1" fill="none"/></g></g></g></g><g id="g12589" transform="matrix(1.33333,0,0,-1.33333,-116,4569.33)"><g id="g12591" clip-path="url(#clipPath12595)"><g id="g12597" clip-path="url(#clipPath12601)"><g id="g12603"></g><g id="g12629"><g id="g12627" clip-path="url(#clipPath12607)"><g id="g12617"></g><g id="g12625"><g id="g12623" clip-path="url(#clipPath12611)"><g id="g12621" clip-path="url(#clipPath12615)"><path d=" M 86.9999 3408.01 L 107.91 3408.01 L 107.91 3426 L 86.9999 3426 Z" id="path12619" stroke="none" fill="#F8AC32" fill-rule="nonzero" fill-opacity="1"/></g></g></g></g></g></g></g></g></svg>