<svg version="1.1" width="24.9373" height="23.8929" xmlns="http://www.w3.org/2000/svg" xmlns:xlink="http://www.w3.org/1999/xlink" id="svg12772" overflow="hidden"><defs id="defs12776"><clipPath id="clipPath11911"><path d=" M 237.112 2964.03 L 237.886 2959.52 C 237.924 2959.3 237.836 2959.08 237.651 2958.94 C 237.463 2958.81 237.231 2958.79 237.027 2958.9 L 232.976 2961.03 C 232.78 2961.13 232.566 2961.18 232.352 2961.18 C 232.138 2961.18 231.923 2961.13 231.728 2961.03 L 227.678 2958.9 C 227.473 2958.79 227.24 2958.81 227.054 2958.94 C 226.868 2959.08 226.779 2959.3 226.818 2959.52 L 227.592 2964.03 C 227.666 2964.47 227.522 2964.91 227.206 2965.22 L 223.929 2968.42 C 223.763 2968.58 223.708 2968.8 223.779 2969.02 C 223.85 2969.24 224.029 2969.39 224.257 2969.43 L 228.785 2970.08 C 229.222 2970.15 229.6 2970.42 229.796 2970.82 L 231.82 2974.92 C 231.922 2975.13 232.121 2975.25 232.352 2975.25 C 232.582 2975.25 232.78 2975.13 232.883 2974.92 L 234.908 2970.82 C 235.103 2970.42 235.481 2970.15 235.918 2970.08 L 240.446 2969.43 C 240.674 2969.39 240.853 2969.24 240.924 2969.02 C 240.995 2968.8 240.94 2968.58 240.775 2968.42 L 237.497 2965.22 C 237.182 2964.91 237.037 2964.47 237.112 2964.03 Z M 241.298 2967.88 C 241.666 2968.24 241.795 2968.76 241.637 2969.25 C 241.478 2969.74 241.063 2970.09 240.553 2970.17 L 236.025 2970.82 C 235.832 2970.85 235.666 2970.97 235.579 2971.15 L 233.555 2975.25 C 233.327 2975.71 232.866 2976 232.352 2976 C 231.838 2976 231.377 2975.71 231.149 2975.25 L 229.124 2971.15 C 229.038 2970.97 228.871 2970.85 228.678 2970.82 L 224.149 2970.17 C 223.64 2970.09 223.226 2969.74 223.067 2969.25 C 222.908 2968.76 223.038 2968.24 223.406 2967.88 L 226.682 2964.69 C 226.822 2964.55 226.886 2964.35 226.853 2964.16 L 226.08 2959.65 C 225.993 2959.14 226.197 2958.64 226.613 2958.34 C 227.029 2958.04 227.57 2958 228.026 2958.24 L 232.076 2960.37 C 232.248 2960.46 232.455 2960.46 232.628 2960.37 L 236.678 2958.24 C 236.875 2958.13 237.09 2958.08 237.303 2958.08 C 237.58 2958.08 237.856 2958.17 238.091 2958.34 C 238.506 2958.64 238.711 2959.14 238.623 2959.65 L 237.85 2964.16 C 237.817 2964.35 237.882 2964.55 238.021 2964.68 Z" id="path11909" clip-rule="evenodd"/></clipPath><clipPath id="clipPath11917"><path d=" M 0 0 L 1280 0 L 1280 3864 L 0 3864 Z" id="path11915"/></clipPath></defs><g id="g11905" transform="matrix(1.33333,0,0,-1.33333,-297.333,3968)"><g id="g11907" clip-path="url(#clipPath11911)"><g id="g11913" clip-path="url(#clipPath11917)"><path d=" M 218 2953.08 L 246.703 2953.08 L 246.703 2981 L 218 2981 Z" id="path11919" stroke="none" fill="#212B51" fill-rule="nonzero" fill-opacity="1"/></g></g></g></svg>