<svg version="1.1" width="25.3048" height="23.9533" xmlns="http://www.w3.org/2000/svg" xmlns:xlink="http://www.w3.org/1999/xlink" id="svg12727" overflow="hidden"><defs id="defs12731"><clipPath id="clipPath11533"><path d=" M 145.979 3006 L 127 3006 L 127 2988.03 L 145.979 2988.03 Z" id="path11531" clip-rule="evenodd"/></clipPath><clipPath id="clipPath11539"><path d=" M 0 0 L 1280 0 L 1280 3864 L 0 3864 Z" id="path11537"/></clipPath><clipPath id="clipPath11545"><path d=" M 126 2987 L 147 2987 L 147 3006 L 126 3006 Z" id="path11543"/></clipPath><clipPath id="clipPath11549"><path d=" M 145.571 2997.86 C 145.941 2998.22 146.071 2998.74 145.911 2999.24 C 145.751 2999.73 145.331 3000.08 144.811 3000.15 L 140.221 3000.81 C 140.021 3000.84 139.851 3000.96 139.761 3001.13 L 137.711 3005.25 C 137.481 3005.71 137.011 3006 136.491 3006 C 136.141 3006 135.811 3005.87 135.561 3005.63 C 135.441 3005.53 135.341 3005.4 135.271 3005.25 L 133.551 3001.81 L 133.211 3001.13 C 133.121 3000.96 132.961 3000.84 132.761 3000.81 L 128.161 3000.15 C 127.651 3000.08 127.231 2999.73 127.071 2999.24 C 126.901 2998.74 127.041 2998.22 127.411 2997.86 L 130.731 2994.66 C 130.881 2994.52 130.941 2994.32 130.911 2994.13 L 130.121 2989.61 C 130.031 2989.1 130.241 2988.6 130.661 2988.3 C 131.091 2987.99 131.641 2987.95 132.101 2988.19 L 133.551 2988.94 L 136.211 2990.33 C 136.291 2990.38 136.391 2990.4 136.491 2990.4 C 136.581 2990.4 136.681 2990.38 136.771 2990.33 L 140.881 2988.19 C 141.081 2988.09 141.301 2988.04 141.511 2988.04 C 141.791 2988.04 142.071 2988.12 142.311 2988.3 C 142.731 2988.6 142.941 2989.1 142.851 2989.61 L 142.071 2994.13 C 142.031 2994.32 142.101 2994.52 142.241 2994.66 Z" id="path11547" clip-rule="evenodd"/></clipPath><clipPath id="clipPath11553"><path d=" M 127 2988 L 146 2988 L 146 3006 L 127 3006 Z" id="path11551"/></clipPath></defs><g id="g11527" transform="matrix(1.33333,0,0,-1.33333,-169.333,4008)"><g id="g11529" clip-path="url(#clipPath11533)"><g id="g11535" clip-path="url(#clipPath11539)"><g id="g11541"></g><g id="g11567"><g id="g11565" clip-path="url(#clipPath11545)"><g id="g11555"></g><g id="g11563"><g id="g11561" clip-path="url(#clipPath11549)"><g id="g11559" clip-path="url(#clipPath11553)"><path d=" M 122 2983.03 L 150.979 2983.03 L 150.979 3011 L 122 3011 Z" id="path11557" stroke="none" fill="#212B51" fill-rule="nonzero" fill-opacity="1"/></g></g></g></g></g></g></g></g></svg>