<svg version="1.1" width="141.135" height="68.1536" xmlns="http://www.w3.org/2000/svg" xmlns:xlink="http://www.w3.org/1999/xlink" id="svg1830" overflow="hidden"><defs id="defs1834"><clipPath id="clipPath154"><path d=" M 1863.2 341.218 L 1863.2 360.102 L 1869.65 360.102 L 1870.67 366.36 L 1863.2 366.36 L 1863.2 369.498 C 1863.2 371.131 1863.75 372.689 1866.18 372.689 L 1871.03 372.689 L 1871.03 378.936 L 1864.14 378.936 C 1858.35 378.936 1856.77 375.253 1856.77 370.149 L 1856.77 366.363 L 1852.79 366.363 L 1852.79 360.102 L 1856.77 360.102 L 1856.77 341.218 Z" id="path152" clip-rule="evenodd"/></clipPath><clipPath id="clipPath160"><path d=" M 0 0 L 2560 0 L 2560 3494 L 0 3494 Z" id="path158"/></clipPath><clipPath id="clipPath170"><path d=" M 1831.08 360.102 C 1831.08 376.53 1844.88 389.845 1861.9 389.845 C 1878.92 389.845 1892.71 376.53 1892.71 360.102 C 1892.71 343.674 1878.92 330.359 1861.9 330.359 C 1844.88 330.359 1831.08 343.674 1831.08 360.102 M 1861.9 392.819 C 1843.18 392.819 1828 378.172 1828 360.102 C 1828 342.033 1843.18 327.384 1861.9 327.384 C 1880.62 327.384 1895.8 342.033 1895.8 360.102 C 1895.8 378.172 1880.62 392.819 1861.9 392.819 Z" id="path168" clip-rule="evenodd"/></clipPath><clipPath id="clipPath176"><path d=" M 0 0 L 2560 0 L 2560 3494 L 0 3494 Z" id="path174"/></clipPath><clipPath id="clipPath266"><path d=" M 1999.28 366.69 C 1999.28 367.018 1999.27 367.345 1999.26 367.668 C 2000.72 368.718 2001.98 370.031 2002.98 371.534 C 2001.64 370.953 2000.21 370.565 1998.69 370.402 C 2000.24 371.318 2001.42 372.783 2001.98 374.541 C 2000.53 373.695 1998.94 373.091 1997.24 372.777 C 1995.88 374.27 1993.94 375.223 1991.79 375.258 C 1987.67 375.323 1984.32 371.961 1984.32 367.747 C 1984.32 367.149 1984.39 366.568 1984.52 366.007 C 1978.31 366.393 1972.81 369.512 1969.13 374.215 C 1968.48 373.088 1968.12 371.771 1968.12 370.36 C 1968.12 367.692 1969.43 365.319 1971.44 363.921 C 1970.21 363.974 1969.06 364.332 1968.06 364.919 L 1968.06 364.821 C 1968.06 361.091 1970.63 357.966 1974.05 357.237 C 1973.42 357.066 1972.76 356.976 1972.08 356.978 C 1971.6 356.983 1971.13 357.033 1970.67 357.127 C 1971.62 354.071 1974.38 351.838 1977.65 351.763 C 1975.09 349.719 1971.87 348.497 1968.38 348.505 C 1967.78 348.505 1967.18 348.543 1966.59 348.615 C 1969.9 346.427 1973.82 345.152 1978.04 345.152 C 1991.77 345.15 1999.28 356.682 1999.28 366.69" id="path264" clip-rule="evenodd"/></clipPath><clipPath id="clipPath272"><path d=" M 0 0 L 2560 0 L 2560 3494 L 0 3494 Z" id="path270"/></clipPath><clipPath id="clipPath282"><path d=" M 1954.07 360.205 C 1954.07 376.581 1967.82 389.855 1984.79 389.855 C 2001.75 389.855 2015.51 376.581 2015.51 360.205 C 2015.51 343.83 2001.75 330.555 1984.79 330.555 C 1967.82 330.555 1954.07 343.83 1954.07 360.205 M 2018.58 360.205 C 2018.58 378.217 2003.45 392.82 1984.79 392.82 C 1966.13 392.82 1951 378.217 1951 360.205 C 1951 342.193 1966.13 327.59 1984.79 327.59 C 2003.45 327.59 2018.58 342.193 2018.58 360.205" id="path280" clip-rule="evenodd"/></clipPath><clipPath id="clipPath288"><path d=" M 0 0 L 2560 0 L 2560 3494 L 0 3494 Z" id="path286"/></clipPath><clipPath id="clipPath234"><path d=" M 2122.15 365.825 C 2122.15 372.621 2116.31 378.954 2107.43 378.954 C 2096.38 378.954 2090.81 371.147 2090.81 364.637 C 2090.81 360.695 2092.32 357.188 2095.58 355.884 C 2096.1 355.669 2096.58 355.877 2096.74 356.455 C 2096.84 356.858 2097.1 357.874 2097.21 358.293 C 2097.37 358.868 2097.31 359.067 2096.88 359.571 C 2095.94 360.664 2095.34 362.072 2095.34 364.068 C 2095.34 369.858 2099.74 375.041 2106.79 375.041 C 2113.04 375.041 2116.47 371.281 2116.47 366.261 C 2116.47 359.653 2113.5 354.077 2109.09 354.077 C 2106.66 354.077 2104.84 356.058 2105.43 358.49 C 2106.12 361.392 2107.48 364.527 2107.48 366.621 C 2107.48 368.495 2106.46 370.062 2104.34 370.062 C 2101.85 370.062 2099.86 367.526 2099.86 364.13 C 2099.86 361.966 2100.6 360.504 2100.6 360.504 C 2100.6 360.504 2098.05 349.875 2097.61 348.017 C 2097.21 346.322 2097.14 344.46 2097.2 342.886 C 2097.37 341.474 2098.79 340.323 2100.01 341.873 C 2100.88 343.236 2101.81 344.954 2102.29 346.677 C 2102.58 347.695 2103.93 352.975 2103.93 352.975 C 2104.74 351.455 2107.09 350.117 2109.61 350.117 C 2117.08 350.121 2122.15 356.836 2122.15 365.825" id="path232" clip-rule="evenodd"/></clipPath><clipPath id="clipPath240"><path d=" M 0 0 L 2560 0 L 2560 3494 L 0 3494 Z" id="path238"/></clipPath><clipPath id="clipPath250"><path d=" M 2075.61 360.045 C 2075.61 376.5 2089.43 389.84 2106.48 389.84 C 2123.53 389.84 2137.35 376.5 2137.35 360.045 C 2137.35 343.59 2123.53 330.249 2106.48 330.249 C 2089.43 330.249 2075.61 343.59 2075.61 360.045 M 2140.44 360.045 C 2140.44 378.146 2125.23 392.819 2106.48 392.819 C 2087.73 392.819 2072.52 378.146 2072.52 360.045 C 2072.52 341.945 2087.73 327.271 2106.48 327.271 C 2125.23 327.271 2140.44 341.945 2140.44 360.045" id="path248" clip-rule="evenodd"/></clipPath><clipPath id="clipPath256"><path d=" M 0 0 L 2560 0 L 2560 3494 L 0 3494 Z" id="path254"/></clipPath><clipPath id="clipPath186"><path d=" M 2224.79 342.645 C 2219.6 342.645 2216.26 345.031 2216.26 348.355 C 2216.26 351.678 2219.36 352.802 2220.43 353.174 C 2222.47 353.831 2225.08 353.926 2225.52 353.926 C 2226.01 353.926 2226.25 353.926 2226.64 353.879 C 2230.32 351.351 2231.92 350.088 2231.92 347.698 C 2231.92 344.798 2229.45 342.645 2224.79 342.645 M 2224.75 361.462 C 2220.57 361.462 2218.68 366.661 2218.68 369.795 C 2218.68 371.014 2218.92 372.275 2219.75 373.26 C 2220.52 374.196 2221.88 374.808 2223.14 374.808 C 2227.17 374.808 2229.25 369.562 2229.25 366.193 C 2229.25 365.349 2229.16 363.853 2228.04 362.775 C 2227.26 362.025 2225.96 361.466 2224.75 361.462 M 2235.17 349.526 C 2235.17 352.755 2233.23 354.349 2231.1 356.082 L 2229.35 357.394 C 2228.82 357.814 2228.09 358.375 2228.09 359.406 C 2228.09 360.436 2228.82 361.091 2229.45 361.699 C 2231.49 363.245 2233.53 364.882 2233.53 368.346 C 2233.53 371.906 2231.2 373.777 2230.08 374.666 L 2233.09 374.666 L 2236.19 376.352 L 2226.2 376.352 C 2223.58 376.352 2220.28 375.978 2217.52 373.777 C 2215.43 372.047 2214.41 369.658 2214.41 367.505 C 2214.41 363.855 2217.32 360.154 2222.46 360.154 C 2222.95 360.154 2223.48 360.203 2224.02 360.247 C 2223.78 359.684 2223.53 359.218 2223.53 358.42 C 2223.53 356.972 2224.31 356.079 2224.99 355.238 C 2222.81 355.097 2218.73 354.864 2215.73 353.086 C 2212.86 351.448 2211.99 349.058 2211.99 347.373 C 2211.99 343.908 2215.39 340.677 2222.42 340.677 C 2230.76 340.677 2235.17 345.128 2235.17 349.526" id="path184" clip-rule="evenodd"/></clipPath><clipPath id="clipPath192"><path d=" M 0 0 L 2560 0 L 2560 3494 L 0 3494 Z" id="path190"/></clipPath><clipPath id="clipPath202"><path d=" M 2235.61 358.618 L 2240.86 358.618 L 2240.86 353.552 L 2243.49 353.552 L 2243.49 358.618 L 2248.74 358.618 L 2248.74 361.151 L 2243.49 361.151 L 2243.49 366.216 L 2240.86 366.216 L 2240.86 361.151 L 2235.61 361.151 Z" id="path200" clip-rule="evenodd"/></clipPath><clipPath id="clipPath208"><path d=" M 0 0 L 2560 0 L 2560 3494 L 0 3494 Z" id="path206"/></clipPath><clipPath id="clipPath218"><path d=" M 2199.34 359.885 C 2199.34 376.422 2213.23 389.826 2230.36 389.826 C 2247.49 389.826 2261.38 376.422 2261.38 359.885 C 2261.38 343.349 2247.49 329.944 2230.36 329.944 C 2213.23 329.944 2199.34 343.349 2199.34 359.885 M 2264.49 359.885 C 2264.49 378.074 2249.21 392.82 2230.36 392.82 C 2211.52 392.82 2196.24 378.074 2196.24 359.885 C 2196.24 341.696 2211.52 326.95 2230.36 326.95 C 2249.21 326.95 2264.49 341.696 2264.49 359.885" id="path216" clip-rule="evenodd"/></clipPath><clipPath id="clipPath224"><path d=" M 0 0 L 2560 0 L 2560 3494 L 0 3494 Z" id="path222"/></clipPath></defs><g id="g1794" transform="matrix(1.33333,0,0,-1.33333,-2437.25,470.58)"><g id="g148" stroke-width="2.5827" transform="matrix(0.387191,0,0,0.387191,1120.21,200.624)"><g id="g150" stroke-width="2.5827" clip-path="url(#clipPath154)"><g id="g156" stroke-width="2.5827" clip-path="url(#clipPath160)"><path d=" M 1842.79 331.218 L 1881.03 331.218 L 1881.03 388.936 L 1842.79 388.936 Z" id="path162" stroke="none" stroke-width="2.5827" fill="#FFFFFF" fill-rule="nonzero" fill-opacity="1"/></g></g></g><g id="g164" stroke-width="2.5827" transform="matrix(0.387191,0,0,0.387191,1120.21,200.624)"><g id="g166" stroke-width="2.5827" clip-path="url(#clipPath170)"><g id="g172" stroke-width="2.5827" clip-path="url(#clipPath176)"><path d=" M 1818 317.384 L 1905.8 317.384 L 1905.8 402.819 L 1818 402.819 Z" id="path178" stroke="none" stroke-width="2.5827" fill="#FFFFFF" fill-rule="nonzero" fill-opacity="1"/></g></g></g></g><g id="g1828" transform="matrix(1.33333,0,0,-1.33333,-2822.23,469.715)"><g id="g180" stroke-width="2.59989" transform="matrix(0.384632,0,0,0.384632,1351.49,201.195)"><g id="g182" stroke-width="2.59989" clip-path="url(#clipPath186)"><g id="g188" stroke-width="2.59989" clip-path="url(#clipPath192)"><path d=" M 2201.99 330.677 L 2246.19 330.677 L 2246.19 386.352 L 2201.99 386.352 Z" id="path194" stroke="none" stroke-width="2.59989" fill="#FFFFFF" fill-rule="nonzero" fill-opacity="1"/></g></g></g><g id="g196" stroke-width="2.59989" transform="matrix(0.384632,0,0,0.384632,1351.49,201.195)"><g id="g198" stroke-width="2.59989" clip-path="url(#clipPath202)"><g id="g204" stroke-width="2.59989" clip-path="url(#clipPath208)"><path d=" M 2225.61 343.552 L 2258.74 343.552 L 2258.74 376.216 L 2225.61 376.216 Z" id="path210" stroke="none" stroke-width="2.59989" fill="#FFFFFF" fill-rule="nonzero" fill-opacity="1"/></g></g></g><g id="g212" stroke-width="2.59989" transform="matrix(0.384632,0,0,0.384632,1351.49,201.195)"><g id="g214" stroke-width="2.59989" clip-path="url(#clipPath218)"><g id="g220" stroke-width="2.59989" clip-path="url(#clipPath224)"><path d=" M 2186.24 316.95 L 2274.49 316.95 L 2274.49 402.82 L 2186.24 402.82 Z" id="path226" stroke="none" stroke-width="2.59989" fill="#FFFFFF" fill-rule="nonzero" fill-opacity="1"/></g></g></g></g><g id="g1814" transform="matrix(1.33333,0,0,-1.33333,-2692.61,470.42)"><g id="g228" stroke-width="2.5872" transform="matrix(0.386518,0,0,0.386518,1271.46,200.775)"><g id="g230" stroke-width="2.5872" clip-path="url(#clipPath234)"><g id="g236" stroke-width="2.5872" clip-path="url(#clipPath240)"><path d=" M 2080.81 331.133 L 2132.15 331.133 L 2132.15 388.954 L 2080.81 388.954 Z" id="path242" stroke="none" stroke-width="2.5872" fill="#FFFFFF" fill-rule="nonzero" fill-opacity="1"/></g></g></g><g id="g244" stroke-width="2.5872" transform="matrix(0.386518,0,0,0.386518,1271.46,200.775)"><g id="g246" stroke-width="2.5872" clip-path="url(#clipPath250)"><g id="g252" stroke-width="2.5872" clip-path="url(#clipPath256)"><path d=" M 2062.52 317.271 L 2150.44 317.271 L 2150.44 402.819 L 2062.52 402.819 Z" id="path258" stroke="none" stroke-width="2.5872" fill="#FFFFFF" fill-rule="nonzero" fill-opacity="1"/></g></g></g></g><g id="g1804" transform="matrix(1.33333,0,0,-1.33333,-2565.9,470.871)"><g id="g260" stroke-width="2.57459" transform="matrix(0.388411,0,0,0.388411,1193.21,200.35)"><g id="g262" stroke-width="2.57459" clip-path="url(#clipPath266)"><g id="g268" stroke-width="2.57459" clip-path="url(#clipPath272)"><path d=" M 1956.59 335.152 L 2012.98 335.152 L 2012.98 385.259 L 1956.59 385.259 Z" id="path274" stroke="none" stroke-width="2.57459" fill="#FFFFFF" fill-rule="nonzero" fill-opacity="1"/></g></g></g><g id="g276" stroke-width="2.57459" transform="matrix(0.388411,0,0,0.388411,1193.21,200.35)"><g id="g278" stroke-width="2.57459" clip-path="url(#clipPath282)"><g id="g284" stroke-width="2.57459" clip-path="url(#clipPath288)"><path d=" M 1941 317.59 L 2028.58 317.59 L 2028.58 402.82 L 1941 402.82 Z" id="path290" stroke="none" stroke-width="2.57459" fill="#FFFFFF" fill-rule="nonzero" fill-opacity="1"/></g></g></g></g><g id="g1775" transform="matrix(1.33333,0,0,-1.33333,-2518.89,581.669)"><path d=" M 1900.94 385.304 C 1894.07 385.997 1888.87 391.79 1889.18 398.402 C 1889.44 404.156 1893.5 408.903 1899.32 410.252 C 1901.33 410.72 1903.98 410.648 1905.98 410.071 C 1909.66 409.008 1912.64 406.515 1914.22 403.166 C 1916.23 398.933 1915.67 394.027 1912.75 390.265 C 1912.14 389.481 1910.92 388.319 1910.06 387.707 C 1907.49 385.872 1904.11 384.984 1900.94 385.304 Z M 1903.62 386.403 C 1906.28 386.707 1908.74 387.823 1910.61 389.574 C 1912.37 391.226 1913.52 393.24 1914.05 395.612 C 1914.2 396.282 1914.23 396.568 1914.22 397.923 C 1914.22 399.594 1914.13 400.201 1913.71 401.471 C 1911.82 407.116 1905.7 410.505 1899.72 409.22 C 1898.13 408.879 1896.48 408.163 1895.19 407.253 C 1894.29 406.617 1893 405.331 1892.38 404.439 C 1890.85 402.279 1890.1 399.539 1890.33 397.02 C 1890.6 394.158 1891.64 391.937 1893.68 389.893 C 1895.33 388.238 1897.12 387.23 1899.35 386.691 C 1900.78 386.345 1902.25 386.246 1903.62 386.403 Z" id="path1747" stroke-width="0.75" fill="#65BB9F" fill-opacity="1"/><path d=" M 1900.35 394.278 L 1900.35 397.96 L 1899.57 397.96 L 1898.8 397.96 L 1898.8 399.138 L 1898.8 400.316 L 1899.57 400.316 L 1900.33 400.316 L 1900.36 401.697 C 1900.39 402.848 1900.42 403.146 1900.55 403.491 C 1900.84 404.277 1901.21 404.684 1901.93 405.005 C 1902.18 405.116 1902.49 405.14 1904.01 405.162 L 1905.8 405.187 L 1905.8 404.003 L 1905.8 402.819 L 1904.68 402.819 C 1903.36 402.819 1903.13 402.748 1902.92 402.273 C 1902.81 402.038 1902.78 401.791 1902.78 401.144 L 1902.78 400.316 L 1904.21 400.316 C 1905 400.316 1905.65 400.295 1905.65 400.269 C 1905.65 400.23 1905.5 399.307 1905.31 398.199 L 1905.27 397.96 L 1904.03 397.96 L 1902.78 397.96 L 1902.78 394.278 L 1902.78 390.596 L 1901.56 390.596 L 1900.35 390.596 Z" id="path1749" stroke-width="0.75" fill="#65BB9F" fill-opacity="1"/></g><g id="g1771" transform="matrix(1.33333,0,0,-1.33333,-2441.94,631.208)"><path d=" M 1869.86 422.349 C 1866.05 422.705 1862.51 424.724 1860.31 427.792 C 1858.02 430.987 1857.39 435.09 1858.62 438.868 C 1858.72 439.194 1859.04 439.926 1859.32 440.495 C 1861.08 444.041 1864.49 446.601 1868.53 447.413 C 1869.55 447.618 1871.76 447.694 1872.84 447.56 C 1875.88 447.181 1878.73 445.74 1880.83 443.521 C 1882.6 441.654 1883.68 439.477 1884.13 436.872 C 1884.3 435.887 1884.29 433.995 1884.1 432.902 C 1882.97 426.356 1876.7 421.71 1869.86 422.349 Z M 1873.21 423.555 C 1874.03 423.704 1875.07 423.991 1875.66 424.231 C 1879.41 425.741 1882.09 428.878 1882.92 432.717 C 1883.06 433.358 1883.09 433.697 1883.09 434.986 C 1883.09 436.273 1883.06 436.611 1882.93 437.224 C 1882.2 440.5 1880.26 443.166 1877.36 444.894 C 1875.27 446.139 1872.53 446.756 1870.11 446.526 C 1866.87 446.217 1864.19 444.898 1862.07 442.568 C 1858.94 439.128 1858.23 434.133 1860.29 429.995 C 1862.1 426.369 1865.56 423.974 1869.75 423.454 C 1870.5 423.36 1872.46 423.417 1873.21 423.555 Z" id="path1718" stroke-width="0.75" fill="#65BB9F" fill-opacity="1"/><path d=" M 1867.18 429.25 C 1866.33 429.412 1865.63 429.648 1864.91 430.018 L 1864.24 430.361 L 1865.05 430.413 C 1865.9 430.466 1866.61 430.644 1867.27 430.971 C 1867.7 431.183 1868.34 431.601 1868.34 431.668 C 1868.34 431.693 1868.18 431.735 1867.99 431.761 C 1867.11 431.878 1866.14 432.621 1865.8 433.445 L 1865.69 433.706 L 1866.24 433.706 C 1866.55 433.706 1866.84 433.747 1866.88 433.792 C 1866.95 433.853 1866.94 433.875 1866.86 433.875 C 1866.64 433.875 1865.97 434.243 1865.65 434.54 C 1865.08 435.068 1864.64 435.933 1864.64 436.546 L 1864.64 436.75 L 1864.96 436.613 C 1865.28 436.475 1865.9 436.343 1865.9 436.414 C 1865.9 436.435 1865.74 436.621 1865.54 436.826 C 1864.69 437.697 1864.44 438.996 1864.9 440.108 L 1865.01 440.368 L 1865.59 439.776 C 1866.37 438.97 1866.97 438.525 1867.94 438.049 C 1868.76 437.639 1869.76 437.337 1870.6 437.242 L 1871.04 437.191 L 1871.02 437.742 C 1870.98 438.399 1871.13 438.997 1871.46 439.51 C 1871.76 439.978 1872.12 440.282 1872.7 440.558 C 1873.13 440.759 1873.26 440.786 1873.81 440.782 C 1874.58 440.772 1875.12 440.587 1875.62 440.15 C 1875.93 439.88 1875.99 439.855 1876.24 439.898 C 1876.39 439.924 1876.79 440.055 1877.13 440.19 C 1877.46 440.325 1877.73 440.421 1877.73 440.405 C 1877.73 440.236 1877.33 439.669 1876.98 439.331 L 1876.53 438.909 L 1876.82 438.954 C 1876.98 438.979 1877.32 439.058 1877.58 439.13 C 1877.85 439.202 1878.08 439.249 1878.09 439.233 C 1878.11 439.217 1877.82 438.901 1877.45 438.53 C 1876.81 437.894 1876.77 437.837 1876.77 437.545 C 1876.77 436.402 1876.4 434.89 1875.85 433.763 C 1874.74 431.49 1872.94 430.001 1870.56 429.386 C 1869.67 429.156 1868.01 429.087 1867.18 429.247 Z" id="path1720" stroke-width="0.75" fill="#65BB9F" fill-opacity="1"/></g><g id="g1779" transform="matrix(1.33333,0,0,-1.33333,-2506.28,567.515)"><path d=" M 1942.57 380.266 C 1942.39 380.452 1942.38 380.464 1942.41 381.425 C 1942.44 382.34 1942.48 382.541 1943.06 384.929 L 1943.67 387.462 L 1943.55 387.92 C 1943.1 389.612 1943.85 391.18 1945.11 391.184 C 1945.8 391.184 1946.2 390.798 1946.27 390.065 C 1946.31 389.676 1946.16 388.99 1945.67 387.371 C 1945.34 386.255 1945.48 385.614 1946.16 385.227 C 1946.64 384.951 1947.37 384.966 1947.91 385.263 C 1948.67 385.684 1949.29 386.635 1949.61 387.848 C 1949.81 388.596 1949.88 390.053 1949.75 390.604 C 1949.37 392.264 1948.04 393.19 1946.04 393.19 C 1944.69 393.19 1943.73 392.81 1942.84 391.923 C 1941.94 391.026 1941.53 389.957 1941.61 388.722 C 1941.65 388.082 1941.78 387.715 1942.12 387.235 C 1942.35 386.925 1942.35 386.924 1942.25 386.475 C 1942.2 386.228 1942.1 385.953 1942.02 385.866 L 1941.89 385.706 L 1941.48 385.919 C 1940.43 386.463 1939.84 387.754 1939.92 389.347 C 1940.04 391.73 1941.8 393.752 1944.35 394.429 C 1945.17 394.648 1946.78 394.705 1947.57 394.543 C 1949.23 394.199 1950.53 393.311 1951.32 391.983 C 1951.75 391.266 1951.9 390.691 1951.94 389.722 C 1952.08 386.411 1950.19 383.788 1947.52 383.562 C 1946.61 383.485 1945.78 383.766 1945.22 384.344 L 1944.92 384.649 L 1944.58 383.302 C 1944.21 381.899 1943.69 380.625 1943.32 380.254 C 1943.09 380.026 1942.81 380.031 1942.57 380.267 Z" id="path1722" stroke-width="0.75" fill="#65BB9F" fill-opacity="1"/><path d=" M 1943.98 374.82 C 1941.95 375.142 1940.09 375.861 1938.46 376.949 C 1936.62 378.183 1935.18 379.789 1934.21 381.691 C 1933.21 383.641 1932.83 385.229 1932.83 387.397 C 1932.83 388.835 1933 389.945 1933.43 391.206 C 1934.98 395.847 1939.04 399.175 1944.05 399.909 C 1945.2 400.078 1947.42 400.022 1948.54 399.796 C 1951.43 399.211 1954.08 397.704 1955.93 395.58 C 1960.33 390.551 1960.09 383.296 1955.38 378.567 C 1953.58 376.755 1951.29 375.526 1948.66 374.954 C 1947.93 374.794 1947.58 374.764 1946.22 374.741 C 1945.09 374.722 1944.45 374.741 1943.98 374.82 Z M 1946.86 375.815 C 1950.66 376.121 1953.95 378.01 1956.02 381.068 C 1956.83 382.268 1957.42 383.705 1957.75 385.227 C 1957.95 386.189 1957.94 388.68 1957.72 389.657 C 1956.93 393.156 1954.74 395.971 1951.51 397.624 C 1948.31 399.26 1944.38 399.386 1941.07 397.958 C 1938.5 396.852 1936.35 394.837 1935.13 392.398 C 1934.67 391.465 1934.45 390.849 1934.19 389.748 C 1934 388.941 1933.98 388.747 1933.98 387.397 C 1933.98 386.14 1934.01 385.814 1934.15 385.154 C 1934.65 382.823 1935.64 381.014 1937.32 379.34 C 1939.41 377.253 1942.02 376.044 1944.94 375.817 C 1945.34 375.786 1945.72 375.755 1945.79 375.749 C 1945.85 375.739 1946.33 375.773 1946.86 375.815 Z" id="path1724" stroke-width="0.75" fill="#65BB9F" fill-opacity="1"/></g><g id="g1784" transform="matrix(1.33333,0,0,-1.33333,-2496.91,536.405)"><path d=" M 1961.39 356.904 C 1960.31 357.046 1959.26 357.53 1958.84 358.085 C 1958.47 358.568 1958.33 359 1958.37 359.529 C 1958.42 360.16 1958.67 360.651 1959.19 361.131 C 1959.93 361.805 1960.91 362.162 1962.48 362.33 C 1962.93 362.378 1963.31 362.424 1963.32 362.433 C 1963.33 362.443 1963.23 362.603 1963.1 362.791 C 1962.88 363.099 1962.86 363.185 1962.86 363.623 C 1962.86 363.892 1962.89 364.177 1962.92 364.258 C 1962.97 364.396 1962.95 364.403 1962.53 364.379 C 1961.5 364.322 1960.42 364.78 1959.87 365.503 C 1959.44 366.057 1959.29 366.563 1959.32 367.301 C 1959.34 367.848 1959.38 367.996 1959.61 368.472 C 1959.92 369.091 1960.32 369.513 1960.95 369.894 C 1961.9 370.46 1962.92 370.608 1965.66 370.576 L 1967.52 370.555 L 1967.01 370.281 C 1966.54 370.028 1966.45 370.006 1965.91 370.006 C 1965.58 370.006 1965.31 369.984 1965.31 369.957 C 1965.31 369.93 1965.51 369.701 1965.75 369.448 C 1966.34 368.837 1966.5 368.461 1966.54 367.626 C 1966.59 366.571 1966.29 365.984 1965.32 365.202 C 1964.57 364.594 1964.36 364.173 1964.59 363.678 C 1964.63 363.577 1964.97 363.265 1965.34 362.986 C 1966.18 362.347 1966.81 361.692 1967.02 361.24 C 1967.14 360.961 1967.18 360.755 1967.18 360.229 C 1967.18 359.631 1967.15 359.523 1966.94 359.084 C 1966.47 358.131 1965.38 357.359 1964.07 357.052 C 1963.32 356.878 1962.1 356.81 1961.39 356.904 Z M 1964.31 357.668 C 1965.49 357.975 1966.13 358.739 1966.02 359.699 C 1965.94 360.364 1965.52 360.873 1964.4 361.65 C 1964 361.932 1963.94 361.952 1963.46 361.952 C 1961.87 361.952 1960.59 361.438 1960.14 360.615 C 1959.63 359.671 1960.06 358.548 1961.14 357.996 C 1961.94 357.589 1963.42 357.436 1964.31 357.668 Z M 1964.14 365.073 C 1965.02 365.548 1965.23 366.591 1964.75 368.02 C 1964.32 369.321 1963.57 370.006 1962.57 370.006 C 1961.31 370.006 1960.62 368.852 1960.94 367.304 C 1961.21 366.06 1961.88 365.156 1962.75 364.871 C 1963.09 364.759 1963.74 364.853 1964.14 365.073 Z" id="path1726" stroke-width="0.75" fill="#65BB9F" fill-opacity="1"/><path d=" M 1969.48 362.794 L 1969.48 363.782 L 1968.46 363.782 L 1967.43 363.782 L 1967.43 364.221 L 1967.43 364.661 L 1968.46 364.661 L 1969.48 364.661 L 1969.48 365.649 L 1969.48 366.638 L 1969.96 366.638 L 1970.44 366.638 L 1970.44 365.649 L 1970.44 364.661 L 1971.46 364.661 L 1972.49 364.661 L 1972.49 364.221 L 1972.49 363.782 L 1971.46 363.782 L 1970.44 363.782 L 1970.44 362.794 L 1970.44 361.805 L 1969.96 361.805 L 1969.48 361.805 Z" id="path1728" stroke-width="0.75" fill="#65BB9F" fill-opacity="1"/><path d=" M 1963.85 351.635 C 1958.22 352.272 1953.6 356.424 1952.49 361.846 C 1952.27 362.902 1952.22 364.876 1952.38 365.953 C 1953.2 371.552 1957.66 375.91 1963.44 376.778 C 1964.41 376.923 1966.35 376.921 1967.35 376.778 C 1971.66 376.145 1975.34 373.521 1977.25 369.716 C 1978.48 367.249 1978.85 364.406 1978.27 361.679 C 1977.28 356.981 1973.54 353.18 1968.7 351.963 C 1967.25 351.598 1965.34 351.47 1963.85 351.639 Z M 1967.13 352.766 C 1972.44 353.539 1976.48 357.442 1977.29 362.593 C 1977.46 363.717 1977.4 365.57 1977.15 366.638 C 1976.59 368.993 1975.49 370.935 1973.8 372.524 C 1969.2 376.851 1961.88 376.926 1957.2 372.694 C 1955 370.713 1953.71 368.125 1953.44 365.159 C 1953.25 363.174 1953.68 360.958 1954.61 359.12 C 1955.24 357.875 1956.5 356.316 1957.6 355.419 C 1959.36 353.989 1961.6 353.019 1963.81 352.737 C 1964.65 352.629 1966.29 352.644 1967.13 352.766 Z" id="path1730" stroke-width="0.75" fill="#65BB9F" fill-opacity="1"/></g></svg>