<svg version="1.1" width="361.983" height="194.318" xmlns="http://www.w3.org/2000/svg" xmlns:xlink="http://www.w3.org/1999/xlink" id="svg15919" overflow="hidden"><defs id="defs15923"><clipPath id="clipPath1181"><path d=" M 1952.07 360.205 C 1952.07 376.581 1965.82 389.855 1982.79 389.855 C 1999.75 389.855 2013.51 376.581 2013.51 360.205 C 2013.51 343.83 1999.75 330.555 1982.79 330.555 C 1965.82 330.555 1952.07 343.83 1952.07 360.205 M 2016.58 360.205 C 2016.58 378.217 2001.45 392.82 1982.79 392.82 C 1964.13 392.82 1949 378.217 1949 360.205 C 1949 342.193 1964.13 327.59 1982.79 327.59 C 2001.45 327.59 2016.58 342.193 2016.58 360.205" id="path1179" clip-rule="evenodd"/></clipPath><clipPath id="clipPath1187"><path d=" M 0 0 L 2560 0 L 2560 6364 L 0 6364 Z" id="path1185"/></clipPath><clipPath id="clipPath1165"><path d=" M 1997.28 366.69 C 1997.28 367.018 1997.27 367.345 1997.26 367.668 C 1998.72 368.718 1999.98 370.031 2000.98 371.534 C 1999.64 370.953 1998.21 370.565 1996.69 370.402 C 1998.24 371.318 1999.42 372.783 1999.98 374.541 C 1998.53 373.695 1996.94 373.091 1995.24 372.777 C 1993.88 374.27 1991.94 375.223 1989.79 375.258 C 1985.67 375.323 1982.32 371.961 1982.32 367.747 C 1982.32 367.149 1982.39 366.568 1982.52 366.007 C 1976.31 366.393 1970.81 369.512 1967.13 374.215 C 1966.48 373.088 1966.12 371.771 1966.12 370.36 C 1966.12 367.692 1967.43 365.319 1969.44 363.921 C 1968.21 363.974 1967.06 364.332 1966.06 364.919 L 1966.06 364.821 C 1966.06 361.091 1968.63 357.966 1972.05 357.237 C 1971.42 357.066 1970.76 356.976 1970.08 356.978 C 1969.6 356.983 1969.13 357.033 1968.67 357.127 C 1969.62 354.071 1972.38 351.838 1975.65 351.763 C 1973.09 349.719 1969.87 348.497 1966.38 348.505 C 1965.78 348.505 1965.18 348.543 1964.59 348.615 C 1967.9 346.427 1971.82 345.152 1976.04 345.152 C 1989.77 345.15 1997.28 356.682 1997.28 366.69" id="path1163" clip-rule="evenodd"/></clipPath><clipPath id="clipPath1171"><path d=" M 0 0 L 2560 0 L 2560 6364 L 0 6364 Z" id="path1169"/></clipPath><clipPath id="clipPath1149"><path d=" M 2073.61 360.045 C 2073.61 376.5 2087.43 389.84 2104.48 389.84 C 2121.53 389.84 2135.35 376.5 2135.35 360.045 C 2135.35 343.59 2121.53 330.249 2104.48 330.249 C 2087.43 330.249 2073.61 343.59 2073.61 360.045 M 2138.44 360.045 C 2138.44 378.146 2123.23 392.819 2104.48 392.819 C 2085.73 392.819 2070.52 378.146 2070.52 360.045 C 2070.52 341.945 2085.73 327.271 2104.48 327.271 C 2123.23 327.271 2138.44 341.945 2138.44 360.045" id="path1147" clip-rule="evenodd"/></clipPath><clipPath id="clipPath1155"><path d=" M 0 0 L 2560 0 L 2560 6364 L 0 6364 Z" id="path1153"/></clipPath><clipPath id="clipPath1133"><path d=" M 2120.15 365.825 C 2120.15 372.621 2114.31 378.954 2105.43 378.954 C 2094.38 378.954 2088.81 371.147 2088.81 364.637 C 2088.81 360.695 2090.32 357.188 2093.58 355.884 C 2094.1 355.669 2094.58 355.877 2094.74 356.455 C 2094.84 356.858 2095.1 357.874 2095.21 358.293 C 2095.37 358.868 2095.31 359.067 2094.88 359.571 C 2093.94 360.664 2093.34 362.072 2093.34 364.068 C 2093.34 369.858 2097.74 375.041 2104.79 375.041 C 2111.04 375.041 2114.47 371.281 2114.47 366.261 C 2114.47 359.653 2111.5 354.077 2107.09 354.077 C 2104.66 354.077 2102.84 356.058 2103.43 358.49 C 2104.12 361.392 2105.48 364.527 2105.48 366.621 C 2105.48 368.495 2104.46 370.062 2102.34 370.062 C 2099.85 370.062 2097.86 367.526 2097.86 364.13 C 2097.86 361.966 2098.6 360.504 2098.6 360.504 C 2098.6 360.504 2096.05 349.875 2095.61 348.017 C 2095.21 346.322 2095.14 344.46 2095.2 342.886 C 2095.37 341.474 2096.79 340.323 2098.01 341.873 C 2098.88 343.236 2099.81 344.954 2100.29 346.677 C 2100.58 347.695 2101.93 352.975 2101.93 352.975 C 2102.74 351.455 2105.09 350.117 2107.61 350.117 C 2115.08 350.121 2120.15 356.836 2120.15 365.825" id="path1131" clip-rule="evenodd"/></clipPath><clipPath id="clipPath1139"><path d=" M 0 0 L 2560 0 L 2560 6364 L 0 6364 Z" id="path1137"/></clipPath><clipPath id="clipPath1117"><path d=" M 2197.34 359.885 C 2197.34 376.422 2211.23 389.826 2228.36 389.826 C 2245.49 389.826 2259.38 376.422 2259.38 359.885 C 2259.38 343.349 2245.49 329.944 2228.36 329.944 C 2211.23 329.944 2197.34 343.349 2197.34 359.885 M 2262.49 359.885 C 2262.49 378.074 2247.21 392.82 2228.36 392.82 C 2209.52 392.82 2194.24 378.074 2194.24 359.885 C 2194.24 341.696 2209.52 326.95 2228.36 326.95 C 2247.21 326.95 2262.49 341.696 2262.49 359.885" id="path1115" clip-rule="evenodd"/></clipPath><clipPath id="clipPath1123"><path d=" M 0 0 L 2560 0 L 2560 6364 L 0 6364 Z" id="path1121"/></clipPath><clipPath id="clipPath1101"><path d=" M 2233.61 358.618 L 2238.86 358.618 L 2238.86 353.552 L 2241.49 353.552 L 2241.49 358.618 L 2246.74 358.618 L 2246.74 361.151 L 2241.49 361.151 L 2241.49 366.216 L 2238.86 366.216 L 2238.86 361.151 L 2233.61 361.151 Z" id="path1099" clip-rule="evenodd"/></clipPath><clipPath id="clipPath1107"><path d=" M 0 0 L 2560 0 L 2560 6364 L 0 6364 Z" id="path1105"/></clipPath><clipPath id="clipPath1085"><path d=" M 2222.79 342.645 C 2217.6 342.645 2214.26 345.031 2214.26 348.355 C 2214.26 351.678 2217.36 352.802 2218.43 353.174 C 2220.47 353.831 2223.08 353.926 2223.52 353.926 C 2224.01 353.926 2224.25 353.926 2224.64 353.879 C 2228.32 351.351 2229.92 350.088 2229.92 347.698 C 2229.92 344.798 2227.45 342.645 2222.79 342.645 M 2222.75 361.462 C 2218.57 361.462 2216.68 366.661 2216.68 369.795 C 2216.68 371.014 2216.92 372.275 2217.75 373.26 C 2218.52 374.196 2219.88 374.808 2221.14 374.808 C 2225.17 374.808 2227.25 369.562 2227.25 366.193 C 2227.25 365.349 2227.16 363.853 2226.04 362.775 C 2225.26 362.025 2223.96 361.466 2222.75 361.462 M 2233.17 349.526 C 2233.17 352.755 2231.23 354.349 2229.1 356.082 L 2227.35 357.394 C 2226.82 357.814 2226.09 358.375 2226.09 359.406 C 2226.09 360.436 2226.82 361.091 2227.45 361.699 C 2229.49 363.245 2231.53 364.882 2231.53 368.346 C 2231.53 371.906 2229.2 373.777 2228.08 374.666 L 2231.09 374.666 L 2234.19 376.352 L 2224.2 376.352 C 2221.58 376.352 2218.28 375.978 2215.52 373.777 C 2213.43 372.047 2212.41 369.658 2212.41 367.505 C 2212.41 363.855 2215.32 360.154 2220.46 360.154 C 2220.95 360.154 2221.48 360.203 2222.02 360.247 C 2221.78 359.684 2221.53 359.218 2221.53 358.42 C 2221.53 356.972 2222.31 356.079 2222.99 355.238 C 2220.81 355.097 2216.73 354.864 2213.73 353.086 C 2210.86 351.448 2209.99 349.058 2209.99 347.373 C 2209.99 343.908 2213.39 340.677 2220.42 340.677 C 2228.76 340.677 2233.17 345.128 2233.17 349.526" id="path1083" clip-rule="evenodd"/></clipPath><clipPath id="clipPath1091"><path d=" M 0 0 L 2560 0 L 2560 6364 L 0 6364 Z" id="path1089"/></clipPath><clipPath id="clipPath1069"><path d=" M 1829.08 360.102 C 1829.08 376.53 1842.88 389.845 1859.9 389.845 C 1876.92 389.845 1890.71 376.53 1890.71 360.102 C 1890.71 343.674 1876.92 330.359 1859.9 330.359 C 1842.88 330.359 1829.08 343.674 1829.08 360.102 M 1859.9 392.819 C 1841.18 392.819 1826 378.172 1826 360.102 C 1826 342.033 1841.18 327.384 1859.9 327.384 C 1878.62 327.384 1893.8 342.033 1893.8 360.102 C 1893.8 378.172 1878.62 392.819 1859.9 392.819 Z" id="path1067" clip-rule="evenodd"/></clipPath><clipPath id="clipPath1075"><path d=" M 0 0 L 2560 0 L 2560 6364 L 0 6364 Z" id="path1073"/></clipPath><clipPath id="clipPath1053"><path d=" M 1861.2 341.218 L 1861.2 360.102 L 1867.65 360.102 L 1868.67 366.36 L 1861.2 366.36 L 1861.2 369.498 C 1861.2 371.131 1861.75 372.689 1864.18 372.689 L 1869.03 372.689 L 1869.03 378.936 L 1862.14 378.936 C 1856.35 378.936 1854.77 375.253 1854.77 370.149 L 1854.77 366.363 L 1850.79 366.363 L 1850.79 360.102 L 1854.77 360.102 L 1854.77 341.218 Z" id="path1051" clip-rule="evenodd"/></clipPath><clipPath id="clipPath1059"><path d=" M 0 0 L 2560 0 L 2560 6364 L 0 6364 Z" id="path1057"/></clipPath><clipPath id="clipPath13243"><path d=" M 1952.07 360.205 C 1952.07 376.581 1965.82 389.855 1982.79 389.855 C 1999.75 389.855 2013.51 376.581 2013.51 360.205 C 2013.51 343.83 1999.75 330.555 1982.79 330.555 C 1965.82 330.555 1952.07 343.83 1952.07 360.205 M 2016.58 360.205 C 2016.58 378.217 2001.45 392.82 1982.79 392.82 C 1964.13 392.82 1949 378.217 1949 360.205 C 1949 342.193 1964.13 327.59 1982.79 327.59 C 2001.45 327.59 2016.58 342.193 2016.58 360.205" id="path13241" clip-rule="evenodd"/></clipPath><clipPath id="clipPath13249"><path d=" M 0 0 L 2560 0 L 2560 6350 L 0 6350 Z" id="path13247"/></clipPath><clipPath id="clipPath13227"><path d=" M 1997.28 366.69 C 1997.28 367.018 1997.27 367.345 1997.26 367.668 C 1998.72 368.718 1999.98 370.031 2000.98 371.534 C 1999.64 370.953 1998.21 370.565 1996.69 370.402 C 1998.24 371.318 1999.42 372.783 1999.98 374.541 C 1998.53 373.695 1996.94 373.091 1995.24 372.777 C 1993.88 374.27 1991.94 375.223 1989.79 375.258 C 1985.67 375.323 1982.32 371.961 1982.32 367.747 C 1982.32 367.149 1982.39 366.568 1982.52 366.007 C 1976.31 366.393 1970.81 369.512 1967.13 374.215 C 1966.48 373.088 1966.12 371.771 1966.12 370.36 C 1966.12 367.692 1967.43 365.319 1969.44 363.921 C 1968.21 363.974 1967.06 364.332 1966.06 364.919 L 1966.06 364.821 C 1966.06 361.091 1968.63 357.966 1972.05 357.237 C 1971.42 357.066 1970.76 356.976 1970.08 356.978 C 1969.6 356.983 1969.13 357.033 1968.67 357.127 C 1969.62 354.071 1972.38 351.838 1975.65 351.763 C 1973.09 349.719 1969.87 348.497 1966.38 348.505 C 1965.78 348.505 1965.18 348.543 1964.59 348.615 C 1967.9 346.427 1971.82 345.152 1976.04 345.152 C 1989.77 345.15 1997.28 356.682 1997.28 366.69" id="path13225" clip-rule="evenodd"/></clipPath><clipPath id="clipPath13233"><path d=" M 0 0 L 2560 0 L 2560 6350 L 0 6350 Z" id="path13231"/></clipPath><clipPath id="clipPath13211"><path d=" M 2073.61 360.045 C 2073.61 376.5 2087.43 389.84 2104.48 389.84 C 2121.53 389.84 2135.35 376.5 2135.35 360.045 C 2135.35 343.59 2121.53 330.249 2104.48 330.249 C 2087.43 330.249 2073.61 343.59 2073.61 360.045 M 2138.44 360.045 C 2138.44 378.146 2123.23 392.819 2104.48 392.819 C 2085.73 392.819 2070.52 378.146 2070.52 360.045 C 2070.52 341.945 2085.73 327.271 2104.48 327.271 C 2123.23 327.271 2138.44 341.945 2138.44 360.045" id="path13209" clip-rule="evenodd"/></clipPath><clipPath id="clipPath13217"><path d=" M 0 0 L 2560 0 L 2560 6350 L 0 6350 Z" id="path13215"/></clipPath><clipPath id="clipPath13195"><path d=" M 2120.15 365.825 C 2120.15 372.621 2114.31 378.954 2105.43 378.954 C 2094.38 378.954 2088.81 371.147 2088.81 364.637 C 2088.81 360.695 2090.32 357.188 2093.58 355.884 C 2094.1 355.669 2094.58 355.877 2094.74 356.455 C 2094.84 356.858 2095.1 357.874 2095.21 358.293 C 2095.37 358.868 2095.31 359.067 2094.88 359.571 C 2093.94 360.664 2093.34 362.072 2093.34 364.068 C 2093.34 369.858 2097.74 375.041 2104.79 375.041 C 2111.04 375.041 2114.47 371.281 2114.47 366.261 C 2114.47 359.653 2111.5 354.077 2107.09 354.077 C 2104.66 354.077 2102.84 356.058 2103.43 358.49 C 2104.12 361.392 2105.48 364.527 2105.48 366.621 C 2105.48 368.495 2104.46 370.062 2102.34 370.062 C 2099.85 370.062 2097.86 367.526 2097.86 364.13 C 2097.86 361.966 2098.6 360.504 2098.6 360.504 C 2098.6 360.504 2096.05 349.875 2095.61 348.017 C 2095.21 346.322 2095.14 344.46 2095.2 342.886 C 2095.37 341.474 2096.79 340.323 2098.01 341.873 C 2098.88 343.236 2099.81 344.954 2100.29 346.677 C 2100.58 347.695 2101.93 352.975 2101.93 352.975 C 2102.74 351.455 2105.09 350.117 2107.61 350.117 C 2115.08 350.121 2120.15 356.836 2120.15 365.825" id="path13193" clip-rule="evenodd"/></clipPath><clipPath id="clipPath13201"><path d=" M 0 0 L 2560 0 L 2560 6350 L 0 6350 Z" id="path13199"/></clipPath><clipPath id="clipPath13179"><path d=" M 2197.34 359.885 C 2197.34 376.422 2211.23 389.826 2228.36 389.826 C 2245.49 389.826 2259.38 376.422 2259.38 359.885 C 2259.38 343.349 2245.49 329.944 2228.36 329.944 C 2211.23 329.944 2197.34 343.349 2197.34 359.885 M 2262.49 359.885 C 2262.49 378.074 2247.21 392.82 2228.36 392.82 C 2209.52 392.82 2194.24 378.074 2194.24 359.885 C 2194.24 341.696 2209.52 326.95 2228.36 326.95 C 2247.21 326.95 2262.49 341.696 2262.49 359.885" id="path13177" clip-rule="evenodd"/></clipPath><clipPath id="clipPath13185"><path d=" M 0 0 L 2560 0 L 2560 6350 L 0 6350 Z" id="path13183"/></clipPath><clipPath id="clipPath13163"><path d=" M 2233.61 358.618 L 2238.86 358.618 L 2238.86 353.552 L 2241.49 353.552 L 2241.49 358.618 L 2246.74 358.618 L 2246.74 361.151 L 2241.49 361.151 L 2241.49 366.216 L 2238.86 366.216 L 2238.86 361.151 L 2233.61 361.151 Z" id="path13161" clip-rule="evenodd"/></clipPath><clipPath id="clipPath13169"><path d=" M 0 0 L 2560 0 L 2560 6350 L 0 6350 Z" id="path13167"/></clipPath><clipPath id="clipPath13147"><path d=" M 2222.79 342.645 C 2217.6 342.645 2214.26 345.031 2214.26 348.355 C 2214.26 351.678 2217.36 352.802 2218.43 353.174 C 2220.47 353.831 2223.08 353.926 2223.52 353.926 C 2224.01 353.926 2224.25 353.926 2224.64 353.879 C 2228.32 351.351 2229.92 350.088 2229.92 347.698 C 2229.92 344.798 2227.45 342.645 2222.79 342.645 M 2222.75 361.462 C 2218.57 361.462 2216.68 366.661 2216.68 369.795 C 2216.68 371.014 2216.92 372.275 2217.75 373.26 C 2218.52 374.196 2219.88 374.808 2221.14 374.808 C 2225.17 374.808 2227.25 369.562 2227.25 366.193 C 2227.25 365.349 2227.16 363.853 2226.04 362.775 C 2225.26 362.025 2223.96 361.466 2222.75 361.462 M 2233.17 349.526 C 2233.17 352.755 2231.23 354.349 2229.1 356.082 L 2227.35 357.394 C 2226.82 357.814 2226.09 358.375 2226.09 359.406 C 2226.09 360.436 2226.82 361.091 2227.45 361.699 C 2229.49 363.245 2231.53 364.882 2231.53 368.346 C 2231.53 371.906 2229.2 373.777 2228.08 374.666 L 2231.09 374.666 L 2234.19 376.352 L 2224.2 376.352 C 2221.58 376.352 2218.28 375.978 2215.52 373.777 C 2213.43 372.047 2212.41 369.658 2212.41 367.505 C 2212.41 363.855 2215.32 360.154 2220.46 360.154 C 2220.95 360.154 2221.48 360.203 2222.02 360.247 C 2221.78 359.684 2221.53 359.218 2221.53 358.42 C 2221.53 356.972 2222.31 356.079 2222.99 355.238 C 2220.81 355.097 2216.73 354.864 2213.73 353.086 C 2210.86 351.448 2209.99 349.058 2209.99 347.373 C 2209.99 343.908 2213.39 340.677 2220.42 340.677 C 2228.76 340.677 2233.17 345.128 2233.17 349.526" id="path13145" clip-rule="evenodd"/></clipPath><clipPath id="clipPath13153"><path d=" M 0 0 L 2560 0 L 2560 6350 L 0 6350 Z" id="path13151"/></clipPath><clipPath id="clipPath13131"><path d=" M 1829.08 360.102 C 1829.08 376.53 1842.88 389.845 1859.9 389.845 C 1876.92 389.845 1890.71 376.53 1890.71 360.102 C 1890.71 343.674 1876.92 330.359 1859.9 330.359 C 1842.88 330.359 1829.08 343.674 1829.08 360.102 M 1859.9 392.819 C 1841.18 392.819 1826 378.172 1826 360.102 C 1826 342.033 1841.18 327.384 1859.9 327.384 C 1878.62 327.384 1893.8 342.033 1893.8 360.102 C 1893.8 378.172 1878.62 392.819 1859.9 392.819 Z" id="path13129" clip-rule="evenodd"/></clipPath><clipPath id="clipPath13137"><path d=" M 0 0 L 2560 0 L 2560 6350 L 0 6350 Z" id="path13135"/></clipPath><clipPath id="clipPath13115"><path d=" M 1861.2 341.218 L 1861.2 360.102 L 1867.65 360.102 L 1868.67 366.36 L 1861.2 366.36 L 1861.2 369.498 C 1861.2 371.131 1861.75 372.689 1864.18 372.689 L 1869.03 372.689 L 1869.03 378.936 L 1862.14 378.936 C 1856.35 378.936 1854.77 375.253 1854.77 370.149 L 1854.77 366.363 L 1850.79 366.363 L 1850.79 360.102 L 1854.77 360.102 L 1854.77 341.218 Z" id="path13113" clip-rule="evenodd"/></clipPath><clipPath id="clipPath13121"><path d=" M 0 0 L 2560 0 L 2560 6350 L 0 6350 Z" id="path13119"/></clipPath></defs><g id="g13109" transform="matrix(1.33333,0,0,-1.33333,-2434.67,523.76)"><g id="g13111" clip-path="url(#clipPath13115)"><g id="g13117" clip-path="url(#clipPath13121)"><path d=" M 1840.79 331.218 L 1879.03 331.218 L 1879.03 388.936 L 1840.79 388.936 Z" id="path13123" stroke="none" fill="#FFFFFF" fill-rule="nonzero" fill-opacity="1"/></g></g></g><g id="g13125" transform="matrix(1.33333,0,0,-1.33333,-2434.67,523.76)"><g id="g13127" clip-path="url(#clipPath13131)"><g id="g13133" clip-path="url(#clipPath13137)"><path d=" M 1816 317.384 L 1903.8 317.384 L 1903.8 402.819 L 1816 402.819 Z" id="path13139" stroke="none" fill="#FFFFFF" fill-rule="nonzero" fill-opacity="1"/></g></g></g><g id="g13141" transform="matrix(1.33333,0,0,-1.33333,-2654.67,523.76)"><g id="g13143" clip-path="url(#clipPath13147)"><g id="g13149" clip-path="url(#clipPath13153)"><path d=" M 2199.99 330.677 L 2244.19 330.677 L 2244.19 386.352 L 2199.99 386.352 Z" id="path13155" stroke="none" fill="#FFFFFF" fill-rule="nonzero" fill-opacity="1"/></g></g></g><g id="g13157" transform="matrix(1.33333,0,0,-1.33333,-2654.67,523.76)"><g id="g13159" clip-path="url(#clipPath13163)"><g id="g13165" clip-path="url(#clipPath13169)"><path d=" M 2223.61 343.552 L 2256.74 343.552 L 2256.74 376.216 L 2223.61 376.216 Z" id="path13171" stroke="none" fill="#FFFFFF" fill-rule="nonzero" fill-opacity="1"/></g></g></g><g id="g13173" transform="matrix(1.33333,0,0,-1.33333,-2654.67,523.76)"><g id="g13175" clip-path="url(#clipPath13179)"><g id="g13181" clip-path="url(#clipPath13185)"><path d=" M 2184.24 316.95 L 2272.49 316.95 L 2272.49 402.82 L 2184.24 402.82 Z" id="path13187" stroke="none" fill="#FFFFFF" fill-rule="nonzero" fill-opacity="1"/></g></g></g><g id="g13189" transform="matrix(1.33333,0,0,-1.33333,-2580.67,523.76)"><g id="g13191" clip-path="url(#clipPath13195)"><g id="g13197" clip-path="url(#clipPath13201)"><path d=" M 2078.81 331.133 L 2130.15 331.133 L 2130.15 388.954 L 2078.81 388.954 Z" id="path13203" stroke="none" fill="#FFFFFF" fill-rule="nonzero" fill-opacity="1"/></g></g></g><g id="g13205" transform="matrix(1.33333,0,0,-1.33333,-2580.67,523.76)"><g id="g13207" clip-path="url(#clipPath13211)"><g id="g13213" clip-path="url(#clipPath13217)"><path d=" M 2060.52 317.271 L 2148.44 317.271 L 2148.44 402.819 L 2060.52 402.819 Z" id="path13219" stroke="none" fill="#FFFFFF" fill-rule="nonzero" fill-opacity="1"/></g></g></g><g id="g13221" transform="matrix(1.33333,0,0,-1.33333,-2508.67,523.76)"><g id="g13223" clip-path="url(#clipPath13227)"><g id="g13229" clip-path="url(#clipPath13233)"><path d=" M 1954.59 335.152 L 2010.98 335.152 L 2010.98 385.259 L 1954.59 385.259 Z" id="path13235" stroke="none" fill="#FFFFFF" fill-rule="nonzero" fill-opacity="1"/></g></g></g><g id="g13237" transform="matrix(1.33333,0,0,-1.33333,-2508.67,523.76)"><g id="g13239" clip-path="url(#clipPath13243)"><g id="g13245" clip-path="url(#clipPath13249)"><path d=" M 1939 317.59 L 2026.58 317.59 L 2026.58 402.82 L 1939 402.82 Z" id="path13251" stroke="none" fill="#FFFFFF" fill-rule="nonzero" fill-opacity="1"/></g></g></g><g id="g1047" transform="matrix(1.33333,0,0,-1.33333,-2434.67,630.252)"><g id="g1049" clip-path="url(#clipPath1053)"><g id="g1055" clip-path="url(#clipPath1059)"><path d=" M 1840.79 331.218 L 1879.03 331.218 L 1879.03 388.936 L 1840.79 388.936 Z" id="path1061" stroke="none" fill="#F8AC32" fill-rule="nonzero" fill-opacity="1"/></g></g></g><g id="g1063" transform="matrix(1.33333,0,0,-1.33333,-2434.67,630.252)"><g id="g1065" clip-path="url(#clipPath1069)"><g id="g1071" clip-path="url(#clipPath1075)"><path d=" M 1816 317.384 L 1903.8 317.384 L 1903.8 402.819 L 1816 402.819 Z" id="path1077" stroke="none" fill="#F8AC32" fill-rule="nonzero" fill-opacity="1"/></g></g></g><g id="g1079" transform="matrix(1.33333,0,0,-1.33333,-2654.67,630.252)"><g id="g1081" clip-path="url(#clipPath1085)"><g id="g1087" clip-path="url(#clipPath1091)"><path d=" M 2199.99 330.677 L 2244.19 330.677 L 2244.19 386.352 L 2199.99 386.352 Z" id="path1093" stroke="none" fill="#F8AC32" fill-rule="nonzero" fill-opacity="1"/></g></g></g><g id="g1095" transform="matrix(1.33333,0,0,-1.33333,-2654.67,630.252)"><g id="g1097" clip-path="url(#clipPath1101)"><g id="g1103" clip-path="url(#clipPath1107)"><path d=" M 2223.61 343.552 L 2256.74 343.552 L 2256.74 376.216 L 2223.61 376.216 Z" id="path1109" stroke="none" fill="#F8AC32" fill-rule="nonzero" fill-opacity="1"/></g></g></g><g id="g1111" transform="matrix(1.33333,0,0,-1.33333,-2654.67,630.252)"><g id="g1113" clip-path="url(#clipPath1117)"><g id="g1119" clip-path="url(#clipPath1123)"><path d=" M 2184.24 316.95 L 2272.49 316.95 L 2272.49 402.82 L 2184.24 402.82 Z" id="path1125" stroke="none" fill="#F8AC32" fill-rule="nonzero" fill-opacity="1"/></g></g></g><g id="g1127" transform="matrix(1.33333,0,0,-1.33333,-2580.67,630.252)"><g id="g1129" clip-path="url(#clipPath1133)"><g id="g1135" clip-path="url(#clipPath1139)"><path d=" M 2078.81 331.133 L 2130.15 331.133 L 2130.15 388.954 L 2078.81 388.954 Z" id="path1141" stroke="none" fill="#F8AC32" fill-rule="nonzero" fill-opacity="1"/></g></g></g><g id="g1143" transform="matrix(1.33333,0,0,-1.33333,-2580.67,630.252)"><g id="g1145" clip-path="url(#clipPath1149)"><g id="g1151" clip-path="url(#clipPath1155)"><path d=" M 2060.52 317.271 L 2148.44 317.271 L 2148.44 402.819 L 2060.52 402.819 Z" id="path1157" stroke="none" fill="#F8AC32" fill-rule="nonzero" fill-opacity="1"/></g></g></g><g id="g1159" transform="matrix(1.33333,0,0,-1.33333,-2508.67,630.252)"><g id="g1161" clip-path="url(#clipPath1165)"><g id="g1167" clip-path="url(#clipPath1171)"><path d=" M 1954.59 335.152 L 2010.98 335.152 L 2010.98 385.259 L 1954.59 385.259 Z" id="path1173" stroke="none" fill="#F8AC32" fill-rule="nonzero" fill-opacity="1"/></g></g></g><g id="g1175" transform="matrix(1.33333,0,0,-1.33333,-2508.67,630.252)"><g id="g1177" clip-path="url(#clipPath1181)"><g id="g1183" clip-path="url(#clipPath1187)"><path d=" M 1939 317.59 L 2026.58 317.59 L 2026.58 402.82 L 1939 402.82 Z" id="path1189" stroke="none" fill="#F8AC32" fill-rule="nonzero" fill-opacity="1"/></g></g></g></svg>