<svg version="1.1" width="56" height="47.4827" xmlns="http://www.w3.org/2000/svg" xmlns:xlink="http://www.w3.org/1999/xlink" id="svg4839" overflow="hidden"><defs id="defs4843"><clipPath id="clipPath3854"><path d=" M 2026 8081.27 L 2026 8045.66 L 2068 8045.66 L 2068 8081.27 Z" id="path3852" clip-rule="evenodd"/></clipPath><clipPath id="clipPath3860"><path d=" M 0 0 L 2560 0 L 2560 8102 L 0 8102 Z" id="path3858"/></clipPath><clipPath id="clipPath3866"><path d=" M 2026 8045 L 2068 8045 L 2068 8082 L 2026 8082 Z" id="path3864"/></clipPath><clipPath id="clipPath3870"><path d=" M 2061.98 8065.75 C 2060.03 8065.75 2058.41 8067.12 2058.08 8068.92 L 2065.88 8068.92 C 2065.55 8067.13 2063.92 8065.75 2061.98 8065.75 Z M 2062.33 8047.66 L 2045.36 8047.66 L 2045.36 8058.45 C 2045.36 8060.34 2043.78 8061.88 2041.83 8061.88 L 2038.84 8061.88 C 2036.9 8061.88 2035.31 8060.35 2035.31 8058.45 L 2035.31 8047.65 L 2031.66 8047.65 L 2031.66 8063.76 C 2031.79 8063.75 2031.91 8063.75 2032.03 8063.75 C 2034.1 8063.75 2035.94 8064.78 2037.02 8066.34 C 2038.1 8064.78 2039.94 8063.75 2042.01 8063.75 C 2044.09 8063.75 2045.92 8064.78 2047.01 8066.34 C 2048.09 8064.78 2049.93 8063.75 2051.99 8063.75 C 2054.07 8063.75 2055.9 8064.78 2056.98 8066.34 C 2058.06 8064.78 2059.9 8063.75 2061.98 8063.75 C 2062.09 8063.75 2062.21 8063.76 2062.33 8063.76 Z M 2043.3 8047.66 L 2037.38 8047.66 L 2037.38 8058.45 C 2037.38 8059.24 2038.03 8059.88 2038.85 8059.88 L 2041.84 8059.88 C 2042.65 8059.88 2043.31 8059.25 2043.31 8058.45 L 2043.31 8047.66 L 2043.3 8047.66 Z M 2028.13 8068.93 L 2035.93 8068.93 C 2035.6 8067.13 2033.97 8065.76 2032.03 8065.76 C 2030.08 8065.75 2028.45 8067.13 2028.13 8068.93 Z M 2045.91 8068.93 C 2045.58 8067.13 2043.96 8065.76 2042.01 8065.76 C 2040.07 8065.76 2038.44 8067.13 2038.11 8068.93 Z M 2055.89 8068.93 C 2055.56 8067.13 2053.94 8065.76 2051.99 8065.76 C 2050.05 8065.76 2048.43 8067.13 2048.1 8068.93 Z M 2033.87 8079.26 L 2060.12 8079.26 L 2065 8070.92 L 2028.99 8070.92 Z M 2068 8069.6 C 2068 8069.78 2067.96 8069.94 2067.86 8070.1 L 2061.61 8080.76 C 2061.43 8081.07 2061.09 8081.27 2060.72 8081.27 L 2033.27 8081.27 C 2032.9 8081.27 2032.56 8081.08 2032.38 8080.76 L 2026.14 8070.1 C 2026.05 8069.94 2026 8069.78 2026 8069.6 C 2026 8067.21 2027.48 8065.16 2029.6 8064.25 L 2029.6 8046.66 C 2029.6 8046.11 2030.07 8045.66 2030.63 8045.66 L 2036.32 8045.66 L 2036.35 8045.66 L 2044.33 8045.66 L 2044.36 8045.66 L 2063.36 8045.66 C 2063.92 8045.66 2064.39 8046.11 2064.39 8046.66 L 2064.39 8064.13 C 2064.39 8064.17 2064.39 8064.2 2064.38 8064.24 C 2066.51 8065.15 2068 8067.2 2068 8069.6 L 2068 8069.6 Z" id="path3868" clip-rule="evenodd"/></clipPath><clipPath id="clipPath3874"><path d=" M 2026 8045 L 2068 8045 L 2068 8082 L 2026 8082 Z" id="path3872"/></clipPath></defs><g id="g3848" transform="matrix(1.33333,0,0,-1.33333,-2701.33,10775)"><g id="g3850" clip-path="url(#clipPath3854)"><g id="g3856" clip-path="url(#clipPath3860)"><g id="g3862"></g><g id="g3888"><g id="g3886" clip-path="url(#clipPath3866)"><g id="g3876"></g><g id="g3884"><g id="g3882" clip-path="url(#clipPath3870)"><g id="g3880" clip-path="url(#clipPath3874)"><path d=" M 2016 8035.66 L 2078 8035.66 L 2078 8091.27 L 2016 8091.27 Z" id="path3878" stroke="none" fill="#044651" fill-rule="nonzero" fill-opacity="1"/></g></g></g></g></g></g></g></g></svg>