<svg version="1.1" width="15.9057" height="36.5115" xmlns="http://www.w3.org/2000/svg" xmlns:xlink="http://www.w3.org/1999/xlink" id="svg4219" overflow="hidden"><defs id="defs4223"><clipPath id="clipPath2700"><path d=" M 1188.4 4039.08 L 1189.32 4033.46 C 1189.36 4033.18 1189.26 4032.91 1189.04 4032.74 C 1188.82 4032.57 1188.54 4032.55 1188.3 4032.68 L 1183.5 4035.34 C 1183.27 4035.46 1183.02 4035.53 1182.76 4035.53 C 1182.51 4035.53 1182.26 4035.46 1182.02 4035.34 L 1177.23 4032.68 C 1176.98 4032.55 1176.71 4032.57 1176.49 4032.74 C 1176.27 4032.91 1176.16 4033.18 1176.21 4033.46 L 1177.13 4039.08 C 1177.21 4039.63 1177.04 4040.18 1176.67 4040.56 L 1172.79 4044.54 C 1172.59 4044.75 1172.53 4045.03 1172.61 4045.3 C 1172.69 4045.57 1172.91 4045.76 1173.18 4045.8 L 1178.54 4046.63 C 1179.06 4046.7 1179.5 4047.04 1179.74 4047.54 L 1182.13 4052.66 C 1182.25 4052.91 1182.49 4053.07 1182.76 4053.07 C 1183.04 4053.07 1183.27 4052.91 1183.39 4052.66 L 1185.79 4047.54 C 1186.02 4047.04 1186.47 4046.7 1186.99 4046.63 L 1192.35 4045.8 C 1192.62 4045.76 1192.83 4045.57 1192.92 4045.3 C 1193 4045.03 1192.93 4044.75 1192.74 4044.54 L 1188.86 4040.56 C 1188.48 4040.18 1188.31 4039.63 1188.4 4039.08 Z M 1193.36 4043.88 C 1193.79 4044.32 1193.95 4044.98 1193.76 4045.59 C 1193.57 4046.2 1193.08 4046.64 1192.47 4046.73 L 1187.11 4047.55 C 1186.88 4047.58 1186.69 4047.73 1186.58 4047.95 L 1184.19 4053.07 C 1183.92 4053.64 1183.37 4054 1182.76 4054 C 1182.16 4054 1181.61 4053.64 1181.34 4053.07 L 1178.94 4047.95 C 1178.84 4047.73 1178.64 4047.58 1178.41 4047.55 L 1173.05 4046.73 C 1172.45 4046.64 1171.96 4046.2 1171.77 4045.59 C 1171.58 4044.98 1171.73 4044.32 1172.17 4043.88 L 1176.05 4039.9 C 1176.21 4039.73 1176.29 4039.48 1176.25 4039.24 L 1175.34 4033.62 C 1175.23 4032.99 1175.47 4032.36 1175.97 4031.98 C 1176.46 4031.61 1177.1 4031.56 1177.64 4031.85 L 1182.44 4034.51 C 1182.64 4034.62 1182.89 4034.62 1183.09 4034.51 L 1187.89 4031.85 C 1188.12 4031.73 1188.37 4031.66 1188.63 4031.66 C 1188.95 4031.66 1189.28 4031.77 1189.56 4031.98 C 1190.05 4032.36 1190.29 4032.99 1190.19 4033.62 L 1189.27 4039.24 C 1189.23 4039.48 1189.31 4039.72 1189.48 4039.89 Z" id="path2698" clip-rule="evenodd"/></clipPath><clipPath id="clipPath2706"><path d=" M 0 0 L 2560 0 L 2560 8102 L 0 8102 Z" id="path2704"/></clipPath><clipPath id="clipPath2658"><path d=" M 1165.74 4054 L 1143.27 4054 L 1143.27 4031.6 L 1165.74 4031.6 Z" id="path2656" clip-rule="evenodd"/></clipPath><clipPath id="clipPath2664"><path d=" M 0 0 L 2560 0 L 2560 8102 L 0 8102 Z" id="path2662"/></clipPath><clipPath id="clipPath2670"><path d=" M 1143 4031 L 1166 4031 L 1166 4054 L 1143 4054 Z" id="path2668"/></clipPath><clipPath id="clipPath2674"><path d=" M 1165.26 4043.85 C 1165.7 4044.3 1165.85 4044.95 1165.66 4045.57 C 1165.47 4046.18 1164.97 4046.62 1164.36 4046.71 L 1158.92 4047.53 C 1158.69 4047.57 1158.49 4047.72 1158.38 4047.93 L 1155.95 4053.06 C 1155.68 4053.64 1155.12 4054 1154.51 4054 C 1154.09 4054 1153.7 4053.84 1153.41 4053.54 C 1153.26 4053.41 1153.15 4053.25 1153.06 4053.06 L 1151.03 4048.78 L 1150.62 4047.93 C 1150.52 4047.72 1150.33 4047.57 1150.09 4047.53 L 1144.64 4046.71 C 1144.04 4046.62 1143.54 4046.18 1143.35 4045.57 C 1143.15 4044.95 1143.31 4044.3 1143.75 4043.85 L 1147.69 4039.86 C 1147.86 4039.69 1147.93 4039.44 1147.9 4039.2 L 1146.96 4033.57 C 1146.86 4032.93 1147.1 4032.31 1147.6 4031.94 C 1148.11 4031.55 1148.76 4031.5 1149.31 4031.8 L 1151.03 4032.73 L 1154.18 4034.47 C 1154.27 4034.53 1154.39 4034.55 1154.51 4034.55 C 1154.61 4034.55 1154.73 4034.53 1154.84 4034.47 L 1159.7 4031.8 C 1159.94 4031.67 1160.2 4031.61 1160.45 4031.61 C 1160.78 4031.61 1161.11 4031.71 1161.4 4031.94 C 1161.9 4032.31 1162.15 4032.93 1162.04 4033.57 L 1161.11 4039.2 C 1161.07 4039.44 1161.15 4039.69 1161.32 4039.86 Z" id="path2672" clip-rule="evenodd"/></clipPath><clipPath id="clipPath2678"><path d=" M 1143 4031 L 1166 4031 L 1166 4054 L 1143 4054 Z" id="path2676"/></clipPath></defs><g id="g2652" transform="matrix(0.667379,0,0,-0.669766,-762.991,2715.23)"><g id="g2654" clip-path="url(#clipPath2658)"><g id="g2660" clip-path="url(#clipPath2664)"><g id="g2666"></g><g id="g2692"><g id="g2690" clip-path="url(#clipPath2670)"><g id="g2680"></g><g id="g2688"><g id="g2686" clip-path="url(#clipPath2674)"><g id="g2684" clip-path="url(#clipPath2678)"><path d=" M 1133.27 4021.6 L 1175.74 4021.6 L 1175.74 4064 L 1133.27 4064 Z" id="path2682" stroke="none" fill="#044651" fill-rule="nonzero" fill-opacity="1"/></g></g></g></g></g></g></g></g><g id="g2694" transform="matrix(0.677226,0,0,-0.671475,-792.592,2743.67)"><g id="g2696" clip-path="url(#clipPath2700)"><g id="g2702" clip-path="url(#clipPath2706)"><path d=" M 1161.69 4021.66 L 1203.84 4021.66 L 1203.84 4064 L 1161.69 4064 Z" id="path2708" stroke="none" fill="#044651" fill-rule="nonzero" fill-opacity="1"/></g></g></g></svg>