<svg version="1.1" width="79.9257" height="83.7825" xmlns="http://www.w3.org/2000/svg" xmlns:xlink="http://www.w3.org/1999/xlink" id="svg11811" overflow="hidden"><defs id="defs11815"><clipPath id="clipPath4745"><path d=" M 543.944 480.031 L 543.944 542.868 L 484 542.868 L 484 480.031 Z" id="path4743" clip-rule="evenodd"/></clipPath><clipPath id="clipPath4751"><path d=" M 0 0 L 1280 0 L 1280 2443 L 0 2443 Z" id="path4749"/></clipPath><clipPath id="clipPath4757"><path d=" M 484 480 L 544 480 L 544 543 L 484 543 Z" id="path4755"/></clipPath><clipPath id="clipPath4761"><path d=" M 539.663 535.727 L 535.381 535.727 L 535.381 538.584 L 539.663 538.584 C 540.45 538.584 541.09 537.942 541.09 537.156 C 541.09 536.369 540.45 535.727 539.663 535.727 Z M 527.531 533.091 C 527.317 532.964 527.083 532.871 526.817 532.871 C 526.029 532.871 525.39 533.512 525.39 534.299 C 525.39 535.086 526.029 535.727 526.817 535.727 C 527.083 535.727 527.317 535.635 527.531 535.509 C 527.111 535.26 526.817 534.822 526.817 534.299 C 526.817 533.777 527.111 533.34 527.531 533.091 Z M 532.526 523.813 C 532.526 522.686 532.07 521.582 531.272 520.784 L 505.41 494.905 C 505.035 494.529 504.515 494.314 503.983 494.314 L 503.981 494.314 C 503.441 494.314 502.936 494.524 502.554 494.905 L 499.699 497.761 L 497.147 500.314 L 497.146 500.316 L 487.447 510.022 C 487.063 510.405 486.854 510.912 486.854 511.452 C 486.854 511.991 487.063 512.498 487.445 512.88 L 513.308 538.758 C 514.118 539.567 515.192 540.012 516.337 540.012 L 531.517 540.012 C 531.786 540.012 532.039 539.907 532.231 539.717 C 532.422 539.525 532.526 539.273 532.526 539.003 L 532.526 535.728 L 530.836 535.728 C 530.246 537.387 528.676 538.584 526.817 538.584 C 524.457 538.584 522.536 536.662 522.536 534.3 C 522.536 531.938 524.457 530.015 526.817 530.015 C 528.676 530.015 530.246 531.212 530.836 532.872 L 532.526 532.872 L 532.526 523.813 Z M 534.062 517.243 L 518.643 484.06 C 518.415 483.57 518.01 483.198 517.503 483.013 C 517.001 482.83 516.441 482.856 515.96 483.078 L 496.584 492.093 C 496.096 492.32 495.725 492.723 495.541 493.231 C 495.355 493.737 495.38 494.286 495.605 494.775 L 496.571 496.853 L 500.536 492.885 C 501.458 491.964 502.681 491.457 503.983 491.457 C 505.286 491.457 506.511 491.964 507.428 492.885 L 533.29 518.764 C 533.54 519.014 533.747 519.294 533.954 519.571 L 533.954 519.54 C 534.005 519.608 534.049 519.68 534.099 519.748 C 534.142 519.81 534.186 519.868 534.226 519.931 C 534.262 519.984 534.302 520.032 534.335 520.087 C 534.575 519.138 534.482 518.143 534.062 517.243 Z M 539.663 541.44 L 534.492 541.44 C 534.41 541.538 534.34 541.644 534.249 541.735 C 533.518 542.465 532.549 542.868 531.517 542.868 L 516.337 542.868 C 514.43 542.868 512.638 542.125 511.29 540.777 L 485.427 514.898 C 484.507 513.979 484 512.753 484 511.451 C 484 510.147 484.507 508.923 485.427 508.004 L 494.423 499.002 L 493.016 495.979 C 492.468 494.796 492.412 493.472 492.859 492.251 C 493.306 491.027 494.202 490.051 495.382 489.504 L 514.757 480.488 C 515.411 480.184 516.107 480.031 516.81 480.031 C 517.373 480.031 517.94 480.131 518.485 480.329 C 519.707 480.776 520.683 481.672 521.234 482.854 L 536.654 516.039 C 537.456 517.769 537.539 519.708 536.885 521.499 L 535.381 525.616 L 535.381 532.871 L 539.663 532.871 C 542.023 532.871 543.944 534.793 543.944 537.156 C 543.944 539.518 542.023 541.44 539.663 541.44 Z" id="path4759" clip-rule="evenodd"/></clipPath><clipPath id="clipPath4765"><path d=" M 484 480 L 544 480 L 544 543 L 484 543 Z" id="path4763"/></clipPath></defs><g id="g4739" transform="matrix(1.33333,0,0,-1.33333,-645.333,723.824)"><g id="g4741" clip-path="url(#clipPath4745)"><g id="g4747" clip-path="url(#clipPath4751)"><g id="g4753"></g><g id="g4779"><g id="g4777" clip-path="url(#clipPath4757)"><g id="g4767"></g><g id="g4775"><g id="g4773" clip-path="url(#clipPath4761)"><g id="g4771" clip-path="url(#clipPath4765)"><path d=" M 479 475.031 L 548.944 475.031 L 548.944 547.868 L 479 547.868 Z" id="path4769" stroke="none" fill="#F8AC32" fill-rule="nonzero" fill-opacity="1"/></g></g></g></g></g></g></g></g></svg>