<svg version="1.1" width="36.922" height="35.8165" xmlns="http://www.w3.org/2000/svg" xmlns:xlink="http://www.w3.org/1999/xlink" id="svg2535" overflow="hidden"><defs id="defs2539"><clipPath id="clipPath13531"><path d=" M 528 2829.02 L 561.998 2829.02 L 561.998 2862 L 528 2862 Z" id="path13529" clip-rule="evenodd"/></clipPath><clipPath id="clipPath13537"><path d=" M 0 0 L 2560 0 L 2560 6364 L 0 6364 Z" id="path13535"/></clipPath><clipPath id="clipPath13543"><path d=" M 527 2829 L 563 2829 L 563 2862 L 527 2862 Z" id="path13541"/></clipPath><clipPath id="clipPath13547"><path d=" M 545 2829.02 L 544.41 2829.36 C 544.054 2829.58 535.578 2834.65 530.742 2842.34 C 528.174 2846.43 527.374 2850.74 528.492 2854.48 C 529.408 2857.55 531.532 2859.97 534.472 2861.3 C 535.498 2861.77 536.556 2862 537.62 2862 C 541.022 2862 543.662 2859.62 545 2858.1 C 546.336 2859.62 548.976 2862 552.38 2862 C 553.442 2862 554.502 2861.77 555.528 2861.3 C 558.466 2859.97 560.592 2857.55 561.508 2854.48 C 562.624 2850.74 561.824 2846.43 559.254 2842.34 C 554.418 2834.65 545.946 2829.58 545.586 2829.36 Z" id="path13545" clip-rule="evenodd"/></clipPath><clipPath id="clipPath13551"><path d=" M 528 2829 L 562 2829 L 562 2862 L 528 2862 Z" id="path13549"/></clipPath></defs><g id="g13525" transform="matrix(1.08601,0,0,-1.08601,-573.411,3108.15)"><g id="g13527" clip-path="url(#clipPath13531)"><g id="g13533" clip-path="url(#clipPath13537)"><g id="g13539"></g><g id="g13565"><g id="g13563" clip-path="url(#clipPath13543)"><g id="g13553"></g><g id="g13561"><g id="g13559" clip-path="url(#clipPath13547)"><g id="g13557" clip-path="url(#clipPath13551)"><path d=" M 518 2819.02 L 571.999 2819.02 L 571.999 2872 L 518 2872 Z" id="path13555" stroke="none" fill="#F7AB32" fill-rule="nonzero" fill-opacity="1"/></g></g></g></g></g></g></g></g></svg>