<svg version="1.1" width="21.1658" height="46.2089" xmlns="http://www.w3.org/2000/svg" xmlns:xlink="http://www.w3.org/1999/xlink" id="svg16145" overflow="hidden"><defs id="defs16149"><clipPath id="clipPath6013"><path d=" M 528 2829.02 L 561.998 2829.02 L 561.998 2862 L 528 2862 Z" id="path6011" clip-rule="evenodd"/></clipPath><clipPath id="clipPath6019"><path d=" M 0 0 L 2560 0 L 2560 6364 L 0 6364 Z" id="path6017"/></clipPath><clipPath id="clipPath6025"><path d=" M 527 2829 L 563 2829 L 563 2862 L 527 2862 Z" id="path6023"/></clipPath><clipPath id="clipPath6029"><path d=" M 545 2829.02 L 544.41 2829.36 C 544.054 2829.58 535.578 2834.65 530.742 2842.34 C 528.174 2846.43 527.374 2850.74 528.492 2854.48 C 529.408 2857.55 531.532 2859.97 534.472 2861.3 C 535.498 2861.77 536.556 2862 537.62 2862 C 541.022 2862 543.662 2859.62 545 2858.1 C 546.336 2859.62 548.976 2862 552.38 2862 C 553.442 2862 554.502 2861.77 555.528 2861.3 C 558.466 2859.97 560.592 2857.55 561.508 2854.48 C 562.624 2850.74 561.824 2846.43 559.254 2842.34 C 554.418 2834.65 545.946 2829.58 545.586 2829.36 Z" id="path6027" clip-rule="evenodd"/></clipPath><clipPath id="clipPath6033"><path d=" M 528 2829 L 562 2829 L 562 2862 L 528 2862 Z" id="path6031"/></clipPath><clipPath id="clipPath5965"><path d=" M 1067.62 2859.67 C 1066.89 2859.67 1066.15 2859.5 1065.42 2859.17 C 1063.1 2858.13 1061.43 2856.22 1060.71 2853.81 C 1059.79 2850.72 1060.49 2847.09 1062.7 2843.59 C 1066.53 2837.49 1073.02 2833.01 1075 2831.74 C 1076.97 2833.01 1083.47 2837.5 1087.3 2843.59 C 1089.51 2847.09 1090.21 2850.72 1089.29 2853.81 C 1088.57 2856.22 1086.9 2858.13 1084.58 2859.17 C 1083.85 2859.5 1083.11 2859.67 1082.38 2859.67 C 1078.71 2859.67 1075.99 2855.62 1075.96 2855.58 L 1075 2854.13 L 1074.04 2855.58 C 1074.01 2855.62 1071.26 2859.67 1067.62 2859.67 Z M 1075 2829.02 L 1074.41 2829.36 C 1074.06 2829.58 1065.58 2834.65 1060.74 2842.34 C 1058.17 2846.43 1057.38 2850.74 1058.49 2854.48 C 1059.41 2857.54 1061.53 2859.97 1064.47 2861.3 C 1065.5 2861.76 1066.56 2862 1067.62 2862 C 1071.02 2862 1073.66 2859.62 1075 2858.1 C 1076.34 2859.62 1078.98 2862 1082.38 2862 C 1083.44 2862 1084.5 2861.76 1085.53 2861.3 C 1088.47 2859.97 1090.59 2857.55 1091.51 2854.48 C 1092.62 2850.74 1091.82 2846.43 1089.26 2842.34 C 1084.42 2834.65 1075.94 2829.58 1075.59 2829.36 Z" id="path5963" clip-rule="evenodd"/></clipPath><clipPath id="clipPath5971"><path d=" M 0 0 L 2560 0 L 2560 6364 L 0 6364 Z" id="path5969"/></clipPath></defs><g id="g5959" transform="matrix(0.622544,0,0,-0.572933,-658.652,1639.74)"><g id="g5961" clip-path="url(#clipPath5965)"><g id="g5967" clip-path="url(#clipPath5971)"><path d=" M 1048 2819.02 L 1102 2819.02 L 1102 2872 L 1048 2872 Z" id="path5973" stroke="none" fill="#212B51" fill-rule="nonzero" fill-opacity="1"/></g></g></g><g id="g6007" transform="matrix(0.622547,0,0,-0.572933,-328.705,1667.05)"><g id="g6009" clip-path="url(#clipPath6013)"><g id="g6015" clip-path="url(#clipPath6019)"><g id="g6021"></g><g id="g6047"><g id="g6045" clip-path="url(#clipPath6025)"><g id="g6035"></g><g id="g6043"><g id="g6041" clip-path="url(#clipPath6029)"><g id="g6039" clip-path="url(#clipPath6033)"><path d=" M 518 2819.02 L 571.999 2819.02 L 571.999 2872 L 518 2872 Z" id="path6037" stroke="none" fill="#F7AB32" fill-rule="nonzero" fill-opacity="1"/></g></g></g></g></g></g></g></g></svg>