<?xml version="1.0" encoding="UTF-8" standalone="no"?>
<svg
   xmlns:dc="http://purl.org/dc/elements/1.1/"
   xmlns:cc="http://creativecommons.org/ns#"
   xmlns:rdf="http://www.w3.org/1999/02/22-rdf-syntax-ns#"
   xmlns:svg="http://www.w3.org/2000/svg"
   xmlns="http://www.w3.org/2000/svg"
   xmlns:sodipodi="http://sodipodi.sourceforge.net/DTD/sodipodi-0.dtd"
   xmlns:inkscape="http://www.inkscape.org/namespaces/inkscape"
   version="1.1"
   width="36.2265"
   height="34.9293"
   id="svg12691"
   overflow="hidden"
   sodipodi:docname="coeur.svg"
   inkscape:version="0.92.2 (5c3e80d, 2017-08-06)">
  <metadata
     id="metadata926">
    <rdf:RDF>
      <cc:Work
         rdf:about="">
        <dc:format>image/svg+xml</dc:format>
        <dc:type
           rdf:resource="http://purl.org/dc/dcmitype/StillImage" />
        <dc:title></dc:title>
      </cc:Work>
    </rdf:RDF>
  </metadata>
  <sodipodi:namedview
     pagecolor="#ffffff"
     bordercolor="#666666"
     borderopacity="1"
     objecttolerance="10"
     gridtolerance="10"
     guidetolerance="10"
     inkscape:pageopacity="0"
     inkscape:pageshadow="2"
     inkscape:window-width="748"
     inkscape:window-height="480"
     id="namedview924"
     showgrid="false"
     inkscape:zoom="6.7565056"
     inkscape:cx="44.532233"
     inkscape:cy="17.464649"
     inkscape:window-x="0"
     inkscape:window-y="0"
     inkscape:window-maximized="0"
     inkscape:current-layer="svg12691" />
  <defs
     id="defs12695">
    <clipPath
       id="clipPath5297">
      <path
         d=" M 1164.17 2353 L 1137 2353 L 1137 2326.8 L 1164.17 2326.8 Z"
         id="path5295"
         clip-rule="evenodd" />
    </clipPath>
    <clipPath
       id="clipPath5303">
      <path
         d=" M 0 0 L 1280 0 L 1280 2443 L 0 2443 Z"
         id="path5301" />
    </clipPath>
    <clipPath
       id="clipPath5309">
      <path
         d=" M 1136 2326 L 1165 2326 L 1165 2353 L 1136 2353 Z"
         id="path5307" />
    </clipPath>
    <clipPath
       id="clipPath5313">
      <path
         d=" M 1144.69 2351.15 C 1144.1 2351.15 1143.51 2351.02 1142.93 2350.75 C 1141.08 2349.92 1139.74 2348.41 1139.16 2346.5 C 1138.43 2344.04 1138.99 2341.16 1140.76 2338.38 C 1143.82 2333.53 1149.01 2329.98 1150.59 2328.96 C 1152.16 2329.98 1157.36 2333.54 1160.42 2338.38 C 1162.18 2341.16 1162.74 2344.04 1162.01 2346.5 C 1161.43 2348.41 1160.09 2349.92 1158.24 2350.75 C 1157.66 2351.02 1157.07 2351.15 1156.48 2351.15 C 1153.55 2351.15 1151.38 2347.94 1151.36 2347.9 L 1150.59 2346.75 L 1149.82 2347.9 C 1149.8 2347.93 1147.6 2351.15 1144.69 2351.15 Z M 1150.59 2326.8 L 1150.12 2327.08 C 1149.83 2327.25 1143.06 2331.28 1139.19 2337.39 C 1137.14 2340.63 1136.5 2344.05 1137.39 2347.03 C 1138.13 2349.46 1139.82 2351.39 1142.17 2352.44 C 1142.99 2352.81 1143.84 2353 1144.69 2353 C 1147.41 2353 1149.52 2351.11 1150.59 2349.9 C 1151.66 2351.11 1153.76 2353 1156.48 2353 C 1157.33 2353 1158.18 2352.81 1159 2352.44 C 1161.35 2351.39 1163.05 2349.46 1163.78 2347.03 C 1164.67 2344.06 1164.03 2340.63 1161.98 2337.39 C 1158.11 2331.28 1151.34 2327.25 1151.06 2327.08 Z"
         id="path5311"
         clip-rule="evenodd" />
    </clipPath>
    <clipPath
       id="clipPath5317">
      <path
         d=" M 1137 2326 L 1165 2326 L 1165 2353 L 1137 2353 Z"
         id="path5315" />
    </clipPath>
  </defs>
  <g
     id="g5291"
     transform="matrix(0.9999975,0,0,-0.9999975,-1132.4726,2357.3653)">
    <g
       id="g5293"
       clip-path="url(#clipPath5297)">
      <g
         id="g5299"
         clip-path="url(#clipPath5303)">
        <g
           id="g5305" />
        <g
           id="g5331">
          <g
             id="g5329"
             clip-path="url(#clipPath5309)">
            <g
               id="g5319" />
            <g
               id="g5327">
              <g
                 id="g5325"
                 clip-path="url(#clipPath5313)">
                <g
                   id="g5323"
                   clip-path="url(#clipPath5317)">
                  <path
                     d="m 1132,2321.8 h 37.17 V 2358 H 1132 Z"
                     id="path5321"
                     inkscape:connector-curvature="0"
                     style="fill:#ffffff;fill-opacity:1;fill-rule:nonzero;stroke:none" />
                </g>
              </g>
            </g>
          </g>
        </g>
      </g>
    </g>
  </g>
</svg>
