<svg version="1.1" width="207.229" height="64" xmlns="http://www.w3.org/2000/svg" xmlns:xlink="http://www.w3.org/1999/xlink" id="svg11914" overflow="hidden"><defs id="defs11918"><clipPath id="clipPath3889"><path d=" M 379.852 1812.49 C 379.852 1816.92 383.427 1820.5 387.854 1820.5 L 527.272 1820.5 C 531.691 1820.5 535.274 1816.91 535.274 1812.49 L 535.274 1780.51 C 535.274 1776.08 531.698 1772.5 527.272 1772.5 L 387.854 1772.5 C 383.435 1772.5 379.852 1776.09 379.852 1780.51 Z" id="path3887" clip-rule="evenodd"/></clipPath><clipPath id="clipPath3895"><path d=" M 0 0 L 1280 0 L 1280 2443 L 0 2443 Z" id="path3893"/></clipPath><clipPath id="clipPath3919"><path d=" M 403.351 1784.55 L 397.512 1784.55 L 397.512 1808.5 L 403.351 1808.5 L 409.191 1808.5 L 409.191 1784.55 Z" id="path3917" clip-rule="evenodd"/></clipPath><clipPath id="clipPath3925"><path d=" M 0 0 L 1280 0 L 1280 2443 L 0 2443 Z" id="path3923"/></clipPath><clipPath id="clipPath3931"><path d=" M 397 1784 L 410 1784 L 410 1809 L 397 1809 Z" id="path3929"/></clipPath><clipPath id="clipPath3935"><path d=" M 405.319 1784.55 L 400.635 1784.55 L 400.635 1796.53 L 397.511 1796.53 L 397.511 1800.65 L 400.635 1800.65 L 400.63 1803.08 C 400.63 1806.45 401.583 1808.5 405.721 1808.5 L 409.167 1808.5 L 409.167 1804.37 L 407.013 1804.37 C 405.402 1804.37 405.324 1803.79 405.324 1802.72 L 405.318 1800.65 L 409.191 1800.65 L 408.734 1796.52 L 405.321 1796.52 L 405.319 1784.55 Z" id="path3933" clip-rule="evenodd"/></clipPath><clipPath id="clipPath3939"><path d=" M 397 1784 L 410 1784 L 410 1809 L 397 1809 Z" id="path3937"/></clipPath><clipPath id="clipPath3905"><path d=" M 0 0 L 1280 0 L 1280 2443 L 0 2443 Z" id="path3903"/></clipPath></defs><g id="g3883" transform="matrix(1.33333,0,0,-1.33333,-506.469,2427.33)"><g id="g3885" clip-path="url(#clipPath3889)"><g id="g3891" clip-path="url(#clipPath3895)"><path d=" M 374.852 1767.5 L 540.274 1767.5 L 540.274 1825.5 L 374.852 1825.5 Z" id="path3897" stroke="none" fill="#4571A3" fill-rule="nonzero" fill-opacity="1"/></g></g></g><g id="g3899" transform="matrix(1.33333,0,0,-1.33333,-506.469,2427.33)"><g id="g3901" clip-path="url(#clipPath3905)"><g id="g3907" transform="matrix(1,0,0,-1,424.772,1805.72)"><text id="text3911" stroke="none" fill="#FFFFFF" fill-rule="nonzero" fill-opacity="1" font-family="roboto" font-variant="normal" font-weight="700" font-size="15" writing-mode="lr-tb" transform="matrix(1,0,0,1,0,14)">
          <tspan x="0 7.9095 17.373 26.916 35.259 44.817 55.137 65.457" y="0">FACEBOOK</tspan>
        </text></g></g></g><g id="g3913" transform="matrix(1.33333,0,0,-1.33333,-506.469,2427.33)"><g id="g3915" clip-path="url(#clipPath3919)"><g id="g3921" clip-path="url(#clipPath3925)"><g id="g3927"></g><g id="g3953"><g id="g3951" clip-path="url(#clipPath3931)"><g id="g3941"></g><g id="g3949"><g id="g3947" clip-path="url(#clipPath3935)"><g id="g3945" clip-path="url(#clipPath3939)"><path d=" M 392.511 1779.55 L 414.191 1779.55 L 414.191 1813.5 L 392.511 1813.5 Z" id="path3943" stroke="none" fill="#FFFFFF" fill-rule="nonzero" fill-opacity="1"/></g></g></g></g></g></g></g></g></svg>