<svg version="1.1" width="45.1973" height="43.6233" xmlns="http://www.w3.org/2000/svg" xmlns:xlink="http://www.w3.org/1999/xlink" id="svg11866" overflow="hidden"><defs id="defs11870"><clipPath id="clipPath6107"><path d=" M 914.541 180.051 C 914.541 188.265 921.438 194.922 929.949 194.922 C 938.458 194.922 945.357 188.265 945.357 180.051 C 945.357 171.837 938.458 165.18 929.949 165.18 C 921.438 165.18 914.541 171.837 914.541 180.051 M 929.949 196.41 C 920.588 196.41 913 189.086 913 180.051 C 913 171.017 920.588 163.692 929.949 163.692 C 939.31 163.692 946.898 171.017 946.898 180.051 C 946.898 189.086 939.31 196.41 929.949 196.41 Z" id="path6105" clip-rule="evenodd"/></clipPath><clipPath id="clipPath6113"><path d=" M 0 0 L 1280 0 L 1280 2443 L 0 2443 Z" id="path6111"/></clipPath><clipPath id="clipPath6091"><path d=" M 930.599 170.609 L 930.599 180.051 L 933.827 180.051 L 934.337 183.18 L 930.599 183.18 L 930.599 184.749 C 930.599 185.566 930.876 186.344 932.09 186.344 L 934.517 186.344 L 934.517 189.468 L 931.072 189.468 C 928.175 189.468 927.385 187.626 927.385 185.074 L 927.385 183.182 L 925.397 183.182 L 925.397 180.051 L 927.385 180.051 L 927.385 170.609 Z" id="path6089" clip-rule="evenodd"/></clipPath><clipPath id="clipPath6097"><path d=" M 0 0 L 1280 0 L 1280 2443 L 0 2443 Z" id="path6095"/></clipPath></defs><g id="g6085" transform="matrix(1.33333,0,0,-1.33333,-1217.33,261.88)"><g id="g6087" clip-path="url(#clipPath6091)"><g id="g6093" clip-path="url(#clipPath6097)"><path d=" M 920.397 165.609 L 939.517 165.609 L 939.517 194.468 L 920.397 194.468 Z" id="path6099" stroke="none" fill="#FFFFFF" fill-rule="nonzero" fill-opacity="1"/></g></g></g><g id="g6101" transform="matrix(1.33333,0,0,-1.33333,-1217.33,261.88)"><g id="g6103" clip-path="url(#clipPath6107)"><g id="g6109" clip-path="url(#clipPath6113)"><path d=" M 908 158.692 L 951.898 158.692 L 951.898 201.41 L 908 201.41 Z" id="path6115" stroke="none" fill="#FFFFFF" fill-rule="nonzero" fill-opacity="1"/></g></g></g></svg>