<?xml version="1.0" encoding="UTF-8" standalone="no"?>
<svg
   xmlns:dc="http://purl.org/dc/elements/1.1/"
   xmlns:cc="http://creativecommons.org/ns#"
   xmlns:rdf="http://www.w3.org/1999/02/22-rdf-syntax-ns#"
   xmlns:svg="http://www.w3.org/2000/svg"
   xmlns="http://www.w3.org/2000/svg"
   xmlns:sodipodi="http://sodipodi.sourceforge.net/DTD/sodipodi-0.dtd"
   xmlns:inkscape="http://www.inkscape.org/namespaces/inkscape"
   version="1.1"
   width="2451.7"
   height="572.435"
   id="svg8351"
   overflow="hidden"
   sodipodi:docname="flecheBlanc_listeDeroulante_fond.svg"
   inkscape:version="0.92.2 (5c3e80d, 2017-08-06)">
  <metadata
     id="metadata8511">
    <rdf:RDF>
      <cc:Work
         rdf:about="">
        <dc:format>image/svg+xml</dc:format>
        <dc:type
           rdf:resource="http://purl.org/dc/dcmitype/StillImage" />
        <dc:title></dc:title>
      </cc:Work>
    </rdf:RDF>
  </metadata>
  <sodipodi:namedview
     pagecolor="#ffffff"
     bordercolor="#666666"
     borderopacity="1"
     objecttolerance="10"
     gridtolerance="10"
     guidetolerance="10"
     inkscape:pageopacity="0"
     inkscape:pageshadow="2"
     inkscape:window-width="1366"
     inkscape:window-height="705"
     id="namedview8509"
     showgrid="false"
     inkscape:zoom="0.2053514"
     inkscape:cx="884.00585"
     inkscape:cy="499.7494"
     inkscape:window-x="-8"
     inkscape:window-y="-8"
     inkscape:window-maximized="1"
     inkscape:current-layer="svg8351" />
  <defs
     id="defs8355">
    <clipPath
       id="clipPath2846">
      <path
         d=" M 0 0 L 2560 0 L 2560 6350 L 0 6350 Z"
         id="path2844" />
    </clipPath>
    <clipPath
       id="clipPath8299">
      <path
         d=" M 20.9428 6259.79 L 1855.53 6259.79 L 1855.53 5830.46 L 16.7542 5830.46 Z"
         id="path8301"
         stroke="#000000"
         stroke-width="0.75"
         stroke-linecap="butt"
         stroke-linejoin="miter"
         stroke-opacity="1"
         fill="none" />
    </clipPath>
    <clipPath
       id="clipPath2680">
      <path
         d=" M 0 6260.49 L 2560 6260.49 L 2560 5828 L 0 5828 Z"
         id="path2678"
         clip-rule="evenodd" />
    </clipPath>
    <clipPath
       id="clipPath2686">
      <path
         d=" M 0 0 L 2560 0 L 2560 6350 L 0 6350 Z"
         id="path2684" />
    </clipPath>
  </defs>
  <g
     id="g2674"
     clip-path="url(#clipPath8299)"
     transform="matrix(1.33333,0,0,-1.33333,-22.3389,8346.39)">
    <g
       id="g2676"
       clip-path="url(#clipPath2680)">
      <g
         id="g2682"
         clip-path="url(#clipPath2686)">
        <path
           d=" M -10 5818 L 2570 5818 L 2570 6270.49 L -10 6270.49 Z"
           id="path2688"
           stroke="none"
           fill="#212B51"
           fill-rule="nonzero"
           fill-opacity="1" />
      </g>
    </g>
  </g>
  <g
     id="g2840"
     transform="matrix(11.084929,0,0,-11.084929,-17996.809,67333.776)">
    <g
       id="g2842"
       clip-path="url(#clipPath2846)">
      <g
         id="g2848"
         transform="matrix(0,2,2,0,1790,6040.22)">
        <path
           d="M 1.0222,7.37897 7.76409,0.713599 c 0.16577,-0.163888 0.16577,-0.426704 0,-0.590683 -0.16577,-0.1638881 -0.4317,-0.1638881 -0.59756,0 L 0.124261,7.08507 c -0.1656813,0.16397 -0.1656813,0.42688 0,0.59086 L 7.16653,14.6349 c 0.08138,0.0805 0.19083,0.1238 0.29718,0.1238 0.10636,0 0.2159,-0.0403 0.29728,-0.1238 0.16577,-0.1639 0.16577,-0.4268 0,-0.5907 z"
           id="path2850"
           stroke-miterlimit="10"
           inkscape:connector-curvature="0"
           style="fill:none;stroke:#ffffff;stroke-width:1;stroke-linecap:butt;stroke-linejoin:miter;stroke-miterlimit:10;stroke-dasharray:none;stroke-opacity:1" />
      </g>
    </g>
  </g>
</svg>
