<svg version="1.1" width="17.512" height="32.7613" xmlns="http://www.w3.org/2000/svg" xmlns:xlink="http://www.w3.org/1999/xlink" id="svg18158" overflow="hidden"><defs id="defs18162"><clipPath id="clipPath3784"><path d=" M 2404.1 899.046 L 2366.69 862.057 C 2365.77 861.147 2365.77 859.688 2366.69 858.779 C 2367.61 857.869 2369.09 857.869 2370.01 858.779 L 2409.09 897.415 C 2410.01 898.325 2410.01 899.784 2409.09 900.694 L 2370.01 939.313 C 2369.55 939.76 2368.95 940 2368.36 940 C 2367.77 940 2367.16 939.776 2366.71 939.313 C 2365.79 938.404 2365.79 936.945 2366.71 936.035 Z" id="path3782" clip-rule="evenodd"/></clipPath><clipPath id="clipPath3790"><path d=" M 0 0 L 2560 0 L 2560 6350 L 0 6350 Z" id="path3788"/></clipPath></defs><g id="g3778" transform="matrix(0.399999,0,0,-0.399999,-946.398,375.999)"><g id="g3780" clip-path="url(#clipPath3784)"><g id="g3786" clip-path="url(#clipPath3790)"><path d=" M 2356 848.096 L 2419.78 848.096 L 2419.78 950 L 2356 950 Z" id="path3792" stroke="none" fill="#212B51" fill-rule="nonzero" fill-opacity="1"/></g></g></g></svg>