<svg version="1.1" width="49.0881" height="45.0002" xmlns="http://www.w3.org/2000/svg" xmlns:xlink="http://www.w3.org/1999/xlink" id="svg4923" overflow="hidden"><defs id="defs4927"><clipPath id="clipPath1792"><path d=" M 2398.1 4439.05 L 2360.69 4402.06 C 2359.77 4401.15 2359.77 4399.69 2360.69 4398.78 C 2361.61 4397.87 2363.09 4397.87 2364.01 4398.78 L 2403.09 4437.42 C 2404.01 4438.33 2404.01 4439.78 2403.09 4440.69 L 2364.01 4479.31 C 2363.55 4479.76 2362.95 4480 2362.36 4480 C 2361.77 4480 2361.16 4479.78 2360.71 4479.31 C 2359.79 4478.4 2359.79 4476.94 2360.71 4476.04 Z" id="path1790" clip-rule="evenodd"/></clipPath><clipPath id="clipPath1798"><path d=" M 0 0 L 2560 0 L 2560 8102 L 0 8102 Z" id="path1796"/></clipPath><clipPath id="clipPath1820"><path d=" M 155.673 4439.05 L 193.087 4476.04 C 194.007 4476.95 194.007 4478.41 193.087 4479.32 C 192.167 4480.23 190.691 4480.23 189.771 4479.32 L 150.69 4440.68 C 149.77 4439.77 149.77 4438.31 150.69 4437.4 L 189.771 4398.78 C 190.222 4398.34 190.83 4398.1 191.42 4398.1 C 192.01 4398.1 192.618 4398.32 193.07 4398.78 C 193.99 4399.69 193.99 4401.15 193.07 4402.06 Z" id="path1818" clip-rule="evenodd"/></clipPath><clipPath id="clipPath1826"><path d=" M 0 0 L 2560 0 L 2560 8102 L 0 8102 Z" id="path1824"/></clipPath></defs><g id="g1786" stroke-width="2.42677" transform="matrix(0.549427,0,0,-0.549427,-1271.61,2461.43)"><g id="g1788" stroke-width="2.42677" clip-path="url(#clipPath1792)"><g id="g1794" stroke-width="2.42677" clip-path="url(#clipPath1798)"><path d=" M 2413.78 4388.1 L 2350 4388.1 L 2350 4490 L 2413.78 4490 Z" id="path1800" stroke="none" stroke-width="2.42677" fill="#044651" fill-rule="nonzero" fill-opacity="1"/></g></g></g><g id="g1814" stroke-width="2.42678" transform="matrix(0.549425,0,0,-0.549425,-82.4138,2461.43)"><g id="g1816" stroke-width="2.42678" clip-path="url(#clipPath1820)"><g id="g1822" stroke-width="2.42678" clip-path="url(#clipPath1826)"><path d=" M 140 4388.1 L 203.777 4388.1 L 203.777 4490 L 140 4490 Z" id="path1828" stroke="none" stroke-width="2.42678" fill="#044651" fill-rule="nonzero" fill-opacity="1"/></g></g></g></svg>