<svg version="1.1" width="21.007" height="11.8355" xmlns="http://www.w3.org/2000/svg" xmlns:xlink="http://www.w3.org/1999/xlink" id="svg2414" overflow="hidden"><defs id="defs2418"><clipPath id="clipPath1542"><path d=" M 0 0 L 1280 0 L 1280 1435 L 0 1435 Z" id="path1540"/></clipPath></defs><g id="g1536" transform="matrix(1.33333,0,0,-1.33333,-1192.67,1717.99)"><g id="g1538" clip-path="url(#clipPath1542)"><g id="g1544" transform="matrix(0,1,1,0,895,1280.11)"><path d=" M 1.0222 7.37897 L 7.76409 0.713599 C 7.92986 0.549711 7.92986 0.286895 7.76409 0.122916 C 7.59832 -0.0409721 7.33239 -0.0409721 7.16653 0.122916 L 0.124261 7.08507 C -0.0414203 7.24904 -0.0414203 7.51195 0.124261 7.67593 L 7.16653 14.6349 C 7.24791 14.7154 7.35736 14.7587 7.46371 14.7587 C 7.57007 14.7587 7.67961 14.7184 7.76099 14.6349 C 7.92676 14.471 7.92676 14.2081 7.76099 14.0442 Z" id="path1546" stroke="#FFFFFF" stroke-width="1" stroke-linecap="butt" stroke-linejoin="miter" stroke-miterlimit="10" stroke-dasharray="" stroke-opacity="1" fill="none"/></g></g></g></svg>