<svg version="1.1" width="45.4973" height="43.9129" xmlns="http://www.w3.org/2000/svg" xmlns:xlink="http://www.w3.org/1999/xlink" id="svg3662" overflow="hidden"><defs id="defs3666"><clipPath id="clipPath1980"><path d=" M 1116.81 179.309 L 1119.43 179.309 L 1119.43 176.776 L 1120.74 176.776 L 1120.74 179.309 L 1123.37 179.309 L 1123.37 180.576 L 1120.74 180.576 L 1120.74 183.108 L 1119.43 183.108 L 1119.43 180.576 L 1116.81 180.576 Z" id="path1978" clip-rule="evenodd"/></clipPath><clipPath id="clipPath1986"><path d=" M 0 0 L 1280 0 L 1280 1435 L 0 1435 Z" id="path1984"/></clipPath><clipPath id="clipPath1964"><path d=" M 1111.4 171.323 C 1108.8 171.323 1107.13 172.515 1107.13 174.177 C 1107.13 175.839 1108.68 176.401 1109.21 176.587 C 1110.23 176.915 1111.54 176.963 1111.76 176.963 C 1112 176.963 1112.12 176.963 1112.32 176.94 C 1114.16 175.675 1114.96 175.044 1114.96 173.849 C 1114.96 172.399 1113.72 171.323 1111.4 171.323 M 1111.37 180.731 C 1109.29 180.731 1108.34 183.33 1108.34 184.897 C 1108.34 185.507 1108.46 186.137 1108.87 186.63 C 1109.26 187.098 1109.94 187.404 1110.57 187.404 C 1112.58 187.404 1113.63 184.781 1113.63 183.097 C 1113.63 182.675 1113.58 181.926 1113.02 181.387 C 1112.63 181.013 1111.98 180.733 1111.37 180.731 M 1116.59 174.763 C 1116.59 176.378 1115.62 177.174 1114.55 178.041 L 1113.68 178.697 C 1113.41 178.907 1113.05 179.188 1113.05 179.703 C 1113.05 180.218 1113.41 180.546 1113.73 180.85 C 1114.74 181.622 1115.76 182.441 1115.76 184.173 C 1115.76 185.953 1114.6 186.889 1114.04 187.333 L 1115.55 187.333 L 1117.09 188.176 L 1112.1 188.176 C 1110.79 188.176 1109.14 187.989 1107.76 186.889 C 1106.72 186.023 1106.21 184.829 1106.21 183.752 C 1106.21 181.927 1107.66 180.077 1110.23 180.077 C 1110.47 180.077 1110.74 180.101 1111.01 180.124 C 1110.89 179.842 1110.77 179.609 1110.77 179.21 C 1110.77 178.486 1111.16 178.04 1111.49 177.619 C 1110.4 177.549 1108.37 177.432 1106.86 176.543 C 1105.43 175.724 1105 174.529 1105 173.686 C 1105 171.954 1106.69 170.339 1110.21 170.339 C 1114.38 170.339 1116.59 172.564 1116.59 174.763" id="path1962" clip-rule="evenodd"/></clipPath><clipPath id="clipPath1970"><path d=" M 0 0 L 1280 0 L 1280 1435 L 0 1435 Z" id="path1968"/></clipPath><clipPath id="clipPath1996"><path d=" M 1098.67 179.943 C 1098.67 188.211 1105.61 194.913 1114.18 194.913 C 1122.75 194.913 1129.69 188.211 1129.69 179.943 C 1129.69 171.674 1122.75 164.972 1114.18 164.972 C 1105.61 164.972 1098.67 171.674 1098.67 179.943 M 1131.24 179.943 C 1131.24 189.037 1123.6 196.41 1114.18 196.41 C 1104.76 196.41 1097.12 189.037 1097.12 179.943 C 1097.12 170.848 1104.76 163.475 1114.18 163.475 C 1123.6 163.475 1131.24 170.848 1131.24 179.943" id="path1994" clip-rule="evenodd"/></clipPath><clipPath id="clipPath2002"><path d=" M 0 0 L 1280 0 L 1280 1435 L 0 1435 Z" id="path2000"/></clipPath></defs><g id="g1958" transform="matrix(1.33333,0,0,-1.33333,-1462.83,261.88)"><g id="g1960" clip-path="url(#clipPath1964)"><g id="g1966" clip-path="url(#clipPath1970)"><path d=" M 1100 165.339 L 1122.1 165.339 L 1122.1 193.176 L 1100 193.176 Z" id="path1972" stroke="none" fill="#F8AC32" fill-rule="nonzero" fill-opacity="1"/></g></g></g><g id="g1974" transform="matrix(1.33333,0,0,-1.33333,-1462.83,261.88)"><g id="g1976" clip-path="url(#clipPath1980)"><g id="g1982" clip-path="url(#clipPath1986)"><path d=" M 1111.81 171.776 L 1128.37 171.776 L 1128.37 188.108 L 1111.81 188.108 Z" id="path1988" stroke="none" fill="#F8AC32" fill-rule="nonzero" fill-opacity="1"/></g></g></g><g id="g1990" transform="matrix(1.33333,0,0,-1.33333,-1462.83,261.88)"><g id="g1992" clip-path="url(#clipPath1996)"><g id="g1998" clip-path="url(#clipPath2002)"><path d=" M 1092.12 158.475 L 1136.24 158.475 L 1136.24 201.41 L 1092.12 201.41 Z" id="path2004" stroke="none" fill="#F8AC32" fill-rule="nonzero" fill-opacity="1"/></g></g></g></svg>