<svg version="1.1" width="207.171" height="64" xmlns="http://www.w3.org/2000/svg" xmlns:xlink="http://www.w3.org/1999/xlink" id="svg10406" overflow="hidden"><defs id="defs10410"><clipPath id="clipPath4023"><path d=" M 0 0 L 1280 0 L 1280 2443 L 0 2443 Z" id="path4021"/></clipPath><clipPath id="clipPath4079"><path d=" M 616.963 1791.14 L 616.963 1802.33 L 605.596 1802.33 L 605.596 1791.14 Z" id="path4077" clip-rule="evenodd"/></clipPath><clipPath id="clipPath4085"><path d=" M 0 0 L 1280 0 L 1280 2443 L 0 2443 Z" id="path4083"/></clipPath><clipPath id="clipPath4091"><path d=" M 605 1791 L 617 1791 L 617 1803 L 605 1803 Z" id="path4089"/></clipPath><clipPath id="clipPath4095"><path d=" M 613.26 1798.68 L 613.26 1801.61 C 613.26 1802.01 612.935 1802.33 612.532 1802.33 L 610.028 1802.33 C 609.625 1802.33 609.299 1802.01 609.299 1801.61 L 609.299 1798.68 L 606.325 1798.68 C 605.922 1798.68 605.596 1798.36 605.596 1797.96 L 605.596 1795.5 C 605.596 1795.1 605.922 1794.78 606.325 1794.78 L 609.299 1794.78 L 609.299 1791.85 C 609.299 1791.45 609.625 1791.14 610.028 1791.14 L 612.532 1791.14 C 612.935 1791.14 613.26 1791.45 613.26 1791.85 L 613.26 1794.78 L 616.235 1794.78 C 616.638 1794.78 616.963 1795.1 616.963 1795.5 L 616.963 1797.96 C 616.963 1798.36 616.638 1798.68 616.235 1798.68 Z" id="path4093" clip-rule="evenodd"/></clipPath><clipPath id="clipPath4099"><path d=" M 605 1791 L 617 1791 L 617 1803 L 605 1803 Z" id="path4097"/></clipPath><clipPath id="clipPath4037"><path d=" M 602.999 1784.63 L 578.202 1784.63 L 578.202 1809.05 L 602.999 1809.05 Z" id="path4035" clip-rule="evenodd"/></clipPath><clipPath id="clipPath4043"><path d=" M 0 0 L 1280 0 L 1280 2443 L 0 2443 Z" id="path4041"/></clipPath><clipPath id="clipPath4049"><path d=" M 578 1784 L 603 1784 L 603 1810 L 578 1810 Z" id="path4047"/></clipPath><clipPath id="clipPath4053"><path d=" M 591.802 1794.32 L 597.858 1794.32 C 596.794 1791.36 593.914 1789.24 590.544 1789.26 C 586.455 1789.29 583.073 1792.51 582.915 1796.54 C 582.744 1800.85 586.259 1804.41 590.602 1804.41 C 592.588 1804.41 594.399 1803.67 595.767 1802.45 C 596.09 1802.16 596.584 1802.15 596.902 1802.45 L 599.126 1804.51 C 599.475 1804.83 599.475 1805.37 599.128 1805.7 C 596.961 1807.72 594.054 1808.98 590.848 1809.04 C 584.011 1809.17 578.249 1803.65 578.201 1796.92 C 578.154 1790.14 583.723 1784.62 590.601 1784.62 C 597.217 1784.62 602.619 1789.72 602.982 1796.15 C 602.992 1796.23 602.999 1798.95 602.999 1798.95 L 591.802 1798.95 C 591.341 1798.95 590.971 1798.58 590.971 1798.13 L 590.971 1795.13 C 590.971 1794.68 591.341 1794.31 591.802 1794.31" id="path4051" clip-rule="evenodd"/></clipPath><clipPath id="clipPath4057"><path d=" M 578 1784 L 603 1784 L 603 1810 L 578 1810 Z" id="path4055"/></clipPath><clipPath id="clipPath4007"><path d=" M 562.848 1812.49 C 562.848 1816.92 566.422 1820.5 570.848 1820.5 L 710.227 1820.5 C 714.645 1820.5 718.226 1816.91 718.226 1812.49 L 718.226 1780.51 C 718.226 1776.08 714.652 1772.5 710.227 1772.5 L 570.848 1772.5 C 566.43 1772.5 562.848 1776.09 562.848 1780.51 Z" id="path4005" clip-rule="evenodd"/></clipPath><clipPath id="clipPath4013"><path d=" M 0 0 L 1280 0 L 1280 2443 L 0 2443 Z" id="path4011"/></clipPath></defs><g id="g4001" display="inline" transform="matrix(1.33333,0,0,-1.33333,-750.464,2427.33)"><g id="g4003" clip-path="url(#clipPath4007)"><g id="g4009" clip-path="url(#clipPath4013)"><path d=" M 557.848 1767.5 L 723.226 1767.5 L 723.226 1825.5 L 557.848 1825.5 Z" id="path4015" stroke="none" fill="#DE6158" fill-rule="nonzero" fill-opacity="1"/></g></g></g><g id="g4017" display="inline" transform="matrix(1.33333,0,0,-1.33333,-750.464,2427.33)"><g id="g4019" clip-path="url(#clipPath4023)"><g id="g4025" transform="matrix(1,0,0,-1,629.072,1805.72)"><text id="text4029" stroke="none" fill="#FFFFFF" fill-rule="nonzero" fill-opacity="1" font-family="roboto" font-variant="normal" font-weight="700" font-size="15" writing-mode="lr-tb" transform="matrix(1,0,0,1,0,14)">
          <tspan x="0 9.99 20.31 30.63 40.62 48.9555" y="0">GOOGLE</tspan>
        </text></g></g></g><g id="g4031" display="inline" transform="matrix(1.33333,0,0,-1.33333,-750.464,2427.33)"><g id="g4033" clip-path="url(#clipPath4037)"><g id="g4039" clip-path="url(#clipPath4043)"><g id="g4045"></g><g id="g4071"><g id="g4069" clip-path="url(#clipPath4049)"><g id="g4059"></g><g id="g4067"><g id="g4065" clip-path="url(#clipPath4053)"><g id="g4063" clip-path="url(#clipPath4057)"><path d=" M 573.201 1779.63 L 607.999 1779.63 L 607.999 1814.05 L 573.201 1814.05 Z" id="path4061" stroke="none" fill="#FFFFFF" fill-rule="nonzero" fill-opacity="1"/></g></g></g></g></g></g></g></g><g id="g4073" display="inline" transform="matrix(1.33333,0,0,-1.33333,-750.464,2427.33)"><g id="g4075" clip-path="url(#clipPath4079)"><g id="g4081" clip-path="url(#clipPath4085)"><g id="g4087"></g><g id="g4113"><g id="g4111" clip-path="url(#clipPath4091)"><g id="g4101"></g><g id="g4109"><g id="g4107" clip-path="url(#clipPath4095)"><g id="g4105" clip-path="url(#clipPath4099)"><path d=" M 600.596 1786.14 L 621.963 1786.14 L 621.963 1807.33 L 600.596 1807.33 Z" id="path4103" stroke="none" fill="#FFFFFF" fill-rule="nonzero" fill-opacity="1"/></g></g></g></g></g></g></g></g></svg>