<svg version="1.1" width="548.507" height="53.964" xmlns="http://www.w3.org/2000/svg" xmlns:xlink="http://www.w3.org/1999/xlink" id="svg11633" overflow="hidden"><defs id="defs11637"><clipPath id="clipPath5641"><path d=" M 415.015 2319.94 L 375.295 2319.94 C 374.725 2319.94 374.405 2319.58 374.405 2318.94 L 374.405 2314.37 C 374.405 2313.73 374.725 2313.37 375.295 2313.37 L 415.015 2313.37 C 415.585 2313.37 415.904 2313.73 415.904 2314.37 L 415.904 2318.94 C 415.904 2319.58 415.585 2319.94 415.015 2319.94" id="path5639" clip-rule="evenodd"/></clipPath><clipPath id="clipPath5647"><path d=" M 0 0 L 1280 0 L 1280 2443 L 0 2443 Z" id="path5645"/></clipPath><clipPath id="clipPath5625"><path d=" M 415.925 2330.61 L 415.925 2326.03 C 415.925 2325.4 415.604 2325.04 415.035 2325.04 L 398.661 2325.04 C 398.091 2325.04 397.771 2325.4 397.771 2326.03 L 397.771 2352.01 C 397.771 2352.64 398.091 2353 398.661 2353 L 414.963 2353 C 415.533 2353 415.854 2352.64 415.854 2352.01 L 415.854 2347.39 C 415.854 2346.76 415.533 2346.4 414.963 2346.4 L 404.499 2346.4 L 404.499 2342.42 L 413.576 2342.42 C 414.145 2342.42 414.466 2342.06 414.466 2341.43 L 414.466 2336.93 C 414.466 2336.29 414.145 2335.94 413.576 2335.94 L 404.499 2335.94 L 404.499 2331.6 L 415.035 2331.6 C 415.604 2331.6 415.925 2331.24 415.925 2330.61" id="path5623" clip-rule="evenodd"/></clipPath><clipPath id="clipPath5631"><path d=" M 0 0 L 1280 0 L 1280 2443 L 0 2443 Z" id="path5629"/></clipPath><clipPath id="clipPath5609"><path d=" M 392.559 2330.61 L 392.559 2326.03 C 392.559 2325.4 392.237 2325.04 391.668 2325.04 L 375.294 2325.04 C 374.725 2325.04 374.405 2325.4 374.405 2326.03 L 374.405 2352.01 C 374.405 2352.64 374.725 2353 375.294 2353 L 391.597 2353 C 392.167 2353 392.488 2352.64 392.488 2352.01 L 392.488 2347.39 C 392.488 2346.76 392.167 2346.4 391.597 2346.4 L 381.133 2346.4 L 381.133 2342.42 L 390.21 2342.42 C 390.779 2342.42 391.099 2342.06 391.099 2341.43 L 391.099 2336.93 C 391.099 2336.29 390.779 2335.94 390.21 2335.94 L 381.133 2335.94 L 381.133 2331.6 L 391.668 2331.6 C 392.237 2331.6 392.559 2331.24 392.559 2330.61" id="path5607" clip-rule="evenodd"/></clipPath><clipPath id="clipPath5615"><path d=" M 0 0 L 1280 0 L 1280 2443 L 0 2443 Z" id="path5613"/></clipPath><clipPath id="clipPath5593"><path d=" M 489.38 2321.26 L 489.38 2314.78 C 489.38 2313.88 488.928 2313.37 488.118 2313.37 L 464.913 2313.37 C 464.106 2313.37 463.652 2313.88 463.652 2314.78 L 463.652 2351.59 C 463.652 2352.49 464.106 2353 464.913 2353 L 488.018 2353 C 488.826 2353 489.279 2352.49 489.279 2351.59 L 489.279 2345.05 C 489.279 2344.15 488.826 2343.64 488.018 2343.64 L 473.186 2343.64 L 473.186 2338.01 L 486.05 2338.01 C 486.858 2338.01 487.311 2337.5 487.311 2336.6 L 487.311 2330.23 C 487.311 2329.32 486.858 2328.82 486.05 2328.82 L 473.186 2328.82 L 473.186 2322.67 L 488.118 2322.67 C 488.928 2322.67 489.38 2322.17 489.38 2321.26" id="path5591" clip-rule="evenodd"/></clipPath><clipPath id="clipPath5599"><path d=" M 0 0 L 1280 0 L 1280 2443 L 0 2443 Z" id="path5597"/></clipPath><clipPath id="clipPath5577"><path d=" M 456.539 2351.36 L 442.767 2314.44 C 442.515 2313.71 442.01 2313.37 441.302 2313.37 L 437.622 2313.37 C 436.914 2313.37 436.411 2313.71 436.158 2314.44 L 422.335 2351.36 C 421.982 2352.38 422.435 2353 423.345 2353 L 431.366 2353 C 432.072 2353 432.577 2352.66 432.828 2351.87 L 437.42 2338.4 L 439.892 2329.83 L 442.262 2338.4 L 446.601 2351.87 C 446.853 2352.61 447.307 2353 448.014 2353 L 455.53 2353 C 456.437 2353 456.893 2352.38 456.539 2351.36" id="path5575" clip-rule="evenodd"/></clipPath><clipPath id="clipPath5583"><path d=" M 0 0 L 1280 0 L 1280 2443 L 0 2443 Z" id="path5581"/></clipPath><clipPath id="clipPath5561"><path d=" M 366.856 2351.59 L 366.856 2344.94 C 366.856 2344.04 366.403 2343.53 365.595 2343.53 L 355.354 2343.53 L 355.354 2314.78 C 355.354 2313.88 354.9 2313.37 354.093 2313.37 L 346.98 2313.37 C 346.172 2313.37 345.718 2313.88 345.718 2314.78 L 345.718 2343.53 L 335.629 2343.53 C 334.821 2343.53 334.367 2344.04 334.367 2344.94 L 334.367 2351.59 C 334.367 2352.49 334.821 2353 335.629 2353 L 365.595 2353 C 366.403 2353 366.856 2352.49 366.856 2351.59" id="path5559" clip-rule="evenodd"/></clipPath><clipPath id="clipPath5567"><path d=" M 0 0 L 1280 0 L 1280 2443 L 0 2443 Z" id="path5565"/></clipPath><clipPath id="clipPath5545"><path d=" M 312.373 2328.14 L 320.496 2328.14 L 316.46 2338.91 Z M 333.613 2313.37 L 326.297 2313.37 C 325.591 2313.37 325.086 2313.71 324.835 2314.44 L 322.817 2320.02 L 310.053 2320.02 L 308.036 2314.44 C 307.783 2313.71 307.278 2313.37 306.573 2313.37 L 299.358 2313.37 C 298.4 2313.37 297.996 2313.99 298.4 2315.01 L 313.282 2351.93 C 313.584 2352.66 314.038 2353 314.745 2353 L 318.427 2353 C 319.134 2353 319.588 2352.66 319.891 2351.93 L 334.571 2315.01 C 334.974 2313.99 334.571 2313.37 333.613 2313.37 Z" id="path5543" clip-rule="evenodd"/></clipPath><clipPath id="clipPath5551"><path d=" M 0 0 L 1280 0 L 1280 2443 L 0 2443 Z" id="path5549"/></clipPath><clipPath id="clipPath5529"><path d=" M 291.591 2351.59 L 291.591 2314.39 C 291.591 2313.48 291.138 2312.98 290.33 2312.98 L 287.203 2312.98 C 286.546 2312.98 286.093 2313.26 285.689 2313.76 L 268.283 2335.02 L 268.283 2314.78 C 268.283 2313.88 267.83 2313.37 267.023 2313.37 L 260.111 2313.37 C 259.304 2313.37 258.851 2313.88 258.851 2314.78 L 258.851 2352.04 C 258.851 2352.94 259.304 2353.45 260.111 2353.45 L 263.29 2353.45 C 263.944 2353.45 264.349 2353.28 264.803 2352.72 L 282.157 2331.92 L 282.157 2351.59 C 282.157 2352.49 282.611 2353 283.419 2353 L 290.33 2353 C 291.138 2353 291.591 2352.49 291.591 2351.59" id="path5527" clip-rule="evenodd"/></clipPath><clipPath id="clipPath5535"><path d=" M 0 0 L 1280 0 L 1280 2443 L 0 2443 Z" id="path5533"/></clipPath><clipPath id="clipPath5513"><path d=" M 229.441 2332.48 L 234.133 2332.48 C 237.612 2332.48 239.783 2334.96 239.783 2338.12 C 239.783 2341.44 237.715 2344.04 233.982 2344.04 L 229.441 2344.04 Z M 248.511 2313.37 L 240.389 2313.37 C 239.733 2313.37 239.177 2313.65 238.824 2314.27 L 233.527 2323.52 L 229.441 2323.52 L 229.441 2314.78 C 229.441 2313.88 228.988 2313.37 228.179 2313.37 L 221.27 2313.37 C 220.461 2313.37 220.007 2313.88 220.007 2314.78 L 220.007 2351.59 C 220.007 2352.49 220.461 2353 221.27 2353 L 234.889 2353 C 244.02 2353 249.418 2346.57 249.418 2338.01 C 249.418 2332.48 246.896 2328.08 242.71 2325.66 L 249.318 2315.06 C 249.923 2314.1 249.52 2313.37 248.511 2313.37 Z" id="path5511" clip-rule="evenodd"/></clipPath><clipPath id="clipPath5519"><path d=" M 0 0 L 1280 0 L 1280 2443 L 0 2443 Z" id="path5517"/></clipPath><clipPath id="clipPath5497"><path d=" M 210.677 2321.26 L 210.677 2314.78 C 210.677 2313.88 210.225 2313.37 209.416 2313.37 L 186.21 2313.37 C 185.401 2313.37 184.948 2313.88 184.948 2314.78 L 184.948 2351.59 C 184.948 2352.49 185.401 2353 186.21 2353 L 209.316 2353 C 210.122 2353 210.576 2352.49 210.576 2351.59 L 210.576 2345.05 C 210.576 2344.15 210.122 2343.64 209.316 2343.64 L 194.484 2343.64 L 194.484 2338.01 L 207.347 2338.01 C 208.155 2338.01 208.609 2337.5 208.609 2336.6 L 208.609 2330.23 C 208.609 2329.32 208.155 2328.82 207.347 2328.82 L 194.484 2328.82 L 194.484 2322.67 L 209.416 2322.67 C 210.225 2322.67 210.677 2322.17 210.677 2321.26" id="path5495" clip-rule="evenodd"/></clipPath><clipPath id="clipPath5503"><path d=" M 0 0 L 1280 0 L 1280 2443 L 0 2443 Z" id="path5501"/></clipPath><clipPath id="clipPath5481"><path d=" M 177.837 2351.59 L 177.837 2344.94 C 177.837 2344.04 177.383 2343.53 176.577 2343.53 L 166.335 2343.53 L 166.335 2314.78 C 166.335 2313.88 165.88 2313.37 165.075 2313.37 L 157.961 2313.37 C 157.153 2313.37 156.7 2313.88 156.7 2314.78 L 156.7 2343.53 L 146.611 2343.53 C 145.803 2343.53 145.35 2344.04 145.35 2344.94 L 145.35 2351.59 C 145.35 2352.49 145.803 2353 146.611 2353 L 176.577 2353 C 177.383 2353 177.837 2352.49 177.837 2351.59" id="path5479" clip-rule="evenodd"/></clipPath><clipPath id="clipPath5487"><path d=" M 0 0 L 1280 0 L 1280 2443 L 0 2443 Z" id="path5485"/></clipPath><clipPath id="clipPath5465"><path d=" M 146.611 2321.38 L 146.611 2314.78 C 146.611 2313.88 146.158 2313.37 145.349 2313.37 L 122.447 2313.37 C 121.638 2313.37 121.186 2313.88 121.186 2314.78 L 121.186 2351.59 C 121.186 2352.49 121.638 2353 122.447 2353 L 129.61 2353 C 130.417 2353 130.872 2352.49 130.872 2351.59 L 130.872 2322.78 L 145.349 2322.78 C 146.158 2322.78 146.611 2322.28 146.611 2321.38" id="path5463" clip-rule="evenodd"/></clipPath><clipPath id="clipPath5471"><path d=" M 0 0 L 1280 0 L 1280 2443 L 0 2443 Z" id="path5469"/></clipPath><clipPath id="clipPath5423"><path d=" M 78 2353 L 78 2313.37 L 114.482 2313.37 L 114.482 2353 Z" id="path5421" clip-rule="evenodd"/></clipPath><clipPath id="clipPath5429"><path d=" M 0 0 L 1280 0 L 1280 2443 L 0 2443 Z" id="path5427"/></clipPath><clipPath id="clipPath5435"><path d=" M 77 2313 L 115 2313 L 115 2353 L 77 2353 Z" id="path5433"/></clipPath><clipPath id="clipPath5439"><path d=" M 92.1296 2328.14 L 100.253 2328.14 L 96.2156 2338.91 Z M 113.369 2313.37 L 106.053 2313.37 C 105.348 2313.37 104.843 2313.71 104.59 2314.44 L 102.572 2320.02 L 89.8093 2320.02 L 87.7912 2314.44 C 87.5388 2313.71 87.034 2313.37 86.3285 2313.37 L 79.1133 2313.37 C 78.1554 2313.37 77.7519 2313.99 78.1554 2315.01 L 93.0378 2351.93 C 93.3399 2352.66 93.795 2353 94.5005 2353 L 98.1842 2353 C 98.8896 2353 99.3438 2352.66 99.6469 2351.93 L 114.327 2315.01 C 114.731 2313.99 114.327 2313.37 113.369 2313.37 Z" id="path5437" clip-rule="evenodd"/></clipPath><clipPath id="clipPath5443"><path d=" M 78 2313 L 115 2313 L 115 2354 L 78 2354 Z" id="path5441"/></clipPath></defs><g id="g5417" fill="#212B51" fill-opacity="1" display="inline" transform="matrix(1.33333,0,0,-1.33333,-104,3137.93)"><g id="g5419" fill="#212B51" fill-opacity="1" clip-path="url(#clipPath5423)"><g id="g5425" fill="#212B51" fill-opacity="1" clip-path="url(#clipPath5429)"><g id="g5431" fill="#212B51" fill-opacity="1"></g><g id="g5457" fill="#212B51" fill-opacity="1"><g id="g5455" fill="#212B51" fill-opacity="1" clip-path="url(#clipPath5435)"><g id="g5445" fill="#212B51" fill-opacity="1"></g><g id="g5453" fill="#212B51" fill-opacity="1"><g id="g5451" fill="#212B51" fill-opacity="1" clip-path="url(#clipPath5439)"><g id="g5449" fill="#212B51" fill-opacity="1" clip-path="url(#clipPath5443)"><path d=" M 72.9999 2308.37 L 119.482 2308.37 L 119.482 2358 L 72.9999 2358 Z" id="path5447" stroke="none" fill="#212B51" fill-rule="nonzero" fill-opacity="1"/></g></g></g></g></g></g></g></g><g id="g5459" fill="#212B51" fill-opacity="1" display="inline" transform="matrix(1.33333,0,0,-1.33333,-104,3137.93)"><g id="g5461" fill="#212B51" fill-opacity="1" clip-path="url(#clipPath5465)"><g id="g5467" fill="#212B51" fill-opacity="1" clip-path="url(#clipPath5471)"><path d=" M 116.186 2308.37 L 151.611 2308.37 L 151.611 2358 L 116.186 2358 Z" id="path5473" stroke="none" fill="#212B51" fill-rule="nonzero" fill-opacity="1"/></g></g></g><g id="g5475" fill="#212B51" fill-opacity="1" display="inline" transform="matrix(1.33333,0,0,-1.33333,-104,3137.93)"><g id="g5477" fill="#212B51" fill-opacity="1" clip-path="url(#clipPath5481)"><g id="g5483" fill="#212B51" fill-opacity="1" clip-path="url(#clipPath5487)"><path d=" M 140.35 2308.37 L 182.837 2308.37 L 182.837 2358 L 140.35 2358 Z" id="path5489" stroke="none" fill="#212B51" fill-rule="nonzero" fill-opacity="1"/></g></g></g><g id="g5491" fill="#212B51" fill-opacity="1" display="inline" transform="matrix(1.33333,0,0,-1.33333,-104,3137.93)"><g id="g5493" fill="#212B51" fill-opacity="1" clip-path="url(#clipPath5497)"><g id="g5499" fill="#212B51" fill-opacity="1" clip-path="url(#clipPath5503)"><path d=" M 179.948 2308.37 L 215.677 2308.37 L 215.677 2358 L 179.948 2358 Z" id="path5505" stroke="none" fill="#212B51" fill-rule="nonzero" fill-opacity="1"/></g></g></g><g id="g5507" fill="#212B51" fill-opacity="1" display="inline" transform="matrix(1.33333,0,0,-1.33333,-104,3137.93)"><g id="g5509" fill="#212B51" fill-opacity="1" clip-path="url(#clipPath5513)"><g id="g5515" fill="#212B51" fill-opacity="1" clip-path="url(#clipPath5519)"><path d=" M 215.007 2308.37 L 254.602 2308.37 L 254.602 2358 L 215.007 2358 Z" id="path5521" stroke="none" fill="#212B51" fill-rule="nonzero" fill-opacity="1"/></g></g></g><g id="g5523" fill="#212B51" fill-opacity="1" display="inline" transform="matrix(1.33333,0,0,-1.33333,-104,3137.93)"><g id="g5525" fill="#212B51" fill-opacity="1" clip-path="url(#clipPath5529)"><g id="g5531" fill="#212B51" fill-opacity="1" clip-path="url(#clipPath5535)"><path d=" M 253.851 2307.98 L 296.591 2307.98 L 296.591 2358.45 L 253.851 2358.45 Z" id="path5537" stroke="none" fill="#212B51" fill-rule="nonzero" fill-opacity="1"/></g></g></g><g id="g5539" fill="#212B51" fill-opacity="1" display="inline" transform="matrix(1.33333,0,0,-1.33333,-104,3137.93)"><g id="g5541" fill="#212B51" fill-opacity="1" clip-path="url(#clipPath5545)"><g id="g5547" fill="#212B51" fill-opacity="1" clip-path="url(#clipPath5551)"><path d=" M 293.244 2308.37 L 339.726 2308.37 L 339.726 2358 L 293.244 2358 Z" id="path5553" stroke="none" fill="#212B51" fill-rule="nonzero" fill-opacity="1"/></g></g></g><g id="g5555" fill="#212B51" fill-opacity="1" display="inline" transform="matrix(1.33333,0,0,-1.33333,-104,3137.93)"><g id="g5557" fill="#212B51" fill-opacity="1" clip-path="url(#clipPath5561)"><g id="g5563" fill="#212B51" fill-opacity="1" clip-path="url(#clipPath5567)"><path d=" M 329.367 2308.37 L 371.856 2308.37 L 371.856 2358 L 329.367 2358 Z" id="path5569" stroke="none" fill="#212B51" fill-rule="nonzero" fill-opacity="1"/></g></g></g><g id="g5571" fill="#212B51" fill-opacity="1" display="inline" transform="matrix(1.33333,0,0,-1.33333,-104,3137.93)"><g id="g5573" fill="#212B51" fill-opacity="1" clip-path="url(#clipPath5577)"><g id="g5579" fill="#212B51" fill-opacity="1" clip-path="url(#clipPath5583)"><path d=" M 417.215 2308.37 L 461.659 2308.37 L 461.659 2358 L 417.215 2358 Z" id="path5585" stroke="none" fill="#212B51" fill-rule="nonzero" fill-opacity="1"/></g></g></g><g id="g5587" fill="#212B51" fill-opacity="1" display="inline" transform="matrix(1.33333,0,0,-1.33333,-104,3137.93)"><g id="g5589" fill="#212B51" fill-opacity="1" clip-path="url(#clipPath5593)"><g id="g5595" fill="#212B51" fill-opacity="1" clip-path="url(#clipPath5599)"><path d=" M 458.652 2308.37 L 494.38 2308.37 L 494.38 2358 L 458.652 2358 Z" id="path5601" stroke="none" fill="#212B51" fill-rule="nonzero" fill-opacity="1"/></g></g></g><g id="g5603" display="inline" transform="matrix(1.33333,0,0,-1.33333,-104,3137.93)"><g id="g5605" clip-path="url(#clipPath5609)"><g id="g5611" clip-path="url(#clipPath5615)"><path d=" M 369.405 2320.04 L 397.559 2320.04 L 397.559 2358 L 369.405 2358 Z" id="path5617" stroke="none" fill="#F7AC33" fill-rule="nonzero" fill-opacity="1"/></g></g></g><g id="g5619" display="inline" transform="matrix(1.33333,0,0,-1.33333,-104,3137.93)"><g id="g5621" clip-path="url(#clipPath5625)"><g id="g5627" clip-path="url(#clipPath5631)"><path d=" M 392.771 2320.04 L 420.925 2320.04 L 420.925 2358 L 392.771 2358 Z" id="path5633" stroke="none" fill="#F7AC33" fill-rule="nonzero" fill-opacity="1"/></g></g></g><g id="g5635" display="inline" transform="matrix(1.33333,0,0,-1.33333,-104,3137.93)"><g id="g5637" clip-path="url(#clipPath5641)"><g id="g5643" clip-path="url(#clipPath5647)"><path d=" M 369.405 2308.37 L 420.904 2308.37 L 420.904 2324.94 L 369.405 2324.94 Z" id="path5649" stroke="none" fill="#F7AC33" fill-rule="nonzero" fill-opacity="1"/></g></g></g></svg>