<svg version="1.1" width="548.507" height="53.964" xmlns="http://www.w3.org/2000/svg" xmlns:xlink="http://www.w3.org/1999/xlink" id="svg3552" overflow="hidden"><defs id="defs3556"><clipPath id="clipPath3214"><path d=" M 415.015 1311.94 L 375.295 1311.94 C 374.725 1311.94 374.405 1311.58 374.405 1310.94 L 374.405 1306.37 C 374.405 1305.73 374.725 1305.37 375.295 1305.37 L 415.015 1305.37 C 415.585 1305.37 415.904 1305.73 415.904 1306.37 L 415.904 1310.94 C 415.904 1311.58 415.585 1311.94 415.015 1311.94" id="path3212" clip-rule="evenodd"/></clipPath><clipPath id="clipPath3220"><path d=" M 0 0 L 1280 0 L 1280 1435 L 0 1435 Z" id="path3218"/></clipPath><clipPath id="clipPath3198"><path d=" M 415.925 1322.61 L 415.925 1318.03 C 415.925 1317.4 415.604 1317.04 415.035 1317.04 L 398.661 1317.04 C 398.091 1317.04 397.771 1317.4 397.771 1318.03 L 397.771 1344.01 C 397.771 1344.64 398.091 1345 398.661 1345 L 414.963 1345 C 415.533 1345 415.854 1344.64 415.854 1344.01 L 415.854 1339.39 C 415.854 1338.76 415.533 1338.4 414.963 1338.4 L 404.499 1338.4 L 404.499 1334.42 L 413.576 1334.42 C 414.145 1334.42 414.466 1334.06 414.466 1333.43 L 414.466 1328.93 C 414.466 1328.3 414.145 1327.94 413.576 1327.94 L 404.499 1327.94 L 404.499 1323.6 L 415.035 1323.6 C 415.604 1323.6 415.925 1323.24 415.925 1322.61" id="path3196" clip-rule="evenodd"/></clipPath><clipPath id="clipPath3204"><path d=" M 0 0 L 1280 0 L 1280 1435 L 0 1435 Z" id="path3202"/></clipPath><clipPath id="clipPath3182"><path d=" M 392.559 1322.61 L 392.559 1318.03 C 392.559 1317.4 392.237 1317.04 391.668 1317.04 L 375.294 1317.04 C 374.725 1317.04 374.405 1317.4 374.405 1318.03 L 374.405 1344.01 C 374.405 1344.64 374.725 1345 375.294 1345 L 391.597 1345 C 392.167 1345 392.488 1344.64 392.488 1344.01 L 392.488 1339.39 C 392.488 1338.76 392.167 1338.4 391.597 1338.4 L 381.133 1338.4 L 381.133 1334.42 L 390.21 1334.42 C 390.779 1334.42 391.099 1334.06 391.099 1333.43 L 391.099 1328.93 C 391.099 1328.3 390.779 1327.94 390.21 1327.94 L 381.133 1327.94 L 381.133 1323.6 L 391.668 1323.6 C 392.237 1323.6 392.559 1323.24 392.559 1322.61" id="path3180" clip-rule="evenodd"/></clipPath><clipPath id="clipPath3188"><path d=" M 0 0 L 1280 0 L 1280 1435 L 0 1435 Z" id="path3186"/></clipPath><clipPath id="clipPath3166"><path d=" M 489.38 1313.26 L 489.38 1306.78 C 489.38 1305.88 488.928 1305.37 488.118 1305.37 L 464.913 1305.37 C 464.106 1305.37 463.652 1305.88 463.652 1306.78 L 463.652 1343.59 C 463.652 1344.49 464.106 1345 464.913 1345 L 488.018 1345 C 488.826 1345 489.279 1344.49 489.279 1343.59 L 489.279 1337.05 C 489.279 1336.15 488.826 1335.64 488.018 1335.64 L 473.186 1335.64 L 473.186 1330.01 L 486.05 1330.01 C 486.858 1330.01 487.311 1329.5 487.311 1328.6 L 487.311 1322.23 C 487.311 1321.32 486.858 1320.82 486.05 1320.82 L 473.186 1320.82 L 473.186 1314.67 L 488.118 1314.67 C 488.928 1314.67 489.38 1314.17 489.38 1313.26" id="path3164" clip-rule="evenodd"/></clipPath><clipPath id="clipPath3172"><path d=" M 0 0 L 1280 0 L 1280 1435 L 0 1435 Z" id="path3170"/></clipPath><clipPath id="clipPath3150"><path d=" M 456.539 1343.36 L 442.767 1306.44 C 442.515 1305.71 442.01 1305.37 441.302 1305.37 L 437.622 1305.37 C 436.914 1305.37 436.411 1305.71 436.158 1306.44 L 422.335 1343.36 C 421.982 1344.38 422.435 1345 423.345 1345 L 431.366 1345 C 432.072 1345 432.577 1344.66 432.828 1343.87 L 437.42 1330.4 L 439.892 1321.83 L 442.262 1330.4 L 446.601 1343.87 C 446.853 1344.61 447.307 1345 448.014 1345 L 455.53 1345 C 456.437 1345 456.893 1344.38 456.539 1343.36" id="path3148" clip-rule="evenodd"/></clipPath><clipPath id="clipPath3156"><path d=" M 0 0 L 1280 0 L 1280 1435 L 0 1435 Z" id="path3154"/></clipPath><clipPath id="clipPath3134"><path d=" M 366.856 1343.59 L 366.856 1336.94 C 366.856 1336.04 366.403 1335.53 365.595 1335.53 L 355.354 1335.53 L 355.354 1306.78 C 355.354 1305.88 354.9 1305.37 354.093 1305.37 L 346.98 1305.37 C 346.172 1305.37 345.718 1305.88 345.718 1306.78 L 345.718 1335.53 L 335.629 1335.53 C 334.821 1335.53 334.367 1336.04 334.367 1336.94 L 334.367 1343.59 C 334.367 1344.49 334.821 1345 335.629 1345 L 365.595 1345 C 366.403 1345 366.856 1344.49 366.856 1343.59" id="path3132" clip-rule="evenodd"/></clipPath><clipPath id="clipPath3140"><path d=" M 0 0 L 1280 0 L 1280 1435 L 0 1435 Z" id="path3138"/></clipPath><clipPath id="clipPath3118"><path d=" M 312.373 1320.14 L 320.496 1320.14 L 316.46 1330.91 Z M 333.613 1305.37 L 326.297 1305.37 C 325.591 1305.37 325.086 1305.71 324.835 1306.44 L 322.817 1312.02 L 310.053 1312.02 L 308.036 1306.44 C 307.783 1305.71 307.278 1305.37 306.573 1305.37 L 299.358 1305.37 C 298.4 1305.37 297.996 1305.99 298.4 1307.01 L 313.282 1343.93 C 313.584 1344.66 314.038 1345 314.745 1345 L 318.427 1345 C 319.134 1345 319.588 1344.66 319.891 1343.93 L 334.571 1307.01 C 334.974 1305.99 334.571 1305.37 333.613 1305.37 Z" id="path3116" clip-rule="evenodd"/></clipPath><clipPath id="clipPath3124"><path d=" M 0 0 L 1280 0 L 1280 1435 L 0 1435 Z" id="path3122"/></clipPath><clipPath id="clipPath3102"><path d=" M 291.591 1343.59 L 291.591 1306.39 C 291.591 1305.48 291.138 1304.98 290.33 1304.98 L 287.203 1304.98 C 286.546 1304.98 286.093 1305.26 285.689 1305.77 L 268.283 1327.02 L 268.283 1306.78 C 268.283 1305.88 267.83 1305.37 267.023 1305.37 L 260.111 1305.37 C 259.304 1305.37 258.851 1305.88 258.851 1306.78 L 258.851 1344.04 C 258.851 1344.94 259.304 1345.45 260.111 1345.45 L 263.29 1345.45 C 263.944 1345.45 264.349 1345.28 264.803 1344.72 L 282.157 1323.92 L 282.157 1343.59 C 282.157 1344.49 282.611 1345 283.419 1345 L 290.33 1345 C 291.138 1345 291.591 1344.49 291.591 1343.59" id="path3100" clip-rule="evenodd"/></clipPath><clipPath id="clipPath3108"><path d=" M 0 0 L 1280 0 L 1280 1435 L 0 1435 Z" id="path3106"/></clipPath><clipPath id="clipPath3086"><path d=" M 229.441 1324.48 L 234.133 1324.48 C 237.612 1324.48 239.783 1326.96 239.783 1330.12 C 239.783 1333.44 237.715 1336.04 233.982 1336.04 L 229.441 1336.04 Z M 248.511 1305.37 L 240.389 1305.37 C 239.733 1305.37 239.177 1305.65 238.824 1306.27 L 233.527 1315.52 L 229.441 1315.52 L 229.441 1306.78 C 229.441 1305.88 228.988 1305.37 228.179 1305.37 L 221.27 1305.37 C 220.461 1305.37 220.007 1305.88 220.007 1306.78 L 220.007 1343.59 C 220.007 1344.49 220.461 1345 221.27 1345 L 234.889 1345 C 244.02 1345 249.418 1338.57 249.418 1330.01 C 249.418 1324.48 246.896 1320.08 242.71 1317.66 L 249.318 1307.06 C 249.923 1306.1 249.52 1305.37 248.511 1305.37 Z" id="path3084" clip-rule="evenodd"/></clipPath><clipPath id="clipPath3092"><path d=" M 0 0 L 1280 0 L 1280 1435 L 0 1435 Z" id="path3090"/></clipPath><clipPath id="clipPath3070"><path d=" M 210.677 1313.26 L 210.677 1306.78 C 210.677 1305.88 210.225 1305.37 209.416 1305.37 L 186.21 1305.37 C 185.401 1305.37 184.948 1305.88 184.948 1306.78 L 184.948 1343.59 C 184.948 1344.49 185.401 1345 186.21 1345 L 209.316 1345 C 210.122 1345 210.576 1344.49 210.576 1343.59 L 210.576 1337.05 C 210.576 1336.15 210.122 1335.64 209.316 1335.64 L 194.484 1335.64 L 194.484 1330.01 L 207.347 1330.01 C 208.155 1330.01 208.609 1329.5 208.609 1328.6 L 208.609 1322.23 C 208.609 1321.32 208.155 1320.82 207.347 1320.82 L 194.484 1320.82 L 194.484 1314.67 L 209.416 1314.67 C 210.225 1314.67 210.677 1314.17 210.677 1313.26" id="path3068" clip-rule="evenodd"/></clipPath><clipPath id="clipPath3076"><path d=" M 0 0 L 1280 0 L 1280 1435 L 0 1435 Z" id="path3074"/></clipPath><clipPath id="clipPath3054"><path d=" M 177.837 1343.59 L 177.837 1336.94 C 177.837 1336.04 177.383 1335.53 176.577 1335.53 L 166.335 1335.53 L 166.335 1306.78 C 166.335 1305.88 165.88 1305.37 165.075 1305.37 L 157.961 1305.37 C 157.153 1305.37 156.7 1305.88 156.7 1306.78 L 156.7 1335.53 L 146.611 1335.53 C 145.803 1335.53 145.35 1336.04 145.35 1336.94 L 145.35 1343.59 C 145.35 1344.49 145.803 1345 146.611 1345 L 176.577 1345 C 177.383 1345 177.837 1344.49 177.837 1343.59" id="path3052" clip-rule="evenodd"/></clipPath><clipPath id="clipPath3060"><path d=" M 0 0 L 1280 0 L 1280 1435 L 0 1435 Z" id="path3058"/></clipPath><clipPath id="clipPath3038"><path d=" M 146.611 1313.38 L 146.611 1306.78 C 146.611 1305.88 146.158 1305.37 145.349 1305.37 L 122.447 1305.37 C 121.638 1305.37 121.186 1305.88 121.186 1306.78 L 121.186 1343.59 C 121.186 1344.49 121.638 1345 122.447 1345 L 129.61 1345 C 130.417 1345 130.872 1344.49 130.872 1343.59 L 130.872 1314.79 L 145.349 1314.79 C 146.158 1314.79 146.611 1314.28 146.611 1313.38" id="path3036" clip-rule="evenodd"/></clipPath><clipPath id="clipPath3044"><path d=" M 0 0 L 1280 0 L 1280 1435 L 0 1435 Z" id="path3042"/></clipPath><clipPath id="clipPath2996"><path d=" M 78 1345 L 78 1305.37 L 114.482 1305.37 L 114.482 1345 Z" id="path2994" clip-rule="evenodd"/></clipPath><clipPath id="clipPath3002"><path d=" M 0 0 L 1280 0 L 1280 1435 L 0 1435 Z" id="path3000"/></clipPath><clipPath id="clipPath3008"><path d=" M 77 1305 L 115 1305 L 115 1345 L 77 1345 Z" id="path3006"/></clipPath><clipPath id="clipPath3012"><path d=" M 92.1296 1320.14 L 100.253 1320.14 L 96.2156 1330.91 Z M 113.369 1305.37 L 106.053 1305.37 C 105.348 1305.37 104.843 1305.71 104.59 1306.44 L 102.572 1312.02 L 89.8093 1312.02 L 87.7912 1306.44 C 87.5388 1305.71 87.034 1305.37 86.3285 1305.37 L 79.1133 1305.37 C 78.1554 1305.37 77.7519 1305.99 78.1554 1307.01 L 93.0378 1343.93 C 93.3399 1344.66 93.795 1345 94.5005 1345 L 98.1842 1345 C 98.8896 1345 99.3438 1344.66 99.6469 1343.93 L 114.327 1307.01 C 114.731 1305.99 114.327 1305.37 113.369 1305.37 Z" id="path3010" clip-rule="evenodd"/></clipPath><clipPath id="clipPath3016"><path d=" M 78 1305 L 115 1305 L 115 1346 L 78 1346 Z" id="path3014"/></clipPath></defs><g id="g2990" transform="matrix(1.33333,0,0,-1.33333,-104,1793.93)"><g id="g2992" clip-path="url(#clipPath2996)"><g id="g2998" clip-path="url(#clipPath3002)"><g id="g3004"></g><g id="g3030"><g id="g3028" clip-path="url(#clipPath3008)"><g id="g3018"></g><g id="g3026"><g id="g3024" clip-path="url(#clipPath3012)"><g id="g3022" clip-path="url(#clipPath3016)"><path d=" M 72.9999 1300.37 L 119.482 1300.37 L 119.482 1350 L 72.9999 1350 Z" id="path3020" stroke="none" fill="#FEFEFE" fill-rule="nonzero" fill-opacity="1"/></g></g></g></g></g></g></g></g><g id="g3032" transform="matrix(1.33333,0,0,-1.33333,-104,1793.93)"><g id="g3034" clip-path="url(#clipPath3038)"><g id="g3040" clip-path="url(#clipPath3044)"><path d=" M 116.186 1300.37 L 151.611 1300.37 L 151.611 1350 L 116.186 1350 Z" id="path3046" stroke="none" fill="#FEFEFE" fill-rule="nonzero" fill-opacity="1"/></g></g></g><g id="g3048" transform="matrix(1.33333,0,0,-1.33333,-104,1793.93)"><g id="g3050" clip-path="url(#clipPath3054)"><g id="g3056" clip-path="url(#clipPath3060)"><path d=" M 140.35 1300.37 L 182.837 1300.37 L 182.837 1350 L 140.35 1350 Z" id="path3062" stroke="none" fill="#FEFEFE" fill-rule="nonzero" fill-opacity="1"/></g></g></g><g id="g3064" transform="matrix(1.33333,0,0,-1.33333,-104,1793.93)"><g id="g3066" clip-path="url(#clipPath3070)"><g id="g3072" clip-path="url(#clipPath3076)"><path d=" M 179.948 1300.37 L 215.677 1300.37 L 215.677 1350 L 179.948 1350 Z" id="path3078" stroke="none" fill="#FEFEFE" fill-rule="nonzero" fill-opacity="1"/></g></g></g><g id="g3080" transform="matrix(1.33333,0,0,-1.33333,-104,1793.93)"><g id="g3082" clip-path="url(#clipPath3086)"><g id="g3088" clip-path="url(#clipPath3092)"><path d=" M 215.007 1300.37 L 254.602 1300.37 L 254.602 1350 L 215.007 1350 Z" id="path3094" stroke="none" fill="#FEFEFE" fill-rule="nonzero" fill-opacity="1"/></g></g></g><g id="g3096" transform="matrix(1.33333,0,0,-1.33333,-104,1793.93)"><g id="g3098" clip-path="url(#clipPath3102)"><g id="g3104" clip-path="url(#clipPath3108)"><path d=" M 253.851 1299.98 L 296.591 1299.98 L 296.591 1350.45 L 253.851 1350.45 Z" id="path3110" stroke="none" fill="#FEFEFE" fill-rule="nonzero" fill-opacity="1"/></g></g></g><g id="g3112" transform="matrix(1.33333,0,0,-1.33333,-104,1793.93)"><g id="g3114" clip-path="url(#clipPath3118)"><g id="g3120" clip-path="url(#clipPath3124)"><path d=" M 293.244 1300.37 L 339.726 1300.37 L 339.726 1350 L 293.244 1350 Z" id="path3126" stroke="none" fill="#FEFEFE" fill-rule="nonzero" fill-opacity="1"/></g></g></g><g id="g3128" transform="matrix(1.33333,0,0,-1.33333,-104,1793.93)"><g id="g3130" clip-path="url(#clipPath3134)"><g id="g3136" clip-path="url(#clipPath3140)"><path d=" M 329.367 1300.37 L 371.856 1300.37 L 371.856 1350 L 329.367 1350 Z" id="path3142" stroke="none" fill="#FEFEFE" fill-rule="nonzero" fill-opacity="1"/></g></g></g><g id="g3144" transform="matrix(1.33333,0,0,-1.33333,-104,1793.93)"><g id="g3146" clip-path="url(#clipPath3150)"><g id="g3152" clip-path="url(#clipPath3156)"><path d=" M 417.215 1300.37 L 461.659 1300.37 L 461.659 1350 L 417.215 1350 Z" id="path3158" stroke="none" fill="#FEFEFE" fill-rule="nonzero" fill-opacity="1"/></g></g></g><g id="g3160" transform="matrix(1.33333,0,0,-1.33333,-104,1793.93)"><g id="g3162" clip-path="url(#clipPath3166)"><g id="g3168" clip-path="url(#clipPath3172)"><path d=" M 458.652 1300.37 L 494.38 1300.37 L 494.38 1350 L 458.652 1350 Z" id="path3174" stroke="none" fill="#FEFEFE" fill-rule="nonzero" fill-opacity="1"/></g></g></g><g id="g3176" transform="matrix(1.33333,0,0,-1.33333,-104,1793.93)"><g id="g3178" clip-path="url(#clipPath3182)"><g id="g3184" clip-path="url(#clipPath3188)"><path d=" M 369.405 1312.04 L 397.559 1312.04 L 397.559 1350 L 369.405 1350 Z" id="path3190" stroke="none" fill="#F7AC33" fill-rule="nonzero" fill-opacity="1"/></g></g></g><g id="g3192" transform="matrix(1.33333,0,0,-1.33333,-104,1793.93)"><g id="g3194" clip-path="url(#clipPath3198)"><g id="g3200" clip-path="url(#clipPath3204)"><path d=" M 392.771 1312.04 L 420.925 1312.04 L 420.925 1350 L 392.771 1350 Z" id="path3206" stroke="none" fill="#F7AC33" fill-rule="nonzero" fill-opacity="1"/></g></g></g><g id="g3208" transform="matrix(1.33333,0,0,-1.33333,-104,1793.93)"><g id="g3210" clip-path="url(#clipPath3214)"><g id="g3216" clip-path="url(#clipPath3220)"><path d=" M 369.405 1300.37 L 420.904 1300.37 L 420.904 1316.94 L 369.405 1316.94 Z" id="path3222" stroke="none" fill="#F7AC33" fill-rule="nonzero" fill-opacity="1"/></g></g></g></svg>