<svg version="1.1" width="319.699" height="148.932" xmlns="http://www.w3.org/2000/svg" xmlns:xlink="http://www.w3.org/1999/xlink" id="svg11300" overflow="hidden"><defs id="defs11304"><clipPath id="clipPath5366"><path d=" M 158.11 454.573 C 220.323 485.644 279.879 484.288 314.022 482.493 C 310.644 485.604 307.5 492.482 306.039 495.992 C 187.068 495.992 158.11 454.573 158.11 454.573" id="path5364" clip-rule="evenodd"/></clipPath><clipPath id="clipPath5372"><path d=" M 0 0 L 2560 0 L 2560 8102 L 0 8102 Z" id="path5370"/></clipPath><clipPath id="clipPath5350"><path d=" M 363.02 491.234 C 348.778 493.542 335.636 494.918 323.507 495.559 C 325.622 493.284 329.746 489.196 332.269 488.916 C 335.776 488.519 335.191 486.586 335.191 486.586 C 335.191 486.453 335.167 483.681 332.925 480.966 C 353.487 478.715 366.912 475.367 366.912 475.367 C 366.912 475.367 373.922 476.863 372.753 483.461 C 371.585 490.07 363.02 491.234 363.02 491.234" id="path5348" clip-rule="evenodd"/></clipPath><clipPath id="clipPath5356"><path d=" M 0 0 L 2560 0 L 2560 8102 L 0 8102 Z" id="path5354"/></clipPath><clipPath id="clipPath5308"><path d=" M 387.775 498.477 L 387.775 540.416 L 318.732 540.416 L 318.732 498.477 Z" id="path5306" clip-rule="evenodd"/></clipPath><clipPath id="clipPath5314"><path d=" M 0 0 L 2560 0 L 2560 8102 L 0 8102 Z" id="path5312"/></clipPath><clipPath id="clipPath5320"><path d=" M 318 498 L 388 498 L 388 541 L 318 541 Z" id="path5318"/></clipPath><clipPath id="clipPath5324"><path d=" M 331.329 520.274 C 333.628 525.476 335.926 529.56 338.225 532.527 C 340.528 535.493 342.432 536.945 343.947 536.892 C 344.958 536.835 345.446 536.078 345.42 534.626 C 345.391 533.17 344.845 531.449 343.779 529.463 C 342.712 527.477 341.101 525.463 338.944 523.421 C 336.781 521.378 334.021 519.769 330.656 518.593 C 330.824 519.098 331.047 519.657 331.329 520.274 M 362.456 520.274 C 364.754 525.476 367.053 529.56 369.352 532.527 C 371.651 535.493 373.559 536.945 375.072 536.892 C 376.083 536.835 376.573 536.078 376.545 534.626 C 376.516 533.17 375.969 531.449 374.906 529.463 C 373.839 527.477 372.226 525.463 370.067 523.421 C 367.908 521.378 365.147 519.769 361.781 518.593 C 361.951 519.098 362.172 519.657 362.456 520.274 M 387.101 525.561 C 386.651 525.841 386.22 525.896 385.797 525.729 C 385.377 525.561 385.084 525.254 384.916 524.805 C 384.353 523.35 383.583 521.768 382.602 520.065 C 381.621 518.357 380.498 516.638 379.236 514.902 C 377.975 513.166 376.629 511.517 375.2 509.948 C 373.768 508.383 372.309 507.012 370.823 505.839 C 369.336 504.664 367.88 503.784 366.45 503.193 C 365.018 502.606 363.685 502.424 362.456 502.651 C 361.613 502.816 360.983 503.291 360.562 504.077 C 360.141 504.86 359.873 505.839 359.762 507.012 C 359.648 508.186 359.677 509.489 359.845 510.915 C 360.015 512.342 360.294 513.783 360.687 515.239 C 363.604 516.021 366.241 517.182 368.595 518.723 C 370.95 520.257 372.956 521.965 374.612 523.839 C 376.263 525.715 377.541 527.63 378.438 529.589 C 379.335 531.548 379.783 533.336 379.783 534.961 C 379.783 536.581 379.291 537.897 378.311 538.906 C 377.33 539.911 375.801 540.416 373.727 540.416 C 371.706 540.416 369.717 540.049 367.754 539.324 C 365.791 538.595 363.886 537.479 362.034 535.968 C 360.183 534.456 358.429 532.513 356.777 530.135 C 355.192 527.857 353.75 525.088 352.451 521.863 C 352.148 521.277 351.831 520.682 351.478 520.065 C 350.495 518.357 349.375 516.638 348.112 514.902 C 346.852 513.166 345.503 511.517 344.073 509.948 C 342.643 508.383 341.184 507.012 339.698 505.839 C 338.213 504.664 336.755 503.784 335.327 503.193 C 333.893 502.606 332.564 502.424 331.329 502.651 C 330.49 502.816 329.856 503.291 329.437 504.077 C 329.018 504.86 328.75 505.839 328.637 507.012 C 328.523 508.186 328.552 509.489 328.722 510.915 C 328.89 512.342 329.169 513.783 329.562 515.239 C 332.479 516.021 335.116 517.182 337.47 518.723 C 339.826 520.257 341.829 521.965 343.485 523.839 C 345.14 525.715 346.416 527.63 347.313 529.589 C 348.209 531.548 348.658 533.336 348.658 534.961 C 348.658 536.581 348.168 537.897 347.184 538.906 C 346.204 539.911 344.676 540.416 342.602 540.416 C 340.583 540.416 338.592 540.049 336.629 539.324 C 334.665 538.595 332.759 537.479 330.909 535.968 C 329.058 534.456 327.306 532.513 325.651 530.135 C 323.997 527.756 322.496 524.862 321.151 521.45 C 320.422 519.602 319.804 517.576 319.3 515.363 C 318.795 513.152 318.627 511.014 318.795 508.941 C 318.963 506.872 319.537 504.984 320.519 503.277 C 321.502 501.571 323.114 500.269 325.356 499.374 C 327.377 498.534 329.423 498.286 331.497 498.622 C 333.571 498.956 335.605 499.681 337.596 500.802 C 339.587 501.922 341.508 503.362 343.358 505.126 C 345.211 506.888 346.963 508.817 348.616 510.915 C 349.103 511.532 349.544 512.164 350.001 512.788 C 349.854 511.482 349.818 510.197 349.92 508.941 C 350.088 506.872 350.663 504.984 351.644 503.277 C 352.626 501.571 354.238 500.269 356.482 499.374 C 358.5 498.534 360.547 498.286 362.622 498.622 C 364.696 498.956 366.731 499.681 368.72 500.802 C 370.711 501.922 372.633 503.362 374.485 505.126 C 376.334 506.888 378.086 508.817 379.741 510.915 C 381.395 513.014 382.88 515.168 384.199 517.379 C 385.517 519.586 386.651 521.701 387.607 523.715 C 387.944 524.497 387.776 525.112 387.101 525.561" id="path5322" clip-rule="evenodd"/></clipPath><clipPath id="clipPath5328"><path d=" M 318 498 L 388 498 L 388 541 L 318 541 Z" id="path5326"/></clipPath><clipPath id="clipPath5266"><path d=" M 332.567 566.273 L 148.001 566.273 L 148.001 476.127 L 332.567 476.127 Z" id="path5264" clip-rule="evenodd"/></clipPath><clipPath id="clipPath5272"><path d=" M 0 0 L 2560 0 L 2560 8102 L 0 8102 Z" id="path5270"/></clipPath><clipPath id="clipPath5278"><path d=" M 147 476 L 333 476 L 333 567 L 147 567 Z" id="path5276"/></clipPath><clipPath id="clipPath5282"><path d=" M 331.919 487.29 C 330.07 487.347 328.176 488.144 326.242 489.683 C 324.307 491.22 322.371 493.194 320.436 495.6 C 318.5 498.005 316.637 500.659 314.844 503.572 C 313.048 506.479 311.365 509.348 309.797 512.174 C 308.225 514.999 306.809 517.589 305.547 519.936 C 304.284 522.288 303.233 524.106 302.392 525.394 C 304.186 526.12 306.064 526.93 308.027 527.828 C 309.991 528.721 311.869 529.672 313.664 530.681 C 315.458 531.687 317.072 532.749 318.5 533.87 C 319.932 534.987 320.984 536.136 321.654 537.31 C 322.553 538.822 322.804 540.205 322.413 541.465 C 322.02 542.724 321.405 543.758 320.562 544.57 C 319.722 545.38 318.881 545.9 318.039 546.123 C 317.198 546.346 316.777 546.206 316.777 545.703 C 316.777 545.199 316.441 544.513 315.768 543.646 C 315.095 542.779 314.21 541.813 313.117 540.751 C 312.027 539.689 310.775 538.528 309.376 537.269 C 307.972 536.008 306.528 534.763 305.043 533.533 C 303.556 532.303 302.084 531.113 300.626 529.966 C 299.165 528.819 297.849 527.771 296.672 526.819 C 298.412 530.455 300.134 534.122 301.845 537.815 C 303.556 541.508 305.057 544.962 306.345 548.18 C 307.636 551.395 308.618 554.236 309.291 556.699 C 309.963 559.159 310.131 560.979 309.797 562.154 C 309.291 563.831 308.45 564.95 307.273 565.51 C 306.095 566.07 304.928 566.32 303.781 566.266 C 302.631 566.208 301.677 565.957 300.921 565.51 C 300.162 565.061 299.982 564.67 300.373 564.335 C 300.711 563.999 300.626 562.964 300.121 561.23 C 299.615 559.496 298.833 557.312 297.764 554.683 C 296.7 552.053 295.453 549.075 294.021 545.745 C 292.591 542.415 291.106 538.989 289.563 535.466 C 288.022 531.94 286.52 528.441 285.064 524.973 C 284.698 524.099 284.342 523.238 283.994 522.392 C 283.625 521.644 283.213 520.867 282.751 520.065 C 281.767 518.355 280.649 516.637 279.385 514.901 C 278.125 513.165 276.778 511.515 275.348 509.949 C 273.919 508.384 272.46 507.012 270.974 505.838 C 269.485 504.665 268.031 503.784 266.599 503.193 C 265.169 502.606 263.838 502.425 262.604 502.651 C 261.539 502.872 260.808 503.615 260.415 504.874 C 260.024 506.132 259.87 507.626 259.953 509.362 C 260.036 511.097 260.318 512.944 260.794 514.901 C 261.271 516.86 261.875 518.651 262.604 520.274 C 263.783 522.846 264.96 525.182 266.137 527.28 C 267.314 529.379 268.45 531.142 269.544 532.569 C 270.637 533.996 271.658 535.086 272.614 535.842 C 273.568 536.599 274.437 536.946 275.221 536.893 C 275.837 536.893 276.286 536.554 276.568 535.884 C 276.175 535.604 275.853 535.265 275.6 534.877 C 275.348 534.485 275.221 534.065 275.221 533.616 C 275.221 532.889 275.488 532.303 276.021 531.856 C 276.554 531.407 277.157 531.184 277.83 531.184 C 278.615 531.184 279.229 531.464 279.679 532.023 C 280.183 532.526 280.439 533.336 280.439 534.457 C 280.439 535.576 280.212 536.513 279.764 537.269 C 279.316 538.024 278.769 538.625 278.125 539.072 C 277.479 539.52 276.778 539.841 276.021 540.038 C 275.263 540.233 274.548 540.361 273.876 540.416 C 271.857 540.471 269.865 540.164 267.901 539.494 C 265.941 538.822 264.034 537.715 262.183 536.177 C 260.33 534.638 258.58 532.652 256.927 530.22 C 255.962 528.802 255.059 527.199 254.2 525.453 C 253.983 525.304 253.802 525.109 253.686 524.805 C 253.352 523.853 252.791 522.653 252.006 521.195 C 251.219 519.741 250.322 518.202 249.311 516.58 C 248.303 514.958 247.238 513.334 246.115 511.712 C 244.993 510.089 243.899 508.621 242.836 507.306 C 241.771 505.99 240.803 504.914 239.934 504.078 C 239.063 503.237 238.348 502.789 237.787 502.73 C 236.496 502.62 235.924 503.136 236.063 504.287 C 236.201 505.434 236.735 506.973 237.663 508.902 C 238.587 510.831 239.735 513.027 241.111 515.488 C 242.484 517.951 243.774 520.44 244.981 522.959 C 246.186 525.475 247.126 527.897 247.799 530.22 C 248.473 532.54 248.556 534.511 248.05 536.136 C 247.546 537.815 246.689 538.932 245.484 539.494 C 244.278 540.05 243.116 540.302 241.994 540.249 C 240.871 540.192 239.934 539.939 239.176 539.494 C 238.419 539.045 238.236 538.653 238.629 538.318 C 239.022 537.925 239.093 537.198 238.838 536.136 C 238.587 535.072 238.137 533.758 237.493 532.189 C 236.847 530.624 236.089 528.876 235.221 526.945 C 234.525 525.401 233.845 523.803 233.168 522.169 C 233.009 521.86 232.839 521.535 232.657 521.195 C 231.87 519.741 230.973 518.202 229.965 516.58 C 228.954 514.958 227.889 513.334 226.768 511.712 C 225.644 510.089 224.551 508.621 223.487 507.306 C 222.422 505.99 221.454 504.914 220.585 504.078 C 219.714 503.237 218.999 502.789 218.44 502.73 C 217.484 502.62 217.079 503.264 217.221 504.665 C 217.36 506.061 217.895 507.949 218.818 510.329 C 219.744 512.706 220.949 515.474 222.436 518.637 C 223.92 521.798 225.492 525.085 227.147 528.498 C 228.8 531.909 230.44 535.366 232.069 538.862 C 233.694 542.359 235.109 545.62 236.316 548.641 C 237.521 551.662 238.433 554.36 239.048 556.739 C 239.667 559.117 239.778 560.922 239.387 562.154 C 238.883 563.831 238.028 564.95 236.819 565.51 C 235.613 566.07 234.451 566.32 233.331 566.266 C 232.207 566.208 231.267 565.957 230.512 565.51 C 229.756 565.061 229.572 564.67 229.965 564.335 C 230.357 563.943 230.161 562.572 229.377 560.224 C 228.589 557.872 227.484 554.948 226.054 551.452 C 224.622 547.954 223.011 544.121 221.217 539.955 C 219.42 535.785 217.711 531.7 216.085 527.702 C 215.376 525.957 214.719 524.287 214.093 522.663 C 212.271 519.181 210.376 515.815 208.386 512.593 C 206.227 509.095 204.013 505.824 201.742 502.775 C 199.47 499.725 197.169 496.942 194.842 494.422 C 192.516 491.906 190.23 489.722 187.987 487.878 C 185.014 485.472 182.225 483.822 179.617 482.926 C 177.008 482.031 174.638 481.765 172.509 482.129 C 170.376 482.494 168.525 483.444 166.957 484.979 C 165.386 486.522 164.193 488.508 163.382 490.94 C 162.568 493.372 162.161 496.186 162.161 499.374 C 162.161 502.563 162.667 506.007 163.676 509.7 C 164.18 511.6 164.867 513.783 165.738 516.245 C 166.607 518.704 167.616 521.266 168.766 523.924 C 169.915 526.581 171.219 529.267 172.677 531.98 C 174.135 534.695 175.707 537.226 177.388 539.577 C 179.631 542.71 181.875 545.451 184.117 547.802 C 186.361 550.151 188.449 552.011 190.384 553.383 C 192.32 554.754 193.987 555.564 195.391 555.818 C 196.792 556.067 197.801 555.663 198.419 554.601 C 199.093 553.312 199.399 551.674 199.344 549.69 C 199.288 547.703 198.925 545.646 198.251 543.522 C 197.576 541.396 196.636 539.352 195.431 537.395 C 194.225 535.435 192.838 533.84 191.269 532.611 C 190.426 531.94 190.26 531.17 190.765 530.301 C 191.269 529.434 192.067 528.679 193.163 528.037 C 194.254 527.393 195.447 526.974 196.737 526.778 C 198.025 526.581 199.063 526.819 199.849 527.491 C 202.316 529.672 204.098 532.26 205.191 535.255 C 206.285 538.247 206.83 541.214 206.83 544.151 C 206.83 547.087 206.354 549.828 205.4 552.376 C 204.446 554.92 203.186 556.865 201.615 558.209 C 199.597 559.941 197.41 560.979 195.052 561.313 C 192.699 561.649 190.384 561.567 188.113 561.062 C 185.842 560.558 183.74 559.801 181.804 558.796 C 179.87 557.787 178.312 556.782 177.135 555.773 C 173.546 552.752 170.348 549.607 167.549 546.334 C 164.741 543.059 162.232 539.589 160.016 535.927 C 157.8 532.26 155.852 528.317 154.169 524.093 C 152.486 519.867 150.946 515.293 149.545 510.37 C 148.759 507.515 148.269 504.549 148.073 501.473 C 147.874 498.397 148.084 495.445 148.704 492.621 C 149.32 489.793 150.386 487.18 151.9 484.77 C 153.414 482.368 155.459 480.409 158.039 478.898 C 159.497 477.946 161.096 477.248 162.834 476.799 C 164.573 476.353 166.339 476.127 168.134 476.127 C 169.647 476.127 171.204 476.269 172.805 476.545 C 174.403 476.828 175.928 477.274 177.388 477.892 C 181.538 479.4 185.743 481.862 190.005 485.273 C 194.548 488.968 198.979 493.643 203.298 499.29 C 204.477 500.801 205.68 502.465 206.915 504.287 C 207.864 505.682 208.814 507.149 209.761 508.648 C 209.619 507.22 209.616 505.872 209.775 504.62 C 209.945 503.304 210.279 502.188 210.786 501.264 C 211.29 500.343 211.949 499.628 212.761 499.126 C 213.577 498.623 214.543 498.397 215.667 498.454 C 217.012 498.454 218.411 498.956 219.868 499.962 C 221.328 500.97 222.773 502.255 224.202 503.824 C 225.632 505.391 227.02 507.123 228.365 509.026 C 228.719 509.522 229.042 510.013 229.378 510.505 C 229.278 509.947 229.188 509.398 229.124 508.859 C 228.954 507.348 228.954 505.936 229.124 504.62 C 229.294 503.304 229.628 502.188 230.131 501.264 C 230.639 500.343 231.298 499.628 232.11 499.126 C 232.921 498.623 233.89 498.397 235.01 498.454 C 236.357 498.454 237.758 498.956 239.217 499.962 C 240.677 500.97 242.121 502.255 243.549 503.824 C 244.981 505.391 246.369 507.123 247.714 509.026 C 248.564 510.223 249.357 511.415 250.128 512.604 C 250.001 511.37 249.972 510.163 250.069 508.987 C 250.237 506.942 250.812 505.052 251.793 503.321 C 252.777 501.584 254.387 500.269 256.631 499.374 C 258.651 498.535 260.71 498.284 262.815 498.623 C 264.917 498.956 266.961 499.696 268.956 500.846 C 270.945 501.99 272.88 503.473 274.759 505.292 C 276.525 507.002 278.17 508.835 279.717 510.767 C 279.352 509.577 279.04 508.46 278.796 507.432 C 278.265 505.194 278.164 503.572 278.5 502.563 C 279.008 500.886 279.749 499.739 280.73 499.126 C 281.712 498.507 282.666 498.214 283.592 498.241 C 284.515 498.271 285.273 498.521 285.862 498.996 C 286.45 499.473 286.632 499.934 286.409 500.383 C 286.127 500.886 286.144 501.78 286.45 503.069 C 286.759 504.354 287.262 505.922 287.965 507.767 C 288.666 509.614 289.535 511.698 290.573 514.02 C 291.611 516.343 292.745 518.789 293.98 521.364 C 294.373 521.644 294.863 521.938 295.453 522.245 C 296.04 522.553 296.727 522.902 297.513 523.294 C 298.466 522.959 299.406 521.686 300.33 519.476 C 301.256 517.266 302.266 514.566 303.362 511.377 C 304.454 508.187 305.659 504.789 306.977 501.179 C 308.294 497.573 309.781 494.213 311.435 491.109 C 313.09 488.002 314.954 485.415 317.028 483.347 C 319.104 481.276 321.459 480.212 324.096 480.155 C 325.834 480.102 327.321 480.449 328.555 481.205 C 329.788 481.96 330.74 482.787 331.415 483.68 C 332.087 484.575 332.465 485.401 332.549 486.157 C 332.633 486.912 332.423 487.29 331.919 487.29" id="path5280" clip-rule="evenodd"/></clipPath><clipPath id="clipPath5286"><path d=" M 148 476 L 333 476 L 333 567 L 148 567 Z" id="path5284"/></clipPath><clipPath id="clipPath5250"><path d=" M 246.073 544.486 C 247.112 544.068 248.078 543.857 248.977 543.857 C 249.872 543.857 250.322 544.08 250.322 544.528 C 250.322 544.92 250.476 545.452 250.786 546.122 C 251.092 546.794 251.43 547.466 251.795 548.138 C 252.159 548.81 252.496 549.452 252.805 550.067 C 253.111 550.684 253.267 551.159 253.267 551.495 C 253.267 552.893 252.844 554.04 252.007 554.934 C 251.163 555.827 250.223 556.501 249.186 556.95 C 248.147 557.398 247.211 557.62 246.369 557.62 C 245.528 557.62 245.106 557.423 245.106 557.035 C 245.106 556.698 244.939 556.223 244.6 555.606 C 244.266 554.991 243.887 554.32 243.466 553.592 C 243.045 552.867 242.666 552.179 242.33 551.537 C 241.994 550.893 241.827 550.373 241.827 549.984 C 241.827 548.585 242.275 547.424 243.17 546.5 C 244.068 545.576 245.035 544.906 246.073 544.486" id="path5248" clip-rule="evenodd"/></clipPath><clipPath id="clipPath5256"><path d=" M 0 0 L 2560 0 L 2560 8102 L 0 8102 Z" id="path5254"/></clipPath></defs><g id="g5244" transform="matrix(1.33333,0,0,-1.33333,-197.334,755.03)"><g id="g5246" clip-path="url(#clipPath5250)"><g id="g5252" clip-path="url(#clipPath5256)"><path d=" M 231.827 533.857 L 263.267 533.857 L 263.267 567.62 L 231.827 567.62 Z" id="path5258" stroke="none" fill="#FEFEFE" fill-rule="nonzero" fill-opacity="1"/></g></g></g><g id="g5260" transform="matrix(1.33333,0,0,-1.33333,-197.334,755.03)"><g id="g5262" clip-path="url(#clipPath5266)"><g id="g5268" clip-path="url(#clipPath5272)"><g id="g5274"></g><g id="g5300"><g id="g5298" clip-path="url(#clipPath5278)"><g id="g5288"></g><g id="g5296"><g id="g5294" clip-path="url(#clipPath5282)"><g id="g5292" clip-path="url(#clipPath5286)"><path d=" M 138.001 466.127 L 342.567 466.127 L 342.567 576.274 L 138.001 576.274 Z" id="path5290" stroke="none" fill="#FEFEFE" fill-rule="nonzero" fill-opacity="1"/></g></g></g></g></g></g></g></g><g id="g5302" transform="matrix(1.33333,0,0,-1.33333,-197.334,755.03)"><g id="g5304" clip-path="url(#clipPath5308)"><g id="g5310" clip-path="url(#clipPath5314)"><g id="g5316"></g><g id="g5342"><g id="g5340" clip-path="url(#clipPath5320)"><g id="g5330"></g><g id="g5338"><g id="g5336" clip-path="url(#clipPath5324)"><g id="g5334" clip-path="url(#clipPath5328)"><path d=" M 308.732 488.477 L 397.776 488.477 L 397.776 550.416 L 308.732 550.416 Z" id="path5332" stroke="none" fill="#FEFEFE" fill-rule="nonzero" fill-opacity="1"/></g></g></g></g></g></g></g></g><g id="g5344" transform="matrix(1.33333,0,0,-1.33333,-197.334,755.03)"><g id="g5346" clip-path="url(#clipPath5350)"><g id="g5352" clip-path="url(#clipPath5356)"><path d=" M 313.507 465.367 L 382.885 465.367 L 382.885 505.559 L 313.507 505.559 Z" id="path5358" stroke="none" fill="#FEFEFE" fill-rule="nonzero" fill-opacity="1"/></g></g></g><g id="g5360" transform="matrix(1.33333,0,0,-1.33333,-197.334,755.03)"><g id="g5362" clip-path="url(#clipPath5366)"><g id="g5368" clip-path="url(#clipPath5372)"><path d=" M 148.11 444.573 L 324.022 444.573 L 324.022 505.992 L 148.11 505.992 Z" id="path5374" stroke="none" fill="#FEFEFE" fill-rule="nonzero" fill-opacity="1"/></g></g></g></svg>