<svg version="1.1" width="548.507" height="101.661" xmlns="http://www.w3.org/2000/svg" xmlns:xlink="http://www.w3.org/1999/xlink" id="svg12359" overflow="hidden"><defs id="defs12363"><clipPath id="clipPath5657"><path d=" M 78 2277.2 L 489.381 2277.2 L 489.381 2353.45 L 78 2353.45 Z" id="path5655" clip-rule="evenodd"/></clipPath><clipPath id="clipPath5663"><path d=" M 0 0 L 1280 0 L 1280 2443 L 0 2443 Z" id="path5661"/></clipPath><clipPath id="clipPath5669"><path d=" M 213 2277 L 355 2277 L 355 2294 L 213 2294 Z" id="path5667"/></clipPath><clipPath id="clipPath5673"><path d=" M 213.305 2277.41 L 214.397 2277.41 L 214.397 2293.01 L 213.305 2293.01 Z" id="path5671" clip-rule="evenodd"/></clipPath><clipPath id="clipPath5677"><path d=" M 78 2277 L 490 2277 L 490 2354 L 78 2354 Z" id="path5675"/></clipPath><clipPath id="clipPath5681"><path d=" M 217.143 2288.57 L 216.497 2289.1 C 217.043 2289.92 217.325 2290.78 217.342 2291.68 L 217.342 2293.01 L 218.414 2293.01 L 218.414 2291.99 C 218.414 2290.57 217.99 2289.43 217.143 2288.57" id="path5679" clip-rule="evenodd"/></clipPath><clipPath id="clipPath5685"><path d=" M 78 2277 L 490 2277 L 490 2354 L 78 2354 Z" id="path5683"/></clipPath><clipPath id="clipPath5689"><path d=" M 222.998 2278.28 C 223.725 2278.28 224.376 2278.48 224.948 2278.87 C 225.52 2279.26 225.938 2279.79 226.2 2280.45 L 226.2 2282.86 L 224.253 2282.86 C 223.168 2282.85 222.321 2282.63 221.707 2282.2 C 221.095 2281.77 220.789 2281.18 220.789 2280.42 C 220.789 2279.81 220.993 2279.3 221.403 2278.89 C 221.812 2278.48 222.343 2278.28 222.998 2278.28 Z M 226.418 2277.41 C 226.307 2277.75 226.238 2278.26 226.208 2278.94 C 225.825 2278.39 225.339 2277.96 224.748 2277.66 C 224.158 2277.35 223.533 2277.2 222.871 2277.2 C 221.925 2277.2 221.161 2277.5 220.576 2278.09 C 219.99 2278.68 219.698 2279.42 219.698 2280.32 C 219.698 2281.39 220.096 2282.24 220.893 2282.86 C 221.69 2283.49 222.802 2283.8 224.226 2283.8 L 226.2 2283.8 L 226.2 2285.05 C 226.2 2285.83 225.982 2286.45 225.548 2286.9 C 225.115 2287.35 224.485 2287.58 223.653 2287.58 C 222.894 2287.58 222.268 2287.36 221.77 2286.93 C 221.274 2286.49 221.025 2285.97 221.025 2285.36 L 219.934 2285.37 C 219.934 2286.25 220.298 2287 221.025 2287.64 C 221.753 2288.28 222.646 2288.6 223.709 2288.6 C 224.804 2288.6 225.67 2288.3 226.302 2287.68 C 226.937 2287.07 227.262 2286.22 227.281 2285.12 L 227.281 2279.92 C 227.281 2278.85 227.379 2278.06 227.582 2277.53 L 227.582 2277.41 Z" id="path5687" clip-rule="evenodd"/></clipPath><clipPath id="clipPath5693"><path d=" M 78 2277 L 490 2277 L 490 2354 L 78 2354 Z" id="path5691"/></clipPath><clipPath id="clipPath5697"><path d=" M 233.817 2278.23 C 234.574 2278.23 235.211 2278.47 235.722 2278.95 C 236.234 2279.42 236.511 2280.04 236.554 2280.8 L 237.599 2280.8 C 237.569 2280.13 237.38 2279.52 237.034 2278.97 C 236.689 2278.42 236.231 2277.98 235.659 2277.67 C 235.085 2277.36 234.472 2277.2 233.817 2277.2 C 232.526 2277.2 231.503 2277.71 230.749 2278.71 C 229.994 2279.71 229.615 2281.06 229.615 2282.75 L 229.615 2283.12 C 229.615 2284.2 229.787 2285.16 230.128 2285.99 C 230.466 2286.82 230.951 2287.47 231.585 2287.92 C 232.219 2288.38 232.96 2288.6 233.808 2288.6 C 234.887 2288.6 235.777 2288.24 236.477 2287.53 C 237.177 2286.81 237.55 2285.86 237.599 2284.69 L 236.554 2284.69 C 236.506 2285.55 236.229 2286.25 235.722 2286.77 C 235.217 2287.3 234.578 2287.57 233.808 2287.57 C 232.826 2287.57 232.065 2287.17 231.522 2286.38 C 230.979 2285.58 230.708 2284.47 230.708 2283.05 L 230.708 2282.69 C 230.708 2281.29 230.979 2280.19 231.522 2279.41 C 232.065 2278.62 232.829 2278.23 233.817 2278.23" id="path5695" clip-rule="evenodd"/></clipPath><clipPath id="clipPath5701"><path d=" M 78 2277 L 490 2277 L 490 2354 L 78 2354 Z" id="path5699"/></clipPath><clipPath id="clipPath5705"><path d=" M 240.854 2286.54 C 241.213 2287.2 241.669 2287.71 242.227 2288.06 C 242.785 2288.42 243.394 2288.6 244.055 2288.6 C 245.108 2288.6 245.894 2288.27 246.409 2287.61 C 246.924 2286.94 247.185 2285.95 247.191 2284.62 L 247.191 2277.41 L 246.109 2277.41 L 246.109 2284.63 C 246.103 2285.61 245.917 2286.34 245.551 2286.82 C 245.183 2287.31 244.597 2287.55 243.791 2287.55 C 243.118 2287.55 242.522 2287.31 242.005 2286.84 C 241.485 2286.37 241.103 2285.74 240.854 2284.94 L 240.854 2277.41 L 239.772 2277.41 L 239.772 2293.01 L 240.854 2293.01 Z" id="path5703" clip-rule="evenodd"/></clipPath><clipPath id="clipPath5709"><path d=" M 78 2277 L 490 2277 L 490 2354 L 78 2354 Z" id="path5707"/></clipPath><clipPath id="clipPath5713"><path d=" M 252.783 2278.28 C 253.51 2278.28 254.161 2278.48 254.734 2278.87 C 255.305 2279.26 255.723 2279.79 255.984 2280.45 L 255.984 2282.86 L 254.038 2282.86 C 252.952 2282.85 252.105 2282.63 251.492 2282.2 C 250.879 2281.77 250.573 2281.18 250.573 2280.42 C 250.573 2279.81 250.778 2279.3 251.188 2278.89 C 251.596 2278.48 252.128 2278.28 252.783 2278.28 Z M 256.203 2277.41 C 256.092 2277.75 256.023 2278.26 255.993 2278.94 C 255.61 2278.39 255.124 2277.96 254.533 2277.66 C 253.942 2277.35 253.318 2277.2 252.656 2277.2 C 251.71 2277.2 250.945 2277.5 250.36 2278.09 C 249.775 2278.68 249.483 2279.42 249.483 2280.32 C 249.483 2281.39 249.88 2282.24 250.678 2282.86 C 251.474 2283.49 252.586 2283.8 254.011 2283.8 L 255.984 2283.8 L 255.984 2285.05 C 255.984 2285.83 255.766 2286.45 255.333 2286.9 C 254.899 2287.35 254.269 2287.58 253.438 2287.58 C 252.678 2287.58 252.052 2287.36 251.555 2286.93 C 251.058 2286.49 250.81 2285.97 250.81 2285.36 L 249.719 2285.37 C 249.719 2286.25 250.083 2287 250.81 2287.64 C 251.537 2288.28 252.431 2288.6 253.493 2288.6 C 254.589 2288.6 255.455 2288.3 256.087 2287.68 C 256.722 2287.07 257.047 2286.22 257.065 2285.12 L 257.065 2279.92 C 257.065 2278.85 257.164 2278.06 257.366 2277.53 L 257.366 2277.41 Z" id="path5711" clip-rule="evenodd"/></clipPath><clipPath id="clipPath5717"><path d=" M 78 2277 L 490 2277 L 490 2354 L 78 2354 Z" id="path5715"/></clipPath><clipPath id="clipPath5721"><path d=" M 261.656 2291.21 L 261.656 2288.4 L 263.694 2288.4 L 263.694 2287.4 L 261.656 2287.4 L 261.656 2280.07 C 261.656 2279.46 261.754 2279.01 261.952 2278.71 C 262.149 2278.41 262.478 2278.26 262.938 2278.26 C 263.12 2278.26 263.414 2278.29 263.82 2278.36 L 263.866 2277.38 C 263.58 2277.26 263.192 2277.2 262.702 2277.2 C 261.956 2277.2 261.415 2277.45 261.075 2277.93 C 260.733 2278.42 260.564 2279.13 260.564 2280.07 L 260.564 2287.4 L 258.756 2287.4 L 258.756 2288.4 L 260.564 2288.4 L 260.564 2291.21 Z" id="path5719" clip-rule="evenodd"/></clipPath><clipPath id="clipPath5725"><path d=" M 78 2277 L 490 2277 L 490 2354 L 78 2354 Z" id="path5723"/></clipPath><clipPath id="clipPath5729"><path d=" M 270.602 2277.41 L 271.694 2277.41 L 271.694 2293.01 L 270.602 2293.01 Z" id="path5727" clip-rule="evenodd"/></clipPath><clipPath id="clipPath5733"><path d=" M 78 2277 L 490 2277 L 490 2354 L 78 2354 Z" id="path5731"/></clipPath><clipPath id="clipPath5737"><path d=" M 275.139 2282.73 C 275.139 2281.42 275.443 2280.34 276.053 2279.5 C 276.663 2278.65 277.461 2278.23 278.448 2278.23 C 279.43 2278.23 280.227 2278.65 280.836 2279.5 C 281.445 2280.34 281.749 2281.45 281.749 2282.83 L 281.749 2283.07 C 281.749 2283.91 281.61 2284.68 281.33 2285.37 C 281.052 2286.07 280.661 2286.61 280.158 2286.99 C 279.655 2287.38 279.079 2287.57 278.431 2287.57 C 277.461 2287.57 276.669 2287.14 276.059 2286.29 C 275.445 2285.44 275.139 2284.33 275.139 2282.95 Z M 274.048 2283.07 C 274.048 2284.12 274.232 2285.07 274.598 2285.92 C 274.966 2286.77 275.484 2287.43 276.153 2287.9 C 276.822 2288.37 277.582 2288.6 278.431 2288.6 C 279.739 2288.6 280.801 2288.09 281.613 2287.06 C 282.425 2286.04 282.831 2284.68 282.831 2282.99 L 282.831 2282.73 C 282.831 2281.67 282.648 2280.71 282.281 2279.86 C 281.915 2279.01 281.398 2278.36 280.73 2277.89 C 280.064 2277.43 279.303 2277.2 278.448 2277.2 C 277.145 2277.2 276.087 2277.72 275.271 2278.74 C 274.456 2279.77 274.048 2281.13 274.048 2282.82 Z" id="path5735" clip-rule="evenodd"/></clipPath><clipPath id="clipPath5741"><path d=" M 78 2277 L 490 2277 L 490 2354 L 78 2354 Z" id="path5739"/></clipPath><clipPath id="clipPath5745"><path d=" M 288.714 2278.23 C 289.471 2278.23 290.107 2278.47 290.62 2278.95 C 291.131 2279.42 291.408 2280.04 291.45 2280.8 L 292.496 2280.8 C 292.466 2280.13 292.278 2279.52 291.932 2278.97 C 291.587 2278.42 291.129 2277.98 290.555 2277.67 C 289.983 2277.36 289.369 2277.2 288.714 2277.2 C 287.423 2277.2 286.4 2277.71 285.645 2278.71 C 284.891 2279.71 284.512 2281.06 284.512 2282.75 L 284.512 2283.12 C 284.512 2284.2 284.683 2285.16 285.022 2285.99 C 285.362 2286.82 285.848 2287.47 286.482 2287.92 C 287.114 2288.38 287.856 2288.6 288.704 2288.6 C 289.783 2288.6 290.674 2288.24 291.373 2287.53 C 292.074 2286.81 292.448 2285.86 292.496 2284.69 L 291.45 2284.69 C 291.402 2285.55 291.125 2286.25 290.62 2286.77 C 290.113 2287.3 289.474 2287.57 288.704 2287.57 C 287.722 2287.57 286.961 2287.17 286.418 2286.38 C 285.876 2285.58 285.604 2284.47 285.604 2283.05 L 285.604 2282.69 C 285.604 2281.29 285.876 2280.19 286.418 2279.41 C 286.961 2278.62 287.726 2278.23 288.714 2278.23" id="path5743" clip-rule="evenodd"/></clipPath><clipPath id="clipPath5749"><path d=" M 78 2277 L 490 2277 L 490 2354 L 78 2354 Z" id="path5747"/></clipPath><clipPath id="clipPath5753"><path d=" M 297.46 2278.28 C 298.187 2278.28 298.836 2278.48 299.41 2278.87 C 299.981 2279.26 300.399 2279.79 300.66 2280.45 L 300.66 2282.86 L 298.714 2282.86 C 297.629 2282.85 296.781 2282.63 296.168 2282.2 C 295.556 2281.77 295.25 2281.18 295.25 2280.42 C 295.25 2279.81 295.455 2279.3 295.864 2278.89 C 296.273 2278.48 296.805 2278.28 297.46 2278.28 Z M 300.878 2277.41 C 300.769 2277.75 300.699 2278.26 300.669 2278.94 C 300.287 2278.39 299.8 2277.96 299.21 2277.66 C 298.618 2277.35 297.993 2277.2 297.332 2277.2 C 296.387 2277.2 295.621 2277.5 295.036 2278.09 C 294.451 2278.68 294.16 2279.42 294.16 2280.32 C 294.16 2281.39 294.557 2282.24 295.355 2282.86 C 296.151 2283.49 297.263 2283.8 298.687 2283.8 L 300.66 2283.8 L 300.66 2285.05 C 300.66 2285.83 300.443 2286.45 300.01 2286.9 C 299.576 2287.35 298.945 2287.58 298.114 2287.58 C 297.356 2287.58 296.729 2287.36 296.232 2286.93 C 295.735 2286.49 295.487 2285.97 295.487 2285.36 L 294.396 2285.37 C 294.396 2286.25 294.76 2287 295.487 2287.64 C 296.214 2288.28 297.108 2288.6 298.169 2288.6 C 299.266 2288.6 300.13 2288.3 300.763 2287.68 C 301.398 2287.07 301.723 2286.22 301.742 2285.12 L 301.742 2279.92 C 301.742 2278.85 301.841 2278.06 302.042 2277.53 L 302.042 2277.41 Z" id="path5751" clip-rule="evenodd"/></clipPath><clipPath id="clipPath5757"><path d=" M 78 2277 L 490 2277 L 490 2354 L 78 2354 Z" id="path5755"/></clipPath><clipPath id="clipPath5761"><path d=" M 304.77 2277.41 L 305.861 2277.41 L 305.861 2293.01 L 304.77 2293.01 Z" id="path5759" clip-rule="evenodd"/></clipPath><clipPath id="clipPath5765"><path d=" M 78 2277 L 490 2277 L 490 2354 L 78 2354 Z" id="path5763"/></clipPath><clipPath id="clipPath5769"><path d=" M 314.125 2277.41 L 314.125 2287.4 L 312.497 2287.4 L 312.497 2288.4 L 314.125 2288.4 L 314.125 2289.73 C 314.125 2290.85 314.38 2291.72 314.892 2292.32 C 315.404 2292.92 316.119 2293.23 317.035 2293.23 C 317.446 2293.23 317.831 2293.17 318.189 2293.05 L 318.107 2292.05 C 317.804 2292.13 317.473 2292.17 317.116 2292.17 C 316.516 2292.17 316.049 2291.96 315.716 2291.54 C 315.383 2291.12 315.216 2290.53 315.216 2289.76 L 315.216 2288.4 L 317.561 2288.4 L 317.561 2287.4 L 315.216 2287.4 L 315.216 2277.41 Z" id="path5767" clip-rule="evenodd"/></clipPath><clipPath id="clipPath5773"><path d=" M 78 2277 L 490 2277 L 490 2354 L 78 2354 Z" id="path5771"/></clipPath><clipPath id="clipPath5777"><path d=" M 322.298 2278.28 C 323.025 2278.28 323.675 2278.48 324.249 2278.87 C 324.82 2279.26 325.238 2279.79 325.499 2280.45 L 325.499 2282.86 L 323.553 2282.86 C 322.468 2282.85 321.62 2282.63 321.007 2282.2 C 320.395 2281.77 320.089 2281.18 320.089 2280.42 C 320.089 2279.81 320.293 2279.3 320.703 2278.89 C 321.112 2278.48 321.643 2278.28 322.298 2278.28 Z M 325.717 2277.41 C 325.607 2277.75 325.538 2278.26 325.508 2278.94 C 325.125 2278.39 324.639 2277.96 324.048 2277.66 C 323.457 2277.35 322.832 2277.2 322.171 2277.2 C 321.225 2277.2 320.46 2277.5 319.874 2278.09 C 319.29 2278.68 318.998 2279.42 318.998 2280.32 C 318.998 2281.39 319.396 2282.24 320.194 2282.86 C 320.99 2283.49 322.102 2283.8 323.526 2283.8 L 325.499 2283.8 L 325.499 2285.05 C 325.499 2285.83 325.281 2286.45 324.849 2286.9 C 324.415 2287.35 323.784 2287.58 322.953 2287.58 C 322.195 2287.58 321.568 2287.36 321.07 2286.93 C 320.574 2286.49 320.325 2285.97 320.325 2285.36 L 319.234 2285.37 C 319.234 2286.25 319.598 2287 320.325 2287.64 C 321.053 2288.28 321.946 2288.6 323.008 2288.6 C 324.104 2288.6 324.969 2288.3 325.602 2287.68 C 326.236 2287.07 326.562 2286.22 326.581 2285.12 L 326.581 2279.92 C 326.581 2278.85 326.68 2278.06 326.881 2277.53 L 326.881 2277.41 Z" id="path5775" clip-rule="evenodd"/></clipPath><clipPath id="clipPath5781"><path d=" M 78 2277 L 490 2277 L 490 2354 L 78 2354 Z" id="path5779"/></clipPath><clipPath id="clipPath5785"><path d=" M 333.118 2278.23 C 333.875 2278.23 334.511 2278.47 335.024 2278.95 C 335.535 2279.42 335.812 2280.04 335.855 2280.8 L 336.9 2280.8 C 336.87 2280.13 336.682 2279.52 336.336 2278.97 C 335.991 2278.42 335.533 2277.98 334.959 2277.67 C 334.388 2277.36 333.773 2277.2 333.118 2277.2 C 331.827 2277.2 330.805 2277.71 330.049 2278.71 C 329.296 2279.71 328.918 2281.06 328.918 2282.75 L 328.918 2283.12 C 328.918 2284.2 329.088 2285.16 329.427 2285.99 C 329.767 2286.82 330.252 2287.47 330.886 2287.92 C 331.519 2288.38 332.261 2288.6 333.109 2288.6 C 334.188 2288.6 335.079 2288.24 335.777 2287.53 C 336.478 2286.81 336.852 2285.86 336.9 2284.69 L 335.855 2284.69 C 335.807 2285.55 335.529 2286.25 335.024 2286.77 C 334.517 2287.3 333.879 2287.57 333.109 2287.57 C 332.127 2287.57 331.365 2287.17 330.823 2286.38 C 330.28 2285.58 330.009 2284.47 330.009 2283.05 L 330.009 2282.69 C 330.009 2281.29 330.28 2280.19 330.823 2279.41 C 331.365 2278.62 332.13 2278.23 333.118 2278.23" id="path5783" clip-rule="evenodd"/></clipPath><clipPath id="clipPath5789"><path d=" M 78 2277 L 490 2277 L 490 2354 L 78 2354 Z" id="path5787"/></clipPath><clipPath id="clipPath5793"><path d=" M 339.199 2277.41 L 340.291 2277.41 L 340.291 2288.4 L 339.199 2288.4 Z M 339.008 2291.57 C 339.008 2291.8 339.076 2292 339.209 2292.16 C 339.342 2292.31 339.524 2292.39 339.754 2292.39 C 339.985 2292.39 340.167 2292.31 340.305 2292.16 C 340.44 2292 340.509 2291.8 340.509 2291.57 C 340.509 2291.34 340.44 2291.15 340.305 2291 C 340.167 2290.84 339.985 2290.77 339.754 2290.77 C 339.524 2290.77 339.342 2290.84 339.209 2291 C 339.076 2291.15 339.008 2291.34 339.008 2291.57 Z" id="path5791" clip-rule="evenodd"/></clipPath><clipPath id="clipPath5797"><path d=" M 78 2277 L 490 2277 L 490 2354 L 78 2354 Z" id="path5795"/></clipPath><clipPath id="clipPath5801"><path d=" M 343.373 2277.41 L 344.465 2277.41 L 344.465 2293.01 L 343.373 2293.01 Z" id="path5799" clip-rule="evenodd"/></clipPath><clipPath id="clipPath5805"><path d=" M 78 2277 L 490 2277 L 490 2354 L 78 2354 Z" id="path5803"/></clipPath><clipPath id="clipPath5809"><path d=" M 351.028 2287.57 C 350.21 2287.57 349.52 2287.23 348.96 2286.56 C 348.398 2285.89 348.058 2284.99 347.937 2283.86 L 353.838 2283.86 L 353.838 2283.99 C 353.809 2285.05 353.538 2285.91 353.029 2286.57 C 352.519 2287.24 351.853 2287.57 351.028 2287.57 M 351.228 2277.2 C 350.392 2277.2 349.635 2277.43 348.96 2277.9 C 348.284 2278.35 347.758 2279 347.383 2279.82 C 347.006 2280.64 346.819 2281.57 346.819 2282.59 L 346.819 2283.02 C 346.819 2284.08 347.001 2285.03 347.368 2285.88 C 347.734 2286.73 348.246 2287.39 348.9 2287.88 C 349.555 2288.36 350.265 2288.6 351.028 2288.6 C 352.222 2288.6 353.168 2288.15 353.87 2287.24 C 354.569 2286.32 354.92 2285.08 354.92 2283.5 L 354.92 2282.82 L 347.901 2282.82 L 347.901 2282.59 C 347.901 2281.34 348.22 2280.3 348.859 2279.48 C 349.498 2278.65 350.304 2278.23 351.273 2278.23 C 351.856 2278.23 352.369 2278.35 352.817 2278.58 C 353.259 2278.82 353.665 2279.2 354.028 2279.72 L 354.711 2279.15 C 353.91 2277.85 352.749 2277.2 351.228 2277.2" id="path5807" clip-rule="evenodd"/></clipPath><clipPath id="clipPath5813"><path d=" M 78 2277 L 490 2277 L 490 2354 L 78 2354 Z" id="path5811"/></clipPath><clipPath id="clipPath5641"><path d=" M 415.015 2319.94 L 375.295 2319.94 C 374.725 2319.94 374.405 2319.58 374.405 2318.94 L 374.405 2314.37 C 374.405 2313.73 374.725 2313.37 375.295 2313.37 L 415.015 2313.37 C 415.585 2313.37 415.904 2313.73 415.904 2314.37 L 415.904 2318.94 C 415.904 2319.58 415.585 2319.94 415.015 2319.94" id="path5639" clip-rule="evenodd"/></clipPath><clipPath id="clipPath5647"><path d=" M 0 0 L 1280 0 L 1280 2443 L 0 2443 Z" id="path5645"/></clipPath><clipPath id="clipPath5625"><path d=" M 415.925 2330.61 L 415.925 2326.03 C 415.925 2325.4 415.604 2325.04 415.035 2325.04 L 398.661 2325.04 C 398.091 2325.04 397.771 2325.4 397.771 2326.03 L 397.771 2352.01 C 397.771 2352.64 398.091 2353 398.661 2353 L 414.963 2353 C 415.533 2353 415.854 2352.64 415.854 2352.01 L 415.854 2347.39 C 415.854 2346.76 415.533 2346.4 414.963 2346.4 L 404.499 2346.4 L 404.499 2342.42 L 413.576 2342.42 C 414.145 2342.42 414.466 2342.06 414.466 2341.43 L 414.466 2336.93 C 414.466 2336.29 414.145 2335.94 413.576 2335.94 L 404.499 2335.94 L 404.499 2331.6 L 415.035 2331.6 C 415.604 2331.6 415.925 2331.24 415.925 2330.61" id="path5623" clip-rule="evenodd"/></clipPath><clipPath id="clipPath5631"><path d=" M 0 0 L 1280 0 L 1280 2443 L 0 2443 Z" id="path5629"/></clipPath><clipPath id="clipPath5609"><path d=" M 392.559 2330.61 L 392.559 2326.03 C 392.559 2325.4 392.237 2325.04 391.668 2325.04 L 375.294 2325.04 C 374.725 2325.04 374.405 2325.4 374.405 2326.03 L 374.405 2352.01 C 374.405 2352.64 374.725 2353 375.294 2353 L 391.597 2353 C 392.167 2353 392.488 2352.64 392.488 2352.01 L 392.488 2347.39 C 392.488 2346.76 392.167 2346.4 391.597 2346.4 L 381.133 2346.4 L 381.133 2342.42 L 390.21 2342.42 C 390.779 2342.42 391.099 2342.06 391.099 2341.43 L 391.099 2336.93 C 391.099 2336.29 390.779 2335.94 390.21 2335.94 L 381.133 2335.94 L 381.133 2331.6 L 391.668 2331.6 C 392.237 2331.6 392.559 2331.24 392.559 2330.61" id="path5607" clip-rule="evenodd"/></clipPath><clipPath id="clipPath5615"><path d=" M 0 0 L 1280 0 L 1280 2443 L 0 2443 Z" id="path5613"/></clipPath><clipPath id="clipPath5593"><path d=" M 489.38 2321.26 L 489.38 2314.78 C 489.38 2313.88 488.928 2313.37 488.118 2313.37 L 464.913 2313.37 C 464.106 2313.37 463.652 2313.88 463.652 2314.78 L 463.652 2351.59 C 463.652 2352.49 464.106 2353 464.913 2353 L 488.018 2353 C 488.826 2353 489.279 2352.49 489.279 2351.59 L 489.279 2345.05 C 489.279 2344.15 488.826 2343.64 488.018 2343.64 L 473.186 2343.64 L 473.186 2338.01 L 486.05 2338.01 C 486.858 2338.01 487.311 2337.5 487.311 2336.6 L 487.311 2330.23 C 487.311 2329.32 486.858 2328.82 486.05 2328.82 L 473.186 2328.82 L 473.186 2322.67 L 488.118 2322.67 C 488.928 2322.67 489.38 2322.17 489.38 2321.26" id="path5591" clip-rule="evenodd"/></clipPath><clipPath id="clipPath5599"><path d=" M 0 0 L 1280 0 L 1280 2443 L 0 2443 Z" id="path5597"/></clipPath><clipPath id="clipPath5577"><path d=" M 456.539 2351.36 L 442.767 2314.44 C 442.515 2313.71 442.01 2313.37 441.302 2313.37 L 437.622 2313.37 C 436.914 2313.37 436.411 2313.71 436.158 2314.44 L 422.335 2351.36 C 421.982 2352.38 422.435 2353 423.345 2353 L 431.366 2353 C 432.072 2353 432.577 2352.66 432.828 2351.87 L 437.42 2338.4 L 439.892 2329.83 L 442.262 2338.4 L 446.601 2351.87 C 446.853 2352.61 447.307 2353 448.014 2353 L 455.53 2353 C 456.437 2353 456.893 2352.38 456.539 2351.36" id="path5575" clip-rule="evenodd"/></clipPath><clipPath id="clipPath5583"><path d=" M 0 0 L 1280 0 L 1280 2443 L 0 2443 Z" id="path5581"/></clipPath><clipPath id="clipPath5561"><path d=" M 366.856 2351.59 L 366.856 2344.94 C 366.856 2344.04 366.403 2343.53 365.595 2343.53 L 355.354 2343.53 L 355.354 2314.78 C 355.354 2313.88 354.9 2313.37 354.093 2313.37 L 346.98 2313.37 C 346.172 2313.37 345.718 2313.88 345.718 2314.78 L 345.718 2343.53 L 335.629 2343.53 C 334.821 2343.53 334.367 2344.04 334.367 2344.94 L 334.367 2351.59 C 334.367 2352.49 334.821 2353 335.629 2353 L 365.595 2353 C 366.403 2353 366.856 2352.49 366.856 2351.59" id="path5559" clip-rule="evenodd"/></clipPath><clipPath id="clipPath5567"><path d=" M 0 0 L 1280 0 L 1280 2443 L 0 2443 Z" id="path5565"/></clipPath><clipPath id="clipPath5545"><path d=" M 312.373 2328.14 L 320.496 2328.14 L 316.46 2338.91 Z M 333.613 2313.37 L 326.297 2313.37 C 325.591 2313.37 325.086 2313.71 324.835 2314.44 L 322.817 2320.02 L 310.053 2320.02 L 308.036 2314.44 C 307.783 2313.71 307.278 2313.37 306.573 2313.37 L 299.358 2313.37 C 298.4 2313.37 297.996 2313.99 298.4 2315.01 L 313.282 2351.93 C 313.584 2352.66 314.038 2353 314.745 2353 L 318.427 2353 C 319.134 2353 319.588 2352.66 319.891 2351.93 L 334.571 2315.01 C 334.974 2313.99 334.571 2313.37 333.613 2313.37 Z" id="path5543" clip-rule="evenodd"/></clipPath><clipPath id="clipPath5551"><path d=" M 0 0 L 1280 0 L 1280 2443 L 0 2443 Z" id="path5549"/></clipPath><clipPath id="clipPath5529"><path d=" M 291.591 2351.59 L 291.591 2314.39 C 291.591 2313.48 291.138 2312.98 290.33 2312.98 L 287.203 2312.98 C 286.546 2312.98 286.093 2313.26 285.689 2313.76 L 268.283 2335.02 L 268.283 2314.78 C 268.283 2313.88 267.83 2313.37 267.023 2313.37 L 260.111 2313.37 C 259.304 2313.37 258.851 2313.88 258.851 2314.78 L 258.851 2352.04 C 258.851 2352.94 259.304 2353.45 260.111 2353.45 L 263.29 2353.45 C 263.944 2353.45 264.349 2353.28 264.803 2352.72 L 282.157 2331.92 L 282.157 2351.59 C 282.157 2352.49 282.611 2353 283.419 2353 L 290.33 2353 C 291.138 2353 291.591 2352.49 291.591 2351.59" id="path5527" clip-rule="evenodd"/></clipPath><clipPath id="clipPath5535"><path d=" M 0 0 L 1280 0 L 1280 2443 L 0 2443 Z" id="path5533"/></clipPath><clipPath id="clipPath5513"><path d=" M 229.441 2332.48 L 234.133 2332.48 C 237.612 2332.48 239.783 2334.96 239.783 2338.12 C 239.783 2341.44 237.715 2344.04 233.982 2344.04 L 229.441 2344.04 Z M 248.511 2313.37 L 240.389 2313.37 C 239.733 2313.37 239.177 2313.65 238.824 2314.27 L 233.527 2323.52 L 229.441 2323.52 L 229.441 2314.78 C 229.441 2313.88 228.988 2313.37 228.179 2313.37 L 221.27 2313.37 C 220.461 2313.37 220.007 2313.88 220.007 2314.78 L 220.007 2351.59 C 220.007 2352.49 220.461 2353 221.27 2353 L 234.889 2353 C 244.02 2353 249.418 2346.57 249.418 2338.01 C 249.418 2332.48 246.896 2328.08 242.71 2325.66 L 249.318 2315.06 C 249.923 2314.1 249.52 2313.37 248.511 2313.37 Z" id="path5511" clip-rule="evenodd"/></clipPath><clipPath id="clipPath5519"><path d=" M 0 0 L 1280 0 L 1280 2443 L 0 2443 Z" id="path5517"/></clipPath><clipPath id="clipPath5497"><path d=" M 210.677 2321.26 L 210.677 2314.78 C 210.677 2313.88 210.225 2313.37 209.416 2313.37 L 186.21 2313.37 C 185.401 2313.37 184.948 2313.88 184.948 2314.78 L 184.948 2351.59 C 184.948 2352.49 185.401 2353 186.21 2353 L 209.316 2353 C 210.122 2353 210.576 2352.49 210.576 2351.59 L 210.576 2345.05 C 210.576 2344.15 210.122 2343.64 209.316 2343.64 L 194.484 2343.64 L 194.484 2338.01 L 207.347 2338.01 C 208.155 2338.01 208.609 2337.5 208.609 2336.6 L 208.609 2330.23 C 208.609 2329.32 208.155 2328.82 207.347 2328.82 L 194.484 2328.82 L 194.484 2322.67 L 209.416 2322.67 C 210.225 2322.67 210.677 2322.17 210.677 2321.26" id="path5495" clip-rule="evenodd"/></clipPath><clipPath id="clipPath5503"><path d=" M 0 0 L 1280 0 L 1280 2443 L 0 2443 Z" id="path5501"/></clipPath><clipPath id="clipPath5481"><path d=" M 177.837 2351.59 L 177.837 2344.94 C 177.837 2344.04 177.383 2343.53 176.577 2343.53 L 166.335 2343.53 L 166.335 2314.78 C 166.335 2313.88 165.88 2313.37 165.075 2313.37 L 157.961 2313.37 C 157.153 2313.37 156.7 2313.88 156.7 2314.78 L 156.7 2343.53 L 146.611 2343.53 C 145.803 2343.53 145.35 2344.04 145.35 2344.94 L 145.35 2351.59 C 145.35 2352.49 145.803 2353 146.611 2353 L 176.577 2353 C 177.383 2353 177.837 2352.49 177.837 2351.59" id="path5479" clip-rule="evenodd"/></clipPath><clipPath id="clipPath5487"><path d=" M 0 0 L 1280 0 L 1280 2443 L 0 2443 Z" id="path5485"/></clipPath><clipPath id="clipPath5465"><path d=" M 146.611 2321.38 L 146.611 2314.78 C 146.611 2313.88 146.158 2313.37 145.349 2313.37 L 122.447 2313.37 C 121.638 2313.37 121.186 2313.88 121.186 2314.78 L 121.186 2351.59 C 121.186 2352.49 121.638 2353 122.447 2353 L 129.61 2353 C 130.417 2353 130.872 2352.49 130.872 2351.59 L 130.872 2322.78 L 145.349 2322.78 C 146.158 2322.78 146.611 2322.28 146.611 2321.38" id="path5463" clip-rule="evenodd"/></clipPath><clipPath id="clipPath5471"><path d=" M 0 0 L 1280 0 L 1280 2443 L 0 2443 Z" id="path5469"/></clipPath><clipPath id="clipPath5423"><path d=" M 78 2353 L 78 2313.37 L 114.482 2313.37 L 114.482 2353 Z" id="path5421" clip-rule="evenodd"/></clipPath><clipPath id="clipPath5429"><path d=" M 0 0 L 1280 0 L 1280 2443 L 0 2443 Z" id="path5427"/></clipPath><clipPath id="clipPath5435"><path d=" M 77 2313 L 115 2313 L 115 2353 L 77 2353 Z" id="path5433"/></clipPath><clipPath id="clipPath5439"><path d=" M 92.1296 2328.14 L 100.253 2328.14 L 96.2156 2338.91 Z M 113.369 2313.37 L 106.053 2313.37 C 105.348 2313.37 104.843 2313.71 104.59 2314.44 L 102.572 2320.02 L 89.8093 2320.02 L 87.7912 2314.44 C 87.5388 2313.71 87.034 2313.37 86.3285 2313.37 L 79.1133 2313.37 C 78.1554 2313.37 77.7519 2313.99 78.1554 2315.01 L 93.0378 2351.93 C 93.3399 2352.66 93.795 2353 94.5005 2353 L 98.1842 2353 C 98.8896 2353 99.3438 2352.66 99.6469 2351.93 L 114.327 2315.01 C 114.731 2313.99 114.327 2313.37 113.369 2313.37 Z" id="path5437" clip-rule="evenodd"/></clipPath><clipPath id="clipPath5443"><path d=" M 78 2313 L 115 2313 L 115 2354 L 78 2354 Z" id="path5441"/></clipPath></defs><g id="g5417" transform="matrix(1.33333,0,0,-1.33333,-104,3137.93)"><g id="g5419" clip-path="url(#clipPath5423)"><g id="g5425" clip-path="url(#clipPath5429)"><g id="g5431"></g><g id="g5457"><g id="g5455" clip-path="url(#clipPath5435)"><g id="g5445"></g><g id="g5453"><g id="g5451" clip-path="url(#clipPath5439)"><g id="g5449" clip-path="url(#clipPath5443)"><path d=" M 72.9999 2308.37 L 119.482 2308.37 L 119.482 2358 L 72.9999 2358 Z" id="path5447" stroke="none" fill="#FEFEFE" fill-rule="nonzero" fill-opacity="1"/></g></g></g></g></g></g></g></g><g id="g5459" transform="matrix(1.33333,0,0,-1.33333,-104,3137.93)"><g id="g5461" clip-path="url(#clipPath5465)"><g id="g5467" clip-path="url(#clipPath5471)"><path d=" M 116.186 2308.37 L 151.611 2308.37 L 151.611 2358 L 116.186 2358 Z" id="path5473" stroke="none" fill="#FEFEFE" fill-rule="nonzero" fill-opacity="1"/></g></g></g><g id="g5475" transform="matrix(1.33333,0,0,-1.33333,-104,3137.93)"><g id="g5477" clip-path="url(#clipPath5481)"><g id="g5483" clip-path="url(#clipPath5487)"><path d=" M 140.35 2308.37 L 182.837 2308.37 L 182.837 2358 L 140.35 2358 Z" id="path5489" stroke="none" fill="#FEFEFE" fill-rule="nonzero" fill-opacity="1"/></g></g></g><g id="g5491" transform="matrix(1.33333,0,0,-1.33333,-104,3137.93)"><g id="g5493" clip-path="url(#clipPath5497)"><g id="g5499" clip-path="url(#clipPath5503)"><path d=" M 179.948 2308.37 L 215.677 2308.37 L 215.677 2358 L 179.948 2358 Z" id="path5505" stroke="none" fill="#FEFEFE" fill-rule="nonzero" fill-opacity="1"/></g></g></g><g id="g5507" transform="matrix(1.33333,0,0,-1.33333,-104,3137.93)"><g id="g5509" clip-path="url(#clipPath5513)"><g id="g5515" clip-path="url(#clipPath5519)"><path d=" M 215.007 2308.37 L 254.602 2308.37 L 254.602 2358 L 215.007 2358 Z" id="path5521" stroke="none" fill="#FEFEFE" fill-rule="nonzero" fill-opacity="1"/></g></g></g><g id="g5523" transform="matrix(1.33333,0,0,-1.33333,-104,3137.93)"><g id="g5525" clip-path="url(#clipPath5529)"><g id="g5531" clip-path="url(#clipPath5535)"><path d=" M 253.851 2307.98 L 296.591 2307.98 L 296.591 2358.45 L 253.851 2358.45 Z" id="path5537" stroke="none" fill="#FEFEFE" fill-rule="nonzero" fill-opacity="1"/></g></g></g><g id="g5539" transform="matrix(1.33333,0,0,-1.33333,-104,3137.93)"><g id="g5541" clip-path="url(#clipPath5545)"><g id="g5547" clip-path="url(#clipPath5551)"><path d=" M 293.244 2308.37 L 339.726 2308.37 L 339.726 2358 L 293.244 2358 Z" id="path5553" stroke="none" fill="#FEFEFE" fill-rule="nonzero" fill-opacity="1"/></g></g></g><g id="g5555" transform="matrix(1.33333,0,0,-1.33333,-104,3137.93)"><g id="g5557" clip-path="url(#clipPath5561)"><g id="g5563" clip-path="url(#clipPath5567)"><path d=" M 329.367 2308.37 L 371.856 2308.37 L 371.856 2358 L 329.367 2358 Z" id="path5569" stroke="none" fill="#FEFEFE" fill-rule="nonzero" fill-opacity="1"/></g></g></g><g id="g5571" transform="matrix(1.33333,0,0,-1.33333,-104,3137.93)"><g id="g5573" clip-path="url(#clipPath5577)"><g id="g5579" clip-path="url(#clipPath5583)"><path d=" M 417.215 2308.37 L 461.659 2308.37 L 461.659 2358 L 417.215 2358 Z" id="path5585" stroke="none" fill="#FEFEFE" fill-rule="nonzero" fill-opacity="1"/></g></g></g><g id="g5587" transform="matrix(1.33333,0,0,-1.33333,-104,3137.93)"><g id="g5589" clip-path="url(#clipPath5593)"><g id="g5595" clip-path="url(#clipPath5599)"><path d=" M 458.652 2308.37 L 494.38 2308.37 L 494.38 2358 L 458.652 2358 Z" id="path5601" stroke="none" fill="#FEFEFE" fill-rule="nonzero" fill-opacity="1"/></g></g></g><g id="g5603" transform="matrix(1.33333,0,0,-1.33333,-104,3137.93)"><g id="g5605" clip-path="url(#clipPath5609)"><g id="g5611" clip-path="url(#clipPath5615)"><path d=" M 369.405 2320.04 L 397.559 2320.04 L 397.559 2358 L 369.405 2358 Z" id="path5617" stroke="none" fill="#F7AC33" fill-rule="nonzero" fill-opacity="1"/></g></g></g><g id="g5619" transform="matrix(1.33333,0,0,-1.33333,-104,3137.93)"><g id="g5621" clip-path="url(#clipPath5625)"><g id="g5627" clip-path="url(#clipPath5631)"><path d=" M 392.771 2320.04 L 420.925 2320.04 L 420.925 2358 L 392.771 2358 Z" id="path5633" stroke="none" fill="#F7AC33" fill-rule="nonzero" fill-opacity="1"/></g></g></g><g id="g5635" transform="matrix(1.33333,0,0,-1.33333,-104,3137.93)"><g id="g5637" clip-path="url(#clipPath5641)"><g id="g5643" clip-path="url(#clipPath5647)"><path d=" M 369.405 2308.37 L 420.904 2308.37 L 420.904 2324.94 L 369.405 2324.94 Z" id="path5649" stroke="none" fill="#F7AC33" fill-rule="nonzero" fill-opacity="1"/></g></g></g><g id="g5651" transform="matrix(1.33333,0,0,-1.33333,-104,3137.93)"><g id="g5653" clip-path="url(#clipPath5657)"><g id="g5659" clip-path="url(#clipPath5663)"><g id="g5665"></g><g id="g5963"><g id="g5961" clip-path="url(#clipPath5669)"><g id="g5815"></g><g id="g5823"><g id="g5821" clip-path="url(#clipPath5673)"><g id="g5819" clip-path="url(#clipPath5677)"><path d=" M 208.305 2272.41 L 219.397 2272.41 L 219.397 2298.01 L 208.305 2298.01 Z" id="path5817" stroke="none" fill="#FEFEFE" fill-rule="nonzero" fill-opacity="1"/></g></g></g><g id="g5831"><g id="g5829" clip-path="url(#clipPath5681)"><g id="g5827" clip-path="url(#clipPath5685)"><path d=" M 211.497 2283.57 L 223.414 2283.57 L 223.414 2298.01 L 211.497 2298.01 Z" id="path5825" stroke="none" fill="#FEFEFE" fill-rule="nonzero" fill-opacity="1"/></g></g></g><g id="g5839"><g id="g5837" clip-path="url(#clipPath5689)"><g id="g5835" clip-path="url(#clipPath5693)"><path d=" M 214.698 2272.2 L 232.582 2272.2 L 232.582 2293.6 L 214.698 2293.6 Z" id="path5833" stroke="none" fill="#FEFEFE" fill-rule="nonzero" fill-opacity="1"/></g></g></g><g id="g5847"><g id="g5845" clip-path="url(#clipPath5697)"><g id="g5843" clip-path="url(#clipPath5701)"><path d=" M 224.615 2272.2 L 242.599 2272.2 L 242.599 2293.6 L 224.615 2293.6 Z" id="path5841" stroke="none" fill="#FEFEFE" fill-rule="nonzero" fill-opacity="1"/></g></g></g><g id="g5855"><g id="g5853" clip-path="url(#clipPath5705)"><g id="g5851" clip-path="url(#clipPath5709)"><path d=" M 234.772 2272.41 L 252.191 2272.41 L 252.191 2298.01 L 234.772 2298.01 Z" id="path5849" stroke="none" fill="#FEFEFE" fill-rule="nonzero" fill-opacity="1"/></g></g></g><g id="g5863"><g id="g5861" clip-path="url(#clipPath5713)"><g id="g5859" clip-path="url(#clipPath5717)"><path d=" M 244.483 2272.2 L 262.366 2272.2 L 262.366 2293.6 L 244.483 2293.6 Z" id="path5857" stroke="none" fill="#FEFEFE" fill-rule="nonzero" fill-opacity="1"/></g></g></g><g id="g5871"><g id="g5869" clip-path="url(#clipPath5721)"><g id="g5867" clip-path="url(#clipPath5725)"><path d=" M 253.756 2272.2 L 268.866 2272.2 L 268.866 2296.21 L 253.756 2296.21 Z" id="path5865" stroke="none" fill="#FEFEFE" fill-rule="nonzero" fill-opacity="1"/></g></g></g><g id="g5879"><g id="g5877" clip-path="url(#clipPath5729)"><g id="g5875" clip-path="url(#clipPath5733)"><path d=" M 265.602 2272.41 L 276.694 2272.41 L 276.694 2298.01 L 265.602 2298.01 Z" id="path5873" stroke="none" fill="#FEFEFE" fill-rule="nonzero" fill-opacity="1"/></g></g></g><g id="g5887"><g id="g5885" clip-path="url(#clipPath5737)"><g id="g5883" clip-path="url(#clipPath5741)"><path d=" M 269.048 2272.2 L 287.831 2272.2 L 287.831 2293.6 L 269.048 2293.6 Z" id="path5881" stroke="none" fill="#FEFEFE" fill-rule="nonzero" fill-opacity="1"/></g></g></g><g id="g5895"><g id="g5893" clip-path="url(#clipPath5745)"><g id="g5891" clip-path="url(#clipPath5749)"><path d=" M 279.512 2272.2 L 297.496 2272.2 L 297.496 2293.6 L 279.512 2293.6 Z" id="path5889" stroke="none" fill="#FEFEFE" fill-rule="nonzero" fill-opacity="1"/></g></g></g><g id="g5903"><g id="g5901" clip-path="url(#clipPath5753)"><g id="g5899" clip-path="url(#clipPath5757)"><path d=" M 289.16 2272.2 L 307.042 2272.2 L 307.042 2293.6 L 289.16 2293.6 Z" id="path5897" stroke="none" fill="#FEFEFE" fill-rule="nonzero" fill-opacity="1"/></g></g></g><g id="g5911"><g id="g5909" clip-path="url(#clipPath5761)"><g id="g5907" clip-path="url(#clipPath5765)"><path d=" M 299.77 2272.41 L 310.861 2272.41 L 310.861 2298.01 L 299.77 2298.01 Z" id="path5905" stroke="none" fill="#FEFEFE" fill-rule="nonzero" fill-opacity="1"/></g></g></g><g id="g5919"><g id="g5917" clip-path="url(#clipPath5769)"><g id="g5915" clip-path="url(#clipPath5773)"><path d=" M 307.497 2272.41 L 323.189 2272.41 L 323.189 2298.23 L 307.497 2298.23 Z" id="path5913" stroke="none" fill="#FEFEFE" fill-rule="nonzero" fill-opacity="1"/></g></g></g><g id="g5927"><g id="g5925" clip-path="url(#clipPath5777)"><g id="g5923" clip-path="url(#clipPath5781)"><path d=" M 313.998 2272.2 L 331.881 2272.2 L 331.881 2293.6 L 313.998 2293.6 Z" id="path5921" stroke="none" fill="#FEFEFE" fill-rule="nonzero" fill-opacity="1"/></g></g></g><g id="g5935"><g id="g5933" clip-path="url(#clipPath5785)"><g id="g5931" clip-path="url(#clipPath5789)"><path d=" M 323.918 2272.2 L 341.9 2272.2 L 341.9 2293.6 L 323.918 2293.6 Z" id="path5929" stroke="none" fill="#FEFEFE" fill-rule="nonzero" fill-opacity="1"/></g></g></g><g id="g5943"><g id="g5941" clip-path="url(#clipPath5793)"><g id="g5939" clip-path="url(#clipPath5797)"><path d=" M 334.008 2272.41 L 345.509 2272.41 L 345.509 2297.39 L 334.008 2297.39 Z" id="path5937" stroke="none" fill="#FEFEFE" fill-rule="nonzero" fill-opacity="1"/></g></g></g><g id="g5951"><g id="g5949" clip-path="url(#clipPath5801)"><g id="g5947" clip-path="url(#clipPath5805)"><path d=" M 338.373 2272.41 L 349.465 2272.41 L 349.465 2298.01 L 338.373 2298.01 Z" id="path5945" stroke="none" fill="#FEFEFE" fill-rule="nonzero" fill-opacity="1"/></g></g></g><g id="g5959"><g id="g5957" clip-path="url(#clipPath5809)"><g id="g5955" clip-path="url(#clipPath5813)"><path d=" M 341.819 2272.2 L 359.92 2272.2 L 359.92 2293.6 L 341.819 2293.6 Z" id="path5953" stroke="none" fill="#FEFEFE" fill-rule="nonzero" fill-opacity="1"/></g></g></g></g></g></g></g></g></svg>