<svg version="1.1" width="548.507" height="106.651" xmlns="http://www.w3.org/2000/svg" xmlns:xlink="http://www.w3.org/1999/xlink" id="svg12270" overflow="hidden"><defs id="defs12274"><clipPath id="clipPath10239"><path d=" M 415.015 2319.94 L 375.295 2319.94 C 374.725 2319.94 374.405 2319.58 374.405 2318.94 L 374.405 2314.37 C 374.405 2313.73 374.725 2313.37 375.295 2313.37 L 415.015 2313.37 C 415.585 2313.37 415.904 2313.73 415.904 2314.37 L 415.904 2318.94 C 415.904 2319.58 415.585 2319.94 415.015 2319.94" id="path10237" clip-rule="evenodd"/></clipPath><clipPath id="clipPath10245"><path d=" M 0 0 L 1280 0 L 1280 2443 L 0 2443 Z" id="path10243"/></clipPath><clipPath id="clipPath10223"><path d=" M 415.925 2330.61 L 415.925 2326.03 C 415.925 2325.4 415.604 2325.04 415.035 2325.04 L 398.661 2325.04 C 398.091 2325.04 397.771 2325.4 397.771 2326.03 L 397.771 2352.01 C 397.771 2352.64 398.091 2353 398.661 2353 L 414.963 2353 C 415.533 2353 415.854 2352.64 415.854 2352.01 L 415.854 2347.39 C 415.854 2346.76 415.533 2346.4 414.963 2346.4 L 404.499 2346.4 L 404.499 2342.42 L 413.576 2342.42 C 414.145 2342.42 414.466 2342.06 414.466 2341.43 L 414.466 2336.93 C 414.466 2336.29 414.145 2335.94 413.576 2335.94 L 404.499 2335.94 L 404.499 2331.6 L 415.035 2331.6 C 415.604 2331.6 415.925 2331.24 415.925 2330.61" id="path10221" clip-rule="evenodd"/></clipPath><clipPath id="clipPath10229"><path d=" M 0 0 L 1280 0 L 1280 2443 L 0 2443 Z" id="path10227"/></clipPath><clipPath id="clipPath10207"><path d=" M 392.559 2330.61 L 392.559 2326.03 C 392.559 2325.4 392.237 2325.04 391.668 2325.04 L 375.294 2325.04 C 374.725 2325.04 374.405 2325.4 374.405 2326.03 L 374.405 2352.01 C 374.405 2352.64 374.725 2353 375.294 2353 L 391.597 2353 C 392.167 2353 392.488 2352.64 392.488 2352.01 L 392.488 2347.39 C 392.488 2346.76 392.167 2346.4 391.597 2346.4 L 381.133 2346.4 L 381.133 2342.42 L 390.21 2342.42 C 390.779 2342.42 391.099 2342.06 391.099 2341.43 L 391.099 2336.93 C 391.099 2336.29 390.779 2335.94 390.21 2335.94 L 381.133 2335.94 L 381.133 2331.6 L 391.668 2331.6 C 392.237 2331.6 392.559 2331.24 392.559 2330.61" id="path10205" clip-rule="evenodd"/></clipPath><clipPath id="clipPath10213"><path d=" M 0 0 L 1280 0 L 1280 2443 L 0 2443 Z" id="path10211"/></clipPath><clipPath id="clipPath10191"><path d=" M 489.38 2321.26 L 489.38 2314.78 C 489.38 2313.88 488.928 2313.37 488.118 2313.37 L 464.913 2313.37 C 464.106 2313.37 463.652 2313.88 463.652 2314.78 L 463.652 2351.59 C 463.652 2352.49 464.106 2353 464.913 2353 L 488.018 2353 C 488.826 2353 489.279 2352.49 489.279 2351.59 L 489.279 2345.05 C 489.279 2344.15 488.826 2343.64 488.018 2343.64 L 473.186 2343.64 L 473.186 2338.01 L 486.05 2338.01 C 486.858 2338.01 487.311 2337.5 487.311 2336.6 L 487.311 2330.23 C 487.311 2329.32 486.858 2328.82 486.05 2328.82 L 473.186 2328.82 L 473.186 2322.67 L 488.118 2322.67 C 488.928 2322.67 489.38 2322.17 489.38 2321.26" id="path10189" clip-rule="evenodd"/></clipPath><clipPath id="clipPath10197"><path d=" M 0 0 L 1280 0 L 1280 2443 L 0 2443 Z" id="path10195"/></clipPath><clipPath id="clipPath10175"><path d=" M 456.539 2351.36 L 442.767 2314.44 C 442.515 2313.71 442.01 2313.37 441.302 2313.37 L 437.622 2313.37 C 436.914 2313.37 436.411 2313.71 436.158 2314.44 L 422.335 2351.36 C 421.982 2352.38 422.435 2353 423.345 2353 L 431.366 2353 C 432.072 2353 432.577 2352.66 432.828 2351.87 L 437.42 2338.4 L 439.892 2329.83 L 442.262 2338.4 L 446.601 2351.87 C 446.853 2352.61 447.307 2353 448.014 2353 L 455.53 2353 C 456.437 2353 456.893 2352.38 456.539 2351.36" id="path10173" clip-rule="evenodd"/></clipPath><clipPath id="clipPath10181"><path d=" M 0 0 L 1280 0 L 1280 2443 L 0 2443 Z" id="path10179"/></clipPath><clipPath id="clipPath10159"><path d=" M 366.856 2351.59 L 366.856 2344.94 C 366.856 2344.04 366.403 2343.53 365.595 2343.53 L 355.354 2343.53 L 355.354 2314.78 C 355.354 2313.88 354.9 2313.37 354.093 2313.37 L 346.98 2313.37 C 346.172 2313.37 345.718 2313.88 345.718 2314.78 L 345.718 2343.53 L 335.629 2343.53 C 334.821 2343.53 334.367 2344.04 334.367 2344.94 L 334.367 2351.59 C 334.367 2352.49 334.821 2353 335.629 2353 L 365.595 2353 C 366.403 2353 366.856 2352.49 366.856 2351.59" id="path10157" clip-rule="evenodd"/></clipPath><clipPath id="clipPath10165"><path d=" M 0 0 L 1280 0 L 1280 2443 L 0 2443 Z" id="path10163"/></clipPath><clipPath id="clipPath10143"><path d=" M 312.373 2328.14 L 320.496 2328.14 L 316.46 2338.91 Z M 333.613 2313.37 L 326.297 2313.37 C 325.591 2313.37 325.086 2313.71 324.835 2314.44 L 322.817 2320.02 L 310.053 2320.02 L 308.036 2314.44 C 307.783 2313.71 307.278 2313.37 306.573 2313.37 L 299.358 2313.37 C 298.4 2313.37 297.996 2313.99 298.4 2315.01 L 313.282 2351.93 C 313.584 2352.66 314.038 2353 314.745 2353 L 318.427 2353 C 319.134 2353 319.588 2352.66 319.891 2351.93 L 334.571 2315.01 C 334.974 2313.99 334.571 2313.37 333.613 2313.37 Z" id="path10141" clip-rule="evenodd"/></clipPath><clipPath id="clipPath10149"><path d=" M 0 0 L 1280 0 L 1280 2443 L 0 2443 Z" id="path10147"/></clipPath><clipPath id="clipPath10127"><path d=" M 291.591 2351.59 L 291.591 2314.39 C 291.591 2313.48 291.138 2312.98 290.33 2312.98 L 287.203 2312.98 C 286.546 2312.98 286.093 2313.26 285.689 2313.76 L 268.283 2335.02 L 268.283 2314.78 C 268.283 2313.88 267.83 2313.37 267.023 2313.37 L 260.111 2313.37 C 259.304 2313.37 258.851 2313.88 258.851 2314.78 L 258.851 2352.04 C 258.851 2352.94 259.304 2353.45 260.111 2353.45 L 263.29 2353.45 C 263.944 2353.45 264.349 2353.28 264.803 2352.72 L 282.157 2331.92 L 282.157 2351.59 C 282.157 2352.49 282.611 2353 283.419 2353 L 290.33 2353 C 291.138 2353 291.591 2352.49 291.591 2351.59" id="path10125" clip-rule="evenodd"/></clipPath><clipPath id="clipPath10133"><path d=" M 0 0 L 1280 0 L 1280 2443 L 0 2443 Z" id="path10131"/></clipPath><clipPath id="clipPath10111"><path d=" M 229.441 2332.48 L 234.133 2332.48 C 237.612 2332.48 239.783 2334.96 239.783 2338.12 C 239.783 2341.44 237.715 2344.04 233.982 2344.04 L 229.441 2344.04 Z M 248.511 2313.37 L 240.389 2313.37 C 239.733 2313.37 239.177 2313.65 238.824 2314.27 L 233.527 2323.52 L 229.441 2323.52 L 229.441 2314.78 C 229.441 2313.88 228.988 2313.37 228.179 2313.37 L 221.27 2313.37 C 220.461 2313.37 220.007 2313.88 220.007 2314.78 L 220.007 2351.59 C 220.007 2352.49 220.461 2353 221.27 2353 L 234.889 2353 C 244.02 2353 249.418 2346.57 249.418 2338.01 C 249.418 2332.48 246.896 2328.08 242.71 2325.66 L 249.318 2315.06 C 249.923 2314.1 249.52 2313.37 248.511 2313.37 Z" id="path10109" clip-rule="evenodd"/></clipPath><clipPath id="clipPath10117"><path d=" M 0 0 L 1280 0 L 1280 2443 L 0 2443 Z" id="path10115"/></clipPath><clipPath id="clipPath10095"><path d=" M 210.677 2321.26 L 210.677 2314.78 C 210.677 2313.88 210.225 2313.37 209.416 2313.37 L 186.21 2313.37 C 185.401 2313.37 184.948 2313.88 184.948 2314.78 L 184.948 2351.59 C 184.948 2352.49 185.401 2353 186.21 2353 L 209.316 2353 C 210.122 2353 210.576 2352.49 210.576 2351.59 L 210.576 2345.05 C 210.576 2344.15 210.122 2343.64 209.316 2343.64 L 194.484 2343.64 L 194.484 2338.01 L 207.347 2338.01 C 208.155 2338.01 208.609 2337.5 208.609 2336.6 L 208.609 2330.23 C 208.609 2329.32 208.155 2328.82 207.347 2328.82 L 194.484 2328.82 L 194.484 2322.67 L 209.416 2322.67 C 210.225 2322.67 210.677 2322.17 210.677 2321.26" id="path10093" clip-rule="evenodd"/></clipPath><clipPath id="clipPath10101"><path d=" M 0 0 L 1280 0 L 1280 2443 L 0 2443 Z" id="path10099"/></clipPath><clipPath id="clipPath10079"><path d=" M 177.837 2351.59 L 177.837 2344.94 C 177.837 2344.04 177.383 2343.53 176.577 2343.53 L 166.335 2343.53 L 166.335 2314.78 C 166.335 2313.88 165.88 2313.37 165.075 2313.37 L 157.961 2313.37 C 157.153 2313.37 156.7 2313.88 156.7 2314.78 L 156.7 2343.53 L 146.611 2343.53 C 145.803 2343.53 145.35 2344.04 145.35 2344.94 L 145.35 2351.59 C 145.35 2352.49 145.803 2353 146.611 2353 L 176.577 2353 C 177.383 2353 177.837 2352.49 177.837 2351.59" id="path10077" clip-rule="evenodd"/></clipPath><clipPath id="clipPath10085"><path d=" M 0 0 L 1280 0 L 1280 2443 L 0 2443 Z" id="path10083"/></clipPath><clipPath id="clipPath10063"><path d=" M 146.611 2321.38 L 146.611 2314.78 C 146.611 2313.88 146.158 2313.37 145.349 2313.37 L 122.447 2313.37 C 121.638 2313.37 121.186 2313.88 121.186 2314.78 L 121.186 2351.59 C 121.186 2352.49 121.638 2353 122.447 2353 L 129.61 2353 C 130.417 2353 130.872 2352.49 130.872 2351.59 L 130.872 2322.78 L 145.349 2322.78 C 146.158 2322.78 146.611 2322.28 146.611 2321.38" id="path10061" clip-rule="evenodd"/></clipPath><clipPath id="clipPath10069"><path d=" M 0 0 L 1280 0 L 1280 2443 L 0 2443 Z" id="path10067"/></clipPath><clipPath id="clipPath10021"><path d=" M 78 2353 L 78 2313.37 L 114.482 2313.37 L 114.482 2353 Z" id="path10019" clip-rule="evenodd"/></clipPath><clipPath id="clipPath10027"><path d=" M 0 0 L 1280 0 L 1280 2443 L 0 2443 Z" id="path10025"/></clipPath><clipPath id="clipPath10033"><path d=" M 77 2313 L 115 2313 L 115 2353 L 77 2353 Z" id="path10031"/></clipPath><clipPath id="clipPath10037"><path d=" M 92.1296 2328.14 L 100.253 2328.14 L 96.2156 2338.91 Z M 113.369 2313.37 L 106.053 2313.37 C 105.348 2313.37 104.843 2313.71 104.59 2314.44 L 102.572 2320.02 L 89.8093 2320.02 L 87.7912 2314.44 C 87.5388 2313.71 87.034 2313.37 86.3285 2313.37 L 79.1133 2313.37 C 78.1554 2313.37 77.7519 2313.99 78.1554 2315.01 L 93.0378 2351.93 C 93.3399 2352.66 93.795 2353 94.5005 2353 L 98.1842 2353 C 98.8896 2353 99.3438 2352.66 99.6469 2351.93 L 114.327 2315.01 C 114.731 2313.99 114.327 2313.37 113.369 2313.37 Z" id="path10035" clip-rule="evenodd"/></clipPath><clipPath id="clipPath10041"><path d=" M 78 2313 L 115 2313 L 115 2354 L 78 2354 Z" id="path10039"/></clipPath></defs><g id="g10015" transform="matrix(1.33333,0,0,-1.33333,-104,3137.93)"><g id="g10017" clip-path="url(#clipPath10021)"><g id="g10023" clip-path="url(#clipPath10027)"><g id="g10029"></g><g id="g10055"><g id="g10053" clip-path="url(#clipPath10033)"><g id="g10043"></g><g id="g10051"><g id="g10049" clip-path="url(#clipPath10037)"><g id="g10047" clip-path="url(#clipPath10041)"><path d=" M 72.9999 2308.37 L 119.482 2308.37 L 119.482 2358 L 72.9999 2358 Z" id="path10045" stroke="none" fill="#FEFEFE" fill-rule="nonzero" fill-opacity="1"/></g></g></g></g></g></g></g></g><g id="g10057" transform="matrix(1.33333,0,0,-1.33333,-104,3137.93)"><g id="g10059" clip-path="url(#clipPath10063)"><g id="g10065" clip-path="url(#clipPath10069)"><path d=" M 116.186 2308.37 L 151.611 2308.37 L 151.611 2358 L 116.186 2358 Z" id="path10071" stroke="none" fill="#FEFEFE" fill-rule="nonzero" fill-opacity="1"/></g></g></g><g id="g10073" transform="matrix(1.33333,0,0,-1.33333,-104,3137.93)"><g id="g10075" clip-path="url(#clipPath10079)"><g id="g10081" clip-path="url(#clipPath10085)"><path d=" M 140.35 2308.37 L 182.837 2308.37 L 182.837 2358 L 140.35 2358 Z" id="path10087" stroke="none" fill="#FEFEFE" fill-rule="nonzero" fill-opacity="1"/></g></g></g><g id="g10089" transform="matrix(1.33333,0,0,-1.33333,-104,3137.93)"><g id="g10091" clip-path="url(#clipPath10095)"><g id="g10097" clip-path="url(#clipPath10101)"><path d=" M 179.948 2308.37 L 215.677 2308.37 L 215.677 2358 L 179.948 2358 Z" id="path10103" stroke="none" fill="#FEFEFE" fill-rule="nonzero" fill-opacity="1"/></g></g></g><g id="g10105" transform="matrix(1.33333,0,0,-1.33333,-104,3137.93)"><g id="g10107" clip-path="url(#clipPath10111)"><g id="g10113" clip-path="url(#clipPath10117)"><path d=" M 215.007 2308.37 L 254.602 2308.37 L 254.602 2358 L 215.007 2358 Z" id="path10119" stroke="none" fill="#FEFEFE" fill-rule="nonzero" fill-opacity="1"/></g></g></g><g id="g10121" transform="matrix(1.33333,0,0,-1.33333,-104,3137.93)"><g id="g10123" clip-path="url(#clipPath10127)"><g id="g10129" clip-path="url(#clipPath10133)"><path d=" M 253.851 2307.98 L 296.591 2307.98 L 296.591 2358.45 L 253.851 2358.45 Z" id="path10135" stroke="none" fill="#FEFEFE" fill-rule="nonzero" fill-opacity="1"/></g></g></g><g id="g10137" transform="matrix(1.33333,0,0,-1.33333,-104,3137.93)"><g id="g10139" clip-path="url(#clipPath10143)"><g id="g10145" clip-path="url(#clipPath10149)"><path d=" M 293.244 2308.37 L 339.726 2308.37 L 339.726 2358 L 293.244 2358 Z" id="path10151" stroke="none" fill="#FEFEFE" fill-rule="nonzero" fill-opacity="1"/></g></g></g><g id="g10153" transform="matrix(1.33333,0,0,-1.33333,-104,3137.93)"><g id="g10155" clip-path="url(#clipPath10159)"><g id="g10161" clip-path="url(#clipPath10165)"><path d=" M 329.367 2308.37 L 371.856 2308.37 L 371.856 2358 L 329.367 2358 Z" id="path10167" stroke="none" fill="#FEFEFE" fill-rule="nonzero" fill-opacity="1"/></g></g></g><g id="g10169" transform="matrix(1.33333,0,0,-1.33333,-104,3137.93)"><g id="g10171" clip-path="url(#clipPath10175)"><g id="g10177" clip-path="url(#clipPath10181)"><path d=" M 417.215 2308.37 L 461.659 2308.37 L 461.659 2358 L 417.215 2358 Z" id="path10183" stroke="none" fill="#FEFEFE" fill-rule="nonzero" fill-opacity="1"/></g></g></g><g id="g10185" transform="matrix(1.33333,0,0,-1.33333,-104,3137.93)"><g id="g10187" clip-path="url(#clipPath10191)"><g id="g10193" clip-path="url(#clipPath10197)"><path d=" M 458.652 2308.37 L 494.38 2308.37 L 494.38 2358 L 458.652 2358 Z" id="path10199" stroke="none" fill="#FEFEFE" fill-rule="nonzero" fill-opacity="1"/></g></g></g><g id="g10201" transform="matrix(1.33333,0,0,-1.33333,-104,3137.93)"><g id="g10203" clip-path="url(#clipPath10207)"><g id="g10209" clip-path="url(#clipPath10213)"><path d=" M 369.405 2320.04 L 397.559 2320.04 L 397.559 2358 L 369.405 2358 Z" id="path10215" stroke="none" fill="#F7AC33" fill-rule="nonzero" fill-opacity="1"/></g></g></g><g id="g10217" transform="matrix(1.33333,0,0,-1.33333,-104,3137.93)"><g id="g10219" clip-path="url(#clipPath10223)"><g id="g10225" clip-path="url(#clipPath10229)"><path d=" M 392.771 2320.04 L 420.925 2320.04 L 420.925 2358 L 392.771 2358 Z" id="path10231" stroke="none" fill="#F7AC33" fill-rule="nonzero" fill-opacity="1"/></g></g></g><g id="g10233" transform="matrix(1.33333,0,0,-1.33333,-104,3137.93)"><g id="g10235" clip-path="url(#clipPath10239)"><g id="g10241" clip-path="url(#clipPath10245)"><path d=" M 369.405 2308.37 L 420.904 2308.37 L 420.904 2324.94 L 369.405 2324.94 Z" id="path10247" stroke="none" fill="#F7AC33" fill-rule="nonzero" fill-opacity="1"/></g></g></g><text id="text11461" stroke="none" stroke-width="1.09933" fill="#FEFEFE" fill-opacity="1" font-family="roboto" font-style="normal" font-variant="normal" font-weight="300" font-stretch="normal" font-size="26.3838" text-anchor="start" letter-spacing="0" word-spacing="0" writing-mode="lr-tb" transform="matrix(0.909648,0,0,1.09933,0,0)" x="231.852" y="91.3849"><tspan stroke-width="1.09933" fill="#FEFEFE" fill-opacity="1" font-family="roboto" font-style="normal" font-variant="normal" font-weight="300" font-stretch="normal" font-size="26.3838" text-anchor="start" writing-mode="lr-tb" x="231.852" y="91.3849">buy local easly</tspan></text></svg>