<svg version="1.1" width="33.1715" height="33.1093" xmlns="http://www.w3.org/2000/svg" xmlns:xlink="http://www.w3.org/1999/xlink" id="svg12746" overflow="hidden"><defs id="defs12750"><clipPath id="clipPath5119"><path d=" M 1195.88 2282.17 L 1195.88 2307 L 1171 2307 L 1171 2282.17 Z" id="path5117" clip-rule="evenodd"/></clipPath><clipPath id="clipPath5125"><path d=" M 0 0 L 1280 0 L 1280 2443 L 0 2443 Z" id="path5123"/></clipPath><clipPath id="clipPath5131"><path d=" M 1171 2282 L 1197 2282 L 1197 2307 L 1171 2307 Z" id="path5129"/></clipPath><clipPath id="clipPath5135"><path d=" M 1181.4 2304.39 C 1185.65 2304.39 1189.09 2301.06 1189.09 2296.97 C 1189.09 2292.89 1185.65 2289.56 1181.4 2289.56 C 1177.16 2289.56 1173.71 2292.89 1173.71 2296.97 C 1173.71 2301.06 1177.16 2304.39 1181.4 2304.39 M 1195.5 2284.38 L 1189.37 2290.53 C 1190.94 2292.33 1191.81 2294.61 1191.81 2296.97 C 1191.81 2302.5 1187.14 2307 1181.4 2307 C 1175.67 2307 1171 2302.5 1171 2296.97 C 1171 2291.45 1175.67 2286.95 1181.4 2286.95 C 1183.56 2286.95 1185.61 2287.57 1187.36 2288.76 L 1193.55 2282.57 C 1193.8 2282.31 1194.15 2282.17 1194.52 2282.17 C 1194.88 2282.17 1195.21 2282.3 1195.46 2282.53 C 1196 2283.03 1196.02 2283.86 1195.5 2284.38" id="path5133" clip-rule="evenodd"/></clipPath><clipPath id="clipPath5139"><path d=" M 1171 2282 L 1196 2282 L 1196 2307 L 1171 2307 Z" id="path5137"/></clipPath></defs><g id="g5113" transform="matrix(1.33333,0,0,-1.33333,-1561.33,3076)"><g id="g5115" clip-path="url(#clipPath5119)"><g id="g5121" clip-path="url(#clipPath5125)"><g id="g5127"></g><g id="g5153"><g id="g5151" clip-path="url(#clipPath5131)"><g id="g5141"></g><g id="g5149"><g id="g5147" clip-path="url(#clipPath5135)"><g id="g5145" clip-path="url(#clipPath5139)"><path d=" M 1166 2277.17 L 1200.88 2277.17 L 1200.88 2312 L 1166 2312 Z" id="path5143" stroke="none" fill="#FFFFFF" fill-rule="nonzero" fill-opacity="1"/></g></g></g></g></g></g></g></g></svg>