<svg version="1.1" width="94.4178" height="80.7004" xmlns="http://www.w3.org/2000/svg" xmlns:xlink="http://www.w3.org/1999/xlink" id="svg11758" overflow="hidden"><defs id="defs11762"><clipPath id="clipPath4835"><path d=" M 165.814 481.281 L 165.814 541.806 L 95 541.806 L 95 481.281 Z" id="path4833" clip-rule="evenodd"/></clipPath><clipPath id="clipPath4841"><path d=" M 0 0 L 1280 0 L 1280 2443 L 0 2443 Z" id="path4839"/></clipPath><clipPath id="clipPath4847"><path d=" M 95 481 L 166 481 L 166 542 L 95 542 Z" id="path4845"/></clipPath><clipPath id="clipPath4851"><path d=" M 159.978 490.349 L 120.201 490.349 L 120.201 523.576 C 121.411 522.529 122.984 521.891 124.705 521.891 C 127.073 521.891 129.164 523.09 130.407 524.912 C 131.65 523.09 133.742 521.891 136.109 521.891 C 138.476 521.891 140.568 523.09 141.811 524.912 C 143.054 523.09 145.145 521.891 147.513 521.891 C 149.88 521.891 151.971 523.09 153.215 524.912 C 154.458 523.09 156.549 521.891 158.917 521.891 C 159.279 521.891 159.633 521.927 159.98 521.982 L 159.98 490.349 L 159.978 490.349 Z M 97.6661 483.677 L 163.147 483.677 L 163.147 487.666 L 97.6661 487.666 Z M 101.899 521.891 C 104.266 521.891 106.357 523.09 107.601 524.912 C 108.844 523.09 110.935 521.891 113.302 521.891 C 115.024 521.891 116.596 522.529 117.807 523.576 L 117.807 490.349 L 100.835 490.349 L 100.835 521.982 C 101.182 521.927 101.536 521.891 101.899 521.891 Z M 163.251 527.594 C 162.725 525.691 160.983 524.287 158.914 524.287 C 156.845 524.287 155.103 525.69 154.577 527.594 Z M 151.848 527.594 C 151.322 525.691 149.58 524.287 147.511 524.287 C 145.442 524.287 143.7 525.69 143.174 527.594 Z M 140.445 527.594 C 139.919 525.691 138.177 524.287 136.108 524.287 C 134.04 524.287 132.297 525.69 131.771 527.594 Z M 129.042 527.594 C 128.516 525.691 126.773 524.287 124.704 524.287 C 122.636 524.287 120.894 525.69 120.367 527.594 Z M 117.639 527.594 C 117.113 525.691 115.37 524.287 113.302 524.287 C 111.233 524.287 109.491 525.69 108.964 527.594 Z M 101.377 539.411 L 159.436 539.411 L 162.899 529.99 L 97.9135 529.99 Z M 97.5616 527.594 L 106.236 527.594 C 105.71 525.691 103.967 524.287 101.899 524.287 C 99.8299 524.287 98.0884 525.69 97.5616 527.594 Z M 165.81 528.716 C 165.81 528.728 165.812 528.74 165.812 528.753 C 165.812 528.765 165.814 528.778 165.814 528.792 C 165.814 528.82 165.808 528.845 165.806 528.872 C 165.803 528.916 165.8 528.958 165.793 529.001 C 165.785 529.045 165.772 529.086 165.76 529.129 C 165.753 529.154 165.75 529.18 165.74 529.205 L 161.396 541.022 C 161.393 541.03 161.389 541.037 161.385 541.045 C 161.368 541.089 161.346 541.13 161.324 541.172 C 161.309 541.2 161.294 541.231 161.277 541.258 C 161.254 541.294 161.227 541.326 161.199 541.358 C 161.177 541.386 161.156 541.415 161.132 541.441 C 161.103 541.47 161.07 541.496 161.038 541.522 C 161.011 541.544 160.986 541.568 160.957 541.589 C 160.922 541.613 160.883 541.633 160.845 541.654 C 160.816 541.67 160.788 541.688 160.758 541.701 C 160.72 541.718 160.68 541.73 160.64 541.742 C 160.605 541.754 160.572 541.766 160.537 541.774 C 160.501 541.782 160.465 541.786 160.429 541.791 C 160.385 541.797 160.342 541.802 160.298 541.804 C 160.289 541.804 160.281 541.806 160.272 541.806 L 100.541 541.806 C 100.531 541.806 100.522 541.804 100.513 541.803 C 100.473 541.802 100.434 541.796 100.395 541.791 C 100.354 541.786 100.313 541.782 100.274 541.773 C 100.244 541.766 100.215 541.755 100.185 541.746 C 100.14 541.731 100.094 541.718 100.052 541.699 C 100.026 541.688 100.002 541.672 99.9777 541.659 C 99.9355 541.636 99.8931 541.615 99.854 541.587 C 99.8275 541.568 99.8045 541.546 99.7797 541.525 C 99.7463 541.497 99.7119 541.47 99.6807 541.438 C 99.6567 541.413 99.6368 541.385 99.6153 541.358 C 99.588 541.325 99.5602 541.292 99.537 541.256 C 99.5194 541.229 99.5058 541.198 99.49 541.17 C 99.4675 541.128 99.446 541.088 99.4284 541.044 C 99.4251 541.036 99.4205 541.03 99.4172 541.021 L 95.0736 529.204 C 95.0639 529.18 95.0616 529.153 95.0537 529.129 C 95.0407 529.086 95.028 529.045 95.0208 529.001 C 95.0129 528.958 95.0106 528.915 95.008 528.872 C 95.0066 528.845 95.0002 528.819 95.0002 528.792 C 95.0002 528.778 95.0016 528.766 95.0026 528.752 C 95.0026 528.74 95.0032 528.728 95.0042 528.716 C 95.0313 526.204 96.4078 524.015 98.4409 522.83 L 98.4409 490.061 L 96.4686 490.061 C 95.8067 490.061 95.2708 489.525 95.2708 488.863 L 95.2708 482.478 C 95.2708 481.817 95.8067 481.28 96.4686 481.28 L 164.345 481.28 C 165.006 481.28 165.542 481.817 165.542 482.478 L 165.542 488.863 C 165.542 489.525 165.006 490.061 164.345 490.061 L 162.373 490.061 L 162.373 522.83 C 164.406 524.015 165.783 526.204 165.81 528.716 L 165.81 528.716 Z" id="path4849" clip-rule="evenodd"/></clipPath><clipPath id="clipPath4855"><path d=" M 95 481 L 166 481 L 166 542 L 95 542 Z" id="path4853"/></clipPath><clipPath id="clipPath4925"><path d=" M 113.95 507.277 C 114.683 507.277 115.277 506.683 115.277 505.95 C 115.277 505.217 114.683 504.622 113.95 504.622 C 113.217 504.622 112.623 505.217 112.623 505.95 C 112.623 506.683 113.217 507.277 113.95 507.277" id="path4923" clip-rule="evenodd"/></clipPath><clipPath id="clipPath4931"><path d=" M 0 0 L 1280 0 L 1280 2443 L 0 2443 Z" id="path4929"/></clipPath><clipPath id="clipPath4909"><path d=" M 149.861 515.115 C 149.393 515.583 148.635 515.583 148.167 515.115 L 132.275 499.218 C 131.807 498.75 131.807 497.992 132.275 497.524 C 132.509 497.29 132.815 497.173 133.122 497.173 C 133.429 497.173 133.735 497.29 133.969 497.524 L 149.862 513.42 C 150.329 513.888 150.329 514.647 149.861 515.115" id="path4907" clip-rule="evenodd"/></clipPath><clipPath id="clipPath4915"><path d=" M 0 0 L 1280 0 L 1280 2443 L 0 2443 Z" id="path4913"/></clipPath><clipPath id="clipPath4877"><path d=" M 133.122 506.552 C 133.428 506.552 133.735 506.669 133.969 506.903 L 140.486 513.42 C 140.953 513.888 140.953 514.646 140.486 515.114 C 140.018 515.582 139.26 515.582 138.792 515.114 L 132.276 508.596 C 131.808 508.128 131.808 507.371 132.276 506.903 C 132.509 506.669 132.815 506.552 133.122 506.552" id="path4875" clip-rule="evenodd"/></clipPath><clipPath id="clipPath4883"><path d=" M 0 0 L 1280 0 L 1280 2443 L 0 2443 Z" id="path4881"/></clipPath></defs><g id="g4829" transform="matrix(1.33333,0,0,-1.33333,-126.667,722.408)"><g id="g4831" clip-path="url(#clipPath4835)"><g id="g4837" clip-path="url(#clipPath4841)"><g id="g4843"></g><g id="g4869"><g id="g4867" clip-path="url(#clipPath4847)"><g id="g4857"></g><g id="g4865"><g id="g4863" clip-path="url(#clipPath4851)"><g id="g4861" clip-path="url(#clipPath4855)"><path d=" M 90 476.281 L 170.814 476.281 L 170.814 546.806 L 90 546.806 Z" id="path4859" stroke="none" fill="#F9AC32" fill-rule="nonzero" fill-opacity="1"/></g></g></g></g></g></g></g></g><g id="g4871" transform="matrix(1.33333,0,0,-1.33333,-126.667,722.408)"><g id="g4873" clip-path="url(#clipPath4877)"><g id="g4879" clip-path="url(#clipPath4883)"><path d=" M 126.925 501.552 L 145.836 501.552 L 145.836 520.465 L 126.925 520.465 Z" id="path4885" stroke="none" fill="#F9AC32" fill-rule="nonzero" fill-opacity="1"/></g></g></g><g id="g4903" transform="matrix(1.33333,0,0,-1.33333,-126.667,722.408)"><g id="g4905" clip-path="url(#clipPath4909)"><g id="g4911" clip-path="url(#clipPath4915)"><path d=" M 126.924 492.173 L 155.212 492.173 L 155.212 520.466 L 126.924 520.466 Z" id="path4917" stroke="none" fill="#F9AC32" fill-rule="nonzero" fill-opacity="1"/></g></g></g><g id="g4919" transform="matrix(1.33333,0,0,-1.33333,-126.667,722.408)"><g id="g4921" clip-path="url(#clipPath4925)"><g id="g4927" clip-path="url(#clipPath4931)"><path d=" M 107.623 499.622 L 120.277 499.622 L 120.277 512.277 L 107.623 512.277 Z" id="path4933" stroke="none" fill="#F9AC32" fill-rule="nonzero" fill-opacity="1"/></g></g></g></svg>