<svg version="1.1" width="31.8197" height="48.072" xmlns="http://www.w3.org/2000/svg" xmlns:xlink="http://www.w3.org/1999/xlink" id="svg4608" overflow="hidden"><defs id="defs4612"><clipPath id="clipPath2800"><path d=" M 2125.84 6312.18 C 2124.28 6312.19 2123.01 6310.83 2123.01 6309.14 C 2123 6307.46 2124.26 6306.08 2125.81 6306.08 C 2127.37 6306.07 2128.64 6307.43 2128.65 6309.11 C 2128.65 6309.92 2128.36 6310.7 2127.83 6311.27 C 2127.31 6311.85 2126.59 6312.17 2125.84 6312.17 L 2125.84 6312.17 Z M 2125.84 6303.35 C 2122.9 6303.35 2120.51 6305.94 2120.51 6309.13 C 2120.51 6312.32 2122.9 6314.9 2125.84 6314.9 C 2127.26 6314.9 2128.61 6314.29 2129.61 6313.21 C 2131.7 6310.96 2131.7 6307.3 2129.61 6305.05 C 2128.61 6303.96 2127.26 6303.35 2125.84 6303.35 Z" id="path2798" clip-rule="evenodd"/></clipPath><clipPath id="clipPath2806"><path d=" M 0 0 L 2560 0 L 2560 6350 L 0 6350 Z" id="path2804"/></clipPath><clipPath id="clipPath2758"><path d=" M 2137.86 6322.96 L 2114 6322.96 L 2114 6286.91 L 2137.86 6286.91 Z" id="path2756" clip-rule="evenodd"/></clipPath><clipPath id="clipPath2764"><path d=" M 0 0 L 2560 0 L 2560 6350 L 0 6350 Z" id="path2762"/></clipPath><clipPath id="clipPath2770"><path d=" M 2112 6286 L 2138 6286 L 2138 6323 L 2112 6323 Z" id="path2768"/></clipPath><clipPath id="clipPath2774"><path d=" M 2125.93 6320.24 C 2120.73 6320.24 2116.51 6315.68 2116.51 6310.05 C 2116.51 6309.13 2116.62 6308.23 2116.85 6307.35 C 2117.03 6306.6 2117.3 6305.89 2117.64 6305.21 C 2117.72 6305.05 2117.8 6304.89 2117.89 6304.73 C 2120.49 6300.17 2124.17 6293.76 2125.92 6290.76 C 2127.68 6293.76 2131.34 6300.16 2133.95 6304.72 L 2134.23 6305.23 C 2134.56 6305.9 2134.83 6306.61 2135.01 6307.35 C 2135.24 6308.23 2135.35 6309.14 2135.35 6310.05 C 2135.35 6315.67 2131.15 6320.23 2125.95 6320.24 L 2125.94 6320.24 L 2125.93 6320.24 Z M 2125.93 6286.91 C 2125.22 6286.91 2124.97 6287.35 2124.45 6288.21 C 2124.19 6288.64 2123.83 6289.27 2123.39 6290.01 C 2122.53 6291.49 2121.4 6293.46 2120.26 6295.43 C 2118 6299.36 2115.75 6303.31 2115.75 6303.31 C 2115.64 6303.51 2115.53 6303.71 2115.43 6303.91 C 2115 6304.78 2114.66 6305.69 2114.43 6306.64 C 2112.69 6313.51 2116.43 6320.62 2122.78 6322.5 C 2123.81 6322.81 2124.87 6322.96 2125.94 6322.96 C 2132.53 6322.95 2137.87 6317.17 2137.86 6310.03 C 2137.86 6307.9 2137.37 6305.79 2136.44 6303.91 L 2136.42 6303.88 L 2136.14 6303.33 L 2136.12 6303.3 C 2136.12 6303.3 2133.87 6299.37 2131.6 6295.42 C 2130.47 6293.45 2129.33 6291.49 2128.47 6290 C 2128.04 6289.25 2127.68 6288.63 2127.42 6288.2 C 2126.9 6287.35 2126.64 6286.91 2125.93 6286.91 Z" id="path2772" clip-rule="evenodd"/></clipPath><clipPath id="clipPath2778"><path d=" M 2114 6286 L 2138 6286 L 2138 6323 L 2114 6323 Z" id="path2776"/></clipPath></defs><g id="g2752" transform="matrix(1.33333,0,0,-1.33333,-2818.67,8430.62)"><g id="g2754" clip-path="url(#clipPath2758)"><g id="g2760" clip-path="url(#clipPath2764)"><g id="g2766"></g><g id="g2792"><g id="g2790" clip-path="url(#clipPath2770)"><g id="g2780"></g><g id="g2788"><g id="g2786" clip-path="url(#clipPath2774)"><g id="g2784" clip-path="url(#clipPath2778)"><path d=" M 2104 6276.91 L 2147.87 6276.91 L 2147.87 6332.96 L 2104 6332.96 Z" id="path2782" stroke="none" fill="#000000" fill-rule="nonzero" fill-opacity="1"/></g></g></g></g></g></g></g></g><g id="g2794" transform="matrix(1.33333,0,0,-1.33333,-2818.67,8430.62)"><g id="g2796" clip-path="url(#clipPath2800)"><g id="g2802" clip-path="url(#clipPath2806)"><path d=" M 2110.51 6293.35 L 2141.18 6293.35 L 2141.18 6324.9 L 2110.51 6324.9 Z" id="path2808" stroke="none" fill="#000000" fill-rule="nonzero" fill-opacity="1"/></g></g></g></svg>