<?xml version="1.0" encoding="UTF-8" standalone="no"?>
<svg
   xmlns:dc="http://purl.org/dc/elements/1.1/"
   xmlns:cc="http://creativecommons.org/ns#"
   xmlns:rdf="http://www.w3.org/1999/02/22-rdf-syntax-ns#"
   xmlns:svg="http://www.w3.org/2000/svg"
   xmlns="http://www.w3.org/2000/svg"
   xmlns:sodipodi="http://sodipodi.sourceforge.net/DTD/sodipodi-0.dtd"
   xmlns:inkscape="http://www.inkscape.org/namespaces/inkscape"
   version="1.1"
   width="29.3201"
   height="35.5857"
   id="svg12720"
   overflow="hidden"
   sodipodi:docname="panier blanc header.svg"
   inkscape:version="0.92.2 (5c3e80d, 2017-08-06)">
  <metadata
     id="metadata1070">
    <rdf:RDF>
      <cc:Work
         rdf:about="">
        <dc:format>image/svg+xml</dc:format>
        <dc:type
           rdf:resource="http://purl.org/dc/dcmitype/StillImage" />
        <dc:title></dc:title>
      </cc:Work>
    </rdf:RDF>
  </metadata>
  <sodipodi:namedview
     pagecolor="#ffffff"
     bordercolor="#666666"
     borderopacity="1"
     objecttolerance="10"
     gridtolerance="10"
     guidetolerance="10"
     inkscape:pageopacity="0"
     inkscape:pageshadow="2"
     inkscape:window-width="748"
     inkscape:window-height="480"
     id="namedview1068"
     showgrid="false"
     inkscape:zoom="6.6318772"
     inkscape:cx="14.66005"
     inkscape:cy="17.79285"
     inkscape:window-x="0"
     inkscape:window-y="0"
     inkscape:window-maximized="0"
     inkscape:current-layer="svg12720" />
  <defs
     id="defs12724">
    <clipPath
       id="clipPath5229">
      <path
         d=" M 0 0 L 1280 0 L 1280 2443 L 0 2443 Z"
         id="path5227" />
    </clipPath>
    <clipPath
       id="clipPath5257">
      <path
         d=" M 0 0 L 1280 0 L 1280 2443 L 0 2443 Z"
         id="path5255" />
    </clipPath>
    <clipPath
       id="clipPath5285">
      <path
         d=" M 0 0 L 1280 0 L 1280 2443 L 0 2443 Z"
         id="path5283" />
    </clipPath>
  </defs>
  <g
     id="g5223"
     transform="matrix(0.9999975,0,0,-0.9999975,-1179.836,2357.95)">
    <g
       id="g5225"
       clip-path="url(#clipPath5229)">
      <g
         id="g5231"
         transform="matrix(1,0,0,-1,1188.57,2353)">
        <path
           d="m 7.15655,8.03673 c -0.20303,0 -0.36762,-0.16715 -0.36762,-0.37328 V 3.81948 c 0,-1.69709 -1.35517,-3.07292 -3.02677,-3.07292 -1.67165,0 -3.026765,1.37583 -3.026765,3.07292 v 3.84397 c 0,0.20613 -0.16464,0.37328 -0.367722,0.37328 C 0.16464,8.03673 0,7.86958 0,7.66345 V 3.81948 C 0,1.71003 1.6844,0 3.76216,0 5.83993,0 7.52423,1.71003 7.52423,3.81948 v 3.84397 c 0,0.20613 -0.16464,0.37328 -0.36768,0.37328"
           id="path5233"
           stroke-miterlimit="10"
           inkscape:connector-curvature="0"
           style="fill:none;stroke:#ffffff;stroke-width:1;stroke-linecap:butt;stroke-linejoin:miter;stroke-miterlimit:10;stroke-dasharray:none;stroke-opacity:1" />
      </g>
    </g>
  </g>
  <g
     id="g5251"
     transform="matrix(0.9999975,0,0,-0.9999975,-1179.836,2357.95)">
    <g
       id="g5253"
       clip-path="url(#clipPath5257)">
      <g
         id="g5259"
         transform="matrix(1,0,0,-1,1192.94,2353)">
        <path
           d="m 7.15655,8.03673 c -0.20308,0 -0.36767,-0.16715 -0.36767,-0.37328 V 3.81948 c 0,-1.69709 -1.35512,-3.07292 -3.02677,-3.07292 -1.67165,0 -3.026764,1.37583 -3.026764,3.07292 v 3.84397 c 0,0.20613 -0.16464,0.37328 -0.367722,0.37328 C 0.164591,8.03673 0,7.86958 0,7.66345 V 3.81948 C 0,1.71003 1.68435,0 3.76211,0 5.83988,0 7.52418,1.71003 7.52418,3.81948 v 3.84397 c 0,0.20613 -0.16459,0.37328 -0.36763,0.37328"
           id="path5261"
           stroke-miterlimit="10"
           inkscape:connector-curvature="0"
           style="fill:none;stroke:#ffffff;stroke-width:1;stroke-linecap:butt;stroke-linejoin:miter;stroke-miterlimit:10;stroke-dasharray:none;stroke-opacity:1" />
      </g>
    </g>
  </g>
  <g
     id="g5279"
     transform="matrix(0.9999975,0,0,-0.9999975,-1179.836,2357.95)">
    <g
       id="g5281"
       clip-path="url(#clipPath5285)">
      <g
         id="g5287"
         transform="matrix(1,0,0,-1,1184,2345.6)">
        <path
           d="M 0.735346,0.74656 V 13.1369 c 0.002718,2.4316 1.943564,4.402 4.338604,4.4048 H 15.9162 c 2.395,-0.0028 4.3358,-1.9732 4.3385,-4.4048 V 0.74656 Z M 15.9162,18.2883 H 5.07395 C 2.27299,18.285 0.00321177,15.9806 0,13.1369 V 0.37328 C 0,0.167101 0.16464,0 0.367722,0 H 20.6224 c 0.203,0 0.3677,0.167101 0.3677,0.37328 V 13.1369 c -0.0032,2.8437 -2.273,5.1481 -5.0739,5.1514 z"
           id="path5289"
           stroke-miterlimit="10"
           inkscape:connector-curvature="0"
           style="fill:none;stroke:#ffffff;stroke-width:1;stroke-linecap:butt;stroke-linejoin:miter;stroke-miterlimit:10;stroke-dasharray:none;stroke-opacity:1" />
      </g>
    </g>
  </g>
</svg>
