<svg version="1.1" width="29.7285" height="35.5498" xmlns="http://www.w3.org/2000/svg" xmlns:xlink="http://www.w3.org/1999/xlink" id="svg1800" overflow="hidden"><defs id="defs1804"><clipPath id="clipPath6059"><path d=" M 0 0 L 2560 0 L 2560 6350 L 0 6350 Z" id="path6057"/></clipPath><clipPath id="clipPath6043"><path d=" M 1749.63 2437.82 L 1749.63 2377.82 C 1749.64 2366.05 1759.23 2356.51 1771.07 2356.49 L 1824.63 2356.49 C 1836.46 2356.51 1846.06 2366.05 1846.07 2377.82 L 1846.07 2437.82 Z M 1824.63 2352.88 L 1771.07 2352.88 C 1757.23 2352.89 1746.02 2364.05 1746 2377.82 L 1746 2439.63 C 1746 2440.63 1746.81 2441.44 1747.82 2441.44 L 1847.88 2441.44 C 1848.89 2441.44 1849.7 2440.63 1849.7 2439.63 L 1849.7 2377.82 C 1849.68 2364.05 1838.47 2352.89 1824.63 2352.88 Z" id="path6041" clip-rule="evenodd"/></clipPath><clipPath id="clipPath6049"><path d=" M 0 0 L 2560 0 L 2560 6350 L 0 6350 Z" id="path6047"/></clipPath><clipPath id="clipPath6031"><path d=" M 0 0 L 2560 0 L 2560 6350 L 0 6350 Z" id="path6029"/></clipPath><clipPath id="clipPath6015"><path d=" M 1825.52 2438.36 C 1824.52 2438.36 1823.71 2439.17 1823.71 2440.17 L 1823.71 2458.78 C 1823.71 2467 1817.01 2473.66 1808.75 2473.66 C 1800.49 2473.66 1793.8 2467 1793.8 2458.78 L 1793.8 2440.17 C 1793.8 2439.17 1792.98 2438.36 1791.98 2438.36 C 1790.98 2438.36 1790.16 2439.17 1790.16 2440.17 L 1790.16 2458.78 C 1790.16 2469 1798.49 2477.28 1808.75 2477.28 C 1819.02 2477.28 1827.33 2469 1827.33 2458.78 L 1827.33 2440.17 C 1827.33 2439.17 1826.53 2438.36 1825.52 2438.36" id="path6013" clip-rule="evenodd"/></clipPath><clipPath id="clipPath6021"><path d=" M 0 0 L 2560 0 L 2560 6350 L 0 6350 Z" id="path6019"/></clipPath><clipPath id="clipPath6003"><path d=" M 0 0 L 2560 0 L 2560 6350 L 0 6350 Z" id="path6001"/></clipPath><clipPath id="clipPath5987"><path d=" M 1803.93 2438.36 C 1802.92 2438.36 1802.11 2439.17 1802.11 2440.17 L 1802.11 2458.78 C 1802.11 2467 1795.41 2473.66 1787.16 2473.66 C 1778.9 2473.66 1772.2 2467 1772.2 2458.78 L 1772.2 2440.17 C 1772.2 2439.17 1771.39 2438.36 1770.39 2438.36 C 1769.38 2438.36 1768.57 2439.17 1768.57 2440.17 L 1768.57 2458.78 C 1768.57 2469 1776.89 2477.28 1787.16 2477.28 C 1797.42 2477.28 1805.74 2469 1805.74 2458.78 L 1805.74 2440.17 C 1805.74 2439.17 1804.93 2438.36 1803.93 2438.36" id="path5985" clip-rule="evenodd"/></clipPath><clipPath id="clipPath5993"><path d=" M 0 0 L 2560 0 L 2560 6350 L 0 6350 Z" id="path5991"/></clipPath></defs><g id="g5981" transform="matrix(0.281249,0,0,-0.281249,-490.78,697.015)"><g id="g5983" clip-path="url(#clipPath5987)"><g id="g5989" clip-path="url(#clipPath5993)"><path d=" M 1758.57 2428.36 L 1815.74 2428.36 L 1815.74 2487.28 L 1758.57 2487.28 Z" id="path5995" stroke="none" fill="#F8AC32" fill-rule="nonzero" fill-opacity="1"/></g></g></g><g id="g5997" transform="matrix(0.281249,0,0,-0.281249,-490.78,697.015)"><g id="g5999" clip-path="url(#clipPath6003)"><g id="g6005" transform="matrix(2,0,0,-2,1768.57,2477.28)"><path d=" M 17.6786 19.4587 C 17.1778 19.4587 16.77 19.0543 16.77 18.5546 L 16.77 9.24732 C 16.77 5.13906 13.4228 1.80834 9.29432 1.80834 C 5.16442 1.80834 1.81726 5.13906 1.81726 9.24732 L 1.81726 18.5546 C 1.81726 19.0543 1.40947 19.4587 0.908632 19.4587 C 0.406421 19.4587 0 19.0543 0 18.5546 L 0 9.24732 C 0 4.14094 4.16137 0 9.29432 0 C 14.4259 0 18.5873 4.14094 18.5873 9.24732 L 18.5873 18.5546 C 18.5873 19.0543 18.1795 19.4587 17.6786 19.4587" id="path6007" stroke="#F9AC32" stroke-width="1" stroke-linecap="butt" stroke-linejoin="miter" stroke-miterlimit="10" stroke-dasharray="" stroke-opacity="1" fill="none"/></g></g></g><g id="g6009" transform="matrix(0.281249,0,0,-0.281249,-490.78,697.015)"><g id="g6011" clip-path="url(#clipPath6015)"><g id="g6017" clip-path="url(#clipPath6021)"><path d=" M 1780.16 2428.36 L 1837.34 2428.36 L 1837.34 2487.28 L 1780.16 2487.28 Z" id="path6023" stroke="none" fill="#F8AC32" fill-rule="nonzero" fill-opacity="1"/></g></g></g><g id="g6025" transform="matrix(0.281249,0,0,-0.281249,-490.78,697.015)"><g id="g6027" clip-path="url(#clipPath6031)"><g id="g6033" transform="matrix(2,0,0,-2,1790.16,2477.28)"><path d=" M 17.6786 19.4587 C 17.1778 19.4587 16.7714 19.0543 16.7714 18.5546 L 16.7714 9.24732 C 16.7714 5.13906 13.4228 1.80834 9.29295 1.80834 C 5.16305 1.80834 1.81726 5.13906 1.81726 9.24732 L 1.81726 18.5546 C 1.81726 19.0543 1.41084 19.4587 0.908632 19.4587 C 0.406421 19.4587 0 19.0543 0 18.5546 L 0 9.24732 C 0 4.14094 4.16137 0 9.29295 0 C 14.4259 0 18.5859 4.14094 18.5859 9.24732 L 18.5859 18.5546 C 18.5859 19.0543 18.1808 19.4587 17.6786 19.4587" id="path6035" stroke="#F9AC32" stroke-width="1" stroke-linecap="butt" stroke-linejoin="miter" stroke-miterlimit="10" stroke-dasharray="" stroke-opacity="1" fill="none"/></g></g></g><g id="g6037" transform="matrix(0.281249,0,0,-0.281249,-490.78,697.015)"><g id="g6039" clip-path="url(#clipPath6043)"><g id="g6045" clip-path="url(#clipPath6049)"><path d=" M 1736 2342.88 L 1859.7 2342.88 L 1859.7 2451.44 L 1736 2451.44 Z" id="path6051" stroke="none" fill="#F8AC32" fill-rule="nonzero" fill-opacity="1"/></g></g></g><g id="g6053" transform="matrix(0.281249,0,0,-0.281249,-490.78,697.015)"><g id="g6055" clip-path="url(#clipPath6059)"><g id="g6061" transform="matrix(2,0,0,-2,1746,2441.44)"><path d=" M 1.81726 1.80834 L 1.81726 31.808 C 1.82273 37.6946 6.61768 42.466 12.5347 42.4729 L 39.3175 42.4729 C 45.2332 42.466 50.0281 37.6946 50.0336 31.808 L 50.0336 1.80834 Z M 39.3175 44.2798 L 12.5347 44.2798 C 5.61463 44.273 0.00821053 38.6928 0 31.808 L 0 0.90417 C 0 0.405787 0.407789 0 0.908632 0 L 50.9422 0 C 51.4444 0 51.8508 0.405787 51.8508 0.90417 L 51.8508 31.808 C 51.8426 38.6928 46.2362 44.273 39.3175 44.2798 Z" id="path6063" stroke="#F9AC32" stroke-width="1" stroke-linecap="butt" stroke-linejoin="miter" stroke-miterlimit="10" stroke-dasharray="" stroke-opacity="1" fill="none"/></g></g></g><path d=" M 0.598672 11.6046 L 1.06294 30.4406 L 5.70562 34.818 L 24.6742 34.4201 L 28.0568 31.5683 L 28.7865 27.9203 L 28.4249 11.3774 L 8.75654 11.2067 Z" id="path17053" stroke="#000000" stroke-width="0" stroke-linecap="butt" stroke-linejoin="miter" stroke-miterlimit="4" stroke-dasharray="" stroke-opacity="1" fill="#F8AC32" fill-opacity="1"/></svg>