<svg version="1.1" width="70.4678" height="84.266" xmlns="http://www.w3.org/2000/svg" xmlns:xlink="http://www.w3.org/1999/xlink" id="svg5130" overflow="hidden"><defs id="defs5134"><clipPath id="clipPath964"><path d=" M 0 0 L 1280 0 L 1280 2443 L 0 2443 Z" id="path962"/></clipPath><clipPath id="clipPath948"><path d=" M 874.817 523.911 L 874.817 493.911 C 874.822 488.025 879.617 483.253 885.534 483.246 L 912.317 483.246 C 918.233 483.253 923.028 488.025 923.033 493.911 L 923.033 523.911 Z M 912.317 481.439 L 885.534 481.439 C 878.614 481.446 873.008 487.026 873 493.911 L 873 524.815 C 873 525.313 873.407 525.719 873.908 525.719 L 923.942 525.719 C 924.444 525.719 924.85 525.313 924.85 524.815 L 924.85 493.911 C 924.842 487.026 919.236 481.446 912.317 481.439 Z" id="path946" clip-rule="evenodd"/></clipPath><clipPath id="clipPath954"><path d=" M 0 0 L 1280 0 L 1280 2443 L 0 2443 Z" id="path952"/></clipPath><clipPath id="clipPath936"><path d=" M 0 0 L 1280 0 L 1280 2443 L 0 2443 Z" id="path934"/></clipPath><clipPath id="clipPath920"><path d=" M 912.76 524.18 C 912.26 524.18 911.853 524.585 911.853 525.084 L 911.853 534.392 C 911.853 538.5 908.505 541.831 904.375 541.831 C 900.245 541.831 896.899 538.5 896.899 534.392 L 896.899 525.084 C 896.899 524.585 896.493 524.18 895.99 524.18 C 895.488 524.18 895.082 524.585 895.082 525.084 L 895.082 534.392 C 895.082 539.498 899.243 543.639 904.375 543.639 C 909.508 543.639 913.668 539.498 913.668 534.392 L 913.668 525.084 C 913.668 524.585 913.263 524.18 912.76 524.18" id="path918" clip-rule="evenodd"/></clipPath><clipPath id="clipPath926"><path d=" M 0 0 L 1280 0 L 1280 2443 L 0 2443 Z" id="path924"/></clipPath><clipPath id="clipPath908"><path d=" M 0 0 L 1280 0 L 1280 2443 L 0 2443 Z" id="path906"/></clipPath><clipPath id="clipPath892"><path d=" M 901.963 524.18 C 901.462 524.18 901.054 524.585 901.054 525.084 L 901.054 534.392 C 901.054 538.5 897.707 541.831 893.578 541.831 C 889.448 541.831 886.101 538.5 886.101 534.392 L 886.101 525.084 C 886.101 524.585 885.693 524.18 885.193 524.18 C 884.69 524.18 884.284 524.585 884.284 525.084 L 884.284 534.392 C 884.284 539.498 888.445 543.639 893.578 543.639 C 898.71 543.639 902.871 539.498 902.871 534.392 L 902.871 525.084 C 902.871 524.585 902.464 524.18 901.963 524.18" id="path890" clip-rule="evenodd"/></clipPath><clipPath id="clipPath898"><path d=" M 0 0 L 1280 0 L 1280 2443 L 0 2443 Z" id="path896"/></clipPath><clipPath id="clipPath876"><path d=" M 899.012 508.854 C 897.887 508.859 896.97 507.956 896.965 506.838 C 896.96 505.718 897.867 504.807 898.992 504.801 C 900.118 504.796 901.033 505.699 901.037 506.818 C 901.04 507.354 900.829 507.869 900.452 508.252 C 900.071 508.636 899.554 508.852 899.012 508.852 L 899.012 508.853 Z M 899.012 502.993 C 896.884 502.993 895.16 504.71 895.16 506.828 C 895.16 508.945 896.885 510.662 899.013 510.661 C 900.034 510.661 901.014 510.258 901.737 509.539 C 903.242 508.041 903.242 505.614 901.737 504.116 C 901.015 503.397 900.034 502.993 899.012 502.993 Z" id="path874" clip-rule="evenodd"/></clipPath><clipPath id="clipPath882"><path d=" M 0 0 L 1280 0 L 1280 2443 L 0 2443 Z" id="path880"/></clipPath><clipPath id="clipPath864"><path d=" M 0 0 L 1280 0 L 1280 2443 L 0 2443 Z" id="path862"/></clipPath><clipPath id="clipPath848"><path d=" M 899.076 514.21 C 895.318 514.21 892.272 511.178 892.274 507.44 C 892.274 506.832 892.356 506.229 892.517 505.644 C 892.651 505.152 892.843 504.677 893.087 504.229 C 893.146 504.123 893.207 504.014 893.271 503.908 C 895.149 500.88 897.805 496.618 899.071 494.626 C 900.336 496.618 902.986 500.868 904.869 503.899 L 905.071 504.238 C 905.312 504.685 905.5 505.156 905.635 505.644 C 905.795 506.231 905.879 506.834 905.879 507.443 C 905.883 511.175 902.844 514.205 899.091 514.209 L 899.08 514.209 L 899.076 514.21 Z M 899.076 492.07 C 898.566 492.07 898.38 492.359 898.008 492.934 C 897.819 493.221 897.557 493.635 897.244 494.128 C 896.623 495.111 895.803 496.419 894.983 497.729 C 893.348 500.34 891.725 502.962 891.725 502.962 C 891.643 503.097 891.566 503.232 891.494 503.366 C 891.183 503.938 890.94 504.543 890.77 505.172 C 889.511 509.741 892.212 514.461 896.805 515.714 C 897.546 515.915 898.311 516.017 899.08 516.018 C 903.842 516.013 907.701 512.166 907.696 507.427 C 907.695 506.009 907.339 504.613 906.664 503.366 L 906.65 503.342 L 906.449 502.979 L 906.436 502.956 C 906.436 502.956 904.808 500.344 903.173 497.721 C 902.356 496.411 901.535 495.111 900.914 494.12 C 900.601 493.627 900.341 493.214 900.152 492.928 C 899.774 492.359 899.585 492.07 899.076 492.07 Z" id="path846" clip-rule="evenodd"/></clipPath><clipPath id="clipPath854"><path d=" M 0 0 L 1280 0 L 1280 2443 L 0 2443 Z" id="path852"/></clipPath></defs><g id="g842" transform="matrix(1.33333,0,0,-1.33333,-1163.33,725.519)"><g id="g844" clip-path="url(#clipPath848)"><g id="g850" clip-path="url(#clipPath854)"><path d=" M 885.461 487.07 L 912.696 487.07 L 912.696 521.018 L 885.461 521.018 Z" id="path856" stroke="none" fill="#F8AC32" fill-rule="nonzero" fill-opacity="1"/></g></g></g><g id="g858" transform="matrix(1.33333,0,0,-1.33333,-1163.33,725.519)"><g id="g860" clip-path="url(#clipPath864)"><g id="g866" transform="matrix(1,0,0,-1,890.461,516.019)"><path d=" M 8.61535 1.80834 C 4.85767 1.80834 1.81156 4.84085 1.81293 8.57872 C 1.81293 9.18604 1.89504 9.78928 2.05651 10.3748 C 2.19062 10.8664 2.3822 11.3416 2.62578 11.7896 C 2.68462 11.8958 2.7462 12.0048 2.81051 12.111 C 4.68798 15.138 7.34409 19.4002 8.60988 21.3923 C 9.87567 19.4002 12.5249 15.1503 14.4079 12.1192 L 14.6104 11.7801 C 14.8512 11.3335 15.0387 10.8623 15.1742 10.3748 C 15.3343 9.78792 15.4178 9.18468 15.4178 8.576 C 15.4219 4.84357 12.3826 1.81379 8.63041 1.8097 L 8.61946 1.8097 L 8.61535 1.80834 Z M 8.61535 23.9483 C 8.10493 23.9483 7.91883 23.6596 7.54662 23.0849 C 7.35778 22.7976 7.09641 22.3837 6.78304 21.8907 C 6.16178 20.9076 5.34209 19.599 4.52241 18.289 C 2.88714 15.6786 1.2642 13.056 1.2642 13.056 C 1.18209 12.9212 1.10546 12.7864 1.03293 12.6529 C 0.722301 12.081 0.478722 11.4751 0.309038 10.846 C -0.94991 6.27745 1.75135 1.55779 6.34377 0.305021 C 7.08546 0.103489 7.85041 0.0013617 8.61946 0 C 13.3816 0.00544681 17.2405 3.85226 17.235 8.59098 C 17.2337 10.0099 16.8779 11.4056 16.2033 12.6529 L 16.1896 12.6761 L 15.9884 13.0397 L 15.9747 13.0628 C 15.9747 13.0628 14.3477 15.6746 12.7124 18.2972 C 11.8955 19.6071 11.0744 20.9076 10.4531 21.8989 C 10.1398 22.3918 9.87978 22.8044 9.69093 23.0904 C 9.31325 23.6596 9.12441 23.9483 8.61535 23.9483 Z" id="path868" stroke="#F9AC32" stroke-width="1" stroke-linecap="butt" stroke-linejoin="miter" stroke-miterlimit="10" stroke-dasharray="" stroke-opacity="1" fill="none"/></g></g></g><g id="g870" transform="matrix(1.33333,0,0,-1.33333,-1163.33,725.519)"><g id="g872" clip-path="url(#clipPath876)"><g id="g878" clip-path="url(#clipPath882)"><path d=" M 890.16 497.993 L 907.865 497.993 L 907.865 515.661 L 890.16 515.661 Z" id="path884" stroke="none" fill="#F8AC32" fill-rule="nonzero" fill-opacity="1"/></g></g></g><g id="g886" transform="matrix(1.33333,0,0,-1.33333,-1163.33,725.519)"><g id="g888" clip-path="url(#clipPath892)"><g id="g894" clip-path="url(#clipPath898)"><path d=" M 879.284 519.18 L 907.871 519.18 L 907.871 548.639 L 879.284 548.639 Z" id="path900" stroke="none" fill="#F8AC32" fill-rule="nonzero" fill-opacity="1"/></g></g></g><g id="g902" transform="matrix(1.33333,0,0,-1.33333,-1163.33,725.519)"><g id="g904" clip-path="url(#clipPath908)"><g id="g910" transform="matrix(1,0,0,-1,884.284,543.639)"><path d=" M 17.6786 19.4587 C 17.1778 19.4587 16.77 19.0543 16.77 18.5546 L 16.77 9.24732 C 16.77 5.13906 13.4228 1.80834 9.29432 1.80834 C 5.16442 1.80834 1.81726 5.13906 1.81726 9.24732 L 1.81726 18.5546 C 1.81726 19.0543 1.40947 19.4587 0.908632 19.4587 C 0.406421 19.4587 0 19.0543 0 18.5546 L 0 9.24732 C 0 4.14094 4.16137 0 9.29432 0 C 14.4259 0 18.5873 4.14094 18.5873 9.24732 L 18.5873 18.5546 C 18.5873 19.0543 18.1795 19.4587 17.6786 19.4587" id="path912" stroke="#F9AC32" stroke-width="1" stroke-linecap="butt" stroke-linejoin="miter" stroke-miterlimit="10" stroke-dasharray="" stroke-opacity="1" fill="none"/></g></g></g><g id="g914" transform="matrix(1.33333,0,0,-1.33333,-1163.33,725.519)"><g id="g916" clip-path="url(#clipPath920)"><g id="g922" clip-path="url(#clipPath926)"><path d=" M 890.082 519.18 L 918.668 519.18 L 918.668 548.639 L 890.082 548.639 Z" id="path928" stroke="none" fill="#F8AC32" fill-rule="nonzero" fill-opacity="1"/></g></g></g><g id="g930" transform="matrix(1.33333,0,0,-1.33333,-1163.33,725.519)"><g id="g932" clip-path="url(#clipPath936)"><g id="g938" transform="matrix(1,0,0,-1,895.082,543.639)"><path d=" M 17.6786 19.4587 C 17.1778 19.4587 16.7714 19.0543 16.7714 18.5546 L 16.7714 9.24732 C 16.7714 5.13906 13.4228 1.80834 9.29295 1.80834 C 5.16305 1.80834 1.81726 5.13906 1.81726 9.24732 L 1.81726 18.5546 C 1.81726 19.0543 1.41084 19.4587 0.908632 19.4587 C 0.406421 19.4587 0 19.0543 0 18.5546 L 0 9.24732 C 0 4.14094 4.16137 0 9.29295 0 C 14.4259 0 18.5859 4.14094 18.5859 9.24732 L 18.5859 18.5546 C 18.5859 19.0543 18.1808 19.4587 17.6786 19.4587" id="path940" stroke="#F9AC32" stroke-width="1" stroke-linecap="butt" stroke-linejoin="miter" stroke-miterlimit="10" stroke-dasharray="" stroke-opacity="1" fill="none"/></g></g></g><g id="g942" transform="matrix(1.33333,0,0,-1.33333,-1163.33,725.519)"><g id="g944" clip-path="url(#clipPath948)"><g id="g950" clip-path="url(#clipPath954)"><path d=" M 868 476.439 L 929.85 476.439 L 929.85 530.719 L 868 530.719 Z" id="path956" stroke="none" fill="#F8AC32" fill-rule="nonzero" fill-opacity="1"/></g></g></g><g id="g958" transform="matrix(1.33333,0,0,-1.33333,-1163.33,725.519)"><g id="g960" clip-path="url(#clipPath964)"><g id="g966" transform="matrix(1,0,0,-1,873,525.719)"><path d=" M 1.81726 1.80834 L 1.81726 31.808 C 1.82273 37.6946 6.61768 42.466 12.5347 42.4729 L 39.3175 42.4729 C 45.2332 42.466 50.0281 37.6946 50.0336 31.808 L 50.0336 1.80834 Z M 39.3175 44.2798 L 12.5347 44.2798 C 5.61463 44.273 0.00821053 38.6928 0 31.808 L 0 0.90417 C 0 0.405787 0.407789 0 0.908632 0 L 50.9422 0 C 51.4444 0 51.8508 0.405787 51.8508 0.90417 L 51.8508 31.808 C 51.8426 38.6928 46.2362 44.273 39.3175 44.2798 Z" id="path968" stroke="#F9AC32" stroke-width="1" stroke-linecap="butt" stroke-linejoin="miter" stroke-miterlimit="10" stroke-dasharray="" stroke-opacity="1" fill="none"/></g></g></g></svg>