<?xml version="1.0" encoding="UTF-8" standalone="no"?>
<svg
   xmlns:dc="http://purl.org/dc/elements/1.1/"
   xmlns:cc="http://creativecommons.org/ns#"
   xmlns:rdf="http://www.w3.org/1999/02/22-rdf-syntax-ns#"
   xmlns:svg="http://www.w3.org/2000/svg"
   xmlns="http://www.w3.org/2000/svg"
   xmlns:sodipodi="http://sodipodi.sourceforge.net/DTD/sodipodi-0.dtd"
   xmlns:inkscape="http://www.inkscape.org/namespaces/inkscape"
   version="1.1"
   width="35.932"
   height="34.356"
   id="svg12641"
   overflow="hidden"
   sodipodi:docname="petit homme blanc header.svg"
   inkscape:version="0.92.2 (5c3e80d, 2017-08-06)">
  <metadata
     id="metadata1022">
    <rdf:RDF>
      <cc:Work
         rdf:about="">
        <dc:format>image/svg+xml</dc:format>
        <dc:type
           rdf:resource="http://purl.org/dc/dcmitype/StillImage" />
        <dc:title></dc:title>
      </cc:Work>
    </rdf:RDF>
  </metadata>
  <sodipodi:namedview
     pagecolor="#ffffff"
     bordercolor="#666666"
     borderopacity="1"
     objecttolerance="10"
     gridtolerance="10"
     guidetolerance="10"
     inkscape:pageopacity="0"
     inkscape:pageshadow="2"
     inkscape:window-width="748"
     inkscape:window-height="480"
     id="namedview1020"
     showgrid="false"
     inkscape:zoom="6.8692516"
     inkscape:cx="17.966"
     inkscape:cy="17.177999"
     inkscape:window-x="0"
     inkscape:window-y="0"
     inkscape:window-maximized="0"
     inkscape:current-layer="svg12641" />
  <defs
     id="defs12645">
    <clipPath
       id="clipPath5339">
      <path
         d=" M 1109.64 2352.81 L 1095.22 2352.81 L 1095.22 2338.35 L 1109.64 2338.35 Z"
         id="path5337"
         clip-rule="evenodd" />
    </clipPath>
    <clipPath
       id="clipPath5345">
      <path
         d=" M 0 0 L 1280 0 L 1280 2443 L 0 2443 Z"
         id="path5343" />
    </clipPath>
    <clipPath
       id="clipPath5351">
      <path
         d=" M 1095 2338 L 1110 2338 L 1110 2353 L 1095 2353 Z"
         id="path5349" />
    </clipPath>
    <clipPath
       id="clipPath5355">
      <path
         d=" M 1102.43 2350.92 C 1105.35 2350.92 1107.74 2348.52 1107.74 2345.59 C 1107.74 2342.66 1105.35 2340.26 1102.43 2340.26 C 1099.51 2340.26 1097.12 2342.66 1097.12 2345.59 C 1097.12 2348.52 1099.51 2350.92 1102.43 2350.92 M 1102.43 2338.35 C 1106.41 2338.35 1109.64 2341.59 1109.64 2345.59 C 1109.64 2349.59 1106.41 2352.81 1102.43 2352.81 C 1098.45 2352.81 1095.22 2349.57 1095.22 2345.59 C 1095.22 2341.61 1098.45 2338.35 1102.43 2338.35"
         id="path5353"
         clip-rule="evenodd" />
    </clipPath>
    <clipPath
       id="clipPath5359">
      <path
         d=" M 1095 2338 L 1110 2338 L 1110 2353 L 1095 2353 Z"
         id="path5357" />
    </clipPath>
    <clipPath
       id="clipPath5381">
      <path
         d=" M 1115.95 2337.08 L 1115.95 2327.04 L 1089 2327.04 L 1089 2337.08 Z"
         id="path5379"
         clip-rule="evenodd" />
    </clipPath>
    <clipPath
       id="clipPath5387">
      <path
         d=" M 0 0 L 1280 0 L 1280 2443 L 0 2443 Z"
         id="path5385" />
    </clipPath>
    <clipPath
       id="clipPath5393">
      <path
         d=" M 1089 2327 L 1116 2327 L 1116 2338 L 1089 2338 Z"
         id="path5391" />
    </clipPath>
    <clipPath
       id="clipPath5397">
      <path
         d=" M 1098.05 2335.17 L 1106.9 2335.17 C 1110.53 2335.17 1113.52 2332.46 1113.98 2328.95 L 1090.97 2328.95 C 1091.43 2332.44 1094.42 2335.17 1098.05 2335.17 M 1089.95 2327.04 L 1115 2327.04 C 1115.53 2327.04 1115.95 2327.46 1115.95 2328 C 1115.95 2333 1111.9 2337.08 1106.9 2337.08 L 1098.05 2337.08 C 1093.07 2337.08 1089 2333.02 1089 2328 C 1089 2327.46 1089.42 2327.04 1089.95 2327.04"
         id="path5395"
         clip-rule="evenodd" />
    </clipPath>
    <clipPath
       id="clipPath5401">
      <path
         d=" M 1089 2327 L 1116 2327 L 1116 2338 L 1089 2338 Z"
         id="path5399" />
    </clipPath>
  </defs>
  <g
     id="g5333"
     transform="matrix(0.9999975,0,0,-0.9999975,-1084.5093,2357.1069)">
    <g
       id="g5335"
       clip-path="url(#clipPath5339)">
      <g
         id="g5341"
         clip-path="url(#clipPath5345)">
        <g
           id="g5347" />
        <g
           id="g5373">
          <g
             id="g5371"
             clip-path="url(#clipPath5351)">
            <g
               id="g5361" />
            <g
               id="g5369">
              <g
                 id="g5367"
                 clip-path="url(#clipPath5355)">
                <g
                   id="g5365"
                   clip-path="url(#clipPath5359)">
                  <path
                     d="m 1090.22,2333.35 h 24.42 v 24.46 h -24.42 z"
                     id="path5363"
                     inkscape:connector-curvature="0"
                     style="fill:#ffffff;fill-opacity:1;fill-rule:nonzero;stroke:none" />
                </g>
              </g>
            </g>
          </g>
        </g>
      </g>
    </g>
  </g>
  <g
     id="g5375"
     transform="matrix(0.9999975,0,0,-0.9999975,-1084.5093,2357.1069)">
    <g
       id="g5377"
       clip-path="url(#clipPath5381)">
      <g
         id="g5383"
         clip-path="url(#clipPath5387)">
        <g
           id="g5389" />
        <g
           id="g5415">
          <g
             id="g5413"
             clip-path="url(#clipPath5393)">
            <g
               id="g5403" />
            <g
               id="g5411">
              <g
                 id="g5409"
                 clip-path="url(#clipPath5397)">
                <g
                   id="g5407"
                   clip-path="url(#clipPath5401)">
                  <path
                     d="m 1084,2322.04 h 36.95 v 20.04 H 1084 Z"
                     id="path5405"
                     inkscape:connector-curvature="0"
                     style="fill:#ffffff;fill-opacity:1;fill-rule:nonzero;stroke:none" />
                </g>
              </g>
            </g>
          </g>
        </g>
      </g>
    </g>
  </g>
</svg>
