<svg version="1.1" width="45.276" height="43.6988" xmlns="http://www.w3.org/2000/svg" xmlns:xlink="http://www.w3.org/1999/xlink" id="svg12839" overflow="hidden"><defs id="defs12843"><clipPath id="clipPath6187"><path d=" M 1036.81 180.023 C 1036.81 188.25 1043.72 194.92 1052.24 194.92 C 1060.77 194.92 1067.68 188.25 1067.68 180.023 C 1067.68 171.795 1060.77 165.125 1052.24 165.125 C 1043.72 165.125 1036.81 171.795 1036.81 180.023 M 1069.22 180.023 C 1069.22 189.073 1061.62 196.41 1052.24 196.41 C 1042.86 196.41 1035.26 189.073 1035.26 180.023 C 1035.26 170.972 1042.86 163.636 1052.24 163.636 C 1061.62 163.636 1069.22 170.972 1069.22 180.023" id="path6185" clip-rule="evenodd"/></clipPath><clipPath id="clipPath6193"><path d=" M 0 0 L 1280 0 L 1280 2443 L 0 2443 Z" id="path6191"/></clipPath><clipPath id="clipPath6171"><path d=" M 1060.08 182.913 C 1060.08 186.31 1057.16 189.477 1052.72 189.477 C 1047.19 189.477 1044.41 185.573 1044.41 182.318 C 1044.41 180.348 1045.16 178.594 1046.79 177.942 C 1047.05 177.835 1047.29 177.938 1047.37 178.227 C 1047.42 178.429 1047.55 178.937 1047.61 179.146 C 1047.68 179.434 1047.65 179.534 1047.44 179.786 C 1046.97 180.332 1046.67 181.036 1046.67 182.034 C 1046.67 184.929 1048.87 187.52 1052.4 187.52 C 1055.52 187.52 1057.23 185.641 1057.23 183.13 C 1057.23 179.826 1055.75 177.038 1053.55 177.038 C 1052.33 177.038 1051.42 178.029 1051.71 179.245 C 1052.06 180.696 1052.74 182.263 1052.74 183.31 C 1052.74 184.248 1052.23 185.031 1051.17 185.031 C 1049.93 185.031 1048.93 183.763 1048.93 182.065 C 1048.93 180.983 1049.3 180.252 1049.3 180.252 C 1049.3 180.252 1048.03 174.938 1047.81 174.009 C 1047.6 173.161 1047.57 172.23 1047.6 171.443 C 1047.68 170.737 1048.39 170.162 1049.01 170.937 C 1049.44 171.618 1049.9 172.477 1050.14 173.338 C 1050.29 173.848 1050.96 176.488 1050.96 176.488 C 1051.37 175.727 1052.55 175.059 1053.8 175.059 C 1057.54 175.061 1060.08 178.418 1060.08 182.913" id="path6169" clip-rule="evenodd"/></clipPath><clipPath id="clipPath6177"><path d=" M 0 0 L 1280 0 L 1280 2443 L 0 2443 Z" id="path6175"/></clipPath></defs><g id="g6165" transform="matrix(1.33333,0,0,-1.33333,-1380.35,261.88)"><g id="g6167" clip-path="url(#clipPath6171)"><g id="g6173" clip-path="url(#clipPath6177)"><path d=" M 1039.41 165.567 L 1065.08 165.567 L 1065.08 194.477 L 1039.41 194.477 Z" id="path6179" stroke="none" fill="#FFFFFF" fill-rule="nonzero" fill-opacity="1"/></g></g></g><g id="g6181" transform="matrix(1.33333,0,0,-1.33333,-1380.35,261.88)"><g id="g6183" clip-path="url(#clipPath6187)"><g id="g6189" clip-path="url(#clipPath6193)"><path d=" M 1030.26 158.636 L 1074.22 158.636 L 1074.22 201.41 L 1030.26 201.41 Z" id="path6195" stroke="none" fill="#FFFFFF" fill-rule="nonzero" fill-opacity="1"/></g></g></g></svg>