<svg version="1.1" width="139.755" height="92.0681" xmlns="http://www.w3.org/2000/svg" xmlns:xlink="http://www.w3.org/1999/xlink" id="svg5051" overflow="hidden"><defs id="defs5055"><clipPath id="clipPath3142"><path d=" M 1084.5 1607 L 1105 1607 L 1105 1648 L 1084.5 1648 L 1064 1648 L 1064 1607 Z" id="path3140" clip-rule="evenodd"/></clipPath><clipPath id="clipPath3148"><path d=" M 0 0 L 1280 0 L 1280 2512 L 0 2512 Z" id="path3146"/></clipPath><clipPath id="clipPath3154"><path d=" M 1064 1607 L 1105 1607 L 1105 1648 L 1064 1648 Z" id="path3152"/></clipPath><clipPath id="clipPath3158"><path d=" M 1084.5 1610.2 C 1074.95 1610.2 1067.2 1617.95 1067.2 1627.5 C 1067.2 1637.05 1074.95 1644.8 1084.5 1644.8 C 1094.05 1644.8 1101.8 1637.05 1101.8 1627.5 C 1101.8 1617.95 1094.05 1610.2 1084.5 1610.2 M 1084.5 1648 C 1073.18 1648 1064 1638.82 1064 1627.5 C 1064 1616.18 1073.18 1607 1084.5 1607 C 1095.82 1607 1105 1616.18 1105 1627.5 C 1105 1638.82 1095.82 1648 1084.5 1648" id="path3156" clip-rule="evenodd"/></clipPath><clipPath id="clipPath3162"><path d=" M 1064 1607 L 1106 1607 L 1106 1648 L 1064 1648 Z" id="path3160"/></clipPath><clipPath id="clipPath3184"><path d=" M 1081.83 1628.89 C 1079.57 1628.89 1078.64 1631.85 1078.64 1633.44 C 1078.64 1634.25 1078.82 1634.87 1079.2 1635.33 C 1079.61 1635.85 1080.31 1636.18 1080.99 1636.18 C 1083.06 1636.18 1084.2 1633.4 1084.2 1631.47 C 1084.2 1631.17 1084.2 1630.25 1083.56 1629.6 C 1083.14 1629.18 1082.44 1628.89 1081.83 1628.89 M 1081.85 1618.6 C 1079.17 1618.6 1077.36 1619.86 1077.36 1621.73 C 1077.36 1622.95 1078.1 1623.83 1079.56 1624.36 C 1080.72 1624.75 1082.22 1624.77 1082.24 1624.77 C 1082.49 1624.77 1082.62 1624.77 1082.82 1624.74 C 1084.7 1623.41 1085.61 1622.7 1085.61 1621.37 C 1085.61 1619.66 1084.17 1618.6 1081.85 1618.6 M 1087.53 1637.15 L 1082.85 1637.15 C 1080.77 1637.15 1079.32 1636.69 1078.02 1635.62 C 1077 1634.73 1076.39 1633.45 1076.39 1632.19 C 1076.39 1630.24 1077.88 1628.17 1080.63 1628.17 C 1080.89 1628.17 1081.19 1628.2 1081.44 1628.22 L 1081.41 1628.13 C 1081.3 1627.87 1081.19 1627.62 1081.19 1627.23 C 1081.19 1626.47 1081.56 1626 1081.91 1625.55 L 1081.96 1625.49 L 1081.88 1625.48 C 1080.74 1625.4 1078.63 1625.26 1077.08 1624.31 C 1075.26 1623.22 1075.12 1621.64 1075.12 1621.19 C 1075.12 1619.36 1076.81 1617.53 1080.6 1617.53 C 1085.01 1617.53 1087.32 1619.96 1087.32 1622.36 C 1087.32 1624.14 1086.28 1625.02 1085.17 1625.95 L 1084.24 1626.67 C 1083.95 1626.91 1083.59 1627.21 1083.59 1627.76 C 1083.59 1628.3 1083.95 1628.66 1084.27 1628.97 L 1084.3 1629.01 C 1085.31 1629.8 1086.45 1630.7 1086.45 1632.65 C 1086.45 1634.6 1085.23 1635.61 1084.64 1636.1 L 1086.19 1636.1 C 1086.21 1636.1 1086.23 1636.11 1086.24 1636.11 L 1087.58 1636.95 C 1087.62 1636.98 1087.64 1637.03 1087.62 1637.07 C 1087.61 1637.11 1087.57 1637.14 1087.53 1637.14" id="path3182" clip-rule="evenodd"/></clipPath><clipPath id="clipPath3190"><path d=" M 0 0 L 1280 0 L 1280 2512 L 0 2512 Z" id="path3188"/></clipPath><clipPath id="clipPath3200"><path d=" M 1091.62 1627.98 L 1091.62 1630.44 C 1091.62 1630.5 1091.57 1630.54 1091.52 1630.54 L 1090.46 1630.54 C 1090.4 1630.54 1090.36 1630.5 1090.36 1630.44 L 1090.36 1627.98 L 1087.9 1627.98 C 1087.85 1627.98 1087.8 1627.94 1087.8 1627.88 L 1087.8 1626.81 C 1087.8 1626.75 1087.85 1626.71 1087.9 1626.71 L 1090.36 1626.71 L 1090.36 1624.24 C 1090.36 1624.18 1090.4 1624.13 1090.46 1624.13 L 1091.52 1624.13 C 1091.57 1624.13 1091.62 1624.18 1091.62 1624.24 L 1091.62 1626.71 L 1094.08 1626.71 C 1094.14 1626.71 1094.19 1626.75 1094.19 1626.81 L 1094.19 1627.88 C 1094.19 1627.94 1094.14 1627.98 1094.08 1627.98 Z" id="path3198" clip-rule="evenodd"/></clipPath><clipPath id="clipPath3206"><path d=" M 0 0 L 1280 0 L 1280 2512 L 0 2512 Z" id="path3204"/></clipPath><clipPath id="clipPath3110"><path d=" M 1025.5 1610.2 C 1015.95 1610.2 1008.2 1617.95 1008.2 1627.5 C 1008.2 1637.05 1015.95 1644.8 1025.5 1644.8 C 1035.05 1644.8 1042.8 1637.05 1042.8 1627.5 C 1042.8 1617.95 1035.05 1610.2 1025.5 1610.2 M 1025.5 1648 C 1014.18 1648 1005 1638.82 1005 1627.5 C 1005 1616.18 1014.18 1607 1025.5 1607 C 1036.82 1607 1046 1616.18 1046 1627.5 C 1046 1638.82 1036.82 1648 1025.5 1648" id="path3108" clip-rule="evenodd"/></clipPath><clipPath id="clipPath3116"><path d=" M 0 0 L 1280 0 L 1280 2512 L 0 2512 Z" id="path3114"/></clipPath><clipPath id="clipPath3126"><path d=" M 1036.46 1633.97 C 1035.63 1633.6 1034.73 1633.35 1033.79 1633.23 C 1034.75 1633.81 1035.49 1634.72 1035.84 1635.81 C 1034.94 1635.27 1033.94 1634.89 1032.88 1634.68 C 1032.04 1635.58 1030.83 1636.15 1029.49 1636.15 C 1026.92 1636.15 1024.84 1634.06 1024.84 1631.5 C 1024.84 1631.13 1024.88 1630.78 1024.96 1630.44 C 1021.1 1630.63 1017.67 1632.48 1015.38 1635.3 C 1014.98 1634.61 1014.75 1633.81 1014.75 1632.96 C 1014.75 1631.34 1015.57 1629.92 1016.82 1629.09 C 1016.05 1629.11 1015.34 1629.32 1014.71 1629.67 C 1014.71 1629.65 1014.71 1629.63 1014.71 1629.61 C 1014.71 1627.36 1016.31 1625.48 1018.44 1625.05 C 1018.05 1624.95 1017.64 1624.89 1017.22 1624.89 C 1016.91 1624.89 1016.62 1624.92 1016.34 1624.97 C 1016.93 1623.13 1018.65 1621.78 1020.68 1621.74 C 1019.09 1620.5 1017.09 1619.75 1014.91 1619.75 C 1014.53 1619.75 1014.16 1619.78 1013.8 1619.82 C 1015.86 1618.5 1018.3 1617.73 1020.93 1617.73 C 1029.48 1617.73 1034.16 1624.81 1034.16 1630.96 C 1034.16 1631.16 1034.16 1631.36 1034.14 1631.56 C 1035.05 1632.21 1035.84 1633.03 1036.46 1633.97" id="path3124" clip-rule="evenodd"/></clipPath><clipPath id="clipPath3132"><path d=" M 0 0 L 1280 0 L 1280 2512 L 0 2512 Z" id="path3130"/></clipPath><clipPath id="clipPath3078"><path d=" M 966.5 1610.2 C 956.947 1610.2 949.203 1617.95 949.203 1627.5 C 949.203 1637.05 956.947 1644.8 966.5 1644.8 C 976.053 1644.8 983.797 1637.05 983.797 1627.5 C 983.797 1617.95 976.053 1610.2 966.5 1610.2 M 966.5 1648 C 955.178 1648 946 1638.82 946 1627.5 C 946 1616.18 955.178 1607 966.5 1607 C 977.822 1607 987 1616.18 987 1627.5 C 987 1638.82 977.822 1648 966.5 1648" id="path3076" clip-rule="evenodd"/></clipPath><clipPath id="clipPath3084"><path d=" M 0 0 L 1280 0 L 1280 2512 L 0 2512 Z" id="path3082"/></clipPath><clipPath id="clipPath3094"><path d=" M 971.365 1630.64 L 967.799 1630.64 L 967.799 1633.24 C 967.799 1634.04 968.625 1634.22 969.01 1634.22 L 971.314 1634.22 L 971.314 1637.74 L 968.673 1637.75 C 965.071 1637.75 964.249 1635.13 964.249 1633.45 L 964.249 1630.64 L 961.635 1630.64 L 961.635 1627.02 L 964.249 1627.02 L 964.249 1617.25 L 967.799 1617.25 L 967.799 1627.02 L 970.814 1627.02 Z" id="path3092" clip-rule="evenodd"/></clipPath><clipPath id="clipPath3100"><path d=" M 0 0 L 1280 0 L 1280 2512 L 0 2512 Z" id="path3098"/></clipPath></defs><g id="g4980" stroke-width="1.21481" transform="matrix(1.09756,0,0,-1.09756,-1038.29,1808.78)"><g id="g3072" stroke-width="1.21481"><g id="g3074" stroke-width="1.21481" clip-path="url(#clipPath3078)"><g id="g3080" stroke-width="1.21481" clip-path="url(#clipPath3084)"><path d=" M 941 1602 L 992 1602 L 992 1653 L 941 1653 Z" id="path3086" stroke="none" stroke-width="1.21481" fill="#044651" fill-rule="nonzero" fill-opacity="1"/></g></g></g><g id="g3088" stroke-width="1.21481"><g id="g3090" stroke-width="1.21481" clip-path="url(#clipPath3094)"><g id="g3096" stroke-width="1.21481" clip-path="url(#clipPath3100)"><path d=" M 956.635 1612.25 L 976.365 1612.25 L 976.365 1642.75 L 956.635 1642.75 Z" id="path3102" stroke="none" stroke-width="1.21481" fill="#044651" fill-rule="nonzero" fill-opacity="1"/></g></g></g></g><g id="g4990" stroke-width="1.21481" transform="matrix(1.09756,0,0,-1.09756,-1055.67,1808.78)"><g id="g3104" stroke-width="1.21481"><g id="g3106" stroke-width="1.21481" clip-path="url(#clipPath3110)"><g id="g3112" stroke-width="1.21481" clip-path="url(#clipPath3116)"><path d=" M 1000 1602 L 1051 1602 L 1051 1653 L 1000 1653 Z" id="path3118" stroke="none" stroke-width="1.21481" fill="#044651" fill-rule="nonzero" fill-opacity="1"/></g></g></g><g id="g3120" stroke-width="1.21481"><g id="g3122" stroke-width="1.21481" clip-path="url(#clipPath3126)"><g id="g3128" stroke-width="1.21481" clip-path="url(#clipPath3132)"><path d=" M 1008.8 1612.73 L 1041.46 1612.73 L 1041.46 1641.15 L 1008.8 1641.15 Z" id="path3134" stroke="none" stroke-width="1.21481" fill="#044651" fill-rule="nonzero" fill-opacity="1"/></g></g></g></g><g id="g5011" stroke-width="1.21481" transform="matrix(1.09756,0,0,-1.09756,-1073.05,1808.78)"><g id="g3136" stroke-width="1.21481"><g id="g3138" stroke-width="1.21481" clip-path="url(#clipPath3142)"><g id="g3144" stroke-width="1.21481" clip-path="url(#clipPath3148)"><g id="g3150" stroke-width="1.21481"></g><g id="g3176" stroke-width="1.21481"><g id="g3174" stroke-width="1.21481" clip-path="url(#clipPath3154)"><g id="g3164" stroke-width="1.21481"></g><g id="g3172" stroke-width="1.21481"><g id="g3170" stroke-width="1.21481" clip-path="url(#clipPath3158)"><g id="g3168" stroke-width="1.21481" clip-path="url(#clipPath3162)"><path d=" M 1059 1602 L 1110 1602 L 1110 1653 L 1059 1653 Z" id="path3166" stroke="none" stroke-width="1.21481" fill="#044651" fill-rule="nonzero" fill-opacity="1"/></g></g></g></g></g></g></g></g><g id="g3178" stroke-width="1.21481"><g id="g3180" stroke-width="1.21481" clip-path="url(#clipPath3184)"><g id="g3186" stroke-width="1.21481" clip-path="url(#clipPath3190)"><path d=" M 1070.12 1612.53 L 1092.63 1612.53 L 1092.63 1642.15 L 1070.12 1642.15 Z" id="path3192" stroke="none" stroke-width="1.21481" fill="#044651" fill-rule="nonzero" fill-opacity="1"/></g></g></g><g id="g3194" stroke-width="1.21481"><g id="g3196" stroke-width="1.21481" clip-path="url(#clipPath3200)"><g id="g3202" stroke-width="1.21481" clip-path="url(#clipPath3206)"><path d=" M 1082.8 1619.13 L 1099.18 1619.13 L 1099.18 1635.54 L 1082.8 1635.54 Z" id="path3208" stroke="none" stroke-width="1.21481" fill="#044651" fill-rule="nonzero" fill-opacity="1"/></g></g></g></g><g id="g5035" transform="matrix(1.33333,0,0,-1.33333,-1261.44,2234.88)"><path d=" M 1280.59 1206.36 C 1272.44 1205.16 1265.31 1199.24 1262.66 1191.47 C 1260.18 1184.19 1261.54 1176.22 1266.27 1170.27 C 1269.73 1165.93 1274.6 1163.04 1280.04 1162.09 C 1282.19 1161.71 1285.86 1161.75 1287.99 1162.16 C 1299.03 1164.3 1306.77 1174.13 1306.19 1185.25 C 1305.88 1191.07 1303.72 1195.87 1299.55 1200.02 C 1296.1 1203.45 1292.23 1205.46 1287.53 1206.26 C 1285.76 1206.57 1282.32 1206.61 1280.59 1206.36 Z M 1288.61 1202.6 C 1293.05 1201.44 1297.14 1198.55 1299.6 1194.83 C 1300.86 1192.92 1301.33 1191.95 1301.97 1189.93 C 1305.28 1179.49 1299.18 1168.48 1288.52 1165.69 C 1286.68 1165.21 1282.8 1165.04 1280.83 1165.36 C 1276.72 1166.02 1273.09 1167.93 1270.15 1170.99 C 1268.43 1172.78 1267.62 1173.96 1266.56 1176.2 C 1261.81 1186.26 1266.95 1198.43 1277.52 1202.12 C 1279.98 1202.98 1281.41 1203.19 1284.33 1203.12 C 1286.35 1203.06 1287.26 1202.95 1288.61 1202.6 Z" id="path5019" stroke-width="1" fill="#65BB9F" fill-opacity="1" transform="matrix(0.75,0,0,-0.75,0,2512)"/><path d=" M 1281.5 1190.02 L 1281.5 1184.63 L 1280 1184.63 L 1278.5 1184.63 L 1278.5 1182.68 L 1278.5 1180.74 L 1280 1180.74 L 1281.5 1180.74 L 1281.5 1178.68 C 1281.5 1176.24 1281.69 1175.49 1282.59 1174.47 C 1283.56 1173.37 1284.36 1173.1 1286.94 1173 L 1289.1 1172.92 L 1289.1 1174.8 L 1289.1 1176.67 L 1287.68 1176.67 C 1286.32 1176.67 1285.63 1176.85 1285.35 1177.28 C 1285.28 1177.38 1285.22 1178.21 1285.22 1179.1 L 1285.22 1180.74 L 1287.18 1180.74 C 1289.13 1180.74 1289.14 1180.74 1289.05 1181.14 C 1288.99 1181.36 1288.85 1182.23 1288.74 1183.08 L 1288.52 1184.63 L 1286.87 1184.63 L 1285.22 1184.63 L 1285.22 1190.02 L 1285.22 1195.41 L 1283.36 1195.41 L 1281.5 1195.41 Z" id="path5021" stroke-width="1" fill="#65BB9F" fill-opacity="1" transform="matrix(0.75,0,0,-0.75,0,2512)"/></g><g id="g5039" transform="matrix(1.33333,0,0,-1.33333,-1292.77,2234.88)"><path d=" M 1359.25 1206.36 C 1354.58 1205.67 1350.14 1203.42 1346.73 1200.01 C 1343.38 1196.67 1341.32 1192.75 1340.44 1188.08 C 1340.05 1186.03 1340.04 1182.42 1340.42 1180.3 C 1342.08 1171.01 1349.41 1163.71 1358.69 1162.09 C 1360.86 1161.71 1364.52 1161.75 1366.66 1162.16 C 1379.9 1164.73 1387.92 1178.16 1383.84 1190.92 C 1382.7 1194.5 1380.99 1197.26 1378.22 1200.02 C 1374.76 1203.45 1370.9 1205.46 1366.19 1206.26 C 1364.42 1206.57 1360.99 1206.61 1359.25 1206.36 Z M 1367.28 1202.6 C 1371.71 1201.44 1375.8 1198.55 1378.26 1194.83 C 1379.53 1192.92 1379.99 1191.95 1380.63 1189.93 C 1383.95 1179.49 1377.84 1168.48 1367.18 1165.69 C 1365.35 1165.21 1361.46 1165.04 1359.5 1165.36 C 1355.38 1166.02 1351.76 1167.93 1348.82 1170.99 C 1347.1 1172.78 1346.28 1173.96 1345.23 1176.2 C 1342.84 1181.25 1342.87 1187.22 1345.31 1192.36 C 1347.92 1197.83 1353.06 1201.79 1359.08 1202.93 C 1361.18 1203.32 1365.1 1203.17 1367.28 1202.6 Z" id="path5023" stroke-width="1" fill="#65BB9F" fill-opacity="1" transform="matrix(0.75,0,0,-0.75,0,2512)"/><path d=" M 1355.93 1194.7 C 1354.21 1194.5 1352.65 1194.04 1351.34 1193.38 L 1350.18 1192.78 L 1350.98 1192.77 C 1352.82 1192.74 1355.65 1191.81 1356.81 1190.86 L 1357.25 1190.49 L 1356.72 1190.38 C 1354.96 1189.99 1353.68 1189.13 1352.95 1187.83 L 1352.54 1187.1 L 1353.34 1187.1 C 1354.75 1187.1 1354.82 1186.93 1353.65 1186.37 C 1352.07 1185.61 1350.8 1183.84 1350.8 1182.42 C 1350.8 1182.03 1350.8 1182.03 1351.77 1182.3 C 1352.31 1182.44 1352.79 1182.52 1352.85 1182.46 C 1352.92 1182.39 1352.73 1182.15 1352.45 1181.91 C 1352.16 1181.67 1351.7 1181.05 1351.41 1180.53 C 1350.97 1179.73 1350.89 1179.4 1350.89 1178.27 C 1350.89 1177.53 1351 1176.68 1351.13 1176.36 L 1351.38 1175.78 L 1352.55 1176.9 C 1354.98 1179.23 1357.6 1180.51 1360.75 1180.89 L 1361.94 1181.03 L 1361.94 1179.78 C 1361.94 1178.35 1362.27 1177.46 1363.17 1176.43 C 1364.91 1174.45 1368.27 1174.25 1370.19 1176.01 C 1370.54 1176.33 1370.66 1176.35 1371.4 1176.16 C 1371.86 1176.04 1372.54 1175.79 1372.92 1175.6 C 1373.29 1175.41 1373.6 1175.3 1373.6 1175.36 C 1373.6 1175.64 1373.12 1176.32 1372.39 1177.07 C 1371.51 1177.98 1371.58 1178.04 1373.06 1177.65 C 1373.59 1177.51 1374.06 1177.43 1374.1 1177.47 C 1374.15 1177.52 1373.65 1178.06 1373.01 1178.69 L 1371.83 1179.82 L 1371.83 1181.03 C 1371.83 1184.77 1369.6 1189.19 1366.43 1191.75 C 1363.69 1193.98 1359.57 1195.13 1355.92 1194.7 Z" id="path5025" stroke-width="1" fill="#65BB9F" fill-opacity="1" transform="matrix(0.75,0,0,-0.75,0,2512)"/></g><g id="g5044" transform="matrix(1.33333,0,0,-1.33333,-1318.37,2190.45)"><g id="g5049" transform="matrix(1,0,0,1,-4.25699,-33.3208)"><path d=" M 1437.92 1206.36 C 1433.24 1205.67 1428.81 1203.42 1425.39 1200.01 C 1421.06 1195.68 1418.8 1190.25 1418.8 1184.19 C 1418.8 1177.87 1421.23 1172.23 1425.8 1167.91 C 1430.09 1163.85 1435.23 1161.83 1441.24 1161.83 C 1447.95 1161.83 1453.96 1164.61 1458.25 1169.71 C 1464.81 1177.52 1465.36 1188.26 1459.64 1196.83 C 1458.53 1198.5 1455.4 1201.62 1453.75 1202.71 C 1451.01 1204.52 1447.98 1205.73 1444.86 1206.26 C 1443.09 1206.57 1439.65 1206.61 1437.92 1206.36 Z M 1445.94 1202.6 C 1460.14 1198.9 1465 1181.15 1454.66 1170.75 C 1451.16 1167.22 1446.97 1165.4 1441.96 1165.22 C 1437.37 1165.06 1433.88 1166.06 1430.23 1168.58 C 1428.74 1169.6 1426.3 1172.08 1425.34 1173.55 C 1421.62 1179.19 1421.1 1186.3 1423.98 1192.36 C 1426.58 1197.83 1431.73 1201.79 1437.75 1202.93 C 1439.85 1203.32 1443.77 1203.17 1445.94 1202.6 Z" id="path5027" stroke-width="1" fill="#65BB9F" fill-opacity="1" transform="matrix(0.75,0,0,-0.75,0,2512)"/><path d=" M 1435.01 1194.89 C 1432.98 1194.45 1431.44 1193.29 1431.06 1191.91 C 1430.68 1190.49 1431.41 1188.87 1432.88 1187.9 C 1433.8 1187.28 1436.07 1186.58 1437.14 1186.57 C 1437.44 1186.57 1437.86 1186.52 1438.08 1186.46 L 1438.48 1186.36 L 1438.08 1185.8 C 1437.79 1185.39 1437.69 1185.01 1437.69 1184.32 L 1437.7 1183.39 L 1437.06 1183.39 C 1435.98 1183.39 1434.62 1182.88 1433.86 1182.2 C 1432.86 1181.29 1432.41 1180.35 1432.4 1179.06 C 1432.36 1176.59 1434.32 1174.48 1437.21 1173.87 C 1437.72 1173.76 1439.59 1173.67 1441.36 1173.67 L 1444.58 1173.67 L 1443.74 1174.2 C 1443.12 1174.59 1442.69 1174.73 1442.07 1174.73 L 1441.24 1174.73 L 1441.87 1175.39 C 1442.88 1176.44 1443.16 1177.12 1443.16 1178.53 C 1443.16 1180.07 1442.92 1180.53 1441.31 1182.12 C 1439.57 1183.83 1439.61 1184.09 1441.83 1185.94 C 1443.63 1187.44 1444.22 1188.52 1444.1 1190.09 C 1443.96 1192.06 1442.37 1193.81 1440.07 1194.54 C 1438.78 1194.95 1436.15 1195.13 1435.01 1194.88 Z M 1439.91 1193.82 C 1441.44 1193.39 1442.4 1192.28 1442.4 1190.9 C 1442.4 1189.84 1441.97 1189.16 1440.59 1188.04 C 1439.59 1187.22 1439.35 1187.11 1438.65 1187.11 C 1437.51 1187.11 1435.86 1187.43 1435.13 1187.81 C 1432.88 1188.96 1432.64 1191.49 1434.63 1193 C 1435.77 1193.86 1438.33 1194.26 1439.91 1193.82 Z M 1439.54 1182.33 C 1440.78 1181.7 1441.2 1180.21 1440.7 1178.26 C 1440.15 1176.09 1438.99 1174.76 1437.55 1174.61 C 1436.19 1174.47 1435.08 1175.35 1434.75 1176.84 C 1434.46 1178.14 1435.07 1180.42 1436.05 1181.65 C 1436.47 1182.18 1437.5 1182.68 1438.18 1182.68 C 1438.55 1182.68 1439.16 1182.52 1439.54 1182.33 Z" id="path5029" stroke-width="1" fill="#65BB9F" fill-opacity="1" transform="matrix(0.75,0,0,-0.75,0,2512)"/><path d=" M 1447.67 1186.4 L 1447.67 1184.98 L 1446.26 1184.98 L 1444.84 1184.98 L 1444.84 1184.36 L 1444.84 1183.75 L 1446.26 1183.75 L 1447.67 1183.75 L 1447.67 1182.33 L 1447.67 1180.92 L 1448.29 1180.92 L 1448.91 1180.92 L 1448.91 1182.33 L 1448.91 1183.75 L 1450.32 1183.75 L 1451.74 1183.75 L 1451.74 1184.36 L 1451.74 1184.98 L 1450.32 1184.98 L 1448.91 1184.98 L 1448.91 1186.4 L 1448.91 1187.81 L 1448.29 1187.81 L 1447.67 1187.81 Z" id="path5031" stroke-width="1" fill="#65BB9F" fill-opacity="1" transform="matrix(0.75,0,0,-0.75,0,2512)"/></g></g></svg>