<svg version="1.1" width="45.0559" height="43.4864" xmlns="http://www.w3.org/2000/svg" xmlns:xlink="http://www.w3.org/1999/xlink" id="svg16057" overflow="hidden"><defs id="defs16061"><clipPath id="clipPath14439"><path d=" M 998.639 183.345 C 998.639 183.509 998.636 183.672 998.628 183.834 C 999.358 184.359 999.991 185.016 1000.49 185.767 C 999.822 185.477 999.103 185.283 998.347 185.201 C 999.118 185.659 999.71 186.391 999.989 187.27 C 999.267 186.848 998.469 186.546 997.619 186.389 C 996.939 187.135 995.968 187.611 994.895 187.629 C 992.833 187.662 991.162 185.981 991.162 183.874 C 991.162 183.574 991.194 183.284 991.259 183.004 C 988.154 183.197 985.404 184.756 983.563 187.107 C 983.242 186.544 983.058 185.886 983.058 185.18 C 983.058 183.846 983.717 182.66 984.719 181.96 C 984.105 181.987 983.531 182.166 983.028 182.46 L 983.028 182.411 C 983.028 180.546 984.314 178.983 986.022 178.618 C 985.709 178.533 985.379 178.488 985.04 178.489 C 984.798 178.491 984.565 178.516 984.337 178.564 C 984.812 177.036 986.192 175.919 987.824 175.882 C 986.546 174.859 984.937 174.249 983.189 174.253 C 982.888 174.253 982.59 174.272 982.298 174.308 C 983.95 173.213 985.912 172.576 988.021 172.576 C 994.885 172.575 998.639 178.341 998.639 183.345" id="path14437" clip-rule="evenodd"/></clipPath><clipPath id="clipPath14445"><path d=" M 0 0 L 1280 0 L 1280 1435 L 0 1435 Z" id="path14443"/></clipPath><clipPath id="clipPath14455"><path d=" M 976.034 180.102 C 976.034 188.29 982.911 194.927 991.394 194.927 C 999.877 194.927 1006.75 188.29 1006.75 180.102 C 1006.75 171.915 999.877 165.278 991.394 165.278 C 982.911 165.278 976.034 171.915 976.034 180.102 M 1008.29 180.102 C 1008.29 189.109 1000.72 196.41 991.394 196.41 C 982.062 196.41 974.498 189.109 974.498 180.102 C 974.498 171.096 982.062 163.795 991.394 163.795 C 1000.72 163.795 1008.29 171.096 1008.29 180.102" id="path14453" clip-rule="evenodd"/></clipPath><clipPath id="clipPath14461"><path d=" M 0 0 L 1280 0 L 1280 1435 L 0 1435 Z" id="path14459"/></clipPath></defs><g id="g14433" transform="matrix(1.33333,0,0,-1.33333,-1299.33,261.88)"><g id="g14435" clip-path="url(#clipPath14439)"><g id="g14441" clip-path="url(#clipPath14445)"><path d=" M 977.298 167.576 L 1005.49 167.576 L 1005.49 192.63 L 977.298 192.63 Z" id="path14447" stroke="none" fill="#F8AC32" fill-rule="nonzero" fill-opacity="1"/></g></g></g><g id="g14449" transform="matrix(1.33333,0,0,-1.33333,-1299.33,261.88)"><g id="g14451" clip-path="url(#clipPath14455)"><g id="g14457" clip-path="url(#clipPath14461)"><path d=" M 969.498 158.795 L 1013.29 158.795 L 1013.29 201.41 L 969.498 201.41 Z" id="path14463" stroke="none" fill="#F8AC32" fill-rule="nonzero" fill-opacity="1"/></g></g></g></svg>