<svg version="1.1" width="205.561" height="64" xmlns="http://www.w3.org/2000/svg" xmlns:xlink="http://www.w3.org/1999/xlink" id="svg10471" overflow="hidden"><defs id="defs10475"><clipPath id="clipPath3977"><path d=" M 0 0 L 1280 0 L 1280 2443 L 0 2443 Z" id="path3975"/></clipPath><clipPath id="clipPath3961"><path d=" M 745.927 1812.49 C 745.927 1816.92 749.511 1820.5 753.918 1820.5 L 892.107 1820.5 C 896.52 1820.5 900.098 1816.91 900.098 1812.49 L 900.098 1780.51 C 900.098 1776.08 896.514 1772.5 892.107 1772.5 L 753.918 1772.5 C 749.505 1772.5 745.927 1776.09 745.927 1780.51 Z" id="path3959" clip-rule="evenodd"/></clipPath><clipPath id="clipPath3967"><path d=" M 0 0 L 1280 0 L 1280 2443 L 0 2443 Z" id="path3965"/></clipPath><clipPath id="clipPath3991"><path d=" M 791.087 1805.7 C 790.03 1805.22 788.893 1804.9 787.701 1804.75 C 788.919 1805.49 789.854 1806.67 790.293 1808.06 C 789.155 1807.38 787.893 1806.88 786.549 1806.61 C 785.475 1807.77 783.944 1808.5 782.247 1808.5 C 778.992 1808.5 776.353 1805.82 776.353 1802.52 C 776.353 1802.05 776.406 1801.59 776.505 1801.16 C 771.607 1801.41 767.263 1803.79 764.356 1807.41 C 763.848 1806.52 763.558 1805.49 763.558 1804.4 C 763.558 1802.32 764.599 1800.49 766.18 1799.42 C 765.214 1799.45 764.304 1799.72 763.511 1800.17 C 763.51 1800.15 763.51 1800.12 763.51 1800.09 C 763.51 1797.2 765.542 1794.78 768.238 1794.23 C 767.744 1794.1 767.222 1794.02 766.685 1794.02 C 766.305 1794.02 765.935 1794.06 765.576 1794.13 C 766.327 1791.76 768.503 1790.03 771.082 1789.98 C 769.065 1788.37 766.523 1787.42 763.761 1787.42 C 763.287 1787.42 762.817 1787.45 762.356 1787.5 C 764.964 1785.81 768.063 1784.82 771.392 1784.82 C 782.235 1784.82 788.162 1793.93 788.162 1801.83 C 788.162 1802.09 788.157 1802.34 788.147 1802.6 C 789.298 1803.44 790.297 1804.5 791.087 1805.7" id="path3989" clip-rule="evenodd"/></clipPath><clipPath id="clipPath3997"><path d=" M 0 0 L 1280 0 L 1280 2443 L 0 2443 Z" id="path3995"/></clipPath></defs><g id="g3955" display="inline" transform="matrix(1.33333,0,0,-1.33333,-994.57,2427.33)"><g id="g3957" clip-path="url(#clipPath3961)"><g id="g3963" clip-path="url(#clipPath3967)"><path d=" M 740.927 1767.5 L 905.098 1767.5 L 905.098 1825.5 L 740.927 1825.5 Z" id="path3969" stroke="none" fill="#38CAF2" fill-rule="nonzero" fill-opacity="1"/></g></g></g><g id="g3971" display="inline" transform="matrix(1.33333,0,0,-1.33333,-994.57,2427.33)"><g id="g3973" clip-path="url(#clipPath3977)"><g id="g3979" transform="matrix(1,0,0,-1,806.726,1806.79)"><text id="text3983" stroke="none" fill="#FFFFFF" fill-rule="nonzero" fill-opacity="1" font-family="roboto" font-variant="normal" font-weight="700" font-size="15" writing-mode="lr-tb" transform="matrix(1,0,0,1,0,14)">
          <tspan x="0 8.7165 21.933 26.1195 34.836 43.4475 51.789" y="0">TWITTER</tspan>
        </text></g></g></g><g id="g3985" display="inline" transform="matrix(1.33333,0,0,-1.33333,-994.57,2427.33)"><g id="g3987" clip-path="url(#clipPath3991)"><g id="g3993" clip-path="url(#clipPath3997)"><path d=" M 757.356 1779.82 L 796.087 1779.82 L 796.087 1813.5 L 757.356 1813.5 Z" id="path3999" stroke="none" fill="#FFFFFF" fill-rule="nonzero" fill-opacity="1"/></g></g></g></svg>