<svg version="1.1" width="21.431" height="19.279" xmlns="http://www.w3.org/2000/svg" xmlns:xlink="http://www.w3.org/1999/xlink" id="svg7658" overflow="hidden"><defs id="defs7662"><clipPath id="clipPath5160"><path d=" M 1067.62 2859.67 C 1066.89 2859.67 1066.15 2859.5 1065.42 2859.17 C 1063.1 2858.13 1061.43 2856.22 1060.71 2853.81 C 1059.79 2850.72 1060.49 2847.09 1062.7 2843.59 C 1066.53 2837.49 1073.02 2833.01 1075 2831.74 C 1076.97 2833.01 1083.47 2837.5 1087.3 2843.59 C 1089.51 2847.09 1090.21 2850.72 1089.29 2853.81 C 1088.57 2856.22 1086.9 2858.13 1084.58 2859.17 C 1083.85 2859.5 1083.11 2859.67 1082.38 2859.67 C 1078.71 2859.67 1075.99 2855.62 1075.96 2855.58 L 1075 2854.13 L 1074.04 2855.58 C 1074.01 2855.62 1071.26 2859.67 1067.62 2859.67 Z M 1075 2829.02 L 1074.41 2829.36 C 1074.06 2829.58 1065.58 2834.65 1060.74 2842.34 C 1058.17 2846.43 1057.38 2850.74 1058.49 2854.48 C 1059.41 2857.54 1061.53 2859.97 1064.47 2861.3 C 1065.5 2861.76 1066.56 2862 1067.62 2862 C 1071.02 2862 1073.66 2859.62 1075 2858.1 C 1076.34 2859.62 1078.98 2862 1082.38 2862 C 1083.44 2862 1084.5 2861.76 1085.53 2861.3 C 1088.47 2859.97 1090.59 2857.55 1091.51 2854.48 C 1092.62 2850.74 1091.82 2846.43 1089.26 2842.34 C 1084.42 2834.65 1075.94 2829.58 1075.59 2829.36 Z" id="path5158" clip-rule="evenodd"/></clipPath><clipPath id="clipPath5166"><path d=" M 0 0 L 2560 0 L 2560 6364 L 0 6364 Z" id="path5164"/></clipPath></defs><g id="g5154" transform="matrix(0.630358,0,0,-0.584496,-666.919,1672.83)"><g id="g5156" clip-path="url(#clipPath5160)"><g id="g5162" clip-path="url(#clipPath5166)"><path d=" M 1048 2819.02 L 1102 2819.02 L 1102 2872 L 1048 2872 Z" id="path5168" stroke="none" fill="#212B51" fill-rule="nonzero" fill-opacity="1"/></g></g></g></svg>