<svg version="1.1" width="21.431" height="19.279" xmlns="http://www.w3.org/2000/svg" xmlns:xlink="http://www.w3.org/1999/xlink" id="svg7674" overflow="hidden"><defs id="defs7678"><clipPath id="clipPath5208"><path d=" M 528 2829.02 L 561.998 2829.02 L 561.998 2862 L 528 2862 Z" id="path5206" clip-rule="evenodd"/></clipPath><clipPath id="clipPath5214"><path d=" M 0 0 L 2560 0 L 2560 6364 L 0 6364 Z" id="path5212"/></clipPath><clipPath id="clipPath5220"><path d=" M 527 2829 L 563 2829 L 563 2862 L 527 2862 Z" id="path5218"/></clipPath><clipPath id="clipPath5224"><path d=" M 545 2829.02 L 544.41 2829.36 C 544.054 2829.58 535.578 2834.65 530.742 2842.34 C 528.174 2846.43 527.374 2850.74 528.492 2854.48 C 529.408 2857.55 531.532 2859.97 534.472 2861.3 C 535.498 2861.77 536.556 2862 537.62 2862 C 541.022 2862 543.662 2859.62 545 2858.1 C 546.336 2859.62 548.976 2862 552.38 2862 C 553.442 2862 554.502 2861.77 555.528 2861.3 C 558.466 2859.97 560.592 2857.55 561.508 2854.48 C 562.624 2850.74 561.824 2846.43 559.254 2842.34 C 554.418 2834.65 545.946 2829.58 545.586 2829.36 Z" id="path5222" clip-rule="evenodd"/></clipPath><clipPath id="clipPath5228"><path d=" M 528 2829 L 562 2829 L 562 2862 L 528 2862 Z" id="path5226"/></clipPath></defs><g id="g5202" transform="matrix(0.630361,0,0,-0.584496,-332.83,1672.83)"><g id="g5204" clip-path="url(#clipPath5208)"><g id="g5210" clip-path="url(#clipPath5214)"><g id="g5216"></g><g id="g5242"><g id="g5240" clip-path="url(#clipPath5220)"><g id="g5230"></g><g id="g5238"><g id="g5236" clip-path="url(#clipPath5224)"><g id="g5234" clip-path="url(#clipPath5228)"><path d=" M 518 2819.02 L 571.999 2819.02 L 571.999 2872 L 518 2872 Z" id="path5232" stroke="none" fill="#F7AB32" fill-rule="nonzero" fill-opacity="1"/></g></g></g></g></g></g></g></g></svg>