<svg version="1.1" width="198.364" height="75.1624" xmlns="http://www.w3.org/2000/svg" xmlns:xlink="http://www.w3.org/1999/xlink" id="svg11860" overflow="hidden"><defs id="defs11864"><clipPath id="clipPath5764"><path d=" M 1780.25 771.459 L 1763.15 771.459 C 1761.79 771.459 1760.7 770.359 1760.7 768.999 C 1760.7 767.639 1761.79 766.539 1763.15 766.539 L 1780.25 766.539 C 1781.6 766.539 1782.69 767.639 1782.69 768.999 C 1782.69 770.359 1781.6 771.459 1780.25 771.459" id="path5762" clip-rule="evenodd"/></clipPath><clipPath id="clipPath5770"><path d=" M 0 0 L 2560 0 L 2560 8102 L 0 8102 Z" id="path5768"/></clipPath><clipPath id="clipPath5748"><path d=" M 1780.25 788.679 L 1748.48 788.679 C 1747.13 788.679 1746.04 787.58 1746.04 786.219 C 1746.04 784.859 1747.13 783.759 1748.48 783.759 L 1780.25 783.759 C 1781.6 783.759 1782.69 784.859 1782.69 786.219 C 1782.69 787.58 1781.6 788.679 1780.25 788.679" id="path5746" clip-rule="evenodd"/></clipPath><clipPath id="clipPath5754"><path d=" M 0 0 L 2560 0 L 2560 8102 L 0 8102 Z" id="path5752"/></clipPath><clipPath id="clipPath5732"><path d=" M 1780.25 805.899 L 1733.82 805.899 C 1732.47 805.899 1731.38 804.8 1731.38 803.439 C 1731.38 802.079 1732.47 800.98 1733.82 800.98 L 1780.25 800.98 C 1781.6 800.98 1782.69 802.079 1782.69 803.439 C 1782.69 804.8 1781.6 805.899 1780.25 805.899" id="path5730" clip-rule="evenodd"/></clipPath><clipPath id="clipPath5738"><path d=" M 0 0 L 2560 0 L 2560 8102 L 0 8102 Z" id="path5736"/></clipPath><clipPath id="clipPath5716"><path d=" M 1780.25 823.119 L 1743.6 823.119 C 1742.24 823.119 1741.15 822.02 1741.15 820.659 C 1741.15 819.299 1742.24 818.199 1743.6 818.199 L 1780.25 818.199 C 1781.6 818.199 1782.69 819.299 1782.69 820.659 C 1782.69 822.02 1781.6 823.119 1780.25 823.119" id="path5714" clip-rule="evenodd"/></clipPath><clipPath id="clipPath5722"><path d=" M 0 0 L 2560 0 L 2560 8102 L 0 8102 Z" id="path5720"/></clipPath><clipPath id="clipPath5700"><path d=" M 1780.25 840.339 L 1755.81 840.339 C 1754.46 840.339 1753.37 839.24 1753.37 837.88 C 1753.37 836.519 1754.46 835.419 1755.81 835.419 L 1780.25 835.419 C 1781.6 835.419 1782.69 836.519 1782.69 837.88 C 1782.69 839.24 1781.6 840.339 1780.25 840.339" id="path5698" clip-rule="evenodd"/></clipPath><clipPath id="clipPath5706"><path d=" M 0 0 L 2560 0 L 2560 8102 L 0 8102 Z" id="path5704"/></clipPath><clipPath id="clipPath5684"><path d=" M 1780.25 857.559 L 1768.03 857.559 C 1766.68 857.559 1765.59 856.46 1765.59 855.1 C 1765.59 853.739 1766.68 852.64 1768.03 852.64 L 1780.25 852.64 C 1781.6 852.64 1782.69 853.739 1782.69 855.1 C 1782.69 856.46 1781.6 857.559 1780.25 857.559" id="path5682" clip-rule="evenodd"/></clipPath><clipPath id="clipPath5690"><path d=" M 0 0 L 2560 0 L 2560 8102 L 0 8102 Z" id="path5688"/></clipPath><clipPath id="clipPath5668"><path d=" M 1799.8 877.188 L 1799.8 884.62 L 1791.25 884.62 C 1790.57 884.62 1790.03 885.174 1790.03 885.85 C 1790.03 886.527 1790.57 887.08 1791.25 887.08 L 1813.24 887.08 C 1813.91 887.08 1814.46 886.527 1814.46 885.85 C 1814.46 885.174 1813.91 884.62 1813.24 884.62 L 1804.69 884.62 L 1804.69 877.188 C 1803.84 877.222 1803.03 877.24 1802.24 877.24 C 1802.18 877.24 1802.1 877.235 1802.03 877.235 C 1801.97 877.235 1801.91 877.24 1801.84 877.24 C 1801.44 877.24 1801.04 877.212 1800.64 877.205 C 1800.36 877.198 1800.09 877.2 1799.8 877.188 Z M 1858.87 871.702 L 1862.32 868.224 L 1858.87 864.743 L 1855.41 868.224 Z M 1859.04 843.872 C 1859.01 843.924 1859.01 843.978 1858.98 844.03 C 1858.95 844.079 1858.91 844.106 1858.88 844.153 C 1856.41 848.418 1853.48 852.386 1850.17 855.983 L 1855.41 861.265 L 1858.87 857.786 L 1869.23 868.224 L 1858.87 878.659 L 1848.5 868.224 L 1851.96 864.743 L 1846.71 859.461 C 1843.14 862.801 1839.2 865.747 1834.96 868.233 C 1834.91 868.265 1834.89 868.312 1834.84 868.341 C 1834.78 868.371 1834.73 868.369 1834.68 868.396 C 1827.12 872.779 1818.63 875.7 1809.58 876.77 L 1809.58 879.7 L 1813.24 879.7 C 1816.61 879.7 1819.35 882.457 1819.35 885.85 C 1819.35 889.242 1816.61 892 1813.24 892 L 1791.25 892 C 1787.88 892 1785.14 889.242 1785.14 885.85 C 1785.14 882.457 1787.88 879.7 1791.25 879.7 L 1794.91 879.7 L 1794.91 876.856 C 1792.27 876.573 1789.64 876.14 1787.03 875.54 C 1785.72 875.237 1784.9 873.916 1785.2 872.593 C 1785.5 871.269 1786.81 870.438 1788.13 870.745 C 1790.37 871.264 1792.65 871.655 1794.92 871.919 L 1797.54 872.123 C 1798.34 872.184 1799.08 872.229 1799.8 872.263 L 1799.8 867.399 C 1799.8 866.039 1800.89 864.939 1802.24 864.939 C 1803.59 864.939 1804.69 866.039 1804.69 867.399 L 1804.69 872.246 C 1813.88 871.821 1822.54 869.336 1830.24 865.247 L 1827.83 861.048 C 1827.15 859.87 1827.55 858.367 1828.72 857.688 C 1829.11 857.464 1829.53 857.358 1829.94 857.358 C 1830.79 857.358 1831.61 857.798 1832.06 858.588 L 1834.46 862.777 C 1842.11 857.894 1848.6 851.356 1853.45 843.657 L 1849.29 841.24 C 1848.13 840.561 1847.73 839.058 1848.4 837.88 C 1848.86 837.09 1849.68 836.65 1850.52 836.65 C 1850.94 836.65 1851.36 836.755 1851.74 836.979 L 1855.91 839.405 C 1860.03 831.542 1862.51 822.682 1862.87 813.282 L 1858.05 813.282 C 1856.7 813.282 1855.6 812.182 1855.6 810.822 C 1855.6 809.461 1856.7 808.362 1858.05 808.362 L 1862.87 808.362 C 1862.51 798.962 1860.03 790.102 1855.91 782.239 L 1851.74 784.665 C 1850.57 785.343 1849.08 784.945 1848.4 783.764 C 1847.73 782.586 1848.13 781.083 1849.3 780.404 L 1853.46 777.986 C 1848.61 770.288 1842.11 763.75 1834.47 758.866 L 1832.06 763.056 C 1831.39 764.237 1829.89 764.638 1828.73 763.956 C 1827.56 763.277 1827.16 761.771 1827.83 760.596 L 1830.24 756.397 C 1822.54 752.308 1813.88 749.823 1804.69 749.398 L 1804.69 754.239 C 1804.69 755.599 1803.6 756.699 1802.25 756.699 C 1800.9 756.699 1799.8 755.599 1799.8 754.239 L 1799.8 749.378 C 1795.9 749.513 1791.99 750.005 1788.13 750.896 C 1786.82 751.213 1785.51 750.372 1785.21 749.049 C 1784.9 747.725 1785.73 746.404 1787.04 746.102 C 1791.92 744.969 1796.9 744.399 1801.84 744.399 C 1801.96 744.399 1802.08 744.407 1802.2 744.409 C 1802.22 744.409 1802.23 744.399 1802.24 744.399 C 1802.26 744.399 1802.28 744.411 1802.3 744.411 C 1814.05 744.492 1825.07 747.685 1834.6 753.201 C 1834.68 753.235 1834.76 753.253 1834.83 753.297 C 1834.88 753.327 1834.91 753.373 1834.95 753.405 C 1844.82 759.196 1853.07 767.489 1858.83 777.417 C 1858.88 777.483 1858.94 777.535 1858.98 777.61 C 1859.01 777.661 1859.01 777.715 1859.03 777.766 C 1864.61 787.508 1867.82 798.79 1867.82 810.819 C 1867.82 822.849 1864.61 834.13 1859.04 843.872 Z" id="path5666" clip-rule="evenodd"/></clipPath><clipPath id="clipPath5674"><path d=" M 0 0 L 2560 0 L 2560 8102 L 0 8102 Z" id="path5672"/></clipPath><clipPath id="clipPath5652"><path d=" M 1799.81 807.584 C 1799.9 808.709 1800.47 809.734 1801.37 810.394 L 1820.67 824.448 L 1806.71 805.026 C 1806.05 804.113 1805.03 803.54 1803.92 803.452 C 1802.8 803.378 1801.71 803.766 1800.92 804.566 C 1800.13 805.361 1799.72 806.462 1799.81 807.584 M 1804.3 798.546 C 1806.84 798.745 1809.16 800.052 1810.67 802.136 L 1833.55 833.978 C 1834.25 834.955 1834.14 836.303 1833.29 837.159 C 1832.44 838.012 1831.1 838.118 1830.13 837.415 L 1798.5 814.374 C 1796.43 812.863 1795.14 810.529 1794.94 807.968 C 1794.74 805.407 1795.66 802.901 1797.46 801.087 C 1799.1 799.435 1801.31 798.519 1803.61 798.519 C 1803.84 798.519 1804.07 798.529 1804.3 798.546" id="path5650" clip-rule="evenodd"/></clipPath><clipPath id="clipPath5658"><path d=" M 0 0 L 2560 0 L 2560 8102 L 0 8102 Z" id="path5656"/></clipPath><clipPath id="clipPath5592"><path d=" M 998.63 770.523 C 1000.82 770.523 1002.59 768.736 1002.59 766.532 C 1002.59 764.327 1000.82 762.539 998.63 762.539 C 996.439 762.539 994.664 764.327 994.664 766.532 C 994.664 768.736 996.439 770.523 998.63 770.523" id="path5590" clip-rule="evenodd"/></clipPath><clipPath id="clipPath5598"><path d=" M 0 0 L 2560 0 L 2560 8102 L 0 8102 Z" id="path5596"/></clipPath><clipPath id="clipPath5550"><path d=" M 970 853.702 L 970 742.51 L 1034.95 742.51 L 1034.95 853.702 Z" id="path5548" clip-rule="evenodd"/></clipPath><clipPath id="clipPath5556"><path d=" M 0 0 L 2560 0 L 2560 8102 L 0 8102 Z" id="path5554"/></clipPath><clipPath id="clipPath5562"><path d=" M 969 742 L 1035 742 L 1035 854 L 969 854 Z" id="path5560"/></clipPath><clipPath id="clipPath5566"><path d=" M 975.773 848.571 C 976.081 848.88 976.471 849.022 976.922 849.037 C 980.436 848.921 983.209 845.942 983.103 842.405 L 982.763 831.874 C 982.761 831.848 982.768 831.823 982.768 831.797 C 982.768 831.718 982.775 831.637 982.783 831.556 C 982.791 831.475 982.8 831.394 982.818 831.317 C 982.823 831.29 982.823 831.265 982.828 831.239 L 984.681 823.693 C 984.257 823.406 983.852 823.082 983.479 822.705 C 980.345 819.55 980.345 814.416 983.479 811.263 L 997.028 797.622 C 997.484 797.168 998.076 796.941 998.67 796.941 C 999.262 796.941 999.856 797.168 1000.31 797.623 C 1001.21 798.535 1001.21 800.012 1000.31 800.922 L 986.76 814.562 C 985.433 815.898 985.435 818.073 986.76 819.409 C 988.086 820.743 990.245 820.743 991.571 819.409 L 1003.37 807.527 C 1003.37 807.524 1003.38 807.523 1003.38 807.519 C 1003.59 807.312 1003.83 807.144 1004.11 807.027 C 1004.12 807.022 1004.13 807.016 1004.14 807.012 C 1004.29 806.951 1004.45 806.906 1004.61 806.877 L 1009.25 806.068 C 1010.84 805.797 1012.34 805.018 1013.47 803.872 L 1021.24 796.055 C 1022.68 794.604 1023.5 792.681 1023.55 790.639 L 1023.82 778.241 L 999.067 777.974 L 998.996 778.465 C 998.421 782.345 996.663 785.858 993.914 788.627 L 980.797 801.831 C 978.196 804.452 976.552 807.908 976.172 811.567 L 974.81 824.577 C 974.808 824.633 974.797 824.688 974.793 824.744 L 974.636 826.24 L 975.31 847.499 C 975.328 848.016 975.571 848.367 975.773 848.57 M 1030.14 769.068 L 1030.32 752.102 C 1030.33 750.888 1029.87 749.735 1029.01 748.858 C 1028.16 747.981 1027.03 747.49 1025.82 747.477 L 997.861 747.176 C 996.653 747.191 995.509 747.629 994.638 748.486 C 993.767 749.345 993.279 750.488 993.267 751.703 L 993.084 768.668 C 993.072 769.882 993.533 771.035 994.386 771.914 C 995.239 772.791 996.374 773.28 997.581 773.295 L 1025.54 773.596 L 1025.59 773.596 C 1028.07 773.596 1030.11 771.575 1030.14 769.068 M 970.009 825.933 L 970.009 825.911 L 970.011 825.895 C 970.017 825.374 970.074 824.864 970.172 824.367 L 971.564 811.082 C 972.054 806.364 974.17 801.908 977.52 798.534 L 990.637 785.33 C 992.679 783.272 993.985 780.663 994.411 777.787 L 994.469 777.385 C 993.207 776.916 992.048 776.176 991.076 775.176 C 989.356 773.408 988.425 771.078 988.451 768.618 L 988.632 751.654 C 988.658 749.192 989.641 746.885 991.397 745.154 C 993.13 743.446 995.403 742.51 997.811 742.51 L 997.911 742.51 L 1025.87 742.81 C 1028.32 742.837 1030.61 743.826 1032.33 745.594 C 1034.05 747.362 1034.98 749.692 1034.95 752.152 L 1034.77 769.117 C 1034.73 773.167 1032.09 776.582 1028.47 777.789 L 1028.18 790.745 C 1028.11 793.992 1026.81 797.049 1024.52 799.352 L 1016.75 807.17 C 1014.94 808.993 1012.55 810.236 1010.04 810.667 L 1006.13 811.348 L 994.851 822.707 C 993.272 824.294 991.195 825.079 989.122 825.067 L 987.409 832.045 L 987.739 842.256 C 987.923 848.364 983.14 853.497 977.054 853.699 C 975.367 853.752 973.694 853.07 972.5 851.869 C 971.383 850.744 970.737 849.25 970.682 847.656 L 970.002 826.205 C 969.995 826.112 970.009 826.024 970.009 825.933" id="path5564" clip-rule="evenodd"/></clipPath><clipPath id="clipPath5570"><path d=" M 970 742 L 1035 742 L 1035 854 L 970 854 Z" id="path5568"/></clipPath><clipPath id="clipPath5534"><path d=" M 1046.01 748.859 C 1045.16 749.736 1044.7 750.888 1044.71 752.102 L 1044.89 769.068 C 1044.92 771.575 1046.95 773.597 1049.44 773.597 L 1049.49 773.597 L 1077.45 773.295 C 1078.65 773.282 1079.79 772.791 1080.64 771.914 C 1081.49 771.037 1081.96 769.883 1081.94 768.669 L 1081.76 751.705 C 1081.75 750.49 1081.26 749.347 1080.39 748.489 C 1079.52 747.63 1078.34 747.193 1077.17 747.176 L 1049.21 747.476 C 1048 747.49 1046.87 747.982 1046.01 748.859 Z M 1053.79 796.057 L 1061.55 803.874 C 1062.69 805.018 1064.19 805.8 1065.78 806.072 L 1070.42 806.879 C 1070.58 806.906 1070.73 806.954 1070.88 807.014 C 1070.9 807.019 1070.9 807.024 1070.91 807.03 C 1071.19 807.146 1071.44 807.314 1071.65 807.521 C 1071.65 807.524 1071.66 807.526 1071.66 807.529 L 1083.45 819.408 C 1084.78 820.744 1086.94 820.744 1088.27 819.408 C 1089.59 818.072 1089.59 815.898 1088.27 814.562 L 1074.72 800.922 C 1073.81 800.013 1073.81 798.535 1074.72 797.624 C 1075.17 797.168 1075.76 796.941 1076.36 796.941 C 1076.95 796.941 1077.54 797.168 1078 797.624 L 1091.55 811.264 C 1094.68 814.418 1094.68 819.551 1091.55 822.707 C 1091.17 823.083 1090.77 823.406 1090.34 823.693 L 1092.2 831.238 C 1092.21 831.265 1092.21 831.29 1092.21 831.315 C 1092.22 831.394 1092.23 831.473 1092.24 831.554 C 1092.25 831.635 1092.26 831.714 1092.26 831.795 C 1092.26 831.822 1092.26 831.846 1092.26 831.873 L 1091.92 842.398 C 1091.81 845.941 1094.58 848.919 1098.07 849.036 C 1098.55 849.041 1098.94 848.88 1099.25 848.571 C 1099.45 848.368 1099.69 848.017 1099.71 847.507 L 1100.39 826.243 L 1100.23 824.748 C 1100.22 824.691 1100.21 824.636 1100.21 824.58 L 1098.85 811.568 C 1098.47 807.911 1096.83 804.454 1094.23 801.835 L 1081.11 788.63 C 1078.36 785.862 1076.6 782.347 1076.03 778.459 L 1075.96 777.977 L 1051.2 778.245 L 1051.48 790.641 C 1051.52 792.681 1052.34 794.605 1053.78 796.057 L 1053.78 796.057 Z M 1077.22 742.511 C 1079.63 742.511 1081.9 743.448 1083.63 745.155 C 1085.39 746.885 1086.37 749.193 1086.4 751.655 L 1086.58 768.619 C 1086.6 771.08 1085.67 773.41 1083.95 775.177 C 1082.98 776.176 1081.82 776.917 1080.56 777.385 L 1080.62 777.778 C 1081.05 780.662 1082.35 783.272 1084.39 785.328 L 1097.51 798.533 C 1100.86 801.906 1102.98 806.363 1103.47 811.079 L 1104.86 824.371 C 1104.95 824.853 1105.01 825.353 1105.02 825.872 L 1105.02 825.909 C 1105.02 825.929 1105.02 825.95 1105.02 825.97 C 1105.02 826.056 1105.03 826.139 1105.03 826.227 L 1104.35 847.661 C 1104.29 849.249 1103.65 850.743 1102.53 851.868 C 1101.34 853.068 1099.68 853.748 1097.95 853.698 C 1091.89 853.498 1087.1 848.364 1087.29 842.252 L 1087.62 832.045 L 1085.91 825.069 C 1083.83 825.081 1081.76 824.298 1080.17 822.707 L 1068.9 811.35 L 1065 810.67 C 1062.47 810.239 1060.08 808.997 1058.27 807.172 L 1050.51 799.355 C 1048.22 797.053 1046.92 793.996 1046.85 790.745 L 1046.56 777.79 C 1042.94 776.581 1040.3 773.166 1040.26 769.117 L 1040.07 752.153 C 1040.05 749.691 1040.98 747.363 1042.7 745.595 C 1044.42 743.826 1046.71 742.839 1049.16 742.81 L 1077.11 742.511 L 1077.21 742.511 Z" id="path5532" clip-rule="evenodd"/></clipPath><clipPath id="clipPath5540"><path d=" M 0 0 L 2560 0 L 2560 8102 L 0 8102 Z" id="path5538"/></clipPath><clipPath id="clipPath5518"><path d=" M 1039.91 855.576 C 1034.02 855.576 1030.23 851.69 1029.21 844.616 L 1027.64 844.616 C 1027.36 844.616 1027.11 844.436 1027.02 844.167 L 1026.51 842.701 C 1026.43 842.496 1026.47 842.269 1026.59 842.093 C 1026.72 841.916 1026.92 841.81 1027.13 841.81 L 1028.97 841.81 C 1028.96 841.484 1028.94 841.114 1028.94 840.758 C 1028.94 840.475 1028.96 840.093 1028.97 839.741 L 1027.64 839.741 C 1027.36 839.741 1027.11 839.561 1027.02 839.292 L 1026.51 837.827 C 1026.43 837.623 1026.47 837.396 1026.59 837.219 C 1026.72 837.042 1026.92 836.937 1027.13 836.937 L 1029.24 836.937 C 1030.52 827.866 1035.72 825.94 1039.91 825.94 C 1043.32 825.94 1045.84 827.128 1047.06 828.24 C 1047.2 828.367 1047.28 828.547 1047.28 828.736 L 1047.28 830.642 C 1047.28 830.906 1047.12 831.147 1046.88 831.254 C 1046.64 831.362 1046.36 831.316 1046.17 831.138 C 1044.43 829.556 1042.49 828.819 1040.06 828.819 C 1035.88 828.819 1033.15 831.694 1032.34 836.937 L 1042.24 836.937 C 1042.53 836.937 1042.78 837.116 1042.87 837.385 L 1043.38 838.85 C 1043.45 839.055 1043.42 839.282 1043.3 839.458 C 1043.17 839.636 1042.97 839.741 1042.75 839.741 L 1032.01 839.741 C 1032 840.026 1031.98 840.376 1031.98 840.758 C 1031.98 841.057 1032 841.452 1032.02 841.81 L 1043.99 841.81 C 1044.27 841.81 1044.52 841.983 1044.61 842.244 L 1045.16 843.711 C 1045.24 843.917 1045.21 844.147 1045.08 844.328 C 1044.96 844.508 1044.76 844.616 1044.54 844.616 L 1032.3 844.616 C 1032.7 847.195 1034.25 852.623 1040.02 852.623 C 1043.15 852.623 1045.08 851.371 1046.15 850.321 C 1046.34 850.133 1046.63 850.079 1046.87 850.183 C 1047.12 850.288 1047.28 850.531 1047.28 850.8 L 1047.28 852.706 C 1047.28 852.898 1047.2 853.081 1047.05 853.208 C 1045.38 854.69 1042.71 855.576 1039.91 855.576" id="path5516" clip-rule="evenodd"/></clipPath><clipPath id="clipPath5524"><path d=" M 0 0 L 2560 0 L 2560 8102 L 0 8102 Z" id="path5522"/></clipPath><clipPath id="clipPath5502"><path d=" M 1043.33 872.522 L 1030.63 872.522 C 1029.88 872.522 1029.28 873.132 1029.28 873.883 C 1029.28 874.632 1029.88 875.242 1030.63 875.242 L 1043.33 875.242 C 1044.08 875.242 1044.69 874.632 1044.69 873.883 C 1044.69 873.132 1044.08 872.522 1043.33 872.522 M 1043.89 886.253 C 1044.64 886.253 1045.36 885.968 1045.85 885.468 C 1046.38 884.943 1046.66 884.244 1046.66 883.498 C 1046.66 882.752 1046.38 882.052 1045.85 881.524 L 1043.01 878.656 L 1030.96 878.656 L 1028.11 881.526 C 1027.59 882.052 1027.3 882.75 1027.3 883.494 C 1027.3 884.24 1027.59 884.942 1028.12 885.471 C 1028.61 885.967 1029.32 886.251 1030.07 886.251 C 1030.82 886.251 1031.54 885.966 1032.03 885.47 L 1035.78 881.695 C 1036.42 881.049 1037.54 881.052 1038.18 881.694 L 1041.94 885.473 C 1042.43 885.968 1043.14 886.253 1043.89 886.253 M 1054.39 815.284 L 1019.57 815.284 C 1016.81 815.284 1014.56 817.558 1014.56 820.352 L 1014.56 847.253 C 1014.56 857.604 1021.51 866.574 1031.47 869.109 L 1042.49 869.109 C 1052.45 866.574 1059.4 857.604 1059.4 847.253 L 1059.4 820.352 C 1059.4 817.558 1057.16 815.284 1054.39 815.284 M 1047.18 871.09 C 1047.76 871.891 1048.08 872.863 1048.08 873.884 C 1048.08 875.242 1047.51 876.499 1046.54 877.388 L 1048.25 879.111 C 1049.41 880.283 1050.05 881.841 1050.05 883.498 C 1050.05 885.155 1049.41 886.713 1048.25 887.883 C 1047.13 889.007 1045.55 889.653 1043.89 889.653 C 1042.24 889.653 1040.65 889.008 1039.54 887.885 L 1036.98 885.314 L 1034.43 887.882 C 1033.31 889.005 1031.73 889.649 1030.07 889.649 C 1028.42 889.649 1026.83 889.005 1025.71 887.882 C 1024.55 886.71 1023.91 885.153 1023.91 883.497 C 1023.91 881.839 1024.55 880.282 1025.71 879.11 L 1027.43 877.385 C 1026.45 876.496 1025.89 875.239 1025.89 873.881 C 1025.89 872.861 1026.21 871.889 1026.79 871.088 C 1017.39 867.034 1011.17 857.649 1011.17 847.253 L 1011.17 820.352 C 1011.17 815.675 1014.94 811.871 1019.57 811.871 L 1054.39 811.871 C 1059.03 811.871 1062.79 815.675 1062.79 820.352 L 1062.79 847.253 C 1062.79 857.648 1056.58 867.034 1047.18 871.09" id="path5500" clip-rule="evenodd"/></clipPath><clipPath id="clipPath5508"><path d=" M 0 0 L 2560 0 L 2560 8102 L 0 8102 Z" id="path5506"/></clipPath><clipPath id="clipPath5486"><path d=" M 1076.4 770.523 C 1078.59 770.523 1080.36 768.736 1080.36 766.532 C 1080.36 764.327 1078.59 762.539 1076.4 762.539 C 1074.21 762.539 1072.43 764.327 1072.43 766.532 C 1072.43 768.736 1074.21 770.523 1076.4 770.523" id="path5484" clip-rule="evenodd"/></clipPath><clipPath id="clipPath5492"><path d=" M 0 0 L 2560 0 L 2560 8102 L 0 8102 Z" id="path5490"/></clipPath><clipPath id="clipPath5780"><path d=" M 327.891 742 L 327.891 890 L 208 890 L 208 742 Z" id="path5778" clip-rule="evenodd"/></clipPath><clipPath id="clipPath5786"><path d=" M 0 0 L 2560 0 L 2560 8102 L 0 8102 Z" id="path5784"/></clipPath><clipPath id="clipPath5792"><path d=" M 208 742 L 328 742 L 328 890 L 208 890 Z" id="path5790"/></clipPath><clipPath id="clipPath5796"><path d=" M 322.441 761.813 C 322.441 753.911 316.049 747.482 308.194 747.482 L 227.698 747.482 C 219.842 747.482 213.449 753.911 213.449 761.813 L 213.449 815.372 C 213.449 823.274 219.842 829.704 227.698 829.704 L 308.194 829.704 C 316.049 829.704 322.441 823.274 322.441 815.372 Z M 311.542 834.875 L 311.542 850.259 C 311.542 872.172 291.984 890 267.945 890 C 243.907 890 224.349 872.172 224.349 850.259 C 224.349 848.744 225.567 847.518 227.074 847.518 C 228.58 847.518 229.798 848.744 229.798 850.259 C 229.798 869.151 246.91 884.518 267.945 884.518 C 288.981 884.518 306.093 869.151 306.093 850.259 L 306.093 835.185 L 227.698 835.185 C 216.836 835.185 208 826.297 208 815.372 L 208 761.813 C 208 750.888 216.836 742 227.698 742 L 308.194 742 C 319.055 742 327.891 750.888 327.891 761.813 L 327.891 815.372 C 327.891 825.146 320.809 833.269 311.542 834.875 Z" id="path5794" clip-rule="evenodd"/></clipPath><clipPath id="clipPath5800"><path d=" M 208 742 L 328 742 L 328 890 L 208 890 Z" id="path5798"/></clipPath><clipPath id="clipPath5804"><path d=" M 273.395 785.852 C 273.395 782.829 270.951 780.37 267.945 780.37 C 264.94 780.37 262.496 782.829 262.496 785.852 L 262.496 802.296 C 262.496 805.319 264.94 807.778 267.945 807.778 C 270.951 807.778 273.395 805.319 273.395 802.296 Z M 267.945 813.259 C 261.935 813.259 257.046 808.343 257.046 802.296 L 257.046 785.852 C 257.046 779.806 261.935 774.889 267.945 774.889 C 273.956 774.889 278.845 779.806 278.845 785.852 L 278.845 802.296 C 278.845 808.343 273.956 813.259 267.945 813.259 Z" id="path5802" clip-rule="evenodd"/></clipPath><clipPath id="clipPath5808"><path d=" M 208 742 L 328 742 L 328 890 L 208 890 Z" id="path5806"/></clipPath></defs><g id="g5774" transform="matrix(0.542156,0,0,-0.506757,-112.768,451.014)"><g id="g5776" clip-path="url(#clipPath5780)"><g id="g5782" clip-path="url(#clipPath5786)"><g id="g5788"></g><g id="g5830"><g id="g5828" clip-path="url(#clipPath5792)"><g id="g5810"></g><g id="g5818"><g id="g5816" clip-path="url(#clipPath5796)"><g id="g5814" clip-path="url(#clipPath5800)"><path d=" M 198 732 L 337.891 732 L 337.891 900 L 198 900 Z" id="path5812" stroke="none" fill="#65BB9F" fill-rule="nonzero" fill-opacity="1"/></g></g></g><g id="g5826"><g id="g5824" clip-path="url(#clipPath5804)"><g id="g5822" clip-path="url(#clipPath5808)"><path d=" M 247.046 764.889 L 288.845 764.889 L 288.845 823.259 L 247.046 823.259 Z" id="path5820" stroke="none" fill="#65BB9F" fill-rule="nonzero" fill-opacity="1"/></g></g></g></g></g></g></g></g><g id="g5480" transform="matrix(0.481381,0,0,-0.50971,-400.921,453.506)"><g id="g5482" clip-path="url(#clipPath5486)"><g id="g5488" clip-path="url(#clipPath5492)"><path d=" M 1062.43 752.539 L 1090.36 752.539 L 1090.36 780.523 L 1062.43 780.523 Z" id="path5494" stroke="none" fill="#65BB9F" fill-rule="nonzero" fill-opacity="1"/></g></g></g><g id="g5496" transform="matrix(0.481381,0,0,-0.50971,-400.921,453.506)"><g id="g5498" clip-path="url(#clipPath5502)"><g id="g5504" clip-path="url(#clipPath5508)"><path d=" M 1001.17 801.871 L 1072.79 801.871 L 1072.79 899.653 L 1001.17 899.653 Z" id="path5510" stroke="none" fill="#65BB9F" fill-rule="nonzero" fill-opacity="1"/></g></g></g><g id="g5512" transform="matrix(0.481381,0,0,-0.50971,-400.921,453.506)"><g id="g5514" clip-path="url(#clipPath5518)"><g id="g5520" clip-path="url(#clipPath5524)"><path d=" M 1016.47 815.94 L 1057.28 815.94 L 1057.28 865.576 L 1016.47 865.576 Z" id="path5526" stroke="none" fill="#65BB9F" fill-rule="nonzero" fill-opacity="1"/></g></g></g><g id="g5528" transform="matrix(0.481381,0,0,-0.50971,-400.921,453.506)"><g id="g5530" clip-path="url(#clipPath5534)"><g id="g5536" clip-path="url(#clipPath5540)"><path d=" M 1030.08 732.511 L 1115.03 732.511 L 1115.03 863.701 L 1030.08 863.701 Z" id="path5542" stroke="none" fill="#65BB9F" fill-rule="nonzero" fill-opacity="1"/></g></g></g><g id="g5544" transform="matrix(0.481381,0,0,-0.50971,-400.921,453.506)"><g id="g5546" clip-path="url(#clipPath5550)"><g id="g5552" clip-path="url(#clipPath5556)"><g id="g5558"></g><g id="g5584"><g id="g5582" clip-path="url(#clipPath5562)"><g id="g5572"></g><g id="g5580"><g id="g5578" clip-path="url(#clipPath5566)"><g id="g5576" clip-path="url(#clipPath5570)"><path d=" M 960 732.51 L 1044.95 732.51 L 1044.95 863.702 L 960 863.702 Z" id="path5574" stroke="none" fill="#65BB9F" fill-rule="nonzero" fill-opacity="1"/></g></g></g></g></g></g></g></g><g id="g5586" transform="matrix(0.481381,0,0,-0.50971,-400.921,453.506)"><g id="g5588" clip-path="url(#clipPath5592)"><g id="g5594" clip-path="url(#clipPath5598)"><path d=" M 984.664 752.539 L 1012.59 752.539 L 1012.59 780.523 L 984.664 780.523 Z" id="path5600" stroke="none" fill="#65BB9F" fill-rule="nonzero" fill-opacity="1"/></g></g></g><g id="g5646" transform="matrix(0.456599,0,0,-0.508126,-655.127,453.411)"><g id="g5648" clip-path="url(#clipPath5652)"><g id="g5654" clip-path="url(#clipPath5658)"><path d=" M 1784.91 788.519 L 1844.01 788.519 L 1844.01 847.878 L 1784.91 847.878 Z" id="path5660" stroke="none" fill="#65BB9F" fill-rule="nonzero" fill-opacity="1"/></g></g></g><g id="g5662" transform="matrix(0.456599,0,0,-0.508126,-655.127,453.411)"><g id="g5664" clip-path="url(#clipPath5668)"><g id="g5670" clip-path="url(#clipPath5674)"><path d=" M 1775.14 734.399 L 1879.23 734.399 L 1879.23 902 L 1775.14 902 Z" id="path5676" stroke="none" fill="#65BB9F" fill-rule="nonzero" fill-opacity="1"/></g></g></g><g id="g5678" transform="matrix(0.456599,0,0,-0.508126,-655.127,453.411)"><g id="g5680" clip-path="url(#clipPath5684)"><g id="g5686" clip-path="url(#clipPath5690)"><path d=" M 1755.59 842.64 L 1792.69 842.64 L 1792.69 867.559 L 1755.59 867.559 Z" id="path5692" stroke="none" fill="#65BB9F" fill-rule="nonzero" fill-opacity="1"/></g></g></g><g id="g5694" transform="matrix(0.456599,0,0,-0.508126,-655.127,453.411)"><g id="g5696" clip-path="url(#clipPath5700)"><g id="g5702" clip-path="url(#clipPath5706)"><path d=" M 1743.37 825.419 L 1792.69 825.419 L 1792.69 850.339 L 1743.37 850.339 Z" id="path5708" stroke="none" fill="#65BB9F" fill-rule="nonzero" fill-opacity="1"/></g></g></g><g id="g5710" transform="matrix(0.456599,0,0,-0.508126,-655.127,453.411)"><g id="g5712" clip-path="url(#clipPath5716)"><g id="g5718" clip-path="url(#clipPath5722)"><path d=" M 1731.15 808.199 L 1792.69 808.199 L 1792.69 833.119 L 1731.15 833.119 Z" id="path5724" stroke="none" fill="#65BB9F" fill-rule="nonzero" fill-opacity="1"/></g></g></g><g id="g5726" transform="matrix(0.456599,0,0,-0.508126,-657.181,453.411)"><g id="g5728" clip-path="url(#clipPath5732)"><g id="g5734" clip-path="url(#clipPath5738)"><path d=" M 1721.38 790.98 L 1792.69 790.98 L 1792.69 815.899 L 1721.38 815.899 Z" id="path5740" stroke="none" fill="#65BB9F" fill-rule="nonzero" fill-opacity="1"/></g></g></g><g id="g5742" transform="matrix(0.456599,0,0,-0.508126,-655.127,453.411)"><g id="g5744" clip-path="url(#clipPath5748)"><g id="g5750" clip-path="url(#clipPath5754)"><path d=" M 1736.04 773.759 L 1792.69 773.759 L 1792.69 798.679 L 1736.04 798.679 Z" id="path5756" stroke="none" fill="#65BB9F" fill-rule="nonzero" fill-opacity="1"/></g></g></g><g id="g5758" transform="matrix(0.456599,0,0,-0.508126,-655.127,453.411)"><g id="g5760" clip-path="url(#clipPath5764)"><g id="g5766" clip-path="url(#clipPath5770)"><path d=" M 1750.7 756.539 L 1792.69 756.539 L 1792.69 781.459 L 1750.7 781.459 Z" id="path5772" stroke="none" fill="#65BB9F" fill-rule="nonzero" fill-opacity="1"/></g></g></g></svg>