<svg version="1.1" width="18" height="32.3911" xmlns="http://www.w3.org/2000/svg" xmlns:xlink="http://www.w3.org/1999/xlink" id="svg11582" overflow="hidden"><defs id="defs11586"><clipPath id="clipPath1156"><path d=" M 0 0 L 2560 0 L 2560 6364 L 0 6364 Z" id="path1154"/></clipPath><clipPath id="clipPath1140"><path d=" M 2400.1 1653.05 L 2362.69 1616.06 C 2361.77 1615.15 2361.77 1613.69 2362.69 1612.78 C 2363.61 1611.87 2365.09 1611.87 2366.01 1612.78 L 2405.09 1651.42 C 2406.01 1652.32 2406.01 1653.78 2405.09 1654.69 L 2366.01 1693.31 C 2365.55 1693.76 2364.95 1694 2364.36 1694 C 2363.77 1694 2363.16 1693.78 2362.71 1693.31 C 2361.79 1692.4 2361.79 1690.94 2362.71 1690.04 Z" id="path1138" clip-rule="evenodd"/></clipPath><clipPath id="clipPath1146"><path d=" M 0 0 L 2560 0 L 2560 6364 L 0 6364 Z" id="path1144"/></clipPath></defs><g id="g1134" transform="matrix(0.377124,0,0,-0.377124,-890.023,639.604)"><g id="g1136" clip-path="url(#clipPath1140)"><g id="g1142" clip-path="url(#clipPath1146)"><path d=" M 2352 1602.1 L 2415.78 1602.1 L 2415.78 1704 L 2352 1704 Z" id="path1148" stroke="none" fill="#F8AC32" fill-rule="nonzero" fill-opacity="1"/></g></g></g><g id="g1150" transform="matrix(0.377124,0,0,-0.377124,-890.023,639.604)"><g id="g1152" clip-path="url(#clipPath1156)"><g id="g1158" transform="matrix(-2,0,0,2,2405.78,1612.1)"><path d=" M 2.83636 20.4748 L 21.5434 1.98006 C 22.0034 1.52531 22.0034 0.796063 21.5434 0.341062 C 21.0835 -0.113688 20.3456 -0.113688 19.8853 0.341062 L 0.344793 19.6593 C -0.114931 20.1143 -0.114931 20.8438 0.344793 21.2988 L 19.8853 40.6083 C 20.1112 40.8316 20.4149 40.9518 20.71 40.9518 C 21.0051 40.9518 21.309 40.8401 21.5348 40.6083 C 21.9948 40.1536 21.9948 39.4241 21.5348 38.9693 Z" id="path1160" stroke="#F8AC32" stroke-width="2" stroke-linecap="butt" stroke-linejoin="miter" stroke-miterlimit="10" stroke-dasharray="" stroke-opacity="1" fill="none"/></g></g></g></svg>