<svg version="1.1" width="54.6667" height="54.6667" xmlns="http://www.w3.org/2000/svg" xmlns:xlink="http://www.w3.org/1999/xlink" id="svg3368" overflow="hidden"><defs id="defs3372"><clipPath id="clipPath1476"><path d=" M 971.365 1630.64 L 967.799 1630.64 L 967.799 1633.24 C 967.799 1634.04 968.625 1634.22 969.01 1634.22 L 971.314 1634.22 L 971.314 1637.74 L 968.673 1637.75 C 965.071 1637.75 964.249 1635.13 964.249 1633.45 L 964.249 1630.64 L 961.635 1630.64 L 961.635 1627.02 L 964.249 1627.02 L 964.249 1617.25 L 967.799 1617.25 L 967.799 1627.02 L 970.814 1627.02 Z" id="path1474" clip-rule="evenodd"/></clipPath><clipPath id="clipPath1482"><path d=" M 0 0 L 1280 0 L 1280 2512 L 0 2512 Z" id="path1480"/></clipPath><clipPath id="clipPath1460"><path d=" M 966.5 1610.2 C 956.947 1610.2 949.203 1617.95 949.203 1627.5 C 949.203 1637.05 956.947 1644.8 966.5 1644.8 C 976.053 1644.8 983.797 1637.05 983.797 1627.5 C 983.797 1617.95 976.053 1610.2 966.5 1610.2 M 966.5 1648 C 955.178 1648 946 1638.82 946 1627.5 C 946 1616.18 955.178 1607 966.5 1607 C 977.822 1607 987 1616.18 987 1627.5 C 987 1638.82 977.822 1648 966.5 1648" id="path1458" clip-rule="evenodd"/></clipPath><clipPath id="clipPath1466"><path d=" M 0 0 L 1280 0 L 1280 2512 L 0 2512 Z" id="path1464"/></clipPath></defs><g id="g1454" transform="matrix(1.33333,0,0,-1.33333,-1261.33,2197.33)"><g id="g1456" clip-path="url(#clipPath1460)"><g id="g1462" clip-path="url(#clipPath1466)"><path d=" M 941 1602 L 992 1602 L 992 1653 L 941 1653 Z" id="path1468" stroke="none" fill="#044651" fill-rule="nonzero" fill-opacity="1"/></g></g></g><g id="g1470" transform="matrix(1.33333,0,0,-1.33333,-1261.33,2197.33)"><g id="g1472" clip-path="url(#clipPath1476)"><g id="g1478" clip-path="url(#clipPath1482)"><path d=" M 956.635 1612.25 L 976.365 1612.25 L 976.365 1642.75 L 956.635 1642.75 Z" id="path1484" stroke="none" fill="#044651" fill-rule="nonzero" fill-opacity="1"/></g></g></g></svg>