<svg version="1.1" width="54.6667" height="54.6667" xmlns="http://www.w3.org/2000/svg" xmlns:xlink="http://www.w3.org/1999/xlink" id="svg3416" overflow="hidden"><defs id="defs3420"><clipPath id="clipPath1524"><path d=" M 1084.5 1607 L 1105 1607 L 1105 1648 L 1084.5 1648 L 1064 1648 L 1064 1607 Z" id="path1522" clip-rule="evenodd"/></clipPath><clipPath id="clipPath1530"><path d=" M 0 0 L 1280 0 L 1280 2512 L 0 2512 Z" id="path1528"/></clipPath><clipPath id="clipPath1536"><path d=" M 1064 1607 L 1105 1607 L 1105 1648 L 1064 1648 Z" id="path1534"/></clipPath><clipPath id="clipPath1540"><path d=" M 1084.5 1610.2 C 1074.95 1610.2 1067.2 1617.95 1067.2 1627.5 C 1067.2 1637.05 1074.95 1644.8 1084.5 1644.8 C 1094.05 1644.8 1101.8 1637.05 1101.8 1627.5 C 1101.8 1617.95 1094.05 1610.2 1084.5 1610.2 M 1084.5 1648 C 1073.18 1648 1064 1638.82 1064 1627.5 C 1064 1616.18 1073.18 1607 1084.5 1607 C 1095.82 1607 1105 1616.18 1105 1627.5 C 1105 1638.82 1095.82 1648 1084.5 1648" id="path1538" clip-rule="evenodd"/></clipPath><clipPath id="clipPath1544"><path d=" M 1064 1607 L 1106 1607 L 1106 1648 L 1064 1648 Z" id="path1542"/></clipPath><clipPath id="clipPath1566"><path d=" M 1081.83 1628.89 C 1079.57 1628.89 1078.64 1631.85 1078.64 1633.44 C 1078.64 1634.25 1078.82 1634.87 1079.2 1635.33 C 1079.61 1635.85 1080.31 1636.18 1080.99 1636.18 C 1083.06 1636.18 1084.2 1633.4 1084.2 1631.47 C 1084.2 1631.17 1084.2 1630.25 1083.56 1629.6 C 1083.14 1629.18 1082.44 1628.89 1081.83 1628.89 M 1081.85 1618.6 C 1079.17 1618.6 1077.36 1619.86 1077.36 1621.73 C 1077.36 1622.95 1078.1 1623.83 1079.56 1624.36 C 1080.72 1624.75 1082.22 1624.77 1082.24 1624.77 C 1082.49 1624.77 1082.62 1624.77 1082.82 1624.74 C 1084.7 1623.41 1085.61 1622.7 1085.61 1621.37 C 1085.61 1619.66 1084.17 1618.6 1081.85 1618.6 M 1087.53 1637.15 L 1082.85 1637.15 C 1080.77 1637.15 1079.32 1636.69 1078.02 1635.62 C 1077 1634.73 1076.39 1633.45 1076.39 1632.19 C 1076.39 1630.24 1077.88 1628.17 1080.63 1628.17 C 1080.89 1628.17 1081.19 1628.2 1081.44 1628.22 L 1081.41 1628.13 C 1081.3 1627.87 1081.19 1627.62 1081.19 1627.23 C 1081.19 1626.47 1081.56 1626 1081.91 1625.55 L 1081.96 1625.49 L 1081.88 1625.48 C 1080.74 1625.4 1078.63 1625.26 1077.08 1624.31 C 1075.26 1623.22 1075.12 1621.64 1075.12 1621.19 C 1075.12 1619.36 1076.81 1617.53 1080.6 1617.53 C 1085.01 1617.53 1087.32 1619.96 1087.32 1622.36 C 1087.32 1624.14 1086.28 1625.02 1085.17 1625.95 L 1084.24 1626.67 C 1083.95 1626.91 1083.59 1627.21 1083.59 1627.76 C 1083.59 1628.3 1083.95 1628.66 1084.27 1628.97 L 1084.3 1629.01 C 1085.31 1629.8 1086.45 1630.7 1086.45 1632.65 C 1086.45 1634.6 1085.23 1635.61 1084.64 1636.1 L 1086.19 1636.1 C 1086.21 1636.1 1086.23 1636.11 1086.24 1636.11 L 1087.58 1636.95 C 1087.62 1636.98 1087.64 1637.03 1087.62 1637.07 C 1087.61 1637.11 1087.57 1637.14 1087.53 1637.14" id="path1564" clip-rule="evenodd"/></clipPath><clipPath id="clipPath1572"><path d=" M 0 0 L 1280 0 L 1280 2512 L 0 2512 Z" id="path1570"/></clipPath><clipPath id="clipPath1582"><path d=" M 1091.62 1627.98 L 1091.62 1630.44 C 1091.62 1630.5 1091.57 1630.54 1091.52 1630.54 L 1090.46 1630.54 C 1090.4 1630.54 1090.36 1630.5 1090.36 1630.44 L 1090.36 1627.98 L 1087.9 1627.98 C 1087.85 1627.98 1087.8 1627.94 1087.8 1627.88 L 1087.8 1626.81 C 1087.8 1626.75 1087.85 1626.71 1087.9 1626.71 L 1090.36 1626.71 L 1090.36 1624.24 C 1090.36 1624.18 1090.4 1624.13 1090.46 1624.13 L 1091.52 1624.13 C 1091.57 1624.13 1091.62 1624.18 1091.62 1624.24 L 1091.62 1626.71 L 1094.08 1626.71 C 1094.14 1626.71 1094.19 1626.75 1094.19 1626.81 L 1094.19 1627.88 C 1094.19 1627.94 1094.14 1627.98 1094.08 1627.98 Z" id="path1580" clip-rule="evenodd"/></clipPath><clipPath id="clipPath1588"><path d=" M 0 0 L 1280 0 L 1280 2512 L 0 2512 Z" id="path1586"/></clipPath></defs><g id="g1518" transform="matrix(1.33333,0,0,-1.33333,-1418.67,2197.33)"><g id="g1520" clip-path="url(#clipPath1524)"><g id="g1526" clip-path="url(#clipPath1530)"><g id="g1532"></g><g id="g1558"><g id="g1556" clip-path="url(#clipPath1536)"><g id="g1546"></g><g id="g1554"><g id="g1552" clip-path="url(#clipPath1540)"><g id="g1550" clip-path="url(#clipPath1544)"><path d=" M 1059 1602 L 1110 1602 L 1110 1653 L 1059 1653 Z" id="path1548" stroke="none" fill="#044651" fill-rule="nonzero" fill-opacity="1"/></g></g></g></g></g></g></g></g><g id="g1560" transform="matrix(1.33333,0,0,-1.33333,-1418.67,2197.33)"><g id="g1562" clip-path="url(#clipPath1566)"><g id="g1568" clip-path="url(#clipPath1572)"><path d=" M 1070.12 1612.53 L 1092.63 1612.53 L 1092.63 1642.15 L 1070.12 1642.15 Z" id="path1574" stroke="none" fill="#044651" fill-rule="nonzero" fill-opacity="1"/></g></g></g><g id="g1576" transform="matrix(1.33333,0,0,-1.33333,-1418.67,2197.33)"><g id="g1578" clip-path="url(#clipPath1582)"><g id="g1584" clip-path="url(#clipPath1588)"><path d=" M 1082.8 1619.13 L 1099.18 1619.13 L 1099.18 1635.54 L 1082.8 1635.54 Z" id="path1590" stroke="none" fill="#044651" fill-rule="nonzero" fill-opacity="1"/></g></g></g></svg>