<svg version="1.1" width="54.6667" height="54.6667" xmlns="http://www.w3.org/2000/svg" xmlns:xlink="http://www.w3.org/1999/xlink" id="svg3392" overflow="hidden"><defs id="defs3396"><clipPath id="clipPath1492"><path d=" M 1025.5 1610.2 C 1015.95 1610.2 1008.2 1617.95 1008.2 1627.5 C 1008.2 1637.05 1015.95 1644.8 1025.5 1644.8 C 1035.05 1644.8 1042.8 1637.05 1042.8 1627.5 C 1042.8 1617.95 1035.05 1610.2 1025.5 1610.2 M 1025.5 1648 C 1014.18 1648 1005 1638.82 1005 1627.5 C 1005 1616.18 1014.18 1607 1025.5 1607 C 1036.82 1607 1046 1616.18 1046 1627.5 C 1046 1638.82 1036.82 1648 1025.5 1648" id="path1490" clip-rule="evenodd"/></clipPath><clipPath id="clipPath1498"><path d=" M 0 0 L 1280 0 L 1280 2512 L 0 2512 Z" id="path1496"/></clipPath><clipPath id="clipPath1508"><path d=" M 1036.46 1633.97 C 1035.63 1633.6 1034.73 1633.35 1033.79 1633.23 C 1034.75 1633.81 1035.49 1634.72 1035.84 1635.81 C 1034.94 1635.27 1033.94 1634.89 1032.88 1634.68 C 1032.04 1635.58 1030.83 1636.15 1029.49 1636.15 C 1026.92 1636.15 1024.84 1634.06 1024.84 1631.5 C 1024.84 1631.13 1024.88 1630.78 1024.96 1630.44 C 1021.1 1630.63 1017.67 1632.48 1015.38 1635.3 C 1014.98 1634.61 1014.75 1633.81 1014.75 1632.96 C 1014.75 1631.34 1015.57 1629.92 1016.82 1629.09 C 1016.05 1629.11 1015.34 1629.32 1014.71 1629.67 C 1014.71 1629.65 1014.71 1629.63 1014.71 1629.61 C 1014.71 1627.36 1016.31 1625.48 1018.44 1625.05 C 1018.05 1624.95 1017.64 1624.89 1017.22 1624.89 C 1016.91 1624.89 1016.62 1624.92 1016.34 1624.97 C 1016.93 1623.13 1018.65 1621.78 1020.68 1621.74 C 1019.09 1620.5 1017.09 1619.75 1014.91 1619.75 C 1014.53 1619.75 1014.16 1619.78 1013.8 1619.82 C 1015.86 1618.5 1018.3 1617.73 1020.93 1617.73 C 1029.48 1617.73 1034.16 1624.81 1034.16 1630.96 C 1034.16 1631.16 1034.16 1631.36 1034.14 1631.56 C 1035.05 1632.21 1035.84 1633.03 1036.46 1633.97" id="path1506" clip-rule="evenodd"/></clipPath><clipPath id="clipPath1514"><path d=" M 0 0 L 1280 0 L 1280 2512 L 0 2512 Z" id="path1512"/></clipPath></defs><g id="g1486" transform="matrix(1.33333,0,0,-1.33333,-1340,2197.33)"><g id="g1488" clip-path="url(#clipPath1492)"><g id="g1494" clip-path="url(#clipPath1498)"><path d=" M 1000 1602 L 1051 1602 L 1051 1653 L 1000 1653 Z" id="path1500" stroke="none" fill="#044651" fill-rule="nonzero" fill-opacity="1"/></g></g></g><g id="g1502" transform="matrix(1.33333,0,0,-1.33333,-1340,2197.33)"><g id="g1504" clip-path="url(#clipPath1508)"><g id="g1510" clip-path="url(#clipPath1514)"><path d=" M 1008.8 1612.73 L 1041.46 1612.73 L 1041.46 1641.15 L 1008.8 1641.15 Z" id="path1516" stroke="none" fill="#044651" fill-rule="nonzero" fill-opacity="1"/></g></g></g></svg>